<svg xmlns="http://www.w3.org/2000/svg" width="66.832" height="75" viewBox="0 0 66.832 75">
  <g id="admin" transform="translate(-27.5)">
    <path id="Path_818" data-name="Path 818" d="M94.332,40.126V26.706l-8.112-1.931a26.642,26.642,0,0,0-1.3-3.138l4.372-7.1L79.8,5.043,72.7,9.414a26.631,26.631,0,0,0-3.138-1.3L67.626,0H54.206L52.274,8.112a26.631,26.631,0,0,0-3.138,1.3l-7.1-4.372-9.49,9.49,4.372,7.1a26.644,26.644,0,0,0-1.3,3.138L27.5,26.706v13.42l8.112,1.932a26.644,26.644,0,0,0,1.3,3.138l-4.392,7.137,6.58,6.3a20.576,20.576,0,0,0-1.057,6.517V75h46.04V65.152a20.576,20.576,0,0,0-.989-6.3l6.161-6.6L84.918,45.2a26.642,26.642,0,0,0,1.3-3.138Zm-14.7,30.419H42.5V65.152A16.143,16.143,0,0,1,58.643,49.01h4.844A16.142,16.142,0,0,1,79.629,65.152ZM61.064,44.369a10.3,10.3,0,1,1,10.3-10.3A10.315,10.315,0,0,1,61.064,44.369ZM83.683,51.69l-2.591,2.776c-.085-.14-.169-.28-.257-.417A20.514,20.514,0,0,0,70.18,45.665a14.759,14.759,0,1,0-18.232,0,20.513,20.513,0,0,0-10.655,8.384c-.069.107-.133.217-.2.325L38.2,51.6l3.852-6.26L39.14,38.318l-7.185-1.711V30.225l7.185-1.711,2.914-7.027-3.873-6.293,4.513-4.513,6.294,3.873,7.027-2.914,1.711-7.185h6.382l1.711,7.185,7.027,2.914,6.293-3.873,4.513,4.513-3.873,6.293,2.914,7.027,7.185,1.711v6.382l-7.185,1.711-2.914,7.027Z" transform="translate(0)" fill="#fff"/>
  </g>
</svg>
