<svg id="experience" xmlns="http://www.w3.org/2000/svg" width="63" height="63" viewBox="0 0 63 63">
  <g id="Group_60" data-name="Group 60" transform="translate(13.592 22.345)">
    <g id="Group_59" data-name="Group 59">
      <path id="Path_119" data-name="Path 119" d="M129.715,181.6h-4.4l-5.2,7.8-5.227-7.8h-4.43l7.472,10.631L110.7,202.567h4.43l4.991-7.5,4.961,7.5h4.4l-7.235-10.336Z" transform="translate(-110.461 -181.6)" fill="#fff"/>
    </g>
  </g>
  <g id="Group_62" data-name="Group 62">
    <g id="Group_61" data-name="Group 61">
      <path id="Path_120" data-name="Path 120" d="M0,0V63H63V0ZM59.309,59.309H3.691V3.691H59.309Z" fill="#fff"/>
    </g>
  </g>
  <g id="Group_64" data-name="Group 64" transform="translate(32.728 21.755)">
    <g id="Group_63" data-name="Group 63">
      <path id="Path_121" data-name="Path 121" d="M282.074,193.81V176.8h-3.957v8.8a6,6,0,0,0-5.227-2.983c-3.669,0-6.91,3.189-6.91,8,0,4.246,2.81,8.033,7.353,8.033a6.185,6.185,0,0,0,5.374-2.983s-.259,2.894,2.6,2.894a9,9,0,0,0,1.683-.207v-3.367C282.655,194.972,282.074,194.223,282.074,193.81Zm-3.957-1.122a4.245,4.245,0,0,1-3.75,2.6,4.436,4.436,0,0,1-4.282-4.577c0-2.052,1.351-4.725,4.046-4.725,2.411,0,3.829,2.579,3.987,3.012Z" transform="translate(-265.98 -176.8)" fill="#fff"/>
    </g>
  </g>
</svg>
