<svg xmlns="http://www.w3.org/2000/svg" width="652.651" height="375" viewBox="0 0 652.651 375">
  <g id="undraw_progressive_app_m-9-ms" transform="translate(0 0)">
    <circle id="Ellipse_235" data-name="Ellipse 235" cx="33.942" cy="33.942" r="33.942" transform="translate(107.47 264.987)" fill="#f2f2f2"/>
    <circle id="Ellipse_236" data-name="Ellipse 236" cx="33.942" cy="33.942" r="33.942" transform="translate(112.989 260.02)" fill="#c12a21"/>
    <rect id="Rectangle_212" data-name="Rectangle 212" width="419.949" height="1.146" transform="translate(174.265 256.405)" fill="#3f3d56"/>
    <path id="Path_700" data-name="Path 700" d="M433.622,139.091H284.567v-3.072H216.979v3.072H67.309a10.082,10.082,0,0,0-10.082,10.082v204.1a10.083,10.083,0,0,0,10.082,10.083H433.622A10.082,10.082,0,0,0,443.7,353.276v-204.1a10.082,10.082,0,0,0-10.082-10.082Z" transform="translate(-41.865 -128.405)" fill="#3f3d56"/>
    <rect id="Rectangle_213" data-name="Rectangle 213" width="359.444" height="202.763" transform="translate(28.878 28.505)" fill="#c12a21"/>
    <circle id="Ellipse_237" data-name="Ellipse 237" cx="3.687" cy="3.687" r="3.687" transform="translate(204.606 15.601)" fill="#c12a21"/>
    <path id="Path_701" data-name="Path 701" d="M307.055,252.517H50.406V49.754Z" transform="translate(-21.527 -21.249)" opacity="0.1"/>
    <circle id="Ellipse_238" data-name="Ellipse 238" cx="34.551" cy="34.551" r="34.551" transform="translate(50.57 146.993)" fill="#f2f2f2"/>
    <rect id="Rectangle_214" data-name="Rectangle 214" width="33.576" height="7.016" transform="translate(292.161 137.856)" fill="#3f3d56"/>
    <rect id="Rectangle_215" data-name="Rectangle 215" width="114.759" height="3.007" transform="translate(251.569 83.233)" fill="#3f3d56"/>
    <rect id="Rectangle_216" data-name="Rectangle 216" width="114.759" height="3.007" transform="translate(251.569 92.754)" fill="#3f3d56"/>
    <rect id="Rectangle_217" data-name="Rectangle 217" width="114.759" height="3.007" transform="translate(251.569 102.276)" fill="#3f3d56"/>
    <rect id="Rectangle_218" data-name="Rectangle 218" width="114.759" height="3.007" transform="translate(251.569 111.797)" fill="#3f3d56"/>
    <rect id="Rectangle_219" data-name="Rectangle 219" width="114.759" height="3.007" transform="translate(251.569 121.319)" fill="#3f3d56"/>
    <rect id="Rectangle_220" data-name="Rectangle 220" width="14.032" height="14.032" transform="translate(352.297 32.618)" fill="#f2f2f2"/>
    <path id="Path_702" data-name="Path 702" d="M668.494,202.824H651.455V185.785h17.039Zm-16.3-.741h15.557V186.526H652.2Z" transform="translate(-295.65 -149.659)" fill="#3f3d56"/>
    <path id="Path_703" data-name="Path 703" d="M442.347,517.7h-35.08v-2.527a.5.5,0,0,0-.5-.5H394.739a.5.5,0,0,0-.5.5V517.7h-7.517v-2.527a.5.5,0,0,0-.5-.5H374.192a.5.5,0,0,0-.5.5V517.7h-7.517v-2.527a.5.5,0,0,0-.5-.5H353.646a.5.5,0,0,0-.5.5V517.7h-7.517v-2.527a.5.5,0,0,0-.5-.5H333.1a.5.5,0,0,0-.5.5V517.7h-7.517v-2.527a.5.5,0,0,0-.5-.5H312.553a.5.5,0,0,0-.5.5V517.7h-7.517v-2.527a.5.5,0,0,0-.5-.5H292.007a.5.5,0,0,0-.5.5V517.7h-7.517v-2.527a.5.5,0,0,0-.5-.5H189.274a.5.5,0,0,0-.5.5V517.7h-7.517v-2.527a.5.5,0,0,0-.5-.5H168.728a.5.5,0,0,0-.5.5V517.7H160.71v-2.527a.5.5,0,0,0-.5-.5H148.181a.5.5,0,0,0-.5.5V517.7h-7.517v-2.527a.5.5,0,0,0-.5-.5H127.634a.5.5,0,0,0-.5.5V517.7h-7.517v-2.527a.5.5,0,0,0-.5-.5H107.088a.5.5,0,0,0-.5.5V517.7H99.07v-2.527a.5.5,0,0,0-.5-.5H86.541a.5.5,0,0,0-.5.5V517.7H78.523v-2.527a.5.5,0,0,0-.5-.5H66a.5.5,0,0,0-.5.5V517.7H42.442a12.027,12.027,0,0,0-12.027,12.027v5.438a12.027,12.027,0,0,0,12.027,12.027H442.347a12.027,12.027,0,0,0,12.027-12.027v-5.438A12.027,12.027,0,0,0,442.347,517.7Z" transform="translate(-30.415 -290.121)" fill="#3f3d56"/>
    <path id="Path_704" data-name="Path 704" d="M161.128,412.355a43.542,43.542,0,1,1,43.542-43.542,43.542,43.542,0,0,1-43.542,43.542Zm0-85.938a42.4,42.4,0,1,0,42.4,42.4A42.4,42.4,0,0,0,161.128,326.418Z" transform="translate(-67.644 -209.231)" fill="#3f3d56"/>
    <rect id="Rectangle_221" data-name="Rectangle 221" width="146.094" height="1.146" transform="translate(335.828 18.644)" fill="#3f3d56"/>
    <rect id="Rectangle_222" data-name="Rectangle 222" width="419.949" height="1.146" transform="translate(232.703 321.145)" fill="#3f3d56"/>
    <rect id="Rectangle_223" data-name="Rectangle 223" width="146.094" height="1.146" transform="translate(110.385 373.853)" fill="#3f3d56"/>
    <rect id="Rectangle_224" data-name="Rectangle 224" width="16" height="16" transform="translate(269.651 315)" fill="#c12a21"/>
    <path id="Path_705" data-name="Path 705" d="M531.894,670.207H512.415V650.728h19.479Zm-18.632-.847h17.785V651.575H513.262Z" transform="translate(-236.268 -348.228)" fill="#3f3d56"/>
    <rect id="Rectangle_225" data-name="Rectangle 225" width="16" height="16" transform="translate(455.651 13)" fill="#c12a21"/>
    <path id="Path_706" data-name="Path 706" d="M856.894,142.207H837.415V122.728h19.479Zm-18.632-.847h17.785V123.575H838.262Z" transform="translate(-375.07 -122.728)" fill="#3f3d56"/>
    <rect id="Rectangle_226" data-name="Rectangle 226" width="16" height="16" transform="translate(617.651 315)" fill="#c12a21"/>
    <path id="Path_707" data-name="Path 707" d="M1138.889,670.207H1119.41V650.728h19.479Zm-18.632-.847h17.785V651.575h-17.785Z" transform="translate(-495.505 -348.228)" fill="#3f3d56"/>
    <path id="Path_708" data-name="Path 708" d="M995.4,310.751h-1.363V273.418a21.607,21.607,0,0,0-21.607-21.607h-79.1a21.607,21.607,0,0,0-21.607,21.607V478.225a21.607,21.607,0,0,0,21.607,21.607h79.093a21.607,21.607,0,0,0,21.607-21.607v-140.9H995.4Z" transform="translate(-389.724 -177.857)" fill="#3f3d56"/>
    <path id="Path_709" data-name="Path 709" d="M993.88,279.715V484.224a16.137,16.137,0,0,1-16.136,16.139H898.269a16.136,16.136,0,0,1-16.133-16.136V279.715a16.135,16.135,0,0,1,16.132-16.133h9.644a7.665,7.665,0,0,0,7.1,10.559h45.312a7.665,7.665,0,0,0,7.1-10.559h10.324a16.135,16.135,0,0,1,16.136,16.134Z" transform="translate(-394.169 -182.885)" fill="#c12a21"/>
    <rect id="Rectangle_227" data-name="Rectangle 227" width="23.675" height="7.016" transform="translate(532 215.542)" fill="#3f3d56"/>
    <rect id="Rectangle_228" data-name="Rectangle 228" width="80.919" height="3.007" transform="translate(503.378 160.918)" fill="#3f3d56"/>
    <rect id="Rectangle_229" data-name="Rectangle 229" width="80.919" height="3.007" transform="translate(503.378 170.439)" fill="#3f3d56"/>
    <rect id="Rectangle_230" data-name="Rectangle 230" width="80.919" height="3.007" transform="translate(503.378 179.961)" fill="#3f3d56"/>
    <rect id="Rectangle_231" data-name="Rectangle 231" width="80.919" height="3.007" transform="translate(503.378 189.483)" fill="#3f3d56"/>
    <rect id="Rectangle_232" data-name="Rectangle 232" width="80.919" height="3.007" transform="translate(503.378 199.004)" fill="#3f3d56"/>
    <rect id="Rectangle_233" data-name="Rectangle 233" width="14.032" height="14.032" transform="translate(532.633 120.988)" fill="#f2f2f2"/>
    <path id="Path_710" data-name="Path 710" d="M969.474,340.032v17.039h17.039V340.032Zm16.3,16.3h-15.56v-15.56h15.56Z" transform="translate(-431.47 -215.535)" fill="#3f3d56"/>
    <path id="Path_711" data-name="Path 711" d="M993.88,544.773v21.84a16.137,16.137,0,0,1-16.136,16.139H898.269a16.135,16.135,0,0,1-16.133-16.136V456.492l66.957,52.9,1.146.905,12.455,9.837,1.163.922Z" transform="translate(-394.169 -265.273)" opacity="0.1"/>
    <circle id="Ellipse_239" data-name="Ellipse 239" cx="25.133" cy="25.133" r="25.133" transform="translate(511.83 260.585)" fill="#f2f2f2"/>
    <path id="Path_712" data-name="Path 712" d="M313.43,702.96a49.844,49.844,0,1,1,49.844-49.844A49.844,49.844,0,0,1,313.43,702.96Zm0-98.542a48.7,48.7,0,1,0,48.7,48.7A48.7,48.7,0,0,0,313.43,604.418Z" transform="translate(-129.998 -327.96)" fill="#3f3d56"/>
    <path id="Path_713" data-name="Path 713" d="M957.1,608.293a31.51,31.51,0,1,1,31.51-31.51A31.511,31.511,0,0,1,957.1,608.293Zm0-61.875a30.365,30.365,0,1,0,30.365,30.365A30.365,30.365,0,0,0,957.1,546.418Z" transform="translate(-412.726 -303.189)" fill="#3f3d56"/>
  </g>
</svg>
