<svg xmlns="http://www.w3.org/2000/svg" width="414" height="360.599" viewBox="0 0 414 360.599">
  <g id="undraw_developer_activity_re_39tg" transform="translate(0 0)">
    <path id="Path_334" data-name="Path 334" d="M548.009,267.247a172.412,172.412,0,0,1-48.115,119.692q-2.8,2.928-5.744,5.714-4.49,4.271-9.282,8.211a172.277,172.277,0,0,1-105.907,39.276q-1.935.044-3.884.044c-30.875,0-69.708-16.491-104.948-39.32q-4.373-2.833-8.669-5.8-2.008-1.373-4-2.784a355.535,355.535,0,0,1-38.609-31.541,250.23,250.23,0,0,1-22.269-23.812c-27.078-33.4-33.05-63.5,5.554-69.683q6.856-1.1,13.308-2.341,9.346-1.8,17.888-3.879,11.507-2.8,21.622-6.065,3.4-1.1,6.649-2.234c32-11.239,53.416-25.9,67.994-41.8q3.709-4.038,6.839-8.173a114.9,114.9,0,0,0,8.679-13.2,124.072,124.072,0,0,0,8.961-19.981l.131-.38c11.6-33.459,8.07-64.494,20.867-74.882,54.7-44.406,122.8,18.832,154.767,93.407q2.417,5.637,4.546,11.341.957,2.548,1.845,5.106,2.336,6.666,4.24,13.366.73,2.555,1.392,5.106c.472,1.835.925,3.665,1.343,5.5A174.316,174.316,0,0,1,548.009,267.247Z" transform="translate(-174.731 -79.585)" fill="#f2f2f2"/>
    <path id="Path_335" data-name="Path 335" d="M470.41,746.037q-1.935.044-3.884.044c-30.875,0-69.707-16.491-104.948-39.32q-4.373-2.833-8.669-5.8l2.512-15.284,76.035-10.1,38.161,29.181Z" transform="translate(-266.181 -385.482)" fill="#2f2e41"/>
    <path id="Path_336" data-name="Path 336" d="M589.07,259.635H578.235a1.266,1.266,0,0,0-1.266,1.265v10.84A1.262,1.262,0,0,0,578.235,273H589.07a1.265,1.265,0,0,0,1.266-1.261V260.9A1.269,1.269,0,0,0,589.07,259.635Z" transform="translate(-381.18 -171.996)" fill="#fff"/>
    <path id="Path_337" data-name="Path 337" d="M589.07,297.585H578.234a1.266,1.266,0,0,0-1.265,1.266v10.84a1.262,1.262,0,0,0,1.265,1.261H589.07a1.265,1.265,0,0,0,1.266-1.261v-10.84A1.269,1.269,0,0,0,589.07,297.585Z" transform="translate(-381.18 -191.473)" fill="#e6e6e6"/>
    <path id="Path_338" data-name="Path 338" d="M589.07,335.535H578.234a1.266,1.266,0,0,0-1.265,1.266v10.835a1.263,1.263,0,0,0,1.265,1.265H589.07a1.266,1.266,0,0,0,1.266-1.265V336.8A1.269,1.269,0,0,0,589.07,335.535Z" transform="translate(-381.18 -210.951)" fill="#e6e6e6"/>
    <path id="Path_339" data-name="Path 339" d="M590.316,374.527a1.274,1.274,0,0,0-1.246-1.042H578.234a1.266,1.266,0,0,0-1.266,1.266v10.835a1.263,1.263,0,0,0,1.266,1.266H589.07a1.266,1.266,0,0,0,1.266-1.266V374.75a1.116,1.116,0,0,0-.02-.224Z" transform="translate(-381.18 -230.429)" fill="#e6e6e6"/>
    <path id="Path_340" data-name="Path 340" d="M589.561,411.532a1.283,1.283,0,0,0-.492-.1H578.234a1.263,1.263,0,0,0-1.265,1.266v10.835a1.26,1.26,0,0,0,1.265,1.266H589.07a1.266,1.266,0,0,0,1.266-1.266V412.7A1.273,1.273,0,0,0,589.561,411.532Z" transform="translate(-381.18 -249.907)" fill="#e6e6e6"/>
    <path id="Path_341" data-name="Path 341" d="M635.83,259.635H624.995a1.266,1.266,0,0,0-1.265,1.265v10.84A1.262,1.262,0,0,0,624.995,273H635.83a1.265,1.265,0,0,0,1.266-1.261V260.9A1.269,1.269,0,0,0,635.83,259.635Z" transform="translate(-405.179 -171.996)" fill="#e6e6e6"/>
    <path id="Path_342" data-name="Path 342" d="M635.83,297.585H624.995a1.266,1.266,0,0,0-1.265,1.266v10.84a1.262,1.262,0,0,0,1.265,1.261H635.83a1.265,1.265,0,0,0,1.266-1.261v-10.84A1.269,1.269,0,0,0,635.83,297.585Z" transform="translate(-405.179 -191.473)" fill="#c12a21"/>
    <path id="Path_343" data-name="Path 343" d="M635.83,335.535H624.995a1.266,1.266,0,0,0-1.265,1.266v10.835a1.263,1.263,0,0,0,1.265,1.265H635.83a1.266,1.266,0,0,0,1.266-1.265V336.8a1.269,1.269,0,0,0-1.266-1.266Z" transform="translate(-405.179 -210.951)" fill="#c12a21"/>
    <path id="Path_344" data-name="Path 344" d="M635.83,373.485H624.995a1.262,1.262,0,0,0-1.2.866,1.2,1.2,0,0,0-.068.4v10.835a1.263,1.263,0,0,0,1.265,1.266H635.83a1.266,1.266,0,0,0,1.266-1.266V374.751a1.269,1.269,0,0,0-1.266-1.266Z" transform="translate(-405.179 -230.429)" fill="#c12a21"/>
    <path id="Path_345" data-name="Path 345" d="M635.83,411.435H624.995a1.263,1.263,0,0,0-1.265,1.266v10.835a1.263,1.263,0,0,0,1.265,1.266H635.83a1.266,1.266,0,0,0,1.266-1.266V412.7A1.266,1.266,0,0,0,635.83,411.435Z" transform="translate(-405.179 -249.907)" fill="#e6e6e6"/>
    <path id="Path_346" data-name="Path 346" d="M682.59,259.635H671.755a1.266,1.266,0,0,0-1.265,1.265v10.84A1.262,1.262,0,0,0,671.755,273H682.59a1.265,1.265,0,0,0,1.266-1.261V260.9A1.269,1.269,0,0,0,682.59,259.635Z" transform="translate(-429.179 -171.996)" fill="#c12a21"/>
    <path id="Path_347" data-name="Path 347" d="M682.59,297.585H671.755a1.266,1.266,0,0,0-1.266,1.266v10.84a1.262,1.262,0,0,0,1.266,1.261H682.59a1.265,1.265,0,0,0,1.266-1.261v-10.84a1.269,1.269,0,0,0-1.266-1.266Z" transform="translate(-429.179 -191.473)" fill="#c12a21"/>
    <path id="Path_348" data-name="Path 348" d="M682.59,335.535H671.755a1.266,1.266,0,0,0-1.265,1.266v10.835a1.263,1.263,0,0,0,1.265,1.265H682.59a1.266,1.266,0,0,0,1.266-1.265V336.8A1.269,1.269,0,0,0,682.59,335.535Z" transform="translate(-429.179 -210.951)" fill="#e6e6e6"/>
    <path id="Path_349" data-name="Path 349" d="M682.59,373.485H671.755a1.266,1.266,0,0,0-1.266,1.266v10.835a1.263,1.263,0,0,0,1.266,1.266H682.59a1.266,1.266,0,0,0,1.266-1.266V374.751A1.269,1.269,0,0,0,682.59,373.485Z" transform="translate(-429.179 -230.429)" fill="#c12a21"/>
    <path id="Path_350" data-name="Path 350" d="M682.59,411.435H671.755a1.263,1.263,0,0,0-1.265,1.266v10.835a1.263,1.263,0,0,0,1.265,1.266H682.59a1.266,1.266,0,0,0,1.266-1.266V412.7a1.266,1.266,0,0,0-1.266-1.266Z" transform="translate(-429.179 -249.907)" fill="#c12a21"/>
    <path id="Path_351" data-name="Path 351" d="M729.35,259.635H718.515a1.266,1.266,0,0,0-1.266,1.265v10.84A1.262,1.262,0,0,0,718.515,273H729.35a1.265,1.265,0,0,0,1.266-1.261V260.9A1.269,1.269,0,0,0,729.35,259.635Z" transform="translate(-453.178 -171.996)" fill="#c12a21"/>
    <path id="Path_352" data-name="Path 352" d="M729.35,297.585H718.515a1.266,1.266,0,0,0-1.266,1.266v10.84a1.262,1.262,0,0,0,1.266,1.261H729.35a1.265,1.265,0,0,0,1.266-1.261v-10.84A1.269,1.269,0,0,0,729.35,297.585Z" transform="translate(-453.178 -191.473)" fill="#fff"/>
    <path id="Path_353" data-name="Path 353" d="M729.35,335.535H718.515a1.266,1.266,0,0,0-1.266,1.266v10.835a1.263,1.263,0,0,0,1.266,1.265H729.35a1.266,1.266,0,0,0,1.266-1.265V336.8A1.269,1.269,0,0,0,729.35,335.535Z" transform="translate(-453.178 -210.951)" fill="#fff"/>
    <path id="Path_354" data-name="Path 354" d="M729.35,373.485H718.515a1.266,1.266,0,0,0-1.266,1.266v10.835a1.263,1.263,0,0,0,1.266,1.266H729.35a1.266,1.266,0,0,0,1.266-1.266V374.751A1.269,1.269,0,0,0,729.35,373.485Z" transform="translate(-453.178 -230.429)" fill="#e6e6e6"/>
    <path id="Path_355" data-name="Path 355" d="M729.35,411.435H718.515a1.263,1.263,0,0,0-1.266,1.266v10.835a1.263,1.263,0,0,0,1.266,1.266H729.35a1.266,1.266,0,0,0,1.266-1.266V412.7A1.266,1.266,0,0,0,729.35,411.435Z" transform="translate(-453.178 -249.907)" fill="#c12a21"/>
    <path id="Path_356" data-name="Path 356" d="M776.109,259.635H765.27a1.265,1.265,0,0,0-1.261,1.265v10.84a1.261,1.261,0,0,0,1.26,1.261h10.84a1.265,1.265,0,0,0,1.266-1.261V260.9a1.269,1.269,0,0,0-1.266-1.265Z" transform="translate(-477.178 -171.996)" fill="#fff"/>
    <path id="Path_357" data-name="Path 357" d="M776.109,297.585H765.27a1.265,1.265,0,0,0-1.261,1.266v10.84a1.261,1.261,0,0,0,1.26,1.261h10.84a1.265,1.265,0,0,0,1.266-1.261v-10.84A1.269,1.269,0,0,0,776.109,297.585Z" transform="translate(-477.178 -191.473)" fill="#fff"/>
    <path id="Path_358" data-name="Path 358" d="M776.11,335.535H765.27a1.265,1.265,0,0,0-1.261,1.266v10.835a1.262,1.262,0,0,0,1.261,1.266h10.84a1.266,1.266,0,0,0,1.266-1.265V336.8A1.27,1.27,0,0,0,776.11,335.535Z" transform="translate(-477.178 -210.951)" fill="#fff"/>
    <path id="Path_359" data-name="Path 359" d="M776.11,373.485H765.27a1.265,1.265,0,0,0-1.261,1.266v10.835a1.262,1.262,0,0,0,1.261,1.266h10.84a1.266,1.266,0,0,0,1.266-1.266V374.751a1.27,1.27,0,0,0-1.266-1.266Z" transform="translate(-477.178 -230.429)" fill="#c12a21"/>
    <path id="Path_360" data-name="Path 360" d="M776.11,411.435H765.27a1.262,1.262,0,0,0-1.261,1.266v10.835a1.262,1.262,0,0,0,1.261,1.266h10.84a1.266,1.266,0,0,0,1.266-1.266V412.7A1.266,1.266,0,0,0,776.11,411.435Z" transform="translate(-477.178 -249.907)" fill="#e6e6e6"/>
    <path id="Path_361" data-name="Path 361" d="M822.869,259.635H812.03a1.265,1.265,0,0,0-1.261,1.265v10.84a1.261,1.261,0,0,0,1.26,1.261h10.84a1.265,1.265,0,0,0,1.266-1.261V260.9A1.269,1.269,0,0,0,822.869,259.635Z" transform="translate(-501.177 -171.996)" fill="#fff"/>
    <path id="Path_362" data-name="Path 362" d="M822.869,297.585H812.03a1.265,1.265,0,0,0-1.261,1.266v10.84a1.261,1.261,0,0,0,1.26,1.261h10.84a1.265,1.265,0,0,0,1.266-1.261v-10.84A1.269,1.269,0,0,0,822.869,297.585Z" transform="translate(-501.177 -191.473)" fill="#fff"/>
    <path id="Path_363" data-name="Path 363" d="M822.87,335.535H812.03a1.265,1.265,0,0,0-1.261,1.266v10.835a1.262,1.262,0,0,0,1.261,1.266h10.84a1.266,1.266,0,0,0,1.266-1.265V336.8A1.27,1.27,0,0,0,822.87,335.535Z" transform="translate(-501.177 -210.951)" fill="#c12a21"/>
    <path id="Path_364" data-name="Path 364" d="M822.87,373.485H812.03a1.265,1.265,0,0,0-1.261,1.266v10.835a1.262,1.262,0,0,0,1.261,1.266h10.84a1.266,1.266,0,0,0,1.266-1.266V374.751a1.269,1.269,0,0,0-1.266-1.266Z" transform="translate(-501.177 -230.429)" fill="#e6e6e6"/>
    <path id="Path_365" data-name="Path 365" d="M822.87,411.435H812.03a1.262,1.262,0,0,0-1.261,1.266v10.835a1.262,1.262,0,0,0,1.261,1.266h10.84a1.266,1.266,0,0,0,1.266-1.266V412.7A1.266,1.266,0,0,0,822.87,411.435Z" transform="translate(-501.177 -249.907)" fill="#fff"/>
    <path id="Path_366" data-name="Path 366" d="M869.63,259.635H858.79a1.265,1.265,0,0,0-1.261,1.265v10.84a1.261,1.261,0,0,0,1.26,1.261h10.84a1.265,1.265,0,0,0,1.266-1.261V260.9A1.269,1.269,0,0,0,869.63,259.635Z" transform="translate(-525.177 -171.996)" fill="#c12a21"/>
    <path id="Path_367" data-name="Path 367" d="M869.63,297.585H858.79a1.265,1.265,0,0,0-1.261,1.266v10.84a1.261,1.261,0,0,0,1.26,1.261h10.84a1.265,1.265,0,0,0,1.266-1.261v-10.84A1.269,1.269,0,0,0,869.63,297.585Z" transform="translate(-525.177 -191.473)" fill="#c12a21"/>
    <path id="Path_368" data-name="Path 368" d="M869.63,335.535H858.79a1.265,1.265,0,0,0-1.261,1.266v10.835a1.262,1.262,0,0,0,1.261,1.266h10.84a1.266,1.266,0,0,0,1.266-1.265V336.8a1.27,1.27,0,0,0-1.266-1.266Z" transform="translate(-525.177 -210.951)" fill="#e6e6e6"/>
    <path id="Path_369" data-name="Path 369" d="M869.63,373.485H858.79a1.265,1.265,0,0,0-1.261,1.266v10.835a1.262,1.262,0,0,0,1.261,1.266h10.84a1.266,1.266,0,0,0,1.266-1.266V374.751a1.27,1.27,0,0,0-1.266-1.266Z" transform="translate(-525.177 -230.429)" fill="#fff"/>
    <path id="Path_370" data-name="Path 370" d="M869.63,411.435H858.79a1.262,1.262,0,0,0-1.261,1.266v10.835a1.262,1.262,0,0,0,1.261,1.266h10.84a1.266,1.266,0,0,0,1.266-1.266V412.7a1.266,1.266,0,0,0-1.266-1.266Z" transform="translate(-525.177 -249.907)" fill="#c12a21"/>
    <path id="Path_371" data-name="Path 371" d="M916.39,259.635H905.55a1.265,1.265,0,0,0-1.261,1.265v10.84a1.261,1.261,0,0,0,1.26,1.261h10.84a1.265,1.265,0,0,0,1.266-1.261V260.9A1.269,1.269,0,0,0,916.39,259.635Z" transform="translate(-549.177 -171.996)" fill="#c12a21"/>
    <path id="Path_372" data-name="Path 372" d="M916.39,297.585H905.55a1.265,1.265,0,0,0-1.261,1.266v10.84a1.261,1.261,0,0,0,1.26,1.261h10.84a1.265,1.265,0,0,0,1.266-1.261v-10.84A1.269,1.269,0,0,0,916.39,297.585Z" transform="translate(-549.177 -191.473)" fill="#c12a21"/>
    <path id="Path_373" data-name="Path 373" d="M916.39,335.535H905.55a1.265,1.265,0,0,0-1.261,1.266v10.835a1.262,1.262,0,0,0,1.261,1.266h10.84a1.266,1.266,0,0,0,1.266-1.265V336.8a1.269,1.269,0,0,0-1.266-1.266Z" transform="translate(-549.177 -210.951)" fill="#e6e6e6"/>
    <path id="Path_374" data-name="Path 374" d="M916.39,373.485H905.55a1.265,1.265,0,0,0-1.261,1.266v10.835a1.262,1.262,0,0,0,1.261,1.266h10.84a1.266,1.266,0,0,0,1.266-1.266V374.751A1.269,1.269,0,0,0,916.39,373.485Z" transform="translate(-549.177 -230.429)" fill="#c12a21"/>
    <path id="Path_375" data-name="Path 375" d="M916.39,411.435H905.55a1.262,1.262,0,0,0-1.261,1.266v10.835a1.262,1.262,0,0,0,1.261,1.266h10.84a1.266,1.266,0,0,0,1.266-1.266V412.7A1.266,1.266,0,0,0,916.39,411.435Z" transform="translate(-549.177 -249.907)" fill="#c12a21"/>
    <path id="Path_376" data-name="Path 376" d="M963.15,259.635H952.31a1.265,1.265,0,0,0-1.261,1.265v10.84a1.261,1.261,0,0,0,1.26,1.261h10.84a1.265,1.265,0,0,0,1.266-1.261V260.9A1.269,1.269,0,0,0,963.15,259.635Z" transform="translate(-573.176 -171.996)" fill="#e6e6e6"/>
    <path id="Path_377" data-name="Path 377" d="M963.15,297.585H952.31a1.265,1.265,0,0,0-1.261,1.266v10.84a1.261,1.261,0,0,0,1.26,1.261h10.84a1.265,1.265,0,0,0,1.266-1.261v-10.84A1.269,1.269,0,0,0,963.15,297.585Z" transform="translate(-573.176 -191.473)" fill="#c12a21"/>
    <path id="Path_378" data-name="Path 378" d="M963.15,335.535H952.31a1.265,1.265,0,0,0-1.261,1.266v10.835a1.262,1.262,0,0,0,1.261,1.266h10.84a1.266,1.266,0,0,0,1.266-1.265V336.8a1.269,1.269,0,0,0-1.266-1.266Z" transform="translate(-573.176 -210.951)" fill="#c12a21"/>
    <path id="Path_379" data-name="Path 379" d="M963.15,373.485H952.31a1.265,1.265,0,0,0-1.261,1.266v10.835a1.262,1.262,0,0,0,1.261,1.266h10.84a1.266,1.266,0,0,0,1.266-1.266V374.751A1.27,1.27,0,0,0,963.15,373.485Z" transform="translate(-573.176 -230.429)" fill="#c12a21"/>
    <path id="Path_380" data-name="Path 380" d="M963.15,411.435H952.31a1.262,1.262,0,0,0-1.261,1.266v10.835a1.262,1.262,0,0,0,1.261,1.266h10.84a1.266,1.266,0,0,0,1.266-1.266V412.7A1.266,1.266,0,0,0,963.15,411.435Z" transform="translate(-573.176 -249.907)" fill="#e6e6e6"/>
    <path id="Path_381" data-name="Path 381" d="M1009.911,259.635H999.07a1.265,1.265,0,0,0-1.261,1.265v10.84A1.261,1.261,0,0,0,999.07,273h10.84a1.265,1.265,0,0,0,1.266-1.261V260.9a1.269,1.269,0,0,0-1.266-1.265Z" transform="translate(-597.176 -171.996)" fill="#e6e6e6"/>
    <path id="Path_382" data-name="Path 382" d="M1009.911,297.585H999.07a1.265,1.265,0,0,0-1.261,1.266v10.84a1.261,1.261,0,0,0,1.26,1.261h10.84a1.265,1.265,0,0,0,1.266-1.261v-10.84A1.269,1.269,0,0,0,1009.911,297.585Z" transform="translate(-597.176 -191.473)" fill="#e6e6e6"/>
    <path id="Path_383" data-name="Path 383" d="M1009.911,335.535H999.07a1.265,1.265,0,0,0-1.261,1.266v10.835a1.262,1.262,0,0,0,1.261,1.265h10.84a1.266,1.266,0,0,0,1.266-1.265V336.8a1.269,1.269,0,0,0-1.266-1.266Z" transform="translate(-597.176 -210.951)" fill="#c12a21"/>
    <path id="Path_384" data-name="Path 384" d="M1009.911,373.485H999.07a1.265,1.265,0,0,0-1.261,1.266v10.835a1.262,1.262,0,0,0,1.261,1.266h10.84a1.266,1.266,0,0,0,1.266-1.266V374.751A1.269,1.269,0,0,0,1009.911,373.485Z" transform="translate(-597.176 -230.429)" fill="#e6e6e6"/>
    <path id="Path_385" data-name="Path 385" d="M1009.911,411.435H999.07a1.262,1.262,0,0,0-1.261,1.266v10.835a1.262,1.262,0,0,0,1.261,1.266h10.84a1.266,1.266,0,0,0,1.266-1.266V412.7A1.266,1.266,0,0,0,1009.911,411.435Z" transform="translate(-597.176 -249.907)" fill="#e6e6e6"/>
    <path id="Path_386" data-name="Path 386" d="M335.777,660.015h-.3l.258-.034Z" transform="translate(-172.182 -338.735)" fill="#2f2e41"/>
    <circle id="ab6171fa-7d69-4734-b81c-8dff60f9761b" cx="33.256" cy="33.256" r="33.256" transform="translate(104.404 52.769)" fill="#ffb6b6"/>
    <path id="bf427902-b9bf-4946-b5d7-5c1c7e04535e" d="M445.223,179.235s8.7-16.628-10.438-18.139c0,0-16.313-14.8-32.941-2.705,0,0-9.07,0-14.029,10.263,0,0-7.133-2.705-8.7,4.535,0,0-5.22,15.116,0,28.721s6.953,15.116,6.953,15.116-8.577-28.523,12.3-30.034,44.239-14.558,45.979,2.069,4.358,20.725,4.358,20.725S465.229,186.037,445.223,179.235Z" transform="translate(-278.439 -117.592)" fill="#2f2e41"/>
    <path id="Path_387" data-name="Path 387" d="M482.229,385.847l-.107.565-1.2,6.347-8.309,43.9-.492,2.585-1.032,5.466-1.411,7.457-3.13,16.525-.9,4.736-.336,1.777-.117.623-.93,4.9-.282,1.48-2.268,16.807-1.981,14.646,6.63,6.63-3.952,3.953-2.594,14.86,0,.034H353.941q-6.425-4.162-12.665-8.582l.871-6.522s3-11.648,1.738-13.04-4.011-3.879-4.011-3.879l3.471-8.1.482-1.124-.808-16.759-.019-.4-.268-5.525-.034-.711-.054-1.066-1.027-21.261-.019-.351-.311-6.445-.292-6.128-.127-2.585L339.616,410.8l-.847-17.562-.74-15.289L341,376.944l31.809-10.811L385.988,349l27.424.2,13.425.1,22.4,20.774,5.1,2.434.039.02,3.655,1.747,9.268,4.425,9.8,4.683,5.028,2.4Z" transform="translate(-258.544 -217.865)" fill="#cacaca"/>
    <path id="Path_388" data-name="Path 388" d="M368.278,596.358a14.742,14.742,0,0,1-19.793-10.918l-51.868-7.359,18.031-20.4,46.49,10.115a14.822,14.822,0,0,1,7.14,28.557Z" transform="translate(-237.289 -324.97)" fill="#ffb6b6"/>
    <path id="Path_389" data-name="Path 389" d="M313.159,473.172a6.582,6.582,0,0,0-3.84-2.37l-21.281-4.425-2.185-.453a9.216,9.216,0,0,1-6.1-4.415,9.326,9.326,0,0,1-1.193-3.845,9.2,9.2,0,0,1,.433-3.641l7.374-22.22,4.785-14.418a20.346,20.346,0,0,0,1.017-5.379,21.1,21.1,0,0,0-4.415-14.062,20.781,20.781,0,0,0-23.856-6.639c-.122.044-.248.093-.37.141a20.727,20.727,0,0,0-12.32,13.829l-5.2,18.91L235.289,463.17a28.118,28.118,0,0,0,23.831,35.377l30.651,3.592,14.184,1.665a6.569,6.569,0,0,0,7.223-5.223,2.375,2.375,0,0,0,.054-.268l.341-2.1,2.886-17.708.029-.18A6.559,6.559,0,0,0,313.159,473.172Z" transform="translate(-205.296 -238.865)" fill="#cacaca"/>
    <path id="Path_390" data-name="Path 390" d="M499.52,589.957a14.742,14.742,0,0,0,18.056-13.6l50.311-14.6-20.727-17.649-44.6,16.57a14.822,14.822,0,0,0-3.042,29.279Z" transform="translate(-335.493 -318.002)" fill="#ffb6b6"/>
    <path id="Path_391" data-name="Path 391" d="M622.742,441.944l-23.929-55.071a20.842,20.842,0,0,0-9.866-10.392,21.1,21.1,0,0,0-4.274-1.558c-.229-.058-.458-.112-.686-.156a20.507,20.507,0,0,0-9.482.175A20.839,20.839,0,0,0,561.2,385.52a.485.485,0,0,0-.039.068,20.979,20.979,0,0,0-.18,18.91l.3.594,16.91,33.961a9.2,9.2,0,0,1-5.111,12.748l-1.188.428-21.359,7.715a6.57,6.57,0,0,0-4.055,8.173l.054.17,5.987,19.158c.029.088.058.175.093.263a3.438,3.438,0,0,0,.195.482,6.562,6.562,0,0,0,7.7,3.665l11.526-3.042,2.351-.623,29.765-7.861a28.115,28.115,0,0,0,18.6-38.385Z" transform="translate(-365.369 -230.845)" fill="#cacaca"/>
    <path id="Path_392" data-name="Path 392" d="M219.629,608.285A250.228,250.228,0,0,0,241.9,632.1h220a8,8,0,0,1,7.992,8l.316,55.748a173,173,0,0,0,37.709-23.622q4.789-3.935,9.282-8.211,2.942-2.789,5.744-5.715a173.1,173.1,0,0,0,33.5-50.009Z" transform="translate(-197.775 -350.94)" fill="#3f3d56"/>
    <path id="Path_393" data-name="Path 393" d="M787.323,711.025q-2.8,2.928-5.744,5.714h-46.83v-5.714Z" transform="translate(-462.16 -403.671)" fill="#fff"/>
    <path id="Path_394" data-name="Path 394" d="M459.772,334.047a2.7,2.7,0,0,0-2.37-1.411H297.826a2.7,2.7,0,0,0-2.7,2.7v95.51H460.1v-95.51A2.622,2.622,0,0,0,459.772,334.047Z" transform="translate(-236.525 -209.463)" fill="#3f3d56"/>
    <path id="Path_395" data-name="Path 395" d="M294.832,529.092v11.786a3.721,3.721,0,0,0,3.721,3.721h60.891v23.26h-.809a.483.483,0,0,0-.483.483v1.618a.483.483,0,0,0,.483.483h37.8a.483.483,0,0,0,.483-.483v-1.618a.483.483,0,0,0-.483-.483h-.809V544.6h60.891a3.721,3.721,0,0,0,3.721-3.721V529.092Z" transform="translate(-236.373 -310.294)" fill="#3f3d56"/>
    <circle id="Ellipse_89" data-name="Ellipse 89" cx="15.238" cy="15.238" r="15.238" transform="translate(123.925 154.493)" fill="#c12a21"/>
    <path id="Path_396" data-name="Path 396" d="M454.686,213.143h-2.434c0-18.4-18.209-30.456-36.579-30.466a40.1,40.1,0,0,0-7.958.774c-2.95.589-6.011,1.295-9.019,2.215-11.862,3.636-22.863,10.665-22.863,27.477a38.254,38.254,0,0,0,1.236,9.677l-2.356.613a40.826,40.826,0,0,1-1.314-10.29c0-14.69,6.031-24.78,16.447-30.8a53.143,53.143,0,0,1,19.816-6.2,47.277,47.277,0,0,1,9.613-.292C440.4,177.376,454.686,193.575,454.686,213.143Z" transform="translate(-276.697 -128.935)" fill="#c12a21"/>
    <path id="Path_397" data-name="Path 397" d="M533.819,240.819l-.959-7.087a7.746,7.746,0,0,0-8.883-6.6l-1.524.209a3.2,3.2,0,0,0-2.745,3.6l2.215,16.326a3.2,3.2,0,0,0,2.58,2.711,3,3,0,0,0,.594.058,3.155,3.155,0,0,0,.428-.029l1.7-.229a7.686,7.686,0,0,0,5.228-3.13c.131-.185.258-.375.375-.569A8.153,8.153,0,0,0,533.819,240.819Z" transform="translate(-351.775 -155.263)" fill="#c12a21"/>
    <path id="Path_398" data-name="Path 398" d="M521.47,228.275a3.13,3.13,0,0,0-1.134.935,3.187,3.187,0,0,0-.628,2.37l2.215,16.326a3.2,3.2,0,0,0,2.58,2.711Z" transform="translate(-351.775 -155.9)" fill="#fff"/>
    <path id="Path_399" data-name="Path 399" d="M545.152,242.975l-.959-7.087a7.647,7.647,0,0,0-2.434-4.653l2.205,16.243a3.005,3.005,0,0,0,.2.759A8.152,8.152,0,0,0,545.152,242.975Z" transform="translate(-363.108 -157.419)" fill="#3f3d56"/>
    <ellipse id="Ellipse_90" data-name="Ellipse 90" cx="1.217" cy="3.407" rx="1.217" ry="3.407" transform="translate(172.342 84.072) rotate(-7.726)" fill="#3f3d56"/>
    <ellipse id="Ellipse_91" data-name="Ellipse 91" cx="1.217" cy="3.407" rx="1.217" ry="3.407" transform="translate(170.882 75.311) rotate(-7.726)" fill="#3f3d56"/>
    <ellipse id="Ellipse_92" data-name="Ellipse 92" cx="1.217" cy="3.407" rx="1.217" ry="3.407" transform="translate(180.13 78.718) rotate(-7.726)" fill="#3f3d56"/>
    <path id="Path_400" data-name="Path 400" d="M433.016,182.677a40.1,40.1,0,0,0-7.958.774c-2.95.589-6.011,1.295-9.019,2.215-4.7-.229-8.153-1.446-8.849-3.32A53.143,53.143,0,0,1,427,176.15a47.277,47.277,0,0,1,9.613-.292,2.787,2.787,0,0,1,1.324,1.859C438.171,179.411,436.238,181.212,433.016,182.677Z" transform="translate(-294.04 -128.935)" fill="#3f3d56"/>
    <path id="Path_401" data-name="Path 401" d="M381.338,268.479,377.59,252.9a2.932,2.932,0,0,0-2.375-2.215,3.283,3.283,0,0,0-.487-.039,2.933,2.933,0,0,0-.681.083l-1.451.35a7.254,7.254,0,0,0-5.349,8.742l1.679,6.99a7.712,7.712,0,0,0,2.6,4.2,6.827,6.827,0,0,0,.662.472,7.208,7.208,0,0,0,5.534.9l1.446-.35a2.843,2.843,0,0,0,1.056-.492,2.917,2.917,0,0,0,1.115-3.052Z" transform="translate(-273.436 -167.381)" fill="#c12a21"/>
    <ellipse id="Ellipse_93" data-name="Ellipse 93" cx="1.217" cy="3.407" rx="1.217" ry="3.407" transform="translate(97.268 91.859) rotate(-13.53)" fill="#3f3d56"/>
    <ellipse id="Ellipse_94" data-name="Ellipse 94" cx="1.217" cy="3.407" rx="1.217" ry="3.407" transform="translate(92.4 93.32) rotate(-13.53)" fill="#3f3d56"/>
    <path id="Path_402" data-name="Path 402" d="M390.232,268.211l-3.748-15.581a3.179,3.179,0,0,0-2.575-2.395l5.116,21.281A3.169,3.169,0,0,0,390.232,268.211Z" transform="translate(-282.091 -167.171)" fill="#fff"/>
    <path id="Path_403" data-name="Path 403" d="M368.091,261.9a3.153,3.153,0,0,0-.57-1.193,7.167,7.167,0,0,0-.277,4.279l1.679,6.99a7.713,7.713,0,0,0,2.6,4.2Z" transform="translate(-273.434 -172.545)" fill="#3f3d56"/>
  </g>
</svg>
