<svg xmlns="http://www.w3.org/2000/svg" width="106.478" height="106.478" viewBox="0 0 106.478 106.478">
  <g id="application" transform="translate(-6 -6)">
    <g id="Group_73" data-name="Group 73" transform="translate(6 10.095)">
      <path id="Path_267" data-name="Path 267" d="M10.1,48.953a4.1,4.1,0,0,1-4.1-4.1V12.1a4.1,4.1,0,1,1,8.191,0V44.858A4.1,4.1,0,0,1,10.1,48.953Z" transform="translate(-6 -8)" fill="#fff"/>
    </g>
    <g id="Group_74" data-name="Group 74" transform="translate(6 42.858)">
      <path id="Path_268" data-name="Path 268" d="M14.191,36.286A8.2,8.2,0,0,1,6,28.1a4.1,4.1,0,0,1,8.191,0V28.1a4.092,4.092,0,1,1,0,8.184Z" transform="translate(-6 -24)" fill="#fff"/>
    </g>
    <g id="Group_75" data-name="Group 75" transform="translate(10.095 46.953)">
      <path id="Path_269" data-name="Path 269" d="M44.858,34.191H12.1A4.1,4.1,0,1,1,12.1,26H44.858a4.1,4.1,0,0,1,0,8.191Z" transform="translate(-8 -26)" fill="#fff"/>
    </g>
    <g id="Group_76" data-name="Group 76" transform="translate(42.858 42.858)">
      <path id="Path_270" data-name="Path 270" d="M28.1,36.286a4.1,4.1,0,0,1,0-8.191h0a4.093,4.093,0,1,1,8.187,0A8.2,8.2,0,0,1,28.1,36.286Z" transform="translate(-24 -24)" fill="#fff"/>
    </g>
    <g id="Group_77" data-name="Group 77" transform="translate(46.953 10.095)">
      <path id="Path_271" data-name="Path 271" d="M30.1,48.953a4.1,4.1,0,0,1-4.1-4.1V12.1a4.1,4.1,0,1,1,8.191,0V44.858A4.1,4.1,0,0,1,30.1,48.953Z" transform="translate(-26 -8)" fill="#fff"/>
    </g>
    <g id="Group_78" data-name="Group 78" transform="translate(10.095 6)">
      <path id="Path_272" data-name="Path 272" d="M44.858,14.191H12.1A4.1,4.1,0,1,1,12.1,6H44.858a4.1,4.1,0,0,1,0,8.191Z" transform="translate(-8 -6)" fill="#fff"/>
    </g>
    <g id="Group_79" data-name="Group 79" transform="translate(42.858 6)">
      <path id="Path_273" data-name="Path 273" d="M32.191,18.286a4.1,4.1,0,0,1-4.1-4.1v0A4.093,4.093,0,1,1,28.1,6a8.2,8.2,0,0,1,8.191,8.191A4.1,4.1,0,0,1,32.191,18.286Z" transform="translate(-24 -6)" fill="#fff"/>
    </g>
    <g id="Group_80" data-name="Group 80" transform="translate(6 6)">
      <path id="Path_274" data-name="Path 274" d="M10.093,18.286A4.094,4.094,0,0,1,6,14.191,8.2,8.2,0,0,1,14.191,6a4.1,4.1,0,1,1,0,8.191h0A4.1,4.1,0,0,1,10.093,18.286Z" transform="translate(-6 -6)" fill="#fff"/>
    </g>
    <g id="Group_81" data-name="Group 81" transform="translate(6 67.43)">
      <path id="Path_275" data-name="Path 275" d="M10.1,76.953a4.1,4.1,0,0,1-4.1-4.1V40.1a4.1,4.1,0,0,1,8.191,0V72.858A4.1,4.1,0,0,1,10.1,76.953Z" transform="translate(-6 -36)" fill="#fff"/>
    </g>
    <g id="Group_82" data-name="Group 82" transform="translate(6 63.334)">
      <path id="Path_276" data-name="Path 276" d="M10.093,46.286A4.094,4.094,0,0,1,6,42.191,8.2,8.2,0,0,1,14.191,34a4.1,4.1,0,1,1,0,8.191h0A4.1,4.1,0,0,1,10.093,46.286Z" transform="translate(-6 -34)" fill="#fff"/>
    </g>
    <g id="Group_83" data-name="Group 83" transform="translate(10.095 63.334)">
      <path id="Path_277" data-name="Path 277" d="M44.858,42.191H12.1A4.1,4.1,0,0,1,12.1,34H44.858a4.1,4.1,0,0,1,0,8.191Z" transform="translate(-8 -34)" fill="#fff"/>
    </g>
    <g id="Group_84" data-name="Group 84" transform="translate(42.858 63.334)">
      <path id="Path_278" data-name="Path 278" d="M32.191,46.286a4.1,4.1,0,0,1-4.1-4.1v0A4.093,4.093,0,1,1,28.1,34a8.2,8.2,0,0,1,8.191,8.191A4.1,4.1,0,0,1,32.191,46.286Z" transform="translate(-24 -34)" fill="#fff"/>
    </g>
    <g id="Group_85" data-name="Group 85" transform="translate(46.953 67.43)">
      <path id="Path_279" data-name="Path 279" d="M30.1,76.953a4.1,4.1,0,0,1-4.1-4.1V40.1a4.1,4.1,0,0,1,8.191,0V72.858A4.1,4.1,0,0,1,30.1,76.953Z" transform="translate(-26 -36)" fill="#fff"/>
    </g>
    <g id="Group_86" data-name="Group 86" transform="translate(10.095 104.287)">
      <path id="Path_280" data-name="Path 280" d="M44.858,62.191H12.1A4.1,4.1,0,0,1,12.1,54H44.858a4.1,4.1,0,0,1,0,8.191Z" transform="translate(-8 -54)" fill="#fff"/>
    </g>
    <g id="Group_87" data-name="Group 87" transform="translate(42.858 100.192)">
      <path id="Path_281" data-name="Path 281" d="M28.1,64.286a4.1,4.1,0,0,1,0-8.191h0a4.093,4.093,0,1,1,8.187,0A8.2,8.2,0,0,1,28.1,64.286Z" transform="translate(-24 -52)" fill="#fff"/>
    </g>
    <g id="Group_88" data-name="Group 88" transform="translate(6 100.192)">
      <path id="Path_282" data-name="Path 282" d="M14.191,64.286A8.2,8.2,0,0,1,6,56.1a4.1,4.1,0,0,1,8.191,0V56.1a4.092,4.092,0,1,1,0,8.184Z" transform="translate(-6 -52)" fill="#fff"/>
    </g>
    <g id="Group_89" data-name="Group 89" transform="translate(104.287 10.095)">
      <path id="Path_283" data-name="Path 283" d="M58.1,48.953a4.1,4.1,0,0,1-4.1-4.1V12.1a4.1,4.1,0,0,1,8.191,0V44.858A4.1,4.1,0,0,1,58.1,48.953Z" transform="translate(-54 -8)" fill="#fff"/>
    </g>
    <g id="Group_90" data-name="Group 90" transform="translate(100.192 42.858)">
      <path id="Path_284" data-name="Path 284" d="M56.1,36.286a4.1,4.1,0,0,1,0-8.191h0a4.093,4.093,0,1,1,8.187,0A8.2,8.2,0,0,1,56.1,36.286Z" transform="translate(-52 -24)" fill="#fff"/>
    </g>
    <g id="Group_91" data-name="Group 91" transform="translate(67.43 46.953)">
      <path id="Path_285" data-name="Path 285" d="M72.858,34.191H40.1A4.1,4.1,0,0,1,40.1,26H72.858a4.1,4.1,0,1,1,0,8.191Z" transform="translate(-36 -26)" fill="#fff"/>
    </g>
    <g id="Group_92" data-name="Group 92" transform="translate(63.334 42.858)">
      <path id="Path_286" data-name="Path 286" d="M42.191,36.286A8.2,8.2,0,0,1,34,28.1a4.1,4.1,0,0,1,8.191,0V28.1a4.092,4.092,0,1,1,0,8.184Z" transform="translate(-34 -24)" fill="#fff"/>
    </g>
    <g id="Group_93" data-name="Group 93" transform="translate(63.334 10.095)">
      <path id="Path_287" data-name="Path 287" d="M38.1,48.953a4.1,4.1,0,0,1-4.1-4.1V12.1a4.1,4.1,0,0,1,8.191,0V44.858A4.1,4.1,0,0,1,38.1,48.953Z" transform="translate(-34 -8)" fill="#fff"/>
    </g>
    <g id="Group_94" data-name="Group 94" transform="translate(67.43 6)">
      <path id="Path_288" data-name="Path 288" d="M72.858,14.191H40.1A4.1,4.1,0,0,1,40.1,6H72.858a4.1,4.1,0,1,1,0,8.191Z" transform="translate(-36 -6)" fill="#fff"/>
    </g>
    <g id="Group_95" data-name="Group 95" transform="translate(63.334 6)">
      <path id="Path_289" data-name="Path 289" d="M38.093,18.286A4.094,4.094,0,0,1,34,14.191,8.2,8.2,0,0,1,42.191,6a4.1,4.1,0,0,1,0,8.191h0A4.1,4.1,0,0,1,38.093,18.286Z" transform="translate(-34 -6)" fill="#fff"/>
    </g>
    <g id="Group_96" data-name="Group 96" transform="translate(100.192 6)">
      <path id="Path_290" data-name="Path 290" d="M60.191,18.286a4.1,4.1,0,0,1-4.1-4.1v0A4.093,4.093,0,1,1,56.1,6a8.2,8.2,0,0,1,8.191,8.191A4.1,4.1,0,0,1,60.191,18.286Z" transform="translate(-52 -6)" fill="#fff"/>
    </g>
    <g id="Group_97" data-name="Group 97" transform="translate(104.287 67.43)">
      <path id="Path_291" data-name="Path 291" d="M58.1,76.953a4.1,4.1,0,0,1-4.1-4.1V40.1a4.1,4.1,0,0,1,8.191,0V72.858A4.1,4.1,0,0,1,58.1,76.953Z" transform="translate(-54 -36)" fill="#fff"/>
    </g>
    <g id="Group_98" data-name="Group 98" transform="translate(100.192 63.334)">
      <path id="Path_292" data-name="Path 292" d="M60.191,46.286a4.1,4.1,0,0,1-4.1-4.1v0A4.093,4.093,0,1,1,56.1,34a8.2,8.2,0,0,1,8.191,8.191A4.1,4.1,0,0,1,60.191,46.286Z" transform="translate(-52 -34)" fill="#fff"/>
    </g>
    <g id="Group_99" data-name="Group 99" transform="translate(67.43 63.334)">
      <path id="Path_293" data-name="Path 293" d="M72.858,42.191H40.1A4.1,4.1,0,0,1,40.1,34H72.858a4.1,4.1,0,1,1,0,8.191Z" transform="translate(-36 -34)" fill="#fff"/>
    </g>
    <g id="Group_100" data-name="Group 100" transform="translate(63.334 63.334)">
      <path id="Path_294" data-name="Path 294" d="M38.093,46.286A4.094,4.094,0,0,1,34,42.191,8.2,8.2,0,0,1,42.191,34a4.1,4.1,0,0,1,0,8.191h0A4.1,4.1,0,0,1,38.093,46.286Z" transform="translate(-34 -34)" fill="#fff"/>
    </g>
    <g id="Group_101" data-name="Group 101" transform="translate(63.334 67.43)">
      <path id="Path_295" data-name="Path 295" d="M38.1,76.953a4.1,4.1,0,0,1-4.1-4.1V40.1a4.1,4.1,0,0,1,8.191,0V72.858A4.1,4.1,0,0,1,38.1,76.953Z" transform="translate(-34 -36)" fill="#fff"/>
    </g>
    <g id="Group_102" data-name="Group 102" transform="translate(67.43 104.287)">
      <path id="Path_296" data-name="Path 296" d="M72.858,62.191H40.1A4.1,4.1,0,0,1,40.1,54H72.858a4.1,4.1,0,1,1,0,8.191Z" transform="translate(-36 -54)" fill="#fff"/>
    </g>
    <g id="Group_103" data-name="Group 103" transform="translate(63.334 100.192)">
      <path id="Path_297" data-name="Path 297" d="M42.191,64.286A8.2,8.2,0,0,1,34,56.1a4.1,4.1,0,0,1,8.191,0V56.1a4.092,4.092,0,1,1,0,8.184Z" transform="translate(-34 -52)" fill="#fff"/>
    </g>
    <g id="Group_104" data-name="Group 104" transform="translate(100.192 100.192)">
      <path id="Path_298" data-name="Path 298" d="M56.1,64.286a4.1,4.1,0,0,1,0-8.191h0a4.093,4.093,0,1,1,8.187,0A8.2,8.2,0,0,1,56.1,64.286Z" transform="translate(-52 -52)" fill="#fff"/>
    </g>
  </g>
</svg>
