<svg xmlns="http://www.w3.org/2000/svg" width="67" height="67" viewBox="0 0 67 67">
  <g id="BOOTSTRAP" transform="translate(-282 -4322)">
    <path id="Path_122" data-name="Path 122" d="M62.63,0H4.37A4.375,4.375,0,0,0,0,4.37V62.63A4.375,4.375,0,0,0,4.37,67H62.63A4.375,4.375,0,0,0,67,62.63V4.37A4.375,4.375,0,0,0,62.63,0Zm1.457,62.63a1.458,1.458,0,0,1-1.457,1.457H4.37A1.458,1.458,0,0,1,2.913,62.63V4.37A1.459,1.459,0,0,1,4.37,2.913H62.63A1.459,1.459,0,0,1,64.087,4.37Zm0,0" transform="translate(282 4322)" fill="#fff"/>
    <path id="Path_123" data-name="Path 123" d="M117.848,64H97.457A1.458,1.458,0,0,0,96,65.457v40.783a1.456,1.456,0,0,0,1.457,1.457h20.391a10.208,10.208,0,0,0,10.2-10.2V94.587a10.2,10.2,0,0,0-4.948-8.739,10.2,10.2,0,0,0,4.948-8.739V74.2A10.207,10.207,0,0,0,117.848,64Zm7.283,30.587V97.5a7.291,7.291,0,0,1-7.283,7.283H98.913V87.3h18.935A7.291,7.291,0,0,1,125.13,94.587Zm0-17.478a7.291,7.291,0,0,1-7.283,7.283H98.913V66.913h18.935A7.291,7.291,0,0,1,125.13,74.2Zm0,0" transform="translate(203 4269.652)" fill="#fff"/>
  </g>
</svg>
