<svg xmlns="http://www.w3.org/2000/svg" width="121.024" height="75" viewBox="0 0 121.024 75">
  <path id="business-card" d="M118.187,97.354H2.836A2.837,2.837,0,0,0,0,100.19v69.327a2.837,2.837,0,0,0,2.836,2.837H118.187a2.837,2.837,0,0,0,2.836-2.837V100.19a2.836,2.836,0,0,0-2.836-2.836Zm-2.836,69.327H5.673V103.027H115.351ZM20.1,146.138h33.79a2.837,2.837,0,0,0,2.836-2.837V126.406a2.837,2.837,0,0,0-2.836-2.837H20.1a2.837,2.837,0,0,0-2.836,2.837V143.3A2.837,2.837,0,0,0,20.1,146.138Zm2.836-16.895H51.049v11.222H22.932ZM71.875,118.4a2.837,2.837,0,0,1,2.836-2.837h26.216a2.836,2.836,0,1,1,0,5.673H74.712A2.837,2.837,0,0,1,71.875,118.4Zm0,32.915a2.837,2.837,0,0,1,2.836-2.837h26.216a2.836,2.836,0,1,1,0,5.673H74.712A2.837,2.837,0,0,1,71.875,151.312Zm0-16.458a2.837,2.837,0,0,1,2.836-2.837h26.216a2.836,2.836,0,1,1,0,5.673H74.712A2.837,2.837,0,0,1,71.875,134.854Z" transform="translate(0 -97.354)" fill="#fff"/>
</svg>
