<svg xmlns="http://www.w3.org/2000/svg" width="108.895" height="75" viewBox="0 0 108.895 75">
  <g id="cctv" transform="translate(-4.5 -10.564)">
    <path id="Path_819" data-name="Path 819" d="M110.592,41.133l-4.44-1.508.335-.586a4.176,4.176,0,0,0-2.374-6.032L35,10.777a4.072,4.072,0,0,0-3.184.251,4.2,4.2,0,0,0-2.067,2.458L21.2,40.072a4.147,4.147,0,0,0,2.709,5.25l25.3,8.127v7.959A9.961,9.961,0,0,0,44.6,66.015H12.878V59.034a4.189,4.189,0,1,0-8.378,0V81.375a4.189,4.189,0,1,0,8.378,0V74.393h31.7A9.753,9.753,0,1,0,57.56,61.407V56.129l30.1,9.69a4.1,4.1,0,0,0,1.285.2,4.168,4.168,0,0,0,3.658-2.15l1.061-1.927,11.394,3.854a4.5,4.5,0,0,0,1.34.223,4.149,4.149,0,0,0,2.15-.586,4.2,4.2,0,0,0,1.983-2.9l2.793-16.756a4.155,4.155,0,0,0-2.737-4.636Zm-57.221,30.5a1.4,1.4,0,1,1,1.4-1.4A1.383,1.383,0,0,1,53.371,71.628Zm33.6-14.8L30.416,38.647,36.392,20.02,96.657,39.4Zm16.141-.5L97.83,54.537l4.161-7.484,2.513.866Z" transform="translate(0 0)" fill="#fff"/>
  </g>
</svg>
