<svg id="click" xmlns="http://www.w3.org/2000/svg" width="67" height="67" viewBox="0 0 67 67">
  <g id="Group_138" data-name="Group 138">
    <path id="Path_793" data-name="Path 793" d="M64.906,61.417a2.1,2.1,0,0,1-2.094-2.094V7.677a3.494,3.494,0,0,0-3.49-3.49H7.677a3.494,3.494,0,0,0-3.49,3.49v34.9a2.094,2.094,0,0,1-4.187,0V7.677A7.683,7.683,0,0,1,7.677,0H59.323A7.683,7.683,0,0,1,67,7.677V59.323A2.1,2.1,0,0,1,64.906,61.417Z" fill="#fff"/>
  </g>
  <g id="Group_139" data-name="Group 139" transform="translate(0 9.771)">
    <path id="Path_794" data-name="Path 794" d="M64.906,7.687H2.094a2.094,2.094,0,1,1,0-4.187H64.906a2.094,2.094,0,1,1,0,4.187Z" transform="translate(0 -3.5)" fill="#fff"/>
  </g>
  <g id="Group_140" data-name="Group 140" transform="translate(20.937 22.333)">
    <path id="Path_795" data-name="Path 795" d="M9.594,44.934A2.1,2.1,0,0,1,7.5,42.84V14.281a6.281,6.281,0,0,1,12.563,0v16.75a2.094,2.094,0,0,1-4.188,0V14.281a2.094,2.094,0,0,0-4.187,0V42.84A2.1,2.1,0,0,1,9.594,44.934Z" transform="translate(-7.5 -8)" fill="#fff"/>
  </g>
  <g id="Group_141" data-name="Group 141" transform="translate(29.312 39.083)">
    <path id="Path_796" data-name="Path 796" d="M12.594,29.354A2.1,2.1,0,0,1,10.5,27.26V20.281a6.281,6.281,0,1,1,12.562,0v2.792a2.094,2.094,0,0,1-4.187,0V20.281a2.094,2.094,0,1,0-4.187,0V27.26A2.1,2.1,0,0,1,12.594,29.354Z" transform="translate(-10.5 -14)" fill="#fff"/>
  </g>
  <g id="Group_142" data-name="Group 142" transform="translate(37.687 41.875)">
    <path id="Path_797" data-name="Path 797" d="M15.594,30.354A2.1,2.1,0,0,1,13.5,28.26V21.281a6.281,6.281,0,0,1,12.563,0v5.583a2.094,2.094,0,0,1-4.187,0V21.281a2.094,2.094,0,0,0-4.187,0V28.26A2.1,2.1,0,0,1,15.594,30.354Z" transform="translate(-13.5 -15)" fill="#fff"/>
  </g>
  <g id="Group_143" data-name="Group 143" transform="translate(46.062 47.458)">
    <path id="Path_798" data-name="Path 798" d="M26.969,36.542a2.1,2.1,0,0,1-2.094-2.094V23.281a2.094,2.094,0,0,0-4.187,0v4.187a2.094,2.094,0,0,1-4.187,0V23.281a6.281,6.281,0,0,1,12.563,0V34.448A2.1,2.1,0,0,1,26.969,36.542Z" transform="translate(-16.5 -17)" fill="#fff"/>
  </g>
  <g id="Group_144" data-name="Group 144" transform="translate(5.583 48.854)">
    <path id="Path_799" data-name="Path 799" d="M11.38,35.646a2.088,2.088,0,0,1-1.921-1.265A19.087,19.087,0,0,0,4.4,26.925C3.217,25.83,2,24.7,2,22.385c0-.815.371-4.885,7.677-4.885,5.131,0,9.059,3.844,11.454,7.071a2.094,2.094,0,1,1-3.364,2.493c-1.491-2.007-4.522-5.377-8.09-5.377-2.917,0-3.509.8-3.512.812.022.31.022.374,1.078,1.354,1.485,1.379,3.732,3.464,6.061,8.869a2.093,2.093,0,0,1-1.923,2.923Z" transform="translate(-2 -17.5)" fill="#fff"/>
  </g>
</svg>
