<svg xmlns="http://www.w3.org/2000/svg" width="80.601" height="74" viewBox="0 0 80.601 74">
  <g id="cms" transform="translate(0 -20.965)">
    <path id="Path_595" data-name="Path 595" d="M97.73,83.627V47.488a1.524,1.524,0,0,0-1.522-1.522H26.522A1.524,1.524,0,0,0,25,47.488V83.627a1.524,1.524,0,0,0,1.522,1.522h6.743a1.181,1.181,0,0,0,0-2.361h-5.9V48.327H95.368v34.46H38.775a1.181,1.181,0,1,0,0,2.361H96.208a1.524,1.524,0,0,0,1.522-1.522Z" transform="translate(-21.064 -21.065)" fill="#fff"/>
    <path id="Path_596" data-name="Path 596" d="M295.778,77.351a1.388,1.388,0,0,0-1.386-1.386h-27.35a1.388,1.388,0,0,0-1.386,1.386V83.81a1.388,1.388,0,0,0,1.386,1.386h27.35a1.388,1.388,0,0,0,1.386-1.386Zm-2.361,5.484h-25.4V78.326h25.4Z" transform="translate(-223.835 -46.342)" fill="#fff"/>
    <path id="Path_597" data-name="Path 597" d="M329.2,154.6H308.143a1.181,1.181,0,0,0,0,2.361H329.2a1.181,1.181,0,0,0,0-2.361Z" transform="translate(-258.639 -112.601)" fill="#fff"/>
    <path id="Path_598" data-name="Path 598" d="M296.673,190.785a1.181,1.181,0,0,0-1.181-1.181h-27.35a1.181,1.181,0,0,0,0,2.361h27.35A1.181,1.181,0,0,0,296.673,190.785Z" transform="translate(-224.936 -142.091)" fill="#fff"/>
    <path id="Path_599" data-name="Path 599" d="M268.143,224.6a1.181,1.181,0,1,0,0,2.361h19.478a1.181,1.181,0,1,0,0-2.361Z" transform="translate(-224.936 -171.581)" fill="#fff"/>
    <path id="Path_600" data-name="Path 600" d="M77.053,20.965H3.548A3.552,3.552,0,0,0,0,24.513V70.958a3.552,3.552,0,0,0,3.548,3.548H30.063L27.986,86.9H26.612a4.039,4.039,0,0,0-4.034,4.034v2.678a1.358,1.358,0,0,0,1.357,1.357H56.666a1.358,1.358,0,0,0,1.357-1.357V90.93A4.039,4.039,0,0,0,53.989,86.9H52.615l-2.078-12.39H69.507a1.181,1.181,0,0,0,0-2.361H3.548a1.188,1.188,0,0,1-1.187-1.187V24.513a1.188,1.188,0,0,1,1.187-1.187H77.053a1.188,1.188,0,0,1,1.187,1.187V70.958a1.188,1.188,0,0,1-1.187,1.187H75.017a1.181,1.181,0,1,0,0,2.361h2.036A3.552,3.552,0,0,0,80.6,70.958V24.513a3.552,3.552,0,0,0-3.548-3.548ZM38.5,89.257h15.49a1.675,1.675,0,0,1,1.673,1.673V92.6H24.939V90.93a1.675,1.675,0,0,1,1.673-1.673h6.376a1.181,1.181,0,1,0,0-2.361H30.38l2.073-12.362h15.7L50.221,86.9H38.5a1.181,1.181,0,0,0,0,2.362Z" transform="translate(0 0)" fill="#fff"/>
    <path id="Path_601" data-name="Path 601" d="M70.224,104.589l1.954,3.384a1.658,1.658,0,0,0,2.083.7l2.125-.9a10.173,10.173,0,0,0,2.384,1.378l.279,2.289a1.658,1.658,0,0,0,1.644,1.456H84.6a1.658,1.658,0,0,0,1.644-1.456l.279-2.29a10.176,10.176,0,0,0,2.384-1.378l2.125.9a1.658,1.658,0,0,0,2.083-.7l1.954-3.384a1.658,1.658,0,0,0-.439-2.152l-1.844-1.388a10.345,10.345,0,0,0,0-2.753l1.844-1.388a1.658,1.658,0,0,0,.439-2.152l-1.954-3.384a1.658,1.658,0,0,0-2.083-.7l-2.125.9A10.172,10.172,0,0,0,86.526,90.2l-.279-2.289A1.658,1.658,0,0,0,84.6,86.455H80.694a1.658,1.658,0,0,0-1.644,1.456L78.77,90.2a10.178,10.178,0,0,0-2.384,1.378l-2.125-.9a1.658,1.658,0,0,0-2.083.7l-1.954,3.384a1.659,1.659,0,0,0,.439,2.152L72.507,98.3a10.345,10.345,0,0,0,0,2.753l-1.845,1.388A1.659,1.659,0,0,0,70.224,104.589Zm4.674-3.528a7.975,7.975,0,0,1,0-2.777,1.655,1.655,0,0,0-.633-1.621L72.581,95.4l1.33-2.3,1.94.825a1.654,1.654,0,0,0,1.723-.263,7.832,7.832,0,0,1,2.4-1.388,1.655,1.655,0,0,0,1.089-1.36l.255-2.091h2.66l.255,2.091a1.654,1.654,0,0,0,1.089,1.36,7.838,7.838,0,0,1,2.4,1.387,1.654,1.654,0,0,0,1.723.264l1.941-.825,1.33,2.3L91.03,96.663a1.654,1.654,0,0,0-.633,1.621,7.971,7.971,0,0,1,0,2.776,1.655,1.655,0,0,0,.633,1.621l1.684,1.267-1.33,2.3-1.94-.825a1.654,1.654,0,0,0-1.723.263,7.834,7.834,0,0,1-2.4,1.388,1.655,1.655,0,0,0-1.089,1.36l-.255,2.091h-2.66l-.255-2.091a1.654,1.654,0,0,0-1.089-1.36,7.836,7.836,0,0,1-2.4-1.388,1.654,1.654,0,0,0-1.723-.264l-1.941.825-1.33-2.3,1.684-1.267A1.653,1.653,0,0,0,74.9,101.061Z" transform="translate(-58.982 -55.18)" fill="#fff"/>
    <path id="Path_602" data-name="Path 602" d="M125.789,150.462a4.585,4.585,0,1,0-4.585-4.585A4.59,4.59,0,0,0,125.789,150.462Zm0-6.808a2.223,2.223,0,1,1-2.223,2.223A2.226,2.226,0,0,1,125.789,143.653Z" transform="translate(-102.124 -101.385)" fill="#fff"/>
    <path id="Path_603" data-name="Path 603" d="M218,312.971a1.181,1.181,0,1,0,0,2.361h9.975a1.181,1.181,0,1,0,0-2.361Z" transform="translate(-182.685 -246.037)" fill="#fff"/>
  </g>
</svg>
