<svg id="famous" xmlns="http://www.w3.org/2000/svg" width="73.615" height="74" viewBox="0 0 73.615 74">
  <g id="Group_2" data-name="Group 2" transform="translate(18.404 19.613)">
    <g id="Group_1" data-name="Group 1">
      <path id="Path_73" data-name="Path 73" d="M145.453,150.2a12.269,12.269,0,1,0-14.1,0A13.67,13.67,0,0,0,120,163.647v17.014a1.227,1.227,0,0,0,1.226,1.227h34.354a1.227,1.227,0,0,0,1.227-1.226h0V163.647A13.67,13.67,0,0,0,145.453,150.2Zm-16.865-10.025a9.815,9.815,0,1,1,9.815,9.815A9.815,9.815,0,0,1,128.588,140.173Zm25.765,39.261h-31.9V163.647a11.218,11.218,0,0,1,11.205-11.205h9.489a11.218,11.218,0,0,1,11.205,11.205Z" transform="translate(-120 -127.886)" fill="#fff"/>
    </g>
  </g>
  <g id="Group_4" data-name="Group 4" transform="translate(35 7)">
    <g id="Group_3" data-name="Group 3" transform="translate(0 0)">
      <rect id="Rectangle_56" data-name="Rectangle 56" width="3" height="6" fill="#fff"/>
    </g>
  </g>
  <g id="Group_6" data-name="Group 6" transform="translate(47.701 10.383)">
    <g id="Group_5" data-name="Group 5" transform="translate(0 0)">
      <rect id="Rectangle_57" data-name="Rectangle 57" width="4.908" height="2.454" transform="translate(0 3.47) rotate(-45)" fill="#fff"/>
    </g>
  </g>
  <g id="Group_8" data-name="Group 8" transform="translate(62 71)">
    <g id="Group_7" data-name="Group 7" transform="translate(0 0)">
      <rect id="Rectangle_58" data-name="Rectangle 58" width="6" height="3" transform="translate(0)" fill="#fff"/>
    </g>
  </g>
  <g id="Group_10" data-name="Group 10" transform="translate(62 59)">
    <g id="Group_9" data-name="Group 9" transform="translate(0 0)">
      <rect id="Rectangle_59" data-name="Rectangle 59" width="6" height="2" transform="translate(0 0)" fill="#fff"/>
    </g>
  </g>
  <g id="Group_12" data-name="Group 12" transform="translate(62 46)">
    <g id="Group_11" data-name="Group 11" transform="translate(0 0)">
      <rect id="Rectangle_60" data-name="Rectangle 60" width="6" height="3" transform="translate(0)" fill="#fff"/>
    </g>
  </g>
  <g id="Group_14" data-name="Group 14" transform="translate(61.087 33.638)">
    <g id="Group_13" data-name="Group 13" transform="translate(0 0)">
      <rect id="Rectangle_61" data-name="Rectangle 61" width="4.908" height="2.454" transform="translate(0 1.553) rotate(-18.446)" fill="#fff"/>
    </g>
  </g>
  <g id="Group_16" data-name="Group 16" transform="translate(57.275 20.915)">
    <g id="Group_15" data-name="Group 15" transform="translate(0 0)">
      <rect id="Rectangle_62" data-name="Rectangle 62" width="4.908" height="2.454" transform="translate(0 1.553) rotate(-18.446)" fill="#fff"/>
    </g>
  </g>
  <g id="Group_18" data-name="Group 18" transform="translate(20.71 10.386)">
    <g id="Group_17" data-name="Group 17" transform="translate(0 0)">
      <rect id="Rectangle_63" data-name="Rectangle 63" width="2.454" height="4.908" transform="matrix(0.707, -0.707, 0.707, 0.707, 0, 1.735)" fill="#fff"/>
    </g>
  </g>
  <g id="Group_20" data-name="Group 20" transform="translate(6 71)">
    <g id="Group_19" data-name="Group 19" transform="translate(0 0)">
      <rect id="Rectangle_64" data-name="Rectangle 64" width="5" height="3" fill="#fff"/>
    </g>
  </g>
  <g id="Group_22" data-name="Group 22" transform="translate(6 59)">
    <g id="Group_21" data-name="Group 21" transform="translate(0 0)">
      <rect id="Rectangle_65" data-name="Rectangle 65" width="5" height="2" transform="translate(0 0)" fill="#fff"/>
    </g>
  </g>
  <g id="Group_24" data-name="Group 24" transform="translate(6 46)">
    <g id="Group_23" data-name="Group 23" transform="translate(0 0)">
      <rect id="Rectangle_66" data-name="Rectangle 66" width="5" height="3" fill="#fff"/>
    </g>
  </g>
  <g id="Group_26" data-name="Group 26" transform="translate(7.099 33.639)">
    <g id="Group_25" data-name="Group 25" transform="translate(0 0)">
      <rect id="Rectangle_67" data-name="Rectangle 67" width="2.454" height="4.908" transform="matrix(0.316, -0.949, 0.949, 0.316, 0, 2.328)" fill="#fff"/>
    </g>
  </g>
  <g id="Group_28" data-name="Group 28" transform="translate(10.905 20.923)">
    <g id="Group_27" data-name="Group 27" transform="translate(0 0)">
      <rect id="Rectangle_68" data-name="Rectangle 68" width="2.454" height="4.908" transform="translate(0 2.328) rotate(-71.561)" fill="#fff"/>
    </g>
  </g>
  <g id="Group_30" data-name="Group 30" transform="translate(61.346)">
    <g id="Group_29" data-name="Group 29">
      <path id="Path_74" data-name="Path 74" d="M411.042,4.908a3.685,3.685,0,0,1-3.681-3.681,1.227,1.227,0,1,0-2.454,0,3.685,3.685,0,0,1-3.681,3.681,1.227,1.227,0,0,0,0,2.454,3.685,3.685,0,0,1,3.681,3.681,1.227,1.227,0,1,0,2.454,0,3.685,3.685,0,0,1,3.681-3.681,1.227,1.227,0,0,0,0-2.454Zm-4.908,2.457a6.186,6.186,0,0,0-1.23-1.23,6.186,6.186,0,0,0,1.23-1.23,6.186,6.186,0,0,0,1.23,1.23A6.187,6.187,0,0,0,406.135,7.365Z" transform="translate(-400)" fill="#fff"/>
    </g>
  </g>
  <g id="Group_32" data-name="Group 32">
    <g id="Group_31" data-name="Group 31">
      <path id="Path_75" data-name="Path 75" d="M11.042,4.908A3.685,3.685,0,0,1,7.361,1.227a1.227,1.227,0,0,0-2.454,0A3.685,3.685,0,0,1,1.227,4.908a1.227,1.227,0,0,0,0,2.454,3.685,3.685,0,0,1,3.681,3.681,1.227,1.227,0,0,0,2.454,0,3.685,3.685,0,0,1,3.681-3.681,1.227,1.227,0,0,0,0-2.454ZM6.135,7.365A6.186,6.186,0,0,0,4.9,6.135,6.186,6.186,0,0,0,6.135,4.9a6.186,6.186,0,0,0,1.23,1.23A6.186,6.186,0,0,0,6.135,7.365Z" fill="#fff"/>
    </g>
  </g>
</svg>
