<svg xmlns="http://www.w3.org/2000/svg" width="99.755" height="75" viewBox="0 0 99.755 75">
  <g id="fast-time" transform="translate(0 -63.529)">
    <path id="Path_84" data-name="Path 84" d="M32.833,137.133H48.244a1.461,1.461,0,1,0,0-2.923H32.833a1.461,1.461,0,0,0,0,2.923Z" transform="translate(-25.26 -56.91)" fill="#fff"/>
    <path id="Path_85" data-name="Path 85" d="M84.061,185.317H77.973a1.461,1.461,0,0,0,0,2.923h6.088a1.461,1.461,0,0,0,0-2.923Z" transform="translate(-61.605 -98.059)" fill="#fff"/>
    <path id="Path_86" data-name="Path 86" d="M1.461,225.25H16.368a1.461,1.461,0,1,0,0-2.923H1.461a1.461,1.461,0,1,0,0,2.923Z" transform="translate(0 -127.859)" fill="#fff"/>
    <path id="Path_87" data-name="Path 87" d="M49.706,364.25a1.461,1.461,0,0,0-1.461-1.461H32.833a1.461,1.461,0,0,0,0,2.923H48.244A1.461,1.461,0,0,0,49.706,364.25Z" transform="translate(-25.26 -240.954)" fill="#fff"/>
    <path id="Path_88" data-name="Path 88" d="M84.061,311.683H77.973a1.461,1.461,0,0,0,0,2.923h6.088a1.461,1.461,0,0,0,0-2.923Z" transform="translate(-61.605 -199.805)" fill="#fff"/>
    <path id="Path_89" data-name="Path 89" d="M17.83,276.134a1.461,1.461,0,0,0-1.461-1.461H1.461a1.461,1.461,0,1,0,0,2.923H16.368A1.461,1.461,0,0,0,17.83,276.134Z" transform="translate(0 -170.006)" fill="#fff"/>
    <path id="Path_90" data-name="Path 90" d="M313.49,144.535a1.461,1.461,0,0,0,1.461-1.461v-2.23a1.461,1.461,0,0,0-2.923,0v2.23A1.461,1.461,0,0,0,313.49,144.535Z" transform="translate(-251.235 -61.074)" fill="#fff"/>
    <path id="Path_91" data-name="Path 91" d="M385.163,171.77a1.462,1.462,0,0,0-2.067,0l-1.577,1.577a1.461,1.461,0,1,0,2.067,2.067l1.577-1.577A1.462,1.462,0,0,0,385.163,171.77Z" transform="translate(-306.841 -86.807)" fill="#fff"/>
    <path id="Path_92" data-name="Path 92" d="M411.16,248.5a1.461,1.461,0,1,0,0,2.922h2.23a1.461,1.461,0,1,0,0-2.922Z" transform="translate(-329.875 -148.932)" fill="#fff"/>
    <path id="Path_93" data-name="Path 93" d="M383.586,317.991a1.461,1.461,0,0,0-2.067,2.067l1.577,1.577a1.461,1.461,0,0,0,2.067-2.067Z" transform="translate(-306.841 -204.539)" fill="#fff"/>
    <path id="Path_94" data-name="Path 94" d="M312.029,347.631v2.23a1.461,1.461,0,0,0,2.923,0v-2.23a1.461,1.461,0,0,0-2.923,0Z" transform="translate(-251.235 -227.573)" fill="#fff"/>
    <path id="Path_95" data-name="Path 95" d="M236.875,317.991l-1.577,1.577a1.461,1.461,0,0,0,2.066,2.067l1.577-1.577a1.461,1.461,0,0,0-2.066-2.067Z" transform="translate(-189.109 -204.539)" fill="#fff"/>
    <path id="Path_96" data-name="Path 96" d="M204.372,248.5a1.461,1.461,0,0,0,0,2.922h2.23a1.461,1.461,0,1,0,0-2.922Z" transform="translate(-163.377 -148.932)" fill="#fff"/>
    <path id="Path_97" data-name="Path 97" d="M238.943,173.347l-1.577-1.577a1.461,1.461,0,1,0-2.066,2.067l1.577,1.577a1.461,1.461,0,1,0,2.066-2.067Z" transform="translate(-189.11 -86.807)" fill="#fff"/>
    <path id="Path_98" data-name="Path 98" d="M321.348,199.088a1.461,1.461,0,0,0-1.461-1.461h-4.935V186.777a1.461,1.461,0,1,0-2.923,0v12.31a1.461,1.461,0,0,0,1.461,1.461h6.4A1.461,1.461,0,0,0,321.348,199.088Z" transform="translate(-251.235 -98.059)" fill="#fff"/>
    <path id="Path_99" data-name="Path 99" d="M226.838,135.361a1.461,1.461,0,0,0,1.37-1.547,29.114,29.114,0,1,0-.269,6.148,1.461,1.461,0,1,0-2.89-.434,26.231,26.231,0,1,1,.242-5.537,1.462,1.462,0,0,0,1.547,1.37Z" transform="translate(-136.875 -34.573)" fill="#fff"/>
    <path id="Path_100" data-name="Path 100" d="M145.735,63.529a37.485,37.485,0,0,0-14.811,3.06H105.142a1.461,1.461,0,1,0,0,2.923h20.285a37.46,37.46,0,0,0-7.494,6.352,1.461,1.461,0,1,0,2.166,1.962,34.508,34.508,0,1,1-3.426,4.462,1.461,1.461,0,0,0-2.455-1.586,37.49,37.49,0,0,0,11.218,51.843H105.142a1.461,1.461,0,0,0,0,2.923H130.9a37.5,37.5,0,1,0,14.831-71.94Z" transform="translate(-83.48 0)" fill="#fff"/>
  </g>
</svg>
