<svg id="Layer_2" data-name="Layer 2" xmlns="http://www.w3.org/2000/svg" width="78.18" height="67" viewBox="0 0 78.18 67">
  <path id="Path_790" data-name="Path 790" d="M52.546,3.51H27.633A26.659,26.659,0,0,0,1,30.143v4.065A26.659,26.659,0,0,0,27.633,60.842h9.851l4.977,7.818a3.9,3.9,0,0,0,6.671-.052l4.8-7.818A25.773,25.773,0,0,0,79.18,35.121V30.143A26.659,26.659,0,0,0,52.546,3.51ZM73.968,35.121A20.535,20.535,0,0,1,53.459,55.63a4.222,4.222,0,0,0-3.6,2.033L45.875,64.23l-4.2-6.645a4.2,4.2,0,0,0-3.57-1.954H27.685A21.447,21.447,0,0,1,6.212,34.209V30.143A21.447,21.447,0,0,1,27.633,8.722H52.546A21.447,21.447,0,0,1,73.968,30.143Z" transform="translate(-1 -3.51)" fill="#fff"/>
  <path id="Path_791" data-name="Path 791" d="M38.666,10.59H12.606a2.606,2.606,0,0,0,0,5.212h26.06a2.606,2.606,0,1,0,0-5.212Z" transform="translate(13.454 7.86)" fill="#fff"/>
  <path id="Path_792" data-name="Path 792" d="M38.666,16.13H12.606a2.606,2.606,0,1,0,0,5.212h26.06a2.606,2.606,0,1,0,0-5.212Z" transform="translate(13.454 16.758)" fill="#fff"/>
</svg>
