<svg xmlns="http://www.w3.org/2000/svg" width="76.343" height="75" viewBox="0 0 76.343 75">
  <g id="illustration" transform="translate(0 -4.503)">
    <g id="Group_135" data-name="Group 135" transform="translate(0 4.504)">
      <path id="Path_784" data-name="Path 784" d="M231.618,371.49a1.118,1.118,0,1,0,0,2.237h5.368a1.118,1.118,0,1,0,0-2.237Z" transform="translate(-196.131 -316.769)" fill="#fff"/>
      <path id="Path_785" data-name="Path 785" d="M83.618,230.784H91.01a3.126,3.126,0,0,0,5.842,0H98.33a1.118,1.118,0,1,0,0-2.237H96.853a3.126,3.126,0,0,0-5.842,0H83.618a1.118,1.118,0,1,0,0,2.237Zm10.313-2.013a.895.895,0,1,1-.895.895A.9.9,0,0,1,93.932,228.771Z" transform="translate(-70.199 -193.428)" fill="#fff"/>
      <path id="Path_786" data-name="Path 786" d="M83.618,187.784h1.428a3.126,3.126,0,0,0,5.842,0H98.33a1.118,1.118,0,1,0,0-2.237H90.889a3.126,3.126,0,0,0-5.842,0H83.618a1.118,1.118,0,1,0,0,2.237Zm4.349-2.013a.895.895,0,1,1-.895.895A.9.9,0,0,1,87.967,185.771Z" transform="translate(-70.199 -156.839)" fill="#fff"/>
      <circle id="Ellipse_252" data-name="Ellipse 252" cx="1.118" cy="1.118" r="1.118" transform="translate(27.237 18.419)" fill="#fff"/>
      <circle id="Ellipse_253" data-name="Ellipse 253" cx="1.118" cy="1.118" r="1.118" transform="translate(24.155 18.419)" fill="#fff"/>
      <circle id="Ellipse_254" data-name="Ellipse 254" cx="1.118" cy="1.118" r="1.118" transform="translate(21.074 18.419)" fill="#fff"/>
      <path id="Path_787" data-name="Path 787" d="M72.988,11.359h-.419l.312-.312a2.4,2.4,0,0,0,0-3.394L70.434,5.205a2.4,2.4,0,0,0-3.394,0l-6.154,6.154H3.355A3.359,3.359,0,0,0,0,14.714V61.156a4.105,4.105,0,0,0,4.1,4.1H30.589v7.911H25.2a2.612,2.612,0,0,0-2.609,2.609v1.117A2.612,2.612,0,0,0,25.2,79.5H51.144a2.612,2.612,0,0,0,2.609-2.609V75.777a2.612,2.612,0,0,0-2.609-2.609h-5.39V65.256H57.7a1.118,1.118,0,0,0,0-2.237H4.1a1.866,1.866,0,0,1-1.864-1.864v-3.31h71.87v3.31a1.866,1.866,0,0,1-1.864,1.864H62.924a1.118,1.118,0,0,0,0,2.237h9.319a4.105,4.105,0,0,0,4.1-4.1V14.714a3.359,3.359,0,0,0-3.355-3.355ZM51.144,75.4a.373.373,0,0,1,.373.373v1.117a.373.373,0,0,1-.373.373H25.2a.373.373,0,0,1-.373-.373V75.777A.373.373,0,0,1,25.2,75.4ZM32.825,65.257H43.518v7.911H32.825Zm35.8-58.47a.163.163,0,0,1,.231,0L71.3,9.235a.163.163,0,0,1,0,.231L68.965,11.8,66.286,9.123ZM64.7,10.7l2.679,2.679-.78.78-2.679-2.679Zm-2.362,2.362,2.679,2.679L51.788,28.978,49.109,26.3ZM60.687,23.29a2.758,2.758,0,1,1-2.758,2.758c0-.018,0-.035,0-.053l2.7-2.7ZM49.846,30.2l-3.31,1.352,1.352-3.31Zm24.261,25.41H2.237v-40.9A1.12,1.12,0,0,1,3.355,13.6H58.65L56.944,15.3H18.937a1.118,1.118,0,1,0,0,2.237H54.708L46.82,25.426a2.386,2.386,0,0,0-.517.781l-2.5,6.116a1.5,1.5,0,0,0,1.96,1.959l6.116-2.5a2.386,2.386,0,0,0,.761-.5l3.4-3.4a4.994,4.994,0,1,0,6.479-6.478l3.868-3.867h3.775v34.13h-.593l-4.053-7.02a1.118,1.118,0,0,0-1.937,1.118l3.407,5.9H51.368l-1.676-2.9L57.5,35.237l3.47,6.01a1.118,1.118,0,0,0,1.937-1.118l-3.7-6.412a1.969,1.969,0,0,0-3.41,0L48.4,46.529,38.909,30.09a1.969,1.969,0,0,0-3.41,0l-2.522,4.368V22.47a2.612,2.612,0,0,0-2.609-2.609H11.183A2.612,2.612,0,0,0,8.574,22.47V46.924a1.866,1.866,0,0,0,1.864,1.864H24.7l-1.663,2.88H6.179V17.538h7.539a1.118,1.118,0,0,0,0-2.237H5.806a1.866,1.866,0,0,0-1.864,1.864V52.04A1.866,1.866,0,0,0,5.806,53.9H70.538A1.866,1.866,0,0,0,72.4,52.04V17.165A1.866,1.866,0,0,0,70.538,15.3h-1.91L70.333,13.6h2.656a1.12,1.12,0,0,1,1.118,1.118ZM30.741,28.664V46.551H10.81V28.664ZM10.81,26.427V22.47a.373.373,0,0,1,.373-.373H30.368a.373.373,0,0,1,.373.373v3.957ZM27.287,48.787h3.827a1.866,1.866,0,0,0,1.864-1.864V44.555a2.115,2.115,0,0,0,.917.207,2.09,2.09,0,0,0,1.829-1.056l1.9-3.3a.241.241,0,0,1,.418,0l1.173,2.032a2.112,2.112,0,0,0,3.658,0l.291-.5,5.618,9.73H25.624Zm5.691-7.976V38.93L37.2,31.61,41.876,39.7l-.829,1.435-1.065-1.845a2.478,2.478,0,0,0-4.292,0L33.895,42.4Z" transform="translate(0 -4.504)" fill="#fff"/>
    </g>
  </g>
</svg>
