<svg xmlns="http://www.w3.org/2000/svg" width="648.277" height="375" viewBox="0 0 648.277 375">
  <g id="undraw_image_viewer_wxce" transform="translate(0 0)">
    <rect id="Rectangle_210" data-name="Rectangle 210" width="648.277" height="1.515" transform="translate(0 256.895)" fill="#3f3d56"/>
    <path id="Path_678" data-name="Path 678" d="M647.851,673.822h-432.2a14.492,14.492,0,0,1-14.492-14.492h0q235.01-27.313,461.188,0h0A14.492,14.492,0,0,1,647.851,673.822Z" transform="translate(-179.075 -309.984)" fill="#2f2e41"/>
    <path id="Path_679" data-name="Path 679" d="M662.343,566.223l-461.188-.853,53.45-89.936.256-.426V276.8a18.318,18.318,0,0,1,18.321-18.32H587.76A18.319,18.319,0,0,1,606.08,276.8V476.373Z" transform="translate(-179.075 -216.025)" fill="#3f3d56"/>
    <path id="Path_680" data-name="Path 680" d="M293.8,275.365a5.974,5.974,0,0,0-5.967,5.967V462.056a5.974,5.974,0,0,0,5.967,5.967H611.769a5.975,5.975,0,0,0,5.967-5.967V281.332a5.974,5.974,0,0,0-5.967-5.967Z" transform="translate(-200.108 -220.122)" fill="#fff"/>
    <path id="Path_681" data-name="Path 681" d="M291.37,561.273a2.564,2.564,0,0,0-2.323,1.489l-16.47,35.8a2.557,2.557,0,0,0,2.323,3.626H621.248a2.557,2.557,0,0,0,2.287-3.7l-17.9-35.8a2.545,2.545,0,0,0-2.287-1.414Z" transform="translate(-196.35 -289.503)" fill="#2f2e41"/>
    <circle id="Ellipse_232" data-name="Ellipse 232" cx="3.836" cy="3.836" r="3.836" transform="translate(247.559 44.586)" fill="#fff"/>
    <path id="Path_682" data-name="Path 682" d="M456.854,624.308a2.561,2.561,0,0,0-2.469,1.892l-4.131,15.344a2.557,2.557,0,0,0,2.469,3.222h78.567a2.557,2.557,0,0,0,2.416-3.394l-5.311-15.344a2.559,2.559,0,0,0-2.417-1.721Z" transform="translate(-239.501 -304.799)" fill="#2f2e41"/>
    <path id="Path_683" data-name="Path 683" d="M451.207,338.028v3.41H99.732l.264-.426v-2.984Z" transform="translate(-24.202 -82.028)" fill="#2f2e41"/>
    <path id="Path_684" data-name="Path 684" d="M345.8,324.912a4.7,4.7,0,0,0-4.627,4.76v107.9a4.7,4.7,0,0,0,4.627,4.76H585.651a4.7,4.7,0,0,0,4.627-4.76v-107.9a4.7,4.7,0,0,0-4.627-4.76Z" transform="translate(-213.053 -232.146)" fill="#e6e6e6"/>
    <path id="Path_685" data-name="Path 685" d="M488.776,451.009h87.31a2.811,2.811,0,0,0,1.987-4.8l-55.88-55.88a2.814,2.814,0,0,0-3.975,0l-13.9,13.9a5.894,5.894,0,0,1-8.337,0L452.463,360.7a2.814,2.814,0,0,0-3.975,0l-85.122,85.122a2.811,2.811,0,0,0,1.988,4.8H488.888Z" transform="translate(-218.238 -240.632)" fill="#c12a21"/>
    <circle id="Ellipse_233" data-name="Ellipse 233" cx="10.797" cy="10.797" r="10.797" transform="translate(155.887 107.42)" fill="#c12a21"/>
    <path id="Path_686" data-name="Path 686" d="M354.64,359.435a.771.771,0,0,1-.771-.771V306.992a.771.771,0,0,1,.771-.771h59.384a.771.771,0,1,1,0,1.542H355.411v50.9a.771.771,0,0,1-.771.771Z" transform="translate(-216.133 -227.61)" fill="#3f3d56"/>
    <path id="Path_687" data-name="Path 687" d="M637.038,360.453a.771.771,0,0,1-.771-.771v-50.9H577.654a.771.771,0,1,1,0-1.542h59.384a.771.771,0,0,1,.771.771v51.671a.771.771,0,0,1-.771.771Z" transform="translate(-270.251 -227.857)" fill="#3f3d56"/>
    <path id="Path_688" data-name="Path 688" d="M414.023,480.617H354.64a.771.771,0,0,1-.771-.771V428.174a.771.771,0,1,1,1.542,0v50.9h58.613a.771.771,0,1,1,0,1.542Z" transform="translate(-216.133 -257.017)" fill="#3f3d56"/>
    <path id="Path_689" data-name="Path 689" d="M637.038,481.635H577.654a.771.771,0,1,1,0-1.542h58.613v-50.9a.771.771,0,1,1,1.542,0v51.672a.771.771,0,0,1-.771.771Z" transform="translate(-270.251 -257.264)" fill="#3f3d56"/>
    <path id="Path_690" data-name="Path 690" d="M983.076,474.2h0a8.7,8.7,0,0,0,9.545-8.659V447L980.5,445.546l-4.952,17.642a8.7,8.7,0,0,0,7.532,11.01Z" transform="translate(-366.915 -261.42)" fill="#ffb8b8"/>
    <path id="Path_691" data-name="Path 691" d="M844.063,485.619h0a8.7,8.7,0,0,0,7.677-10.351l-3.608-18.184-12.176.933-1.424,18.269a8.7,8.7,0,0,0,9.531,9.334Z" transform="translate(-332.768 -264.219)" fill="#ffb8b8"/>
    <path id="Path_692" data-name="Path 692" d="M885.841,619.9l14.169.606c-3.031-57.27-2.086-105.714,6.2-137.857,10.313,36.7,13.859,84.855,14.132,138.557l15.452-1.307c6.6-63.592,9.954-122.387,2.91-165.864-22.1-12.841-46.578-12.88-73.718,1.455C864.378,504.2,872.731,560.132,885.841,619.9Z" transform="translate(-340.157 -261.182)" fill="#2f2e41"/>
    <path id="Path_693" data-name="Path 693" d="M890.846,672.193l-6.012,2s-12.692-3.34-9.352,5.344,12.692,7.348,12.692,7.348,11.356,8.684,16.032,2l-2.672-14.028Z" transform="translate(-342.576 -316.419)" fill="#2f2e41"/>
    <path id="Path_694" data-name="Path 694" d="M947.593,672.193l6.012,2s12.692-3.34,9.352,5.344-12.692,7.348-12.692,7.348-11.356,8.684-16.032,2l2.672-14.028Z" transform="translate(-356.969 -316.419)" fill="#2f2e41"/>
    <circle id="Ellipse_234" data-name="Ellipse 234" cx="19.884" cy="19.884" r="19.884" transform="translate(522.404 5.167)" fill="#ffb8b8"/>
    <path id="Path_695" data-name="Path 695" d="M884.848,275.268l30.069-8.245a39.214,39.214,0,0,1-8.73-31.524H884.848Z" transform="translate(-344.984 -210.448)" fill="#ffb8b8"/>
    <path id="Path_696" data-name="Path 696" d="M859.237,417.049c26.867-9.906,53.182-11.75,78.567,0-7.338-48.262-9.663-91.81-1.814-122.1a12.767,12.767,0,0,0-7.168-14.912l-26.906-11.881-25.7,3.88-21.7,15.749a12.727,12.727,0,0,0-4.36,14.994C861.586,331.583,863.682,370.7,859.237,417.049Z" transform="translate(-336.347 -218.374)" fill="#c12a21"/>
    <path id="Path_697" data-name="Path 697" d="M974.242,407.529l14.065,1.455L973.968,307.791a29.861,29.861,0,0,0-20.541-24.275l-1.979-.628,2.91,54.318Z" transform="translate(-361.146 -221.948)" fill="#c12a21"/>
    <path id="Path_698" data-name="Path 698" d="M848.645,419.569l-13.656,3.665-1.881-102.187a29.861,29.861,0,0,1,16.433-27.224l1.855-.933,5.736,54.093Z" transform="translate(-332.428 -224.375)" fill="#c12a21"/>
    <path id="Path_699" data-name="Path 699" d="M900.771,242.508s16.3-19.764,1.144-34.214c-10.517-10.024-25.432-5.028-33.581-1.028a15.045,15.045,0,0,0-8.4,11.2c-.543,3.741.353,7.1,6.109,5.562,11.51-3.072,8.059,7.1,8.059,7.1s8.186-.13,8.059,7.1S900.771,242.508,900.771,242.508Z" transform="translate(-338.906 -202.421)" fill="#2f2e41"/>
  </g>
</svg>
