<svg id="badge" xmlns="http://www.w3.org/2000/svg" width="56.406" height="67" viewBox="0 0 56.406 67">
  <path id="Path_788" data-name="Path 788" d="M93.095,56.24,84.123,40.86a24.889,24.889,0,1,0-37.95.186L37.311,56.24a2.342,2.342,0,0,0,2.667,3.4l7.373-2.186,2.757,8.009a2.344,2.344,0,0,0,4.212.4l5.5-9.591a2.323,2.323,0,0,0-4.031-2.31l-2.952,5.15-1.815-5.272a2.323,2.323,0,0,0-2.857-1.471l-3.885,1.152,5.34-9.155A24.848,24.848,0,0,0,80.7,44.216l5.425,9.3-3.885-1.152a2.323,2.323,0,0,0-2.857,1.471l-1.815,5.272-3.113-5.43a2.323,2.323,0,0,0-4.031,2.31l5.659,9.871a2.343,2.343,0,0,0,4.212-.4l2.757-8.009,7.373,2.186a2.342,2.342,0,0,0,2.667-3.4ZM65.07,45.1A20.229,20.229,0,1,1,85.313,24.875,20.259,20.259,0,0,1,65.07,45.1Z" transform="translate(-37 0)" fill="#fff"/>
  <g id="Group_136" data-name="Group 136" transform="translate(13.156 9.863)">
    <path id="Path_789" data-name="Path 789" d="M133.978,94.342l1.143-7.255-5.495-5.042a2.344,2.344,0,0,1,1.206-4.005l7.494-1.192,3.231-6.672A2.345,2.345,0,0,1,145.7,70.1l3.469,6.561,7.535.937a2.344,2.344,0,0,1,1.343,3.96l-5.309,5.224,1.4,7.21a2.344,2.344,0,0,1-3.3,2.528l-6.8-3.337-6.672,3.566A2.281,2.281,0,0,1,133.978,94.342Zm2.332-12.469,2.871,2.634a2.322,2.322,0,0,1,.724,2.073l-.611,3.876,3.606-1.927a2.324,2.324,0,0,1,2.119-.037l3.669,1.8-.748-3.846a2.322,2.322,0,0,1,.651-2.1l2.775-2.731-3.97-.494a2.323,2.323,0,0,1-1.767-1.219l-1.89-3.574-1.759,3.633a2.323,2.323,0,0,1-1.726,1.282Z" transform="translate(-128.894 -68.891)" fill="#fff"/>
  </g>
</svg>
