<svg id="text-box" xmlns="http://www.w3.org/2000/svg" width="67" height="67" viewBox="0 0 67 67">
  <g id="Page-1_1_">
    <g id="_x30_02---Text-Box">
      <path id="Shape_6_" d="M2.233,12.283v2.233a1.117,1.117,0,0,0,2.233,0V12.283A2.233,2.233,0,0,0,6.7,10.05V6.7h3.35a2.233,2.233,0,0,0,2.233-2.233h2.233a1.117,1.117,0,0,0,0-2.233H12.283A2.233,2.233,0,0,0,10.05,0H3.35A3.35,3.35,0,0,0,0,3.35v6.7a2.233,2.233,0,0,0,2.233,2.233Zm0-8.933A1.117,1.117,0,0,1,3.35,2.233h6.7V4.467H6.7A2.233,2.233,0,0,0,4.467,6.7v3.35H2.233Z" transform="translate(0 0)" fill="#fff"/>
      <path id="Path_29_" d="M19.3,240.051a1.117,1.117,0,0,0-2.233,0v2.233a1.117,1.117,0,0,0,2.233,0Z" transform="translate(-14.834 -207.667)" fill="#fff"/>
      <path id="Path_28_" d="M19.3,188.851a1.117,1.117,0,0,0-2.233,0v2.233a1.117,1.117,0,0,0,2.233,0Z" transform="translate(-14.834 -163.167)" fill="#fff"/>
      <path id="Path_27_" d="M19.3,137.651a1.117,1.117,0,0,0-2.233,0v2.233a1.117,1.117,0,0,0,2.233,0Z" transform="translate(-14.834 -118.667)" fill="#fff"/>
      <path id="Path_3_" d="M19.3,291.251a1.117,1.117,0,0,0-2.233,0v2.233a1.117,1.117,0,0,0,2.233,0Z" transform="translate(-14.834 -252.167)" fill="#fff"/>
      <path id="Path_4_" d="M18.184,341.333a1.117,1.117,0,0,0-1.117,1.117v2.233a1.117,1.117,0,0,0,2.233,0V342.45A1.117,1.117,0,0,0,18.184,341.333Z" transform="translate(-14.834 -296.666)" fill="#fff"/>
      <path id="Shape_5_" d="M3.35,408.166h6.7a2.233,2.233,0,0,0,2.233-2.233h2.233a1.117,1.117,0,0,0,0-2.233H12.283a2.233,2.233,0,0,0-2.233-2.233H6.7v-3.35a2.233,2.233,0,0,0-2.233-2.233V393.65a1.117,1.117,0,1,0-2.233,0v2.233A2.233,2.233,0,0,0,0,398.116v6.7A3.35,3.35,0,0,0,3.35,408.166Zm-1.117-10.05H4.467v3.35A2.233,2.233,0,0,0,6.7,403.7h3.35v2.233H3.35a1.117,1.117,0,0,1-1.117-1.117Z" transform="translate(0 -341.166)" fill="#fff"/>
      <path id="Path_5_" d="M242.283,480.1a1.117,1.117,0,1,0,0-2.233H240.05a1.117,1.117,0,0,0,0,2.233Z" transform="translate(-207.666 -415.334)" fill="#fff"/>
      <path id="Path_6_" d="M191.083,480.1a1.117,1.117,0,1,0,0-2.233H188.85a1.117,1.117,0,1,0,0,2.233Z" transform="translate(-163.166 -415.334)" fill="#fff"/>
      <path id="Path_7_" d="M139.883,480.1a1.117,1.117,0,1,0,0-2.233H137.65a1.117,1.117,0,1,0,0,2.233Z" transform="translate(-118.666 -415.334)" fill="#fff"/>
      <path id="Shape_2_" d="M405.933,395.883V393.65a1.117,1.117,0,1,0-2.233,0v2.233a2.233,2.233,0,0,0-2.233,2.233v3.35h-3.35a2.233,2.233,0,0,0-2.233,2.233H393.65a1.117,1.117,0,1,0,0,2.233h2.233a2.233,2.233,0,0,0,2.233,2.233h6.7a3.35,3.35,0,0,0,3.35-3.35v-6.7a2.233,2.233,0,0,0-2.233-2.233Zm0,8.933a1.117,1.117,0,0,1-1.117,1.117h-6.7V403.7h3.35a2.233,2.233,0,0,0,2.233-2.233v-3.35h2.233v6.7Z" transform="translate(-341.166 -341.166)" fill="#fff"/>
      <path id="Path_8_" d="M477.867,242.283a1.117,1.117,0,1,0,2.233,0V240.05a1.117,1.117,0,0,0-2.233,0Z" transform="translate(-415.334 -207.666)" fill="#fff"/>
      <path id="Path_9_" d="M477.867,293.483a1.117,1.117,0,0,0,2.233,0V291.25a1.117,1.117,0,0,0-2.233,0Z" transform="translate(-415.334 -252.166)" fill="#fff"/>
      <path id="Path_10_" d="M477.867,344.683a1.117,1.117,0,0,0,2.233,0V342.45a1.117,1.117,0,0,0-2.233,0Z" transform="translate(-415.334 -296.666)" fill="#fff"/>
      <path id="Shape_3_" d="M404.816,0h-6.7a2.233,2.233,0,0,0-2.233,2.233H393.65a1.117,1.117,0,1,0,0,2.233h2.233A2.233,2.233,0,0,0,398.116,6.7h3.35v3.35a2.233,2.233,0,0,0,2.233,2.233v2.233a1.117,1.117,0,0,0,2.233,0V12.283a2.233,2.233,0,0,0,2.233-2.233V3.35A3.35,3.35,0,0,0,404.816,0ZM403.7,10.05V6.7a2.233,2.233,0,0,0-2.233-2.233h-3.35V2.233h6.7a1.117,1.117,0,0,1,1.117,1.117v6.7Z" transform="translate(-341.166 0)" fill="#fff"/>
      <g id="Group_137" data-name="Group 137" transform="translate(17.867 2.233)">
        <path id="Path_11_" d="M240.051,19.3h2.233a1.117,1.117,0,0,0,0-2.233h-2.233a1.117,1.117,0,0,0,0,2.233Z" transform="translate(-225.534 -17.067)" fill="#fff"/>
        <path id="Path_12_" d="M291.251,19.3h2.233a1.117,1.117,0,0,0,0-2.233h-2.233a1.117,1.117,0,0,0,0,2.233Z" transform="translate(-270.034 -17.067)" fill="#fff"/>
        <path id="Path_13_" d="M342.451,19.3h2.233a1.117,1.117,0,0,0,0-2.233h-2.233a1.117,1.117,0,0,0,0,2.233Z" transform="translate(-314.534 -17.067)" fill="#fff"/>
        <path id="Path_14_" d="M188.851,19.3h2.233a1.117,1.117,0,0,0,0-2.233h-2.233a1.117,1.117,0,1,0,0,2.233Z" transform="translate(-181.034 -17.067)" fill="#fff"/>
        <path id="Path_15_" d="M137.651,19.3h2.233a1.117,1.117,0,0,0,0-2.233h-2.233a1.117,1.117,0,0,0,0,2.233Z" transform="translate(-136.534 -17.067)" fill="#fff"/>
        <path id="Path_16_" d="M477.867,191.083a1.117,1.117,0,1,0,2.233,0V188.85a1.117,1.117,0,1,0-2.233,0Z" transform="translate(-433.2 -165.4)" fill="#fff"/>
        <path id="Path_17_" d="M478.984,141a1.117,1.117,0,0,0,1.117-1.117v-2.233a1.117,1.117,0,0,0-2.233,0v2.233A1.117,1.117,0,0,0,478.984,141Z" transform="translate(-433.2 -120.901)" fill="#fff"/>
        <path id="Path_18_" d="M293.483,480.1a1.117,1.117,0,0,0,0-2.233H291.25a1.117,1.117,0,0,0,0,2.233Z" transform="translate(-270.033 -417.567)" fill="#fff"/>
        <path id="Path_19_" d="M344.683,480.1a1.117,1.117,0,0,0,0-2.233H342.45a1.117,1.117,0,0,0,0,2.233Z" transform="translate(-314.533 -417.567)" fill="#fff"/>
      </g>
      <path id="Shape_4_" d="M76.8,83.5V94.667a1.117,1.117,0,0,0,2.233,0V89.083h8.933v5.583a1.117,1.117,0,0,0,2.233,0V83.5a6.7,6.7,0,1,0-13.4,0Zm6.7-4.467A4.467,4.467,0,0,1,87.967,83.5v3.35H79.033V83.5A4.467,4.467,0,0,1,83.5,79.033Z" transform="translate(-66.75 -66.75)" fill="#fff"/>
      <path id="Path_20_" d="M222.984,96.1h25.683a1.117,1.117,0,0,0,0-2.233H222.984a1.117,1.117,0,0,0,0,2.233Z" transform="translate(-192.834 -81.584)" fill="#fff"/>
      <path id="Path_21_" d="M248.667,145.067H222.984a1.117,1.117,0,1,0,0,2.233h25.683a1.117,1.117,0,0,0,0-2.233Z" transform="translate(-192.834 -126.084)" fill="#fff"/>
      <path id="Path_22_" d="M248.667,196.267H222.984a1.117,1.117,0,0,0,0,2.233h25.683a1.117,1.117,0,0,0,0-2.233Z" transform="translate(-192.834 -170.584)" fill="#fff"/>
      <path id="Path_23_" d="M122.583,247.467H77.917a1.117,1.117,0,1,0,0,2.233h44.667a1.117,1.117,0,0,0,0-2.233Z" transform="translate(-66.75 -215.084)" fill="#fff"/>
      <path id="Path_24_" d="M122.583,298.667H77.917a1.117,1.117,0,1,0,0,2.233h44.667a1.117,1.117,0,0,0,0-2.233Z" transform="translate(-66.75 -259.584)" fill="#fff"/>
      <path id="Path_25_" d="M122.583,349.867H77.917a1.117,1.117,0,1,0,0,2.233h44.667a1.117,1.117,0,0,0,0-2.233Z" transform="translate(-66.75 -304.084)" fill="#fff"/>
      <path id="Path_26_" d="M123.7,402.184a1.117,1.117,0,0,0-1.117-1.117H77.917a1.117,1.117,0,1,0,0,2.233h44.667A1.117,1.117,0,0,0,123.7,402.184Z" transform="translate(-66.75 -348.584)" fill="#fff"/>
    </g>
  </g>
</svg>
