<svg xmlns="http://www.w3.org/2000/svg" width="74.755" height="75" viewBox="0 0 74.755 75">
  <g id="Page-1" transform="translate(-0.301 -0.292)">
    <g id="_034---Irradiation" data-name="034---Irradiation" transform="translate(0.301 0.292)">
      <circle id="Oval" cx="8.077" cy="8.077" r="8.077" transform="translate(29.212 25.186)" fill="#fff"/>
      <path id="Shape" d="M11.461,7.3a1.346,1.346,0,0,0-.124,2.019l3.869,3.85a1.346,1.346,0,0,0,1.731.135A29.516,29.516,0,0,1,28.716,8.426a1.356,1.356,0,0,0,1.14-1.318V1.649A1.338,1.338,0,0,0,28.344.3a37.291,37.291,0,0,0-16.883,7Z" transform="translate(3.382 -0.292)" fill="#fff"/>
      <path id="Shape-2" data-name="Shape" d="M49.392,7.283A37.3,37.3,0,0,0,32.507.312a1.346,1.346,0,0,0-1.513,1.346V7.114a1.346,1.346,0,0,0,1.139,1.319A29.493,29.493,0,0,1,43.918,13.3a1.346,1.346,0,0,0,1.729-.135l3.872-3.857a1.346,1.346,0,0,0-.127-2.023Z" transform="translate(10.326 -0.288)" fill="#fff"/>
      <path id="Shape-3" data-name="Shape" d="M52.3,29.857h5.468a1.338,1.338,0,0,0,1.346-1.512A37.2,37.2,0,0,0,52.1,11.459a1.346,1.346,0,0,0-2.019-.124l-3.853,3.86a1.346,1.346,0,0,0-.135,1.731,29.534,29.534,0,0,1,4.881,11.792A1.356,1.356,0,0,0,52.3,29.857Z" transform="translate(15.467 3.395)" fill="#fff"/>
      <path id="Shape-4" data-name="Shape" d="M68.061,31a1.346,1.346,0,0,0-1.321,1.132,29.611,29.611,0,0,1-58.31.019,1.354,1.354,0,0,0-1.318-1.139H1.666A1.338,1.338,0,0,0,.32,32.528a37.679,37.679,0,0,0,74.734-1.54L75.046,31Z" transform="translate(-0.299 10.337)" fill="#fff"/>
      <path id="Shape-5" data-name="Shape" d="M1.654,29.874h5.46a1.346,1.346,0,0,0,1.319-1.139,29.512,29.512,0,0,1,5.533-12.718.046.046,0,0,0,.012-.03L9.331,11.344a1.346,1.346,0,0,0-2.019.125,37.1,37.1,0,0,0-7,16.891,1.346,1.346,0,0,0,1.342,1.513Z" transform="translate(-0.301 3.398)" fill="#fff"/>
      <path id="Shape-6" data-name="Shape" d="M33.358,48.525a21.436,21.436,0,0,0,20.791-15.9,1.346,1.346,0,0,0-1.629-1.648,39.375,39.375,0,0,0-6.28,2.1A20.527,20.527,0,0,0,34.6,45a1.346,1.346,0,0,1-2.491,0A20.525,20.525,0,0,0,20.475,33.073a40.008,40.008,0,0,0-6.272-2.1,1.346,1.346,0,0,0-1.634,1.646,21.435,21.435,0,0,0,20.79,15.907Z" transform="translate(3.931 10.317)" fill="#fff"/>
    </g>
  </g>
</svg>
