<svg id="printer" xmlns="http://www.w3.org/2000/svg" width="75" height="75" viewBox="0 0 75 75">
  <path id="Path_780" data-name="Path 780" d="M69.91,19.922h-4.3c.025-.321.017.886.017-14.832A5.1,5.1,0,0,0,60.535,0H14.465a5.1,5.1,0,0,0-5.09,5.09c0,15.685-.008,14.509.017,14.832H5.09A5.1,5.1,0,0,0,0,25.011V52.332a5.1,5.1,0,0,0,5.09,5.09H17.578V69.91A5.1,5.1,0,0,0,22.668,75H52.332a5.1,5.1,0,0,0,5.09-5.09V57.422H69.91A5.1,5.1,0,0,0,75,52.332V25.011a5.1,5.1,0,0,0-5.09-5.09Zm-55.848-.4V5.09a.4.4,0,0,1,.4-.4H60.535a.4.4,0,0,1,.4.4V19.52a.4.4,0,0,1-.4.4H14.465A.4.4,0,0,1,14.062,19.52ZM52.734,69.91a.4.4,0,0,1-.4.4H22.668a.4.4,0,0,1-.4-.4V46.105a.4.4,0,0,1,.4-.4H52.332a.4.4,0,0,1,.4.4ZM70.312,52.332a.4.4,0,0,1-.4.4H57.422V46.105a5.1,5.1,0,0,0-5.09-5.09H22.668a5.1,5.1,0,0,0-5.09,5.09v6.629H5.09a.4.4,0,0,1-.4-.4V25.011a.4.4,0,0,1,.4-.4H69.91a.4.4,0,0,1,.4.4Z" fill="#fff"/>
  <path id="Path_781" data-name="Path 781" d="M397.859,196.688h-3.516a2.344,2.344,0,0,1,0-4.687h3.516a2.344,2.344,0,0,1,0,4.688Z" transform="translate(-334.578 -163.875)" fill="#fff"/>
  <path id="Path_782" data-name="Path 782" d="M208.406,348.688H194.344a2.344,2.344,0,0,1,0-4.687h14.063a2.344,2.344,0,0,1,0,4.688Z" transform="translate(-163.875 -293.609)" fill="#fff"/>
  <path id="Path_783" data-name="Path 783" d="M208.406,420.688H194.344a2.344,2.344,0,0,1,0-4.687h14.063a2.344,2.344,0,0,1,0,4.688Z" transform="translate(-163.875 -355.063)" fill="#fff"/>
</svg>
