<svg xmlns="http://www.w3.org/2000/svg" width="128.424" height="75" viewBox="0 0 128.424 75">
  <g id="http" transform="translate(0 -106.496)">
    <path id="Path_808" data-name="Path 808" d="M275.115,193.729a7.109,7.109,0,0,0,.82-3.434c0-3.258-1.725-5.533-4.2-5.533h-6.42a2.186,2.186,0,0,0-2.294,2.368l.021,12.718a1.881,1.881,0,0,0,1.881,1.878h0a1.881,1.881,0,0,0,1.878-1.884l-.007-4.013h4.937a3.85,3.85,0,0,0,3.375-2.1Zm-8.318-1.663-.006-3.542h4.917a3.6,3.6,0,0,1,0,3.542H266.8Z" transform="translate(-197.052 -58.635)" fill="#fff"/>
    <path id="Path_809" data-name="Path 809" d="M70.986,201.726a1.881,1.881,0,0,0,1.881-1.881v-13.2a1.881,1.881,0,1,0-3.762,0v4.719H63.233v-4.719a1.881,1.881,0,1,0-3.762,0v13.2a1.881,1.881,0,1,0,3.762,0v-4.719h5.872v4.719A1.881,1.881,0,0,0,70.986,201.726Z" transform="translate(-44.554 -58.635)" fill="#fff"/>
    <path id="Path_810" data-name="Path 810" d="M136.551,201.726a1.881,1.881,0,0,0,1.881-1.881v-11.32h2.939a1.881,1.881,0,0,0,0-3.762h-9.634a1.881,1.881,0,0,0,0,3.762h2.932v11.32A1.881,1.881,0,0,0,136.551,201.726Z" transform="translate(-97.285 -58.635)" fill="#fff"/>
    <path id="Path_811" data-name="Path 811" d="M200.167,201.726a1.881,1.881,0,0,0,1.881-1.881v-11.32h2.932a1.881,1.881,0,1,0,0-3.762h-9.634a1.881,1.881,0,1,0,0,3.762h2.94v11.32A1.881,1.881,0,0,0,200.167,201.726Z" transform="translate(-144.939 -58.635)" fill="#fff"/>
    <path id="Path_812" data-name="Path 812" d="M342.833,224.774a1.886,1.886,0,1,0,1.881,1.892v-.021A1.872,1.872,0,0,0,342.833,224.774Z" transform="translate(-255.432 -88.611)" fill="#fff"/>
    <path id="Path_813" data-name="Path 813" d="M344.714,195.23a1.892,1.892,0,1,0,0,.021Z" transform="translate(-255.432 -65.076)" fill="#fff"/>
    <path id="Path_814" data-name="Path 814" d="M380.228,201.564a1.879,1.879,0,0,0,2.48-.963l5.816-13.2a1.881,1.881,0,1,0-3.443-1.517l-5.816,13.2A1.881,1.881,0,0,0,380.228,201.564Z" transform="translate(-284.015 -58.633)" fill="#fff"/>
    <path id="Path_815" data-name="Path 815" d="M419.82,201.724a1.881,1.881,0,0,0,1.722-1.123l5.816-13.2a1.881,1.881,0,1,0-3.443-1.517l-5.816,13.2a1.882,1.882,0,0,0,1.721,2.64Z" transform="translate(-313.109 -58.633)" fill="#fff"/>
    <path id="Path_816" data-name="Path 816" d="M68.339,160.843H8.778a5.023,5.023,0,0,1-5.016-5.018V115.269a5.019,5.019,0,0,1,5.016-5.011H91.07a1.881,1.881,0,1,0,0-3.762H8.778A8.786,8.786,0,0,0,0,115.269v40.556a8.789,8.789,0,0,0,8.778,8.78H68.339a1.881,1.881,0,0,0,0-3.762Z" transform="translate(0 0)" fill="#fff"/>
    <path id="Path_817" data-name="Path 817" d="M341.588,106.5H321.694a1.881,1.881,0,1,0,0,3.762h19.894a5.019,5.019,0,0,1,5.016,5.011v40.556a5.023,5.023,0,0,1-5.016,5.018H318.347l-1.318-1.378,2.543-2.309a2.427,2.427,0,0,0,.769-2.222,2.592,2.592,0,0,0-1.608-1.923,1.888,1.888,0,0,0-.385-.112l-19.361-3.446c-.059-.011-.118-.018-.178-.023l-.036,0a2.285,2.285,0,0,0-1.828.493c-.028.025-.054.05-.081.076a2.335,2.335,0,0,0-.615,1.792c0,.048,0,.1.005.143l1.493,19.6a1.892,1.892,0,0,0,.071.387,2.584,2.584,0,0,0,1.749,1.794,2.427,2.427,0,0,0,2.3-.543l2.625-2.366L314,180.746a2.3,2.3,0,0,0,1.7.75,2.484,2.484,0,0,0,1.639-.639l.022-.019,8.932-8.08a2.341,2.341,0,0,0,.223-3.373l-.035-.038-4.535-4.74h19.642a8.789,8.789,0,0,0,8.778-8.78V115.27A8.785,8.785,0,0,0,341.588,106.5Zm-18.839,64.392-6.953,6.29-9.85-10.3a1.881,1.881,0,0,0-2.619-.1l-2.028,1.828-1.153-15.129,14.945,2.66-2.022,1.835a1.882,1.882,0,0,0-.095,2.693Z" transform="translate(-221.942 -0.001)" fill="#fff"/>
  </g>
</svg>
