<svg id="information" xmlns="http://www.w3.org/2000/svg" width="75" height="75" viewBox="0 0 75 75">
  <g id="Group_108" data-name="Group 108">
    <g id="Group_107" data-name="Group 107">
      <path id="Path_610" data-name="Path 610" d="M37.5,0A37.5,37.5,0,1,0,75,37.5,37.479,37.479,0,0,0,37.5,0Zm0,69.141A31.641,31.641,0,1,1,69.141,37.5,31.623,31.623,0,0,1,37.5,69.141Z" fill="#fff"/>
    </g>
  </g>
  <g id="Group_110" data-name="Group 110" transform="translate(34.57 31.396)">
    <g id="Group_109" data-name="Group 109">
      <path id="Path_611" data-name="Path 611" d="M238.93,214.33a2.93,2.93,0,0,0-2.93,2.93v18.866a2.93,2.93,0,1,0,5.859,0V217.26A2.93,2.93,0,0,0,238.93,214.33Z" transform="translate(-236 -214.33)" fill="#fff"/>
    </g>
  </g>
  <g id="Group_112" data-name="Group 112" transform="translate(33.545 19.898)">
    <g id="Group_111" data-name="Group 111">
      <circle id="Ellipse_165" data-name="Ellipse 165" cx="3.955" cy="3.955" r="3.955" fill="#fff"/>
    </g>
  </g>
</svg>
