<svg xmlns="http://www.w3.org/2000/svg" width="19.849" height="19.878" viewBox="0 0 19.849 19.878">
  <path id="instagram" d="M12.921,22.883c-2.711,0-3.031-.014-4.089-.061a7.256,7.256,0,0,1-2.408-.5,5.091,5.091,0,0,1-2.9-2.9,7.264,7.264,0,0,1-.462-2.41C3,15.96,3,15.614,3,12.924c0-2.719.014-3.036.062-4.089a7.263,7.263,0,0,1,.462-2.407,5.081,5.081,0,0,1,2.9-2.9,7.2,7.2,0,0,1,2.407-.463c1.053-.06,1.4-.06,4.087-.06,2.733,0,3.047.014,4.089.06a7.246,7.246,0,0,1,2.414.463,5.086,5.086,0,0,1,2.9,2.9,7.244,7.244,0,0,1,.464,2.443c.062,1.056.062,1.4.062,4.09s-.015,3.042-.062,4.086a7.277,7.277,0,0,1-.463,2.413,5.1,5.1,0,0,1-2.9,2.9,7.286,7.286,0,0,1-2.409.462C15.962,22.883,15.617,22.883,12.921,22.883ZM12.883,4.75c-2.7,0-2.976.013-4.028.061a5.5,5.5,0,0,0-1.839.343A3.294,3.294,0,0,0,5.121,7.04,5.527,5.527,0,0,0,4.779,8.9c-.058,1.068-.058,1.348-.058,4.025,0,2.645.01,2.966.058,4.027a5.585,5.585,0,0,0,.343,1.841,3.3,3.3,0,0,0,1.895,1.886,5.423,5.423,0,0,0,1.839.343c1.067.062,1.348.062,4.028.062,2.7,0,2.983-.013,4.027-.062a5.469,5.469,0,0,0,1.841-.343,3.307,3.307,0,0,0,1.885-1.883,5.558,5.558,0,0,0,.343-1.86h.012c.047-1.054.047-1.335.047-4.027s-.012-2.976-.06-4.028a5.576,5.576,0,0,0-.343-1.838,3.307,3.307,0,0,0-1.885-1.887,5.449,5.449,0,0,0-1.841-.343C15.845,4.75,15.566,4.75,12.883,4.75Zm.037,13.265a5.1,5.1,0,1,1,5.092-5.1A5.1,5.1,0,0,1,12.921,18.015Zm0-8.4a3.306,3.306,0,1,0,3.306,3.306A3.306,3.306,0,0,0,12.921,9.61Zm5.29-.786a1.189,1.189,0,1,1,.843-.348A1.188,1.188,0,0,1,18.211,8.824Z" transform="translate(-3.002 -3.005)" fill="#fff"/>
</svg>
