<svg xmlns="http://www.w3.org/2000/svg" width="20.001" height="20.03" viewBox="0 0 20.001 20.03">
  <path id="instagram" d="M13,23.035c-2.732,0-3.054-.014-4.12-.061a7.311,7.311,0,0,1-2.427-.5,5.129,5.129,0,0,1-2.921-2.922,7.32,7.32,0,0,1-.465-2.429C3,16.059,3,15.711,3,13c0-2.74.014-3.06.062-4.12a7.319,7.319,0,0,1,.465-2.425A5.12,5.12,0,0,1,6.453,3.531a7.256,7.256,0,0,1,2.425-.466c1.061-.06,1.409-.06,4.118-.06,2.754,0,3.071.014,4.12.06a7.3,7.3,0,0,1,2.432.466,5.125,5.125,0,0,1,2.924,2.923,7.3,7.3,0,0,1,.468,2.462C23,9.98,23,10.328,23,13.038s-.016,3.065-.062,4.117a7.333,7.333,0,0,1-.466,2.431,5.135,5.135,0,0,1-2.925,2.923,7.342,7.342,0,0,1-2.428.465C16.061,23.035,15.713,23.035,13,23.035ZM12.959,4.763c-2.716,0-3,.013-4.059.061a5.541,5.541,0,0,0-1.853.345,3.319,3.319,0,0,0-1.909,1.9,5.57,5.57,0,0,0-.345,1.873C4.733,10.02,4.733,10.3,4.733,13c0,2.665.01,2.988.059,4.058a5.627,5.627,0,0,0,.345,1.855,3.322,3.322,0,0,0,1.909,1.9,5.464,5.464,0,0,0,1.853.345c1.075.062,1.358.062,4.059.062,2.724,0,3.006-.013,4.058-.062a5.51,5.51,0,0,0,1.855-.345,3.332,3.332,0,0,0,1.9-1.9,5.6,5.6,0,0,0,.345-1.875h.012c.048-1.062.048-1.345.048-4.058s-.012-3-.06-4.059a5.618,5.618,0,0,0-.345-1.852,3.332,3.332,0,0,0-1.9-1.9,5.49,5.49,0,0,0-1.855-.345C15.943,4.763,15.662,4.763,12.959,4.763ZM13,18.129a5.134,5.134,0,1,1,5.131-5.135A5.134,5.134,0,0,1,13,18.129ZM13,9.66a3.332,3.332,0,1,0,3.332,3.332A3.332,3.332,0,0,0,13,9.66Zm5.331-.792a1.2,1.2,0,1,1,.85-.35A1.2,1.2,0,0,1,18.327,8.869Z" transform="translate(-3.002 -3.005)" fill="#fff" opacity="0.5"/>
</svg>
