<svg xmlns="http://www.w3.org/2000/svg" width="61.47" height="67" viewBox="0 0 61.47 67">
  <g id="int" transform="translate(-21.206 0)">
    <g id="Group_145" data-name="Group 145" transform="translate(21.206 0)">
      <path id="Path_800" data-name="Path 800" d="M57.866.023C41.894-.53,25.1,8.753,26.555,26.714c.038,1.252,1.479,6.845-4.147,11.4-2,1.626-1.472,4.772,1.345,6.322a11.384,11.384,0,0,0,2.925,1.1,5.153,5.153,0,0,0,.436,3.333,3.958,3.958,0,0,0,1.993,5.491c.728.36.166,1.663.247,2.755.226,3.134,3.964,4.655,6.382,4.275,4.335-.7,9.211-.479,10.839,4.283a2.118,2.118,0,0,0,2.034,1.316c1.967.241,24.529-2.3,25.206-2.711a1.732,1.732,0,0,0,1.1-2.494c-5.212-9.717,5.22-20.033,7.224-29.367C85.518,17.052,72.42.023,57.866.023Zm21.09,31.264c-2.177,9.987-11.729,19.642-7.948,30.1-7.1.964-21.45,2.473-21.5,2.48C46.952,58.176,41,57.155,35.115,58.046c-.778.154-2.441-.026-2.4-1.543.484-3.344-1.663-5.26-2.511-5.466-.319-.1-.186-.261-.191-.256,1.6-1.8-.808-3.434.413-5.75.744-1.412-.212-2.35-1.785-2.568a9.686,9.686,0,0,1-3.671-1.247.443.443,0,0,1-.154-.778c6.223-5.65,5.164-13.65,5.158-13.723-1.406-17.4,16.376-24.286,28.06-23.27C71.862,4.69,81.292,18.253,78.956,31.287Z" transform="translate(-21.206 0)" fill="#fff"/>
      <path id="Path_801" data-name="Path 801" d="M204.315,127.038c-4.534,2.733-5.483,8.221-3.609,12.891.448,1.116,1.167,2.089,1.719,3.151,1.609,3.1.53,2.822.544,4a33.685,33.685,0,0,0,.508,4.575,1.582,1.582,0,0,0,1.626,1.4c11.142,0,11.327.689,11.933-.633.358-.6.23-1.021.23-4.7,0-1.761-1.808-.223,1.519-4.749a17.338,17.338,0,0,0,2.238-3.6,9.937,9.937,0,0,0-.55-8.733C217.24,124.988,209.513,123.907,204.315,127.038Zm9.535,22.739c-2.414-.1-4.83-.121-7.247-.128-.051-.373-.094-.746-.131-1.119a62.023,62.023,0,0,1,7.378.318v.928Zm3.061-9.844a12.716,12.716,0,0,0-3.328,5.471q-.883-.085-1.766-.146a11.976,11.976,0,0,1,.28-4.593,1.35,1.35,0,0,0,.035-.226l1.768-1.769a1.28,1.28,0,0,0-1.81-1.81l-.869.868a12.43,12.43,0,0,0-.877-1.3,1.28,1.28,0,0,0-1.81,1.811,10.651,10.651,0,0,1,1.071,1.852,13.937,13.937,0,0,0-.312,5.044c-.9-.025-1.793-.039-2.69-.023a8.453,8.453,0,0,0-1.587-4.142c-.424-.69-4.894-7.424,1.518-11.289,3.584-2.159,7.846-.921,10.654,1.791C220.558,136,217.463,139.322,216.912,139.933Z" transform="translate(-176.513 -108.972)" fill="#fff"/>
      <path id="Path_802" data-name="Path 802" d="M138.416,183.692c-1.479-.01-2.951-.134-4.423-.268-1.551-.141-1.537,2.274,0,2.413,1.472.134,2.944.258,4.423.268A1.208,1.208,0,0,0,138.416,183.692Z" transform="translate(-118.28 -159.503)" fill="#fff"/>
      <path id="Path_803" data-name="Path 803" d="M197.175,82.385a37.461,37.461,0,0,0-2.735-3.73c-1.018-1.181-2.716.533-1.707,1.706a32.415,32.415,0,0,1,2.358,3.241C195.951,84.89,198.042,83.683,197.175,82.385Z" transform="translate(-170.099 -68.054)" fill="#fff"/>
      <path id="Path_804" data-name="Path 804" d="M330.911,81.505c.638-1.02,1.276-2.04,1.876-3.083A1.207,1.207,0,0,0,330.7,77.2c-.6,1.043-1.239,2.064-1.877,3.083C328,81.612,330.089,82.821,330.911,81.505Z" transform="translate(-288.552 -66.627)" fill="#fff"/>
      <path id="Path_805" data-name="Path 805" d="M381.987,166.039a25.837,25.837,0,0,0,4.444-1.73c1.4-.689.172-2.769-1.217-2.084a22.366,22.366,0,0,1-3.868,1.487A1.208,1.208,0,0,0,381.987,166.039Z" transform="translate(-333.647 -140.955)" fill="#fff"/>
    </g>
  </g>
</svg>
