<svg xmlns="http://www.w3.org/2000/svg" width="641.414" height="339" viewBox="0 0 641.414 339">
  <g id="undraw_operating_system_re_iqsc" transform="translate(0 0)">
    <path id="Path_714" data-name="Path 714" d="M920.082,558.117a389.519,389.519,0,0,1-50.052-3.672c-.583-.081-1.165-.168-1.748-.249l.876-156.822c.579-.46,1.164-.914,1.756-1.353,1.961-1.464,3.977-2.836,6.063-4.1,10.05-6.055,21.816-8.827,29.934-6.049l.126.05a14.247,14.247,0,0,1,4.831,2.78c7.129,6.333,5.941,19.138.186,30.758,11.409-10.423,25.8-18.722,38.655-19.352,12.534-.618,21.488,5.936,29.1,13.044.252.233.5.466.741.7.126.113.245.233.37.346,5.8,5.546,11.515,12.012,10.824,21.371-.76,10.264-9.357,21.644-19.376,29.624s-21.384,13.282-32.484,18.656-22.469,11.2-31.95,19.839c14.794-11.7,31.627-21.127,48-24.61s32.094-.418,39.8,10.006a24.38,24.38,0,0,1,4.309,10.68c.075.45.135.906.189,1.37,1.1,9.65-2.24,21.171-10.217,30.974-8.784,10.8-21.806,18.28-34.167,22S931.586,558.237,920.082,558.117Z" transform="translate(-359.142 -261.093)" fill="#f2f2f2"/>
    <path id="Path_715" data-name="Path 715" d="M869.068,456.334l.017-3q.893-1.428,1.765-2.87c.376-.6.737-1.2,1.106-1.8q9.112-14.92,17.481-30.027t15.98-30.338a1.257,1.257,0,0,1,1.437-.722.361.361,0,0,1,.105.05c.266.142.377.459.149.921-.625,1.247-1.25,2.5-1.889,3.747q-7.734,15.287-16.241,30.442t-17.756,30.117c-.128.21-.262.42-.39.63C870.244,454.437,869.656,455.382,869.068,456.334Z" transform="translate(-359.376 -261.912)" fill="#fff"/>
    <path id="Path_716" data-name="Path 716" d="M868.76,506.186l.01-1.854c.585-.418,1.171-.829,1.756-1.247q20.669-14.739,41.338-29.473,33.839-24.127,67.677-48.24a1.2,1.2,0,0,1,.409-.209c.5-.138.792.229.74.7a1.409,1.409,0,0,1-.624.98q-18.977,13.527-37.939,27.047l-67.331,48c-1.425,1.018-2.856,2.035-4.281,3.052C869.931,505.357,869.345,505.775,868.76,506.186Z" transform="translate(-359.284 -273.099)" fill="#fff"/>
    <path id="Path_717" data-name="Path 717" d="M879.433,584.209c-3.125-.095-6.2-.3-9.247-.572l-1.748-.157.011-1.946c.583.06,1.165.119,1.748.171,4.4.411,8.853.7,13.425.742a187.3,187.3,0,0,0,37.752-3.687A235.069,235.069,0,0,0,960.6,567.341,269.358,269.358,0,0,0,999.4,548.657a1.036,1.036,0,0,1,.689-.172c.555.08.719.818.189,1.37a1.609,1.609,0,0,1-.353.279q-2.315,1.346-4.644,2.643a269.163,269.163,0,0,1-38.942,17.883,233.949,233.949,0,0,1-39.28,10.646A184.78,184.78,0,0,1,879.433,584.209Z" transform="translate(-359.188 -309.811)" fill="#fff"/>
    <path id="Path_718" data-name="Path 718" d="M678.839,208.674H252.5a6.13,6.13,0,0,0-6.124,6.125V503.7a6.13,6.13,0,0,0,6.124,6.125H678.839a6.119,6.119,0,0,0,4.657-2.149,1.425,1.425,0,0,0,.133-.168,5.735,5.735,0,0,0,.878-1.482,5.976,5.976,0,0,0,.463-2.325V214.8A6.131,6.131,0,0,0,678.839,208.674ZM683.222,503.7a4.337,4.337,0,0,1-.724,2.4,4.527,4.527,0,0,1-1.657,1.489,4.344,4.344,0,0,1-2,.485H252.5a4.381,4.381,0,0,1-4.376-4.376V214.8a4.381,4.381,0,0,1,4.376-4.376H678.839a4.383,4.383,0,0,1,4.383,4.376Z" transform="translate(-174.044 -208.674)" fill="#3f3d56"/>
    <rect id="Rectangle_243" data-name="Rectangle 243" width="436.843" height="1.751" transform="translate(73.205 24.547)" fill="#3f3d56"/>
    <circle id="Ellipse_242" data-name="Ellipse 242" cx="5.253" cy="5.253" r="5.253" transform="translate(82.835 7.879)" fill="#3f3d56"/>
    <circle id="Ellipse_243" data-name="Ellipse 243" cx="5.253" cy="5.253" r="5.253" transform="translate(97.937 7.879)" fill="#3f3d56"/>
    <circle id="Ellipse_244" data-name="Ellipse 244" cx="5.253" cy="5.253" r="5.253" transform="translate(113.038 7.879)" fill="#3f3d56"/>
    <path id="Path_719" data-name="Path 719" d="M617.966,293.588H398.827a9.131,9.131,0,0,1,0-18.262H617.966a9.131,9.131,0,1,1,0,18.262ZM398.827,276.731a7.726,7.726,0,0,0,0,15.452H617.966a7.726,7.726,0,1,0,0-15.452Z" transform="translate(-216.7 -228.512)" fill="#3f3d56"/>
    <path id="Path_720" data-name="Path 720" d="M394.587,376.064H374.921a5.619,5.619,0,1,1,0-11.238h19.666a5.619,5.619,0,1,1,0,11.238Z" transform="translate(-210.63 -255.15)" fill="#ccc"/>
    <path id="Path_721" data-name="Path 721" d="M417.765,403.064H374.921a5.619,5.619,0,1,1,0-11.238h42.845a5.619,5.619,0,1,1,0,11.238Z" transform="translate(-210.63 -263.186)" fill="#ccc"/>
    <path id="Path_722" data-name="Path 722" d="M399.587,494.064H379.921a5.619,5.619,0,0,1,0-11.238h19.666a5.619,5.619,0,0,1,0,11.238Z" transform="translate(-212.119 -290.27)" fill="#ccc"/>
    <path id="Path_723" data-name="Path 723" d="M422.765,521.064H379.921a5.619,5.619,0,0,1,0-11.238h42.845a5.619,5.619,0,1,1,0,11.238Z" transform="translate(-212.119 -298.306)" fill="#ccc"/>
    <path id="Path_724" data-name="Path 724" d="M583.587,491.064H563.921a5.619,5.619,0,0,1,0-11.238h19.666a5.619,5.619,0,1,1,0,11.238Z" transform="translate(-266.883 -289.377)" fill="#ccc"/>
    <path id="Path_725" data-name="Path 725" d="M606.765,518.064H563.921a5.619,5.619,0,0,1,0-11.238h42.844a5.619,5.619,0,1,1,0,11.238Z" transform="translate(-266.883 -297.413)" fill="#ccc"/>
    <path id="Path_726" data-name="Path 726" d="M580.587,381.064H560.921a5.619,5.619,0,1,1,0-11.238h19.666a5.619,5.619,0,1,1,0,11.238Z" transform="translate(-265.99 -256.638)" fill="#ccc"/>
    <path id="Path_727" data-name="Path 727" d="M603.766,408.064H560.921a5.619,5.619,0,0,1,0-11.238h42.845a5.619,5.619,0,0,1,0,11.238Z" transform="translate(-265.99 -264.674)" fill="#ccc"/>
    <path id="Path_728" data-name="Path 728" d="M767.587,375.064H747.921a5.619,5.619,0,0,1,0-11.238h19.666a5.619,5.619,0,1,1,0,11.238Z" transform="translate(-321.647 -254.852)" fill="#ccc"/>
    <path id="Path_729" data-name="Path 729" d="M790.766,402.064H747.921a5.619,5.619,0,0,1,0-11.238h42.845a5.619,5.619,0,1,1,0,11.238Z" transform="translate(-321.647 -262.888)" fill="#ccc"/>
    <circle id="Ellipse_245" data-name="Ellipse 245" cx="21.071" cy="21.071" r="21.071" transform="translate(108.522 103.706)" fill="#c12a21"/>
    <path id="Path_730" data-name="Path 730" d="M332.674,391.79H313.008a2.109,2.109,0,0,1-2.107-2.107v-14.75a2.109,2.109,0,0,1,2.107-2.107h5.536a2.094,2.094,0,0,1,1.795,1l1.544,2.509h10.791a2.109,2.109,0,0,1,2.107,2.107v11.238a2.109,2.109,0,0,1-2.107,2.107Zm-19.666-17.559a.7.7,0,0,0-.7.7v14.75a.7.7,0,0,0,.7.7h19.666a.7.7,0,0,0,.7-.7V378.445a.7.7,0,0,0-.7-.7H321.1l-1.956-3.178a.7.7,0,0,0-.6-.334Z" transform="translate(-193.248 -257.531)" fill="#fff"/>
    <circle id="Ellipse_246" data-name="Ellipse 246" cx="21.071" cy="21.071" r="21.071" transform="translate(237.758 107.218)" fill="#c12a21"/>
    <path id="Path_731" data-name="Path 731" d="M516.27,399.016H498.008a2.109,2.109,0,0,1-2.107-2.107V374.433a2.109,2.109,0,0,1,2.107-2.107H511.24a2.113,2.113,0,0,1,1.32.465l5.029,4.041a2.1,2.1,0,0,1,.787,1.642v18.434a2.109,2.109,0,0,1-2.107,2.107Zm-18.262-25.285a.7.7,0,0,0-.7.7v22.476a.7.7,0,0,0,.7.7H516.27a.7.7,0,0,0,.7-.7V378.474a.7.7,0,0,0-.262-.547l-5.03-4.042a.7.7,0,0,0-.44-.155Z" transform="translate(-248.31 -257.382)" fill="#fff"/>
    <path id="Path_732" data-name="Path 732" d="M514.841,385.731H503.6a.7.7,0,1,1,0-1.4h11.238a.7.7,0,1,1,0,1.4Z" transform="translate(-250.394 -260.953)" fill="#fff"/>
    <path id="Path_733" data-name="Path 733" d="M514.841,391.731H503.6a.7.7,0,0,1,0-1.4h11.238a.7.7,0,0,1,0,1.4Z" transform="translate(-250.394 -262.739)" fill="#fff"/>
    <path id="Path_734" data-name="Path 734" d="M514.841,397.731H503.6a.7.7,0,0,1,0-1.4h11.238a.7.7,0,1,1,0,1.4Z" transform="translate(-250.394 -264.525)" fill="#fff"/>
    <circle id="Ellipse_247" data-name="Ellipse 247" cx="21.071" cy="21.071" r="21.071" transform="translate(367.696 103.004)" fill="#c12a21"/>
    <path id="Path_735" data-name="Path 735" d="M701.673,389.778H682.007a2.109,2.109,0,0,1-2.107-2.107V376.433a2.109,2.109,0,0,1,2.107-2.107h19.666a2.11,2.11,0,0,1,2.107,2.107v11.238A2.109,2.109,0,0,1,701.673,389.778Zm-19.666-14.047a.7.7,0,0,0-.7.7v11.238a.7.7,0,0,0,.7.7h19.666a.7.7,0,0,0,.7-.7V376.433a.7.7,0,0,0-.7-.7Z" transform="translate(-303.074 -257.977)" fill="#fff"/>
    <path id="Path_736" data-name="Path 736" d="M691.84,384.5a2.11,2.11,0,0,1-1.117-.318l-10.494-6.558a.7.7,0,1,1,.745-1.191l10.494,6.558a.707.707,0,0,0,.744,0l10.493-6.558a.7.7,0,1,1,.745,1.191l-10.493,6.558A2.11,2.11,0,0,1,691.84,384.5Z" transform="translate(-303.074 -258.572)" fill="#fff"/>
    <circle id="Ellipse_248" data-name="Ellipse 248" cx="21.071" cy="21.071" r="21.071" transform="translate(108.522 186.586)" fill="#c12a21"/>
    <path id="Path_737" data-name="Path 737" d="M332.674,508.778H313.008a2.109,2.109,0,0,1-2.107-2.107V495.433a2.109,2.109,0,0,1,2.107-2.107h19.666a2.109,2.109,0,0,1,2.107,2.107v11.238a2.109,2.109,0,0,1-2.107,2.107Zm-19.666-14.047a.7.7,0,0,0-.7.7v11.238a.7.7,0,0,0,.7.7h19.666a.7.7,0,0,0,.7-.7V495.433a.7.7,0,0,0-.7-.7Z" transform="translate(-193.248 -293.395)" fill="#fff"/>
    <path id="Path_738" data-name="Path 738" d="M330.878,511.01H316.744a1.4,1.4,0,0,1-1.216-2.107l4.257-7.375a1.4,1.4,0,0,1,2.433,0l2.75,4.763,1.593-2.759a1.4,1.4,0,0,1,2.433,0l3.1,5.371a1.4,1.4,0,0,1-1.217,2.107Zm0-1.4h0l-3.1-5.371-2.2,3.813a.7.7,0,0,1-.608.351h0a.7.7,0,0,1-.608-.351L321,502.231l-4.258,7.375Z" transform="translate(-194.569 -295.627)" fill="#fff"/>
    <circle id="Ellipse_249" data-name="Ellipse 249" cx="1.405" cy="1.405" r="1.405" transform="translate(135.914 202.74)" fill="#fff"/>
    <circle id="Ellipse_250" data-name="Ellipse 250" cx="21.071" cy="21.071" r="21.071" transform="translate(239.162 184.479)" fill="#c12a21"/>
    <path id="Path_739" data-name="Path 739" d="M511.222,496.469a6.321,6.321,0,1,1,6.321-6.321,6.321,6.321,0,0,1-6.321,6.321Zm0-11.238a4.917,4.917,0,1,0,4.917,4.917A4.917,4.917,0,0,0,511.222,485.231Z" transform="translate(-250.989 -290.568)" fill="#fff"/>
    <path id="Path_740" data-name="Path 740" d="M516.1,514.362H504.859A2.461,2.461,0,0,1,502.4,511.9a8.077,8.077,0,1,1,16.155,0,2.461,2.461,0,0,1-2.458,2.458Zm-5.619-9.131a6.68,6.68,0,0,0-6.672,6.673,1.055,1.055,0,0,0,1.054,1.053H516.1a1.055,1.055,0,0,0,1.054-1.053A6.68,6.68,0,0,0,510.478,505.231Z" transform="translate(-250.245 -296.52)" fill="#fff"/>
    <path id="Path_741" data-name="Path 741" d="M80.936,457.124h8.611l4.1-33.214H80.935Z" transform="translate(-24.089 -126.169)" fill="#ffb8b8"/>
    <path id="Path_742" data-name="Path 742" d="M0,0H27.063V10.456H10.456A10.456,10.456,0,0,1,0,0H0Z" transform="translate(82.063 338.951) rotate(179.997)" fill="#2f2e41"/>
    <path id="Path_743" data-name="Path 743" d="M34.936,457.124h8.611l4.1-33.214H34.935Z" transform="translate(-10.398 -126.169)" fill="#ffb8b8"/>
    <path id="Path_744" data-name="Path 744" d="M0,0H27.063V10.456H10.456A10.456,10.456,0,0,1,0,0H0Z" transform="translate(49.754 338.95) rotate(179.997)" fill="#2f2e41"/>
    <path id="Path_745" data-name="Path 745" d="M174.856,500.074A7.545,7.545,0,0,0,176.3,488.6l5.67-80.462-16.332,1.584-.449,78.8a7.586,7.586,0,0,0,9.663,11.56Z" transform="translate(-149.266 -268.039)" fill="#ffb8b8"/>
    <path id="Path_746" data-name="Path 746" d="M209.516,612.541a3.173,3.173,0,0,1-3.139-2.785l-5.005-41.863a2.458,2.458,0,0,0-4.869-.09L190.2,607.885a3.146,3.146,0,0,1-3.122,2.669H176.855a3.161,3.161,0,0,1-3.161-3.185l4.877-88.873a3.142,3.142,0,0,1,2.707-3.1l37.924-5.505a3.162,3.162,0,0,1,3.615,3.15l-.662,95.913a3.16,3.16,0,0,1-3.01,3.135l-9.479.452Q209.591,612.541,209.516,612.541Z" transform="translate(-152.412 -298.315)" fill="#2f2e41"/>
    <path id="Path_747" data-name="Path 747" d="M187.714,484.2a31.667,31.667,0,0,1-10.694-1.9,3.137,3.137,0,0,1-2.05-2.813c-.327-7.26-2.241-44.631-7.813-67.427a23.3,23.3,0,0,1,8.875-24.283q.45-.323.917-.634A22.691,22.691,0,0,1,199,385.408a23.332,23.332,0,0,1,13.6,18.231l9.087,67.463a3.145,3.145,0,0,1-.654,2.389,3.1,3.1,0,0,1-2.145,1.175c-3.149.314-9.679,1.534-18.037,6.178A26.778,26.778,0,0,1,187.714,484.2Z" transform="translate(-150.271 -260.658)" fill="#3f3d56"/>
    <path id="Path_748" data-name="Path 748" d="M173.56,433.019l-14.954-4.055a3.164,3.164,0,0,1-2.223-3.878L161.64,405.7a8.708,8.708,0,0,1,17.1,2.758l-1.2,21.686a3.16,3.16,0,0,1-3.983,2.876Z" transform="translate(-147.226 -265.4)" fill="#3f3d56"/>
    <circle id="Ellipse_251" data-name="Ellipse 251" cx="17.251" cy="17.251" r="17.251" transform="translate(25.729 81.088)" fill="#ffb8b8"/>
    <path id="Path_749" data-name="Path 749" d="M274.313,394.529a7.392,7.392,0,0,0-.168,1.152l-30.172,17.406-7.334-4.222L228.821,419.1l15.689,11.182,34.422-27.156a7.372,7.372,0,1,0-4.619-8.6Z" transform="translate(-168.819 -262.297)" fill="#ffb8b8"/>
    <path id="Path_750" data-name="Path 750" d="M234.244,414.9l-13,8.434a3.164,3.164,0,0,1-4.372-.931l-10.936-16.851a8.708,8.708,0,0,1,13.463-10.9l15.356,15.36a3.16,3.16,0,0,1-.515,4.886Z" transform="translate(-161.591 -263.267)" fill="#3f3d56"/>
    <path id="Path_751" data-name="Path 751" d="M183.714,351.787c3.218,3.428,9.195,1.588,9.614-3.1a5.655,5.655,0,0,0-.007-1.093c-.217-2.074-1.415-3.958-1.128-6.148a3.225,3.225,0,0,1,.59-1.509c2.565-3.434,8.585,1.536,11-1.573,1.484-1.906-.26-4.908.878-7.038,1.5-2.812,5.955-1.425,8.747-2.965,3.106-1.713,2.921-6.48.876-9.379-2.494-3.535-6.866-5.422-11.184-5.694a30,30,0,0,0-12.637,2.466c-4.58,1.785-9.122,4.252-11.941,8.279-3.428,4.9-3.758,11.482-2.043,17.209C177.527,344.732,181.086,348.988,183.714,351.787Z" transform="translate(-152.941 -239.8)" fill="#2f2e41"/>
    <path id="Path_752" data-name="Path 752" d="M242.427,690.731H144.1a.7.7,0,0,1,0-1.4h98.332a.7.7,0,0,1,0,1.4Z" transform="translate(-143.393 -351.731)" fill="#3f3d56"/>
  </g>
</svg>
