<svg xmlns="http://www.w3.org/2000/svg" width="43" height="492" viewBox="0 0 43 492">
  <g id="Group_164" data-name="Group 164" transform="translate(-278 -2071)">
    <g id="Ellipse_79" data-name="Ellipse 79" transform="translate(306 2071)" fill="none" stroke="#c12a21" stroke-width="1" opacity="0.5">
      <circle cx="7.5" cy="7.5" r="7.5" stroke="none"/>
      <circle cx="7.5" cy="7.5" r="7" fill="none"/>
    </g>
    <circle id="Ellipse_80" data-name="Ellipse 80" cx="4" cy="4" r="4" transform="translate(278 2075)" fill="#fff" opacity="0.5"/>
    <circle id="Ellipse_147" data-name="Ellipse 147" cx="4" cy="4" r="4" transform="translate(278 2158)" fill="#fff" opacity="0.5"/>
    <rect id="Rectangle_118" data-name="Rectangle 118" width="15" height="1" transform="translate(291 2078)" fill="#c12a21" opacity="0.5"/>
    <rect id="Rectangle_146" data-name="Rectangle 146" width="2" height="5" transform="translate(281 2088)" fill="#fff" opacity="0.5"/>
    <rect id="Rectangle_147" data-name="Rectangle 147" width="2" height="5" transform="translate(281 2097)" fill="#fff" opacity="0.5"/>
    <rect id="Rectangle_148" data-name="Rectangle 148" width="2" height="5" transform="translate(281 2105)" fill="#fff" opacity="0.5"/>
    <rect id="Rectangle_149" data-name="Rectangle 149" width="2" height="5" transform="translate(281 2114)" fill="#fff" opacity="0.5"/>
    <circle id="Ellipse_148" data-name="Ellipse 148" cx="4" cy="4" r="4" transform="translate(278 2241)" fill="#fff" opacity="0.5"/>
    <circle id="Ellipse_149" data-name="Ellipse 149" cx="4" cy="4" r="4" transform="translate(278 2336)" fill="#fff" opacity="0.5"/>
    <circle id="Ellipse_150" data-name="Ellipse 150" cx="4" cy="4" r="4" transform="translate(278 2444)" fill="#fff" opacity="0.5"/>
    <rect id="Rectangle_150" data-name="Rectangle 150" width="2" height="5" transform="translate(281 2122)" fill="#fff" opacity="0.5"/>
    <rect id="Rectangle_151" data-name="Rectangle 151" width="2" height="5" transform="translate(281 2131)" fill="#fff" opacity="0.5"/>
    <rect id="Rectangle_152" data-name="Rectangle 152" width="2" height="5" transform="translate(281 2139)" fill="#fff" opacity="0.5"/>
    <rect id="Rectangle_153" data-name="Rectangle 153" width="2" height="5" transform="translate(281 2148)" fill="#fff" opacity="0.5"/>
    <rect id="Rectangle_154" data-name="Rectangle 154" width="2" height="5" transform="translate(281 2171)" fill="#fff" opacity="0.5"/>
    <rect id="Rectangle_155" data-name="Rectangle 155" width="2" height="5" transform="translate(281 2180)" fill="#fff" opacity="0.5"/>
    <rect id="Rectangle_156" data-name="Rectangle 156" width="2" height="5" transform="translate(281 2188)" fill="#fff" opacity="0.5"/>
    <rect id="Rectangle_157" data-name="Rectangle 157" width="2" height="5" transform="translate(281 2197)" fill="#fff" opacity="0.5"/>
    <rect id="Rectangle_158" data-name="Rectangle 158" width="2" height="5" transform="translate(281 2205)" fill="#fff" opacity="0.5"/>
    <rect id="Rectangle_159" data-name="Rectangle 159" width="2" height="5" transform="translate(281 2214)" fill="#fff" opacity="0.5"/>
    <rect id="Rectangle_160" data-name="Rectangle 160" width="2" height="5" transform="translate(281 2222)" fill="#fff" opacity="0.5"/>
    <rect id="Rectangle_161" data-name="Rectangle 161" width="2" height="5" transform="translate(281 2231)" fill="#fff" opacity="0.5"/>
    <rect id="Rectangle_162" data-name="Rectangle 162" width="2" height="5" transform="translate(281 2254)" fill="#fff" opacity="0.5"/>
    <rect id="Rectangle_163" data-name="Rectangle 163" width="2" height="5" transform="translate(281 2264)" fill="#fff" opacity="0.5"/>
    <rect id="Rectangle_164" data-name="Rectangle 164" width="2" height="5" transform="translate(281 2275)" fill="#fff" opacity="0.5"/>
    <rect id="Rectangle_165" data-name="Rectangle 165" width="2" height="5" transform="translate(281 2285)" fill="#fff" opacity="0.5"/>
    <rect id="Rectangle_166" data-name="Rectangle 166" width="2" height="5" transform="translate(281 2295)" fill="#fff" opacity="0.5"/>
    <rect id="Rectangle_167" data-name="Rectangle 167" width="2" height="5" transform="translate(281 2305)" fill="#fff" opacity="0.5"/>
    <rect id="Rectangle_168" data-name="Rectangle 168" width="2" height="5" transform="translate(281 2316)" fill="#fff" opacity="0.5"/>
    <rect id="Rectangle_169" data-name="Rectangle 169" width="2" height="5" transform="translate(281 2326)" fill="#fff" opacity="0.5"/>
    <rect id="Rectangle_170" data-name="Rectangle 170" width="2" height="5" transform="translate(281 2349)" fill="#fff" opacity="0.5"/>
    <rect id="Rectangle_171" data-name="Rectangle 171" width="2" height="5" transform="translate(281 2361)" fill="#fff" opacity="0.5"/>
    <rect id="Rectangle_172" data-name="Rectangle 172" width="2" height="5" transform="translate(281 2373)" fill="#fff" opacity="0.5"/>
    <rect id="Rectangle_173" data-name="Rectangle 173" width="2" height="5" transform="translate(281 2385)" fill="#fff" opacity="0.5"/>
    <rect id="Rectangle_174" data-name="Rectangle 174" width="2" height="5" transform="translate(281 2398)" fill="#fff" opacity="0.5"/>
    <rect id="Rectangle_175" data-name="Rectangle 175" width="2" height="5" transform="translate(281 2410)" fill="#fff" opacity="0.5"/>
    <rect id="Rectangle_176" data-name="Rectangle 176" width="2" height="5" transform="translate(281 2422)" fill="#fff" opacity="0.5"/>
    <rect id="Rectangle_177" data-name="Rectangle 177" width="2" height="5" transform="translate(281 2434)" fill="#fff" opacity="0.5"/>
    <g id="Ellipse_151" data-name="Ellipse 151" transform="translate(306 2154)" fill="none" stroke="#c12a21" stroke-width="1" opacity="0.5">
      <circle cx="7.5" cy="7.5" r="7.5" stroke="none"/>
      <circle cx="7.5" cy="7.5" r="7" fill="none"/>
    </g>
    <rect id="Rectangle_178" data-name="Rectangle 178" width="15" height="1" transform="translate(291 2161)" fill="#c12a21" opacity="0.5"/>
    <g id="Ellipse_152" data-name="Ellipse 152" transform="translate(306 2237)" fill="none" stroke="#c12a21" stroke-width="1" opacity="0.5">
      <circle cx="7.5" cy="7.5" r="7.5" stroke="none"/>
      <circle cx="7.5" cy="7.5" r="7" fill="none"/>
    </g>
    <rect id="Rectangle_179" data-name="Rectangle 179" width="15" height="1" transform="translate(291 2244)" fill="#c12a21" opacity="0.5"/>
    <g id="Ellipse_153" data-name="Ellipse 153" transform="translate(306 2332)" fill="none" stroke="#c12a21" stroke-width="1" opacity="0.5">
      <circle cx="7.5" cy="7.5" r="7.5" stroke="none"/>
      <circle cx="7.5" cy="7.5" r="7" fill="none"/>
    </g>
    <rect id="Rectangle_180" data-name="Rectangle 180" width="15" height="1" transform="translate(291 2339)" fill="#c12a21" opacity="0.5"/>
    <g id="Ellipse_154" data-name="Ellipse 154" transform="translate(306 2440)" fill="none" stroke="#c12a21" stroke-width="1" opacity="0.5">
      <circle cx="7.5" cy="7.5" r="7.5" stroke="none"/>
      <circle cx="7.5" cy="7.5" r="7" fill="none"/>
    </g>
    <rect id="Rectangle_181" data-name="Rectangle 181" width="15" height="1" transform="translate(291 2447)" fill="#c12a21" opacity="0.5"/>
    <circle id="Ellipse_161" data-name="Ellipse 161" cx="4" cy="4" r="4" transform="translate(278 2552)" fill="#fff" opacity="0.5"/>
    <g id="Ellipse_162" data-name="Ellipse 162" transform="translate(306 2548)" fill="none" stroke="#c12a21" stroke-width="1" opacity="0.5">
      <circle cx="7.5" cy="7.5" r="7.5" stroke="none"/>
      <circle cx="7.5" cy="7.5" r="7" fill="none"/>
    </g>
    <rect id="Rectangle_201" data-name="Rectangle 201" width="15" height="1" transform="translate(291 2555)" fill="#c12a21" opacity="0.5"/>
    <rect id="Rectangle_202" data-name="Rectangle 202" width="2" height="5" transform="translate(281 2457)" fill="#fff" opacity="0.5"/>
    <rect id="Rectangle_203" data-name="Rectangle 203" width="2" height="5" transform="translate(281 2469)" fill="#fff" opacity="0.5"/>
    <rect id="Rectangle_204" data-name="Rectangle 204" width="2" height="5" transform="translate(281 2481)" fill="#fff" opacity="0.5"/>
    <rect id="Rectangle_205" data-name="Rectangle 205" width="2" height="5" transform="translate(281 2493)" fill="#fff" opacity="0.5"/>
    <rect id="Rectangle_206" data-name="Rectangle 206" width="2" height="5" transform="translate(281 2506)" fill="#fff" opacity="0.5"/>
    <rect id="Rectangle_207" data-name="Rectangle 207" width="2" height="5" transform="translate(281 2518)" fill="#fff" opacity="0.5"/>
    <rect id="Rectangle_208" data-name="Rectangle 208" width="2" height="5" transform="translate(281 2530)" fill="#fff" opacity="0.5"/>
    <rect id="Rectangle_209" data-name="Rectangle 209" width="2" height="5" transform="translate(281 2542)" fill="#fff" opacity="0.5"/>
  </g>
</svg>
