<svg xmlns="http://www.w3.org/2000/svg" width="43" height="264" viewBox="0 0 43 264">
  <g id="Group_163" data-name="Group 163" transform="translate(-278 -2490)">
    <g id="Ellipse_79" data-name="Ellipse 79" transform="translate(306 2490)" fill="none" stroke="#c12a21" stroke-width="1" opacity="0.5">
      <circle cx="7.5" cy="7.5" r="7.5" stroke="none"/>
      <circle cx="7.5" cy="7.5" r="7" fill="none"/>
    </g>
    <circle id="Ellipse_80" data-name="Ellipse 80" cx="4" cy="4" r="4" transform="translate(278 2494)" fill="#fff" opacity="0.5"/>
    <circle id="Ellipse_147" data-name="Ellipse 147" cx="4" cy="4" r="4" transform="translate(278 2577)" fill="#fff" opacity="0.5"/>
    <rect id="Rectangle_118" data-name="Rectangle 118" width="15" height="1" transform="translate(291 2497)" fill="#c12a21" opacity="0.5"/>
    <rect id="Rectangle_146" data-name="Rectangle 146" width="2" height="5" transform="translate(281 2507)" fill="#fff" opacity="0.5"/>
    <rect id="Rectangle_147" data-name="Rectangle 147" width="2" height="5" transform="translate(281 2516)" fill="#fff" opacity="0.5"/>
    <rect id="Rectangle_148" data-name="Rectangle 148" width="2" height="5" transform="translate(281 2524)" fill="#fff" opacity="0.5"/>
    <rect id="Rectangle_149" data-name="Rectangle 149" width="2" height="5" transform="translate(281 2533)" fill="#fff" opacity="0.5"/>
    <circle id="Ellipse_148" data-name="Ellipse 148" cx="4" cy="4" r="4" transform="translate(278 2660)" fill="#fff" opacity="0.5"/>
    <circle id="Ellipse_149" data-name="Ellipse 149" cx="4" cy="4" r="4" transform="translate(278 2743)" fill="#fff" opacity="0.5"/>
    <rect id="Rectangle_150" data-name="Rectangle 150" width="2" height="5" transform="translate(281 2541)" fill="#fff" opacity="0.5"/>
    <rect id="Rectangle_151" data-name="Rectangle 151" width="2" height="5" transform="translate(281 2550)" fill="#fff" opacity="0.5"/>
    <rect id="Rectangle_152" data-name="Rectangle 152" width="2" height="5" transform="translate(281 2558)" fill="#fff" opacity="0.5"/>
    <rect id="Rectangle_153" data-name="Rectangle 153" width="2" height="5" transform="translate(281 2567)" fill="#fff" opacity="0.5"/>
    <rect id="Rectangle_154" data-name="Rectangle 154" width="2" height="5" transform="translate(281 2590)" fill="#fff" opacity="0.5"/>
    <rect id="Rectangle_155" data-name="Rectangle 155" width="2" height="5" transform="translate(281 2599)" fill="#fff" opacity="0.5"/>
    <rect id="Rectangle_156" data-name="Rectangle 156" width="2" height="5" transform="translate(281 2607)" fill="#fff" opacity="0.5"/>
    <rect id="Rectangle_157" data-name="Rectangle 157" width="2" height="5" transform="translate(281 2616)" fill="#fff" opacity="0.5"/>
    <rect id="Rectangle_158" data-name="Rectangle 158" width="2" height="5" transform="translate(281 2624)" fill="#fff" opacity="0.5"/>
    <rect id="Rectangle_159" data-name="Rectangle 159" width="2" height="5" transform="translate(281 2633)" fill="#fff" opacity="0.5"/>
    <rect id="Rectangle_160" data-name="Rectangle 160" width="2" height="5" transform="translate(281 2641)" fill="#fff" opacity="0.5"/>
    <rect id="Rectangle_161" data-name="Rectangle 161" width="2" height="5" transform="translate(281 2650)" fill="#fff" opacity="0.5"/>
    <rect id="Rectangle_162" data-name="Rectangle 162" width="2" height="5" transform="translate(281 2673)" fill="#fff" opacity="0.5"/>
    <rect id="Rectangle_163" data-name="Rectangle 163" width="2" height="5" transform="translate(281 2682)" fill="#fff" opacity="0.5"/>
    <rect id="Rectangle_164" data-name="Rectangle 164" width="2" height="5" transform="translate(281 2690)" fill="#fff" opacity="0.5"/>
    <rect id="Rectangle_165" data-name="Rectangle 165" width="2" height="5" transform="translate(281 2699)" fill="#fff" opacity="0.5"/>
    <rect id="Rectangle_166" data-name="Rectangle 166" width="2" height="5" transform="translate(281 2707)" fill="#fff" opacity="0.5"/>
    <rect id="Rectangle_167" data-name="Rectangle 167" width="2" height="5" transform="translate(281 2716)" fill="#fff" opacity="0.5"/>
    <rect id="Rectangle_168" data-name="Rectangle 168" width="2" height="5" transform="translate(281 2724)" fill="#fff" opacity="0.5"/>
    <rect id="Rectangle_169" data-name="Rectangle 169" width="2" height="5" transform="translate(281 2733)" fill="#fff" opacity="0.5"/>
    <g id="Ellipse_151" data-name="Ellipse 151" transform="translate(306 2573)" fill="none" stroke="#c12a21" stroke-width="1" opacity="0.5">
      <circle cx="7.5" cy="7.5" r="7.5" stroke="none"/>
      <circle cx="7.5" cy="7.5" r="7" fill="none"/>
    </g>
    <rect id="Rectangle_178" data-name="Rectangle 178" width="15" height="1" transform="translate(291 2580)" fill="#c12a21" opacity="0.5"/>
    <g id="Ellipse_152" data-name="Ellipse 152" transform="translate(306 2656)" fill="none" stroke="#c12a21" stroke-width="1" opacity="0.5">
      <circle cx="7.5" cy="7.5" r="7.5" stroke="none"/>
      <circle cx="7.5" cy="7.5" r="7" fill="none"/>
    </g>
    <rect id="Rectangle_179" data-name="Rectangle 179" width="15" height="1" transform="translate(291 2663)" fill="#c12a21" opacity="0.5"/>
    <g id="Ellipse_153" data-name="Ellipse 153" transform="translate(306 2739)" fill="none" stroke="#c12a21" stroke-width="1" opacity="0.5">
      <circle cx="7.5" cy="7.5" r="7.5" stroke="none"/>
      <circle cx="7.5" cy="7.5" r="7" fill="none"/>
    </g>
    <rect id="Rectangle_180" data-name="Rectangle 180" width="15" height="1" transform="translate(291 2746)" fill="#c12a21" opacity="0.5"/>
  </g>
</svg>
