<svg xmlns="http://www.w3.org/2000/svg" width="43" height="399" viewBox="0 0 43 399">
  <g id="Punktory" transform="translate(-278 -1609)">
    <g id="Ellipse_79" data-name="Ellipse 79" transform="translate(306 1609)" fill="none" stroke="#c12a21" stroke-width="1" opacity="0.5">
      <circle cx="7.5" cy="7.5" r="7.5" stroke="none"/>
      <circle cx="7.5" cy="7.5" r="7" fill="none"/>
    </g>
    <circle id="Ellipse_80" data-name="Ellipse 80" cx="4" cy="4" r="4" transform="translate(278 1612)" fill="#fff" opacity="0.5"/>
    <circle id="Ellipse_147" data-name="Ellipse 147" cx="4" cy="4" r="4" transform="translate(278 1708)" fill="#fff" opacity="0.5"/>
    <rect id="Rectangle_118" data-name="Rectangle 118" width="15" height="1" transform="translate(291 1616)" fill="#c12a21" opacity="0.5"/>
    <rect id="Rectangle_146" data-name="Rectangle 146" width="2" height="5" transform="translate(281 1625)" fill="#fff" opacity="0.5"/>
    <rect id="Rectangle_147" data-name="Rectangle 147" width="2" height="5" transform="translate(281 1635)" fill="#fff" opacity="0.5"/>
    <rect id="Rectangle_148" data-name="Rectangle 148" width="2" height="5" transform="translate(281 1646)" fill="#fff" opacity="0.5"/>
    <rect id="Rectangle_149" data-name="Rectangle 149" width="2" height="5" transform="translate(281 1656)" fill="#fff" opacity="0.5"/>
    <circle id="Ellipse_148" data-name="Ellipse 148" cx="4" cy="4" r="4" transform="translate(278 1805)" fill="#fff" opacity="0.5"/>
    <circle id="Ellipse_149" data-name="Ellipse 149" cx="4" cy="4" r="4" transform="translate(278 1900)" fill="#fff" opacity="0.5"/>
    <circle id="Ellipse_150" data-name="Ellipse 150" cx="4" cy="4" r="4" transform="translate(278 1996)" fill="#fff" opacity="0.5"/>
    <rect id="Rectangle_150" data-name="Rectangle 150" width="2" height="5" transform="translate(281 1667)" fill="#fff" opacity="0.5"/>
    <rect id="Rectangle_151" data-name="Rectangle 151" width="2" height="5" transform="translate(281 1677)" fill="#fff" opacity="0.5"/>
    <rect id="Rectangle_152" data-name="Rectangle 152" width="2" height="5" transform="translate(281 1688)" fill="#fff" opacity="0.5"/>
    <rect id="Rectangle_153" data-name="Rectangle 153" width="2" height="5" transform="translate(281 1698)" fill="#fff" opacity="0.5"/>
    <rect id="Rectangle_154" data-name="Rectangle 154" width="2" height="5" transform="translate(281 1721)" fill="#fff" opacity="0.5"/>
    <rect id="Rectangle_155" data-name="Rectangle 155" width="2" height="5" transform="translate(281 1732)" fill="#fff" opacity="0.5"/>
    <rect id="Rectangle_156" data-name="Rectangle 156" width="2" height="5" transform="translate(281 1742)" fill="#fff" opacity="0.5"/>
    <rect id="Rectangle_157" data-name="Rectangle 157" width="2" height="5" transform="translate(281 1753)" fill="#fff" opacity="0.5"/>
    <rect id="Rectangle_158" data-name="Rectangle 158" width="2" height="5" transform="translate(281 1763)" fill="#fff" opacity="0.5"/>
    <rect id="Rectangle_159" data-name="Rectangle 159" width="2" height="5" transform="translate(281 1774)" fill="#fff" opacity="0.5"/>
    <rect id="Rectangle_160" data-name="Rectangle 160" width="2" height="5" transform="translate(281 1784)" fill="#fff" opacity="0.5"/>
    <rect id="Rectangle_161" data-name="Rectangle 161" width="2" height="5" transform="translate(281 1795)" fill="#fff" opacity="0.5"/>
    <rect id="Rectangle_162" data-name="Rectangle 162" width="2" height="5" transform="translate(281 1818)" fill="#fff" opacity="0.5"/>
    <rect id="Rectangle_163" data-name="Rectangle 163" width="2" height="5" transform="translate(281 1828)" fill="#fff" opacity="0.5"/>
    <rect id="Rectangle_164" data-name="Rectangle 164" width="2" height="5" transform="translate(281 1839)" fill="#fff" opacity="0.5"/>
    <rect id="Rectangle_165" data-name="Rectangle 165" width="2" height="5" transform="translate(281 1849)" fill="#fff" opacity="0.5"/>
    <rect id="Rectangle_166" data-name="Rectangle 166" width="2" height="5" transform="translate(281 1859)" fill="#fff" opacity="0.5"/>
    <rect id="Rectangle_167" data-name="Rectangle 167" width="2" height="5" transform="translate(281 1869)" fill="#fff" opacity="0.5"/>
    <rect id="Rectangle_168" data-name="Rectangle 168" width="2" height="5" transform="translate(281 1880)" fill="#fff" opacity="0.5"/>
    <rect id="Rectangle_169" data-name="Rectangle 169" width="2" height="5" transform="translate(281 1890)" fill="#fff" opacity="0.5"/>
    <rect id="Rectangle_170" data-name="Rectangle 170" width="2" height="5" transform="translate(281 1913)" fill="#fff" opacity="0.5"/>
    <rect id="Rectangle_171" data-name="Rectangle 171" width="2" height="5" transform="translate(281 1923)" fill="#fff" opacity="0.5"/>
    <rect id="Rectangle_172" data-name="Rectangle 172" width="2" height="5" transform="translate(281 1934)" fill="#fff" opacity="0.5"/>
    <rect id="Rectangle_173" data-name="Rectangle 173" width="2" height="5" transform="translate(281 1944)" fill="#fff" opacity="0.5"/>
    <rect id="Rectangle_174" data-name="Rectangle 174" width="2" height="5" transform="translate(281 1955)" fill="#fff" opacity="0.5"/>
    <rect id="Rectangle_175" data-name="Rectangle 175" width="2" height="5" transform="translate(281 1965)" fill="#fff" opacity="0.5"/>
    <rect id="Rectangle_176" data-name="Rectangle 176" width="2" height="5" transform="translate(281 1976)" fill="#fff" opacity="0.5"/>
    <rect id="Rectangle_177" data-name="Rectangle 177" width="2" height="5" transform="translate(281 1986)" fill="#fff" opacity="0.5"/>
    <g id="Ellipse_151" data-name="Ellipse 151" transform="translate(306 1705)" fill="none" stroke="#c12a21" stroke-width="1" opacity="0.5">
      <circle cx="7.5" cy="7.5" r="7.5" stroke="none"/>
      <circle cx="7.5" cy="7.5" r="7" fill="none"/>
    </g>
    <rect id="Rectangle_178" data-name="Rectangle 178" width="15" height="1" transform="translate(291 1712)" fill="#c12a21" opacity="0.5"/>
    <g id="Ellipse_152" data-name="Ellipse 152" transform="translate(306 1802)" fill="none" stroke="#c12a21" stroke-width="1" opacity="0.5">
      <circle cx="7.5" cy="7.5" r="7.5" stroke="none"/>
      <circle cx="7.5" cy="7.5" r="7" fill="none"/>
    </g>
    <rect id="Rectangle_179" data-name="Rectangle 179" width="15" height="1" transform="translate(291 1809)" fill="#c12a21" opacity="0.5"/>
    <g id="Ellipse_153" data-name="Ellipse 153" transform="translate(306 1897)" fill="none" stroke="#c12a21" stroke-width="1" opacity="0.5">
      <circle cx="7.5" cy="7.5" r="7.5" stroke="none"/>
      <circle cx="7.5" cy="7.5" r="7" fill="none"/>
    </g>
    <rect id="Rectangle_180" data-name="Rectangle 180" width="15" height="1" transform="translate(291 1904)" fill="#c12a21" opacity="0.5"/>
    <g id="Ellipse_154" data-name="Ellipse 154" transform="translate(306 1993)" fill="none" stroke="#c12a21" stroke-width="1" opacity="0.5">
      <circle cx="7.5" cy="7.5" r="7.5" stroke="none"/>
      <circle cx="7.5" cy="7.5" r="7" fill="none"/>
    </g>
    <rect id="Rectangle_181" data-name="Rectangle 181" width="15" height="1" transform="translate(291 2000)" fill="#c12a21" opacity="0.5"/>
  </g>
</svg>
