<svg xmlns="http://www.w3.org/2000/svg" width="74" height="62.651" viewBox="0 0 74 62.651">
  <g id="atom-symbol" transform="translate(0 -3.737)">
    <g id="Group_57" data-name="Group 57" transform="translate(0 3.737)">
      <path id="Path_116" data-name="Path 116" d="M74,35.416c0-5.333-6.719-9.207-15.932-11.48,3.155-8.163,3.7-15.228-.37-18.249a6.7,6.7,0,0,0-4.087-1.246c-4.759,0-11.329,3.818-18.094,10.165C28.678,7.83,22.045,3.737,17.317,3.737a6.278,6.278,0,0,0-3.736,1.114c-3.2,2.3-3.674,7.5-1.359,15.037.454,1.479,1.026,3.021,1.668,4.6C5.746,26.806,0,30.487,0,35.416c0,4.856,5.579,8.5,13.532,10.83-3.375,8.436-4.079,15.8.1,18.9a6.7,6.7,0,0,0,4.087,1.245c4.756,0,11.316-3.81,18.073-10.145C42.269,62.42,48.478,66.1,52.969,66.1A6.278,6.278,0,0,0,56.7,64.985c3.955-2.837,3.434-9.767.392-17.868C66.8,44.893,74,40.937,74,35.416ZM53.609,7.479a3.738,3.738,0,0,1,2.277.651c2.411,1.785,2.144,7.507-.839,15.143a90.455,90.455,0,0,0-13.112-1.562q-2.136-2.619-4.3-4.916C44.211,10.659,50.1,7.479,53.609,7.479ZM24.221,42.753c.71.988,1.43,1.951,2.156,2.9A76.085,76.085,0,0,1,17.72,44.2c.925-2,2-4.091,3.258-6.262C22,39.547,23.078,41.158,24.221,42.753ZM18.1,26.555a74.412,74.412,0,0,1,7.81-1.306c-.481.619-.962,1.239-1.436,1.878-1.205,1.627-2.362,3.306-3.467,5.008C19.934,30.246,18.964,28.38,18.1,26.555Zm4.63,8.485c1.26-1.995,2.652-4.038,4.184-6.1,1.063-1.435,2.13-2.781,3.2-4.076,2.2-.152,4.5-.237,6.884-.237,1.167,0,2.307.023,3.431.061,1.054,1.327,2.112,2.707,3.167,4.176,1.785,2.49,3.359,4.928,4.771,7.3-1.2,1.879-2.511,3.8-3.953,5.74-1.1,1.488-2.212,2.887-3.319,4.225-1.337.053-2.7.088-4.1.088-2.239,0-4.389-.082-6.465-.216-1.28-1.574-2.563-3.232-3.844-5.017C25.274,39.011,23.955,37.021,22.733,35.04Zm24.121,8.67c1.107-1.5,2.171-3.039,3.194-4.6q1.637,3,2.859,5.77c-2.385.424-4.963.759-7.7.987C45.756,45.159,46.309,44.446,46.854,43.709Zm-.792-16.62c-.537-.745-1.078-1.473-1.618-2.191a82.575,82.575,0,0,1,9.4,1.221,75.563,75.563,0,0,1-3.7,7.133C48.861,31.159,47.494,29.089,46.061,27.09Zm-8.178-5.5c-.295,0-.591-.008-.885-.008-1.381,0-2.77.032-4.156.091.882-.979,1.755-1.888,2.623-2.766C36.264,19.763,37.07,20.654,37.884,21.594ZM15.348,7.321a3.319,3.319,0,0,1,1.966-.545c3.463,0,9.383,3.4,16.028,9.959-1.591,1.612-3.182,3.346-4.753,5.205a84.329,84.329,0,0,0-11.736,1.787C16.178,22.1,15.589,20.518,15.123,19,13.306,13.09,13.391,8.724,15.348,7.321ZM3.033,35.416c0-2.9,4.515-5.987,12.078-8.117a87.048,87.048,0,0,0,4.081,7.735,84.237,84.237,0,0,0-4.454,8.395C7.4,41.308,3.033,38.272,3.033,35.416Zm14.689,27.94a3.749,3.749,0,0,1-2.279-.65c-2.465-1.828-2.125-7.777,1.054-15.677a83.828,83.828,0,0,0,12.51,1.9c1.536,1.843,3.082,3.574,4.626,5.166C27.085,60.2,21.224,63.356,17.722,63.356Zm15.5-14.179c1.26.047,2.522.073,3.777.073.474,0,.946,0,1.419-.012-.873.965-1.738,1.866-2.6,2.736C34.961,51.093,34.094,50.158,33.22,49.177ZM54.936,62.523c-2.581,1.854-9.2-1.067-16.952-8.412q2.307-2.334,4.592-5.02a91.8,91.8,0,0,0,11.516-1.347C56.976,55.288,57.248,60.862,54.936,62.523Zm1.008-18.252a84.9,84.9,0,0,0-4.053-8.064,84,84,0,0,0,5-9.424c8.761,2.119,14.076,5.486,14.076,8.635C70.964,38.678,65.262,42.169,55.944,44.271Z" transform="translate(0 -3.737)" fill="#fff"/>
      <circle id="Ellipse_43" data-name="Ellipse 43" cx="5.893" cy="5.893" r="5.893" transform="translate(31.105 25.788)" fill="#fff"/>
    </g>
  </g>
</svg>
