<svg xmlns="http://www.w3.org/2000/svg" width="74" height="74" viewBox="0 0 74 74">
  <path id="report" d="M16.935,50.95H12.743a1.156,1.156,0,0,0-1.156,1.156v9.22a1.156,1.156,0,0,0,1.156,1.156h4.191a1.156,1.156,0,0,0,1.156-1.156v-9.22A1.156,1.156,0,0,0,16.935,50.95Zm-1.156,9.22H13.9V53.263h1.879ZM26.028,46.131H21.836a1.156,1.156,0,0,0-1.156,1.156V61.327a1.156,1.156,0,0,0,1.156,1.156h4.191a1.156,1.156,0,0,0,1.156-1.156V47.287A1.156,1.156,0,0,0,26.028,46.131ZM24.872,60.171H22.993V48.444h1.879Zm10.25-18.72H30.93a1.156,1.156,0,0,0-1.156,1.156v18.72a1.156,1.156,0,0,0,1.156,1.156h4.191a1.156,1.156,0,0,0,1.156-1.156V42.607A1.156,1.156,0,0,0,35.121,41.451Zm-1.156,18.72H32.086V43.763h1.879Zm-21.6-14.166A80.608,80.608,0,0,0,38.526,31.191l-.167.009a1.156,1.156,0,1,1-.125-2.309l3.448-.187a1.156,1.156,0,0,1,1.207,1.321l-.5,3.417a1.156,1.156,0,1,1-2.288-.332l.037-.257A82.841,82.841,0,0,1,13.124,48.19a1.156,1.156,0,1,1-.761-2.184ZM7.092,15.992a1.156,1.156,0,0,1,1.156-1.156h17a1.156,1.156,0,1,1,0,2.313h-17a1.156,1.156,0,0,1-1.156-1.156Zm0-6.6A1.156,1.156,0,0,1,8.248,8.235h17a1.156,1.156,0,1,1,0,2.313h-17A1.156,1.156,0,0,1,7.092,9.391Zm66.33,37.657L59.107,38.783a1.156,1.156,0,0,0-1.156,0l-5.489,3.169V15.992a1.156,1.156,0,0,0-.321-.8L37.927.356A1.156,1.156,0,0,0,37.092,0H1.156A1.156,1.156,0,0,0,0,1.156V72.844A1.156,1.156,0,0,0,1.156,74H51.306a1.156,1.156,0,0,0,1.156-1.156V70.676l5.489,3.169a1.156,1.156,0,0,0,1.156,0L73.422,65.58a1.156,1.156,0,0,0,.578-1V48.049a1.156,1.156,0,0,0-.578-1ZM58.529,41.119l12,6.93-12,6.93-12-6.93ZM43.057,60.171H41.178V39.013h1.879ZM45.37,50.052l12,6.93v13.86l-12-6.929ZM48.6,14.836H37.627V3.385Zm1.553,56.852H2.313V2.312h33V15.992a1.156,1.156,0,0,0,1.156,1.156H50.149V43.287l-4.78,2.759V37.857A1.156,1.156,0,0,0,44.213,36.7H40.022a1.156,1.156,0,0,0-1.156,1.156V61.327a1.156,1.156,0,0,0,1.156,1.156h3.035v2.1c0,.029,0,.058.006.087H9.4V29.857a1.156,1.156,0,0,0-2.313,0V65.822a1.156,1.156,0,0,0,1.156,1.156H44.213a1.155,1.155,0,0,0,.959-.511l4.977,2.873Zm9.535-.846V56.982l12-6.93V63.912Z" fill="#fff"/>
</svg>
