<svg id="Reponswye" xmlns="http://www.w3.org/2000/svg" width="74" height="74" viewBox="0 0 74 74">
  <path id="Path_588" data-name="Path 588" d="M51.43,300.391a1.447,1.447,0,1,0-1.021-.424A1.454,1.454,0,0,0,51.43,300.391Zm0,0" transform="translate(-44.205 -263.102)" fill="#fff"/>
  <path id="Path_589" data-name="Path 589" d="M263.971,565h-.029a1.445,1.445,0,0,0,0,2.891h.029a1.445,1.445,0,1,0,0-2.891Zm0,0" transform="translate(-232.145 -499.672)" fill="#fff"/>
  <path id="Path_590" data-name="Path 590" d="M460.453,256.051h7.155a1.445,1.445,0,1,0,0-2.891h-7.155a1.445,1.445,0,1,0,0,2.891Zm0,0" transform="translate(-405.935 -223.888)" fill="#fff"/>
  <path id="Path_591" data-name="Path 591" d="M67.461,24.859H58.39V7.588A7.6,7.6,0,0,0,50.8,0H7.589A7.6,7.6,0,0,0,0,7.588V66.412A7.6,7.6,0,0,0,7.589,74H67.461A6.548,6.548,0,0,0,74,67.46V31.4a6.548,6.548,0,0,0-6.54-6.54ZM45.094,47.138l7.182,7.181H50.824a1.445,1.445,0,0,0,0,2.891h4.941a1.445,1.445,0,0,0,1.445-1.445V50.824a1.445,1.445,0,1,0-2.891,0v1.452L45.094,43.05V36.594H71.11v26.3H45.094ZM71.11,31.4v2.3H45.094V31.4a3.654,3.654,0,0,1,3.649-3.649H67.461A3.654,3.654,0,0,1,71.11,31.4ZM2.891,66.412V7.588a4.7,4.7,0,0,1,4.7-4.7H50.8a4.7,4.7,0,0,1,4.7,4.7V24.859H52.609V9.25A1.445,1.445,0,0,0,51.164,7.8H7.226A1.445,1.445,0,0,0,5.781,9.25V30.063a1.445,1.445,0,1,0,2.891,0V10.7H49.718V24.859h-.975A6.548,6.548,0,0,0,42.2,31.4v8.759l-9.276-9.275h1.156a1.445,1.445,0,0,0,0-2.891H29.439a1.445,1.445,0,0,0-1.445,1.445v4.644a1.445,1.445,0,0,0,2.891,0V32.927L42.2,44.247V60.992H8.672V41.625a1.445,1.445,0,1,0-2.891,0V62.438a1.445,1.445,0,0,0,1.445,1.445H42.2V67.46a6.5,6.5,0,0,0,1.116,3.649H7.589a4.7,4.7,0,0,1-4.7-4.7Zm64.569,4.7H48.744a3.654,3.654,0,0,1-3.649-3.649V65.784H71.11V67.46A3.654,3.654,0,0,1,67.461,71.109Zm0,0" transform="translate(-0.001 0)" fill="#fff"/>
  <path id="Path_592" data-name="Path 592" d="M491.46,579.164h-.019a1.445,1.445,0,1,0,0,2.891h.019a1.445,1.445,0,1,0,0-2.891Zm0,0" transform="translate(-433.34 -512.198)" fill="#fff"/>
</svg>
