<svg id="rocket" xmlns="http://www.w3.org/2000/svg" width="74.004" height="74" viewBox="0 0 74.004 74">
  <path id="Path_540" data-name="Path 540" d="M69.875.007C55.429-.252,38.954,7.3,28.526,19.014A39.128,39.128,0,0,0,1.712,30.432a1.542,1.542,0,0,0,.863,2.624l11.884,1.7L12.991,36.4a1.541,1.541,0,0,0,.062,2.118L32.87,58.337a1.545,1.545,0,0,0,2.118.059l1.643-1.468,1.7,11.884A1.535,1.535,0,0,0,39.426,70a1.417,1.417,0,0,0,.441.068,1.741,1.741,0,0,0,1.193-.5A39.046,39.046,0,0,0,52.379,42.858c11.726-10.45,19.339-26.919,19-41.346a1.549,1.549,0,0,0-1.508-1.5ZM55.666,26.624a7.71,7.71,0,1,1,0-10.9A7.685,7.685,0,0,1,55.666,26.624Z" transform="translate(2.611 -0.001)" fill="#fff"/>
  <path id="Path_541" data-name="Path 541" d="M8.4,18.787C5.1,22.086.571,36.992.065,38.678a1.543,1.543,0,0,0,1.477,1.986,1.579,1.579,0,0,0,.444-.065c1.687-.506,16.592-5.035,19.891-8.335A9.53,9.53,0,1,0,8.4,18.787Z" transform="translate(0 33.336)" fill="#fff"/>
</svg>
