<svg xmlns="http://www.w3.org/2000/svg" width="43.065" height="67" viewBox="0 0 43.065 67">
  <g id="safe" transform="translate(-91.454)">
    <g id="Group_147" data-name="Group 147" transform="translate(91.454)">
      <g id="Group_146" data-name="Group 146" transform="translate(0)">
        <path id="Path_806" data-name="Path 806" d="M129.97,28.716h-.633V16.35a16.35,16.35,0,0,0-32.7,0V28.716H96a4.554,4.554,0,0,0-4.549,4.549v24.73a9.015,9.015,0,0,0,9,9.005h25.055a9.015,9.015,0,0,0,9-9.005V33.265A4.554,4.554,0,0,0,129.97,28.716ZM100.556,16.35h0a12.43,12.43,0,1,1,24.86,0V28.716h-1.921V16.279a10.509,10.509,0,1,0-21.017,0V28.716h-1.922Zm19.019-.071V28.716H106.4V16.279a6.589,6.589,0,1,1,13.177,0ZM130.6,57.995h0a5.091,5.091,0,0,1-5.085,5.085H100.459a5.091,5.091,0,0,1-5.085-5.085V33.265A.63.63,0,0,1,96,32.636H129.97a.63.63,0,0,1,.629.629v24.73Z" transform="translate(-91.454)" fill="#fff"/>
      </g>
    </g>
    <g id="Group_149" data-name="Group 149" transform="translate(105.391 41.989)">
      <g id="Group_148" data-name="Group 148">
        <path id="Path_807" data-name="Path 807" d="M212.857,321.5a1.959,1.959,0,0,0-2.77-.108l-6.62,6.126-2.164-2.164a1.96,1.96,0,0,0-2.772,2.772l3.5,3.5c.017.017.035.031.052.047s.048.045.073.066.054.044.082.065.051.039.078.057.059.038.089.056.053.033.08.047.065.033.1.048.052.026.079.037.071.027.107.04.05.019.076.026.079.021.119.031l.069.017c.045.009.09.015.135.021l.056.008c.064.006.129.01.193.01h0c.061,0,.122,0,.183-.009l.054-.007c.043-.005.086-.01.129-.019.023,0,.044-.01.067-.016.038-.009.075-.017.112-.027s.049-.016.073-.024.068-.022.1-.036.051-.022.076-.033.063-.028.094-.043.051-.028.077-.043.058-.033.087-.051.05-.034.075-.052.055-.039.081-.06.047-.039.07-.059.034-.027.05-.042l8-7.406A1.96,1.96,0,0,0,212.857,321.5Z" transform="translate(-197.958 -320.869)" fill="#fff"/>
      </g>
    </g>
  </g>
</svg>
