<svg xmlns="http://www.w3.org/2000/svg" width="66.077" height="75" viewBox="0 0 66.077 75">
  <g id="save-money" transform="translate(-0.36)">
    <path id="Path_646" data-name="Path 646" d="M191.394,165.327a1.171,1.171,0,0,0-.422-.014,2.8,2.8,0,0,1-2.474-2.773,1.23,1.23,0,0,0-2.46,0,5.263,5.263,0,0,0,3.87,5.067v1.23a1.23,1.23,0,1,0,2.46,0v-1.156a5.253,5.253,0,0,0-1.076-10.395,2.793,2.793,0,1,1,2.793-2.793,1.23,1.23,0,0,0,2.46,0,5.263,5.263,0,0,0-4.177-5.143v-1.12a1.23,1.23,0,1,0-2.46,0v1.195a5.253,5.253,0,0,0,1.384,10.32,2.791,2.791,0,0,1,.1,5.581Zm0,0" transform="translate(-157.125 -124.395)" fill="#fff"/>
    <path id="Path_647" data-name="Path 647" d="M104.195,124.331a17.839,17.839,0,1,0,17.839-17.839A17.839,17.839,0,0,0,104.195,124.331Zm17.839-15.379a15.379,15.379,0,1,1-15.379,15.379A15.379,15.379,0,0,1,122.034,108.952Zm0,0" transform="translate(-87.868 -90.116)" fill="#fff"/>
    <path id="Path_648" data-name="Path 648" d="M58.071,331.257l-9.637,4.553a7.849,7.849,0,0,0-6.692-4.129l-8.9-.245a9.4,9.4,0,0,1-4.043-1.044l-.905-.469a15.967,15.967,0,0,0-14.79.016l.056-2.051a1.23,1.23,0,0,0-1.2-1.264l-9.755-.268a1.23,1.23,0,0,0-1.263,1.2L.36,348.96a1.23,1.23,0,0,0,1.2,1.264l9.755.268h.034a1.23,1.23,0,0,0,1.23-1.2l.028-1.024,2.534-1.357a4.347,4.347,0,0,1,3.244-.355l15.134,4.247c.026.008.053.014.08.02a16.2,16.2,0,0,0,3.326.343,16.414,16.414,0,0,0,6.857-1.5,1.145,1.145,0,0,0,.153-.084L65.874,335.4a1.231,1.231,0,0,0,.4-1.639,6.214,6.214,0,0,0-8.207-2.5ZM2.854,347.8l.521-18.948,7.3.2L10.149,348Zm39.817-.322a13.948,13.948,0,0,1-8.53.952l-15.093-4.237a6.8,6.8,0,0,0-5.071.554l-1.3.694.347-12.6a13.523,13.523,0,0,1,13.738-.733l.905.469a11.882,11.882,0,0,0,5.107,1.319l8.9.245a5.4,5.4,0,0,1,5.128,4.3l-13.252-.366a1.23,1.23,0,0,0-.068,2.46l14.624.4h.034a1.23,1.23,0,0,0,1.229-1.2,7.808,7.808,0,0,0-.119-1.6l9.884-4.67.029-.014a3.759,3.759,0,0,1,4.25.6Zm0,0" transform="translate(0 -276.17)" fill="#fff"/>
    <path id="Path_649" data-name="Path 649" d="M214.663,12.917V1.23a1.23,1.23,0,1,0-2.46,0V12.917a1.23,1.23,0,1,0,2.46,0Zm0,0" transform="translate(-179.267)" fill="#fff"/>
    <path id="Path_650" data-name="Path 650" d="M274.663,46.766V41.23a1.23,1.23,0,0,0-2.46,0v5.536a1.23,1.23,0,0,0,2.46,0Zm0,0" transform="translate(-230.04 -33.849)" fill="#fff"/>
    <path id="Path_651" data-name="Path 651" d="M154.663,46.766V41.23a1.23,1.23,0,1,0-2.46,0v5.536a1.23,1.23,0,1,0,2.46,0Zm0,0" transform="translate(-128.493 -33.849)" fill="#fff"/>
  </g>
</svg>
