<svg xmlns="http://www.w3.org/2000/svg" width="63.281" height="75" viewBox="0 0 63.281 75">
  <g id="security" transform="translate(-40 0)">
    <path id="Path_101" data-name="Path 101" d="M102.566,12.983,72.1.092a1.173,1.173,0,0,0-.913,0L40.715,12.983A1.172,1.172,0,0,0,40,14.062V32.574A44.311,44.311,0,0,0,71.3,74.948a1.172,1.172,0,0,0,.689,0,44.312,44.312,0,0,0,31.3-42.374V14.062a1.172,1.172,0,0,0-.715-1.079Zm-1.628,19.592A41.774,41.774,0,0,1,71.641,72.6a41.774,41.774,0,0,1-29.3-40.026V14.839l29.3-12.395,29.3,12.395Z" transform="translate(0)" fill="#fff"/>
    <path id="Path_102" data-name="Path 102" d="M168.4,188.619a3.514,3.514,0,0,0,4.972,0l15.335-15.335a3.658,3.658,0,1,0-5.173-5.173l-12.648,12.648-5.617-5.617a3.658,3.658,0,1,0-5.173,5.173ZM161.754,176.8a1.316,1.316,0,0,1,1.858,0l6.445,6.445a1.172,1.172,0,0,0,1.657,0l13.477-13.477a1.314,1.314,0,0,1,1.858,1.858l-15.335,15.335a1.173,1.173,0,0,1-1.657,0l-8.3-8.3A1.313,1.313,0,0,1,161.754,176.8Z" transform="translate(-101.589 -142.573)" fill="#fff"/>
    <path id="Path_103" data-name="Path 103" d="M112.128,48.1,88.691,58.65A1.171,1.171,0,0,0,88,59.719V74.731a36.212,36.212,0,0,0,24.222,34.141,1.172,1.172,0,0,0,.822-.018l1.436-.575a36.156,36.156,0,0,0,22.738-33.584V59.719a1.172,1.172,0,0,0-.691-1.069L113.09,48.1A1.171,1.171,0,0,0,112.128,48.1Zm22.746,12.373V74.695A33.665,33.665,0,0,1,113.61,106.1l-1.025.41A33.866,33.866,0,0,1,90.344,74.731V60.476l22.266-10.02Z" transform="translate(-40.969 -40.969)" fill="#fff"/>
  </g>
</svg>
