<svg xmlns="http://www.w3.org/2000/svg" width="73.742" height="62.126" viewBox="0 0 73.742 62.126">
  <path id="Path_605" data-name="Path 605" d="M73.216,120.285l-2.571-2.564a4.874,4.874,0,0,0-5.768-.823l-4.846-4.84.236-.236a5.052,5.052,0,0,0,0-7.133,5,5,0,0,0-2.534-1.37,5.083,5.083,0,0,0,.2-1.416,5.04,5.04,0,0,0-4.01-4.937,5.083,5.083,0,0,0,.2-1.416,5.036,5.036,0,0,0-4.009-4.935,5.037,5.037,0,0,0-5.384-6.429l-9.6-1.817c-1.464-.278-3.293-.461-4.448.591a2.629,2.629,0,0,0-.22.228,5.062,5.062,0,0,0-5.311,1.168,5.008,5.008,0,0,0-1.475,3.568,5.09,5.09,0,0,0,.2,1.416,5.041,5.041,0,0,0-4.008,4.932,5.075,5.075,0,0,0,.2,1.42,5.047,5.047,0,0,0-3.129,7.789A5.044,5.044,0,0,0,15,111.826l.235.234L10.392,116.9a4.867,4.867,0,0,0-5.506.954l-2.573,2.566a4.863,4.863,0,0,0,0,6.867l3.211,3.207a1.456,1.456,0,0,0,2.057-2.06L4.37,125.224a1.952,1.952,0,0,1,0-2.746l2.573-2.566a1.949,1.949,0,0,1,2.374-.291,1.468,1.468,0,0,0,.183.224,1.449,1.449,0,0,0,.418.291L24.674,134.87a1.434,1.434,0,0,0,.7.709,1.948,1.948,0,0,1-.081,2.658l-2.57,2.567a1.955,1.955,0,0,1-2.752,0l-3.211-3.211a1.456,1.456,0,0,0-2.058,2.058l3.213,3.214a4.873,4.873,0,0,0,6.864,0l2.572-2.569a4.867,4.867,0,0,0,.681-6.011l5.454-5.447.017-.018c.625-.646,2.364-.525,4.046-.408a20.936,20.936,0,0,0,3.829.025l5.973,5.966a4.864,4.864,0,0,0,.826,5.762l2.572,2.569a4.867,4.867,0,0,0,6.866,0l15.6-15.582a4.862,4.862,0,0,0,0-6.867ZM34.588,85.229l6.314,1.2L37.123,90.2a9.176,9.176,0,0,1-2.265-1.646,6.7,6.7,0,0,1-2.142-3.309h0a1.273,1.273,0,0,1-.006-.143,4.932,4.932,0,0,1,1.879.127Zm-7.379,1.187a2.147,2.147,0,0,1,2.716-.257,10.411,10.411,0,0,0,2.921,4.5,10.779,10.779,0,0,0,4.194,2.6,2.136,2.136,0,0,1-3.266,2.728h0l-6.564-6.552a2.143,2.143,0,0,1,0-3.017Zm-3.8,6.352a2.147,2.147,0,0,1,3.025,0l5.286,5.275a2.139,2.139,0,0,1-3.028,3.023h0l-4.01-4.009-.019-.018L23.4,95.786a2.136,2.136,0,0,1,0-3.018Zm-3.811,6.35a2.153,2.153,0,0,1,3.015-.01l4.022,4.02a2.136,2.136,0,0,1-3.027,3.016l-1.458-1.456h0l-2.551-2.548a2.141,2.141,0,0,1,0-3.021Zm-2.535,7.629a2.152,2.152,0,0,1,3.029,0l1.46,1.458a2.136,2.136,0,0,1-3.029,3.014l-.183-.182-.007-.007-.008-.008-1.261-1.256a2.138,2.138,0,0,1,0-3.019ZM46.722,123.29a1.455,1.455,0,0,0-2.058,0l-1.3,1.293c-1.231,1.231-3.46,1.076-5.616.926-2.342-.163-4.763-.331-6.33,1.278l-5.361,5.355L12.654,118.754l4.745-4.736a5.048,5.048,0,0,0,7.684-4.3c0-.013,0-.025,0-.038h.038a5.035,5.035,0,0,0,5.046-5.04c0-.013,0-.025,0-.038H30.2a5.029,5.029,0,0,0,5.046-5.079h.039A5.049,5.049,0,0,0,39.6,91.847l4.159-4.157a2.135,2.135,0,0,1,1.093-.582c.043,0,.086-.012.128-.02a2.133,2.133,0,0,1,1.812,3.62l-1.267,1.261-.013.012-1.459,1.456a1.456,1.456,0,1,0,2.057,2.06l1.272-1.27h0l.192-.192a2.144,2.144,0,0,1,3.021.007,2.136,2.136,0,0,1,0,3.017l-1.274,1.276h0l-1.459,1.453a1.456,1.456,0,1,0,2.054,2.063l1.465-1.459a2.136,2.136,0,0,1,3.023,3.019l-2.539,2.54a1.455,1.455,0,1,0,2.059,2.058l1.245-1.245.022-.02a2.136,2.136,0,0,1,3.024,3.019l-1.265,1.264h0l-2.008,2.006a1.456,1.456,0,0,0,2.057,2.06l.982-.981,4.708,4.7-13.406,13.39-4.8-4.8a5.724,5.724,0,0,0,.956-.769l1.294-1.293a1.455,1.455,0,0,0,0-2.058Zm24.437,1.8-15.6,15.582a1.956,1.956,0,0,1-2.751,0l-2.572-2.569a1.946,1.946,0,0,1,0-2.743l15.6-15.582a1.956,1.956,0,0,1,2.752,0l2.571,2.564a1.951,1.951,0,0,1,0,2.747Z" transform="translate(-0.894 -82.153)" fill="#fff"/>
</svg>
