<svg id="undraw_mobile_re_q4nk" xmlns="http://www.w3.org/2000/svg" width="453.194" height="411" viewBox="0 0 453.194 411">
  <path id="Path_487" data-name="Path 487" d="M786.5,367.512c-.957.657-1.895,1.325-2.831,2.013a247.131,247.131,0,0,0-13.565,81.2q-.005,4.794.208,9.564A239.962,239.962,0,0,0,783.8,530.2q.629,1.777,1.281,3.538c.312.843.629,1.693.968,2.528l1.01,1.246c.023.018.044.048.068.067.135.167.27.333.392.5.579.707,1.165,1.41,1.744,2.116l-.458.052-1.148.125.005.008c.386-.026.78-.056,1.169-.095.142-.006.3-.01.44-.029.129-.008.265-.022.394-.03,16.578-1.2,33.526-2.805,48.321-10.28,15.486-7.829,28.2-23.813,26.728-41.1a31.113,31.113,0,0,0-1.331-6.664c-.286-.9-.616-1.791-.967-2.675a32.756,32.756,0,0,0-56.606-7.722c3.721-18.012,22.758-27.982,40.025-34.3s36.742-12.99,44.969-29.44c4.595-9.155,4.242-19.562.542-29.019-.112-.282-.23-.573-.356-.858a47.8,47.8,0,0,0-24.213-25.091c-20.485-9.008-44.67-4.4-64.795,5.386a118.476,118.476,0,0,0-15.489,9.053Z" transform="translate(-440.994 -204.064)" fill="#f2f2f2"/>
  <path id="Path_488" data-name="Path 488" d="M859.042,566.7a73.751,73.751,0,0,0-41.553,20.4,75.47,75.47,0,0,0-19.907,34.606c-.2.75-.377,1.5-.542,2.249-.432-.739-.854-1.5-1.271-2.246-.268-.48-.542-.968-.8-1.453.312.843.629,1.693.968,2.528l1.01,1.245c.023.018.044.049.068.067.135.167.27.333.392.5.579.707,1.165,1.41,1.744,2.116l-.458.052-1.148.125.005.008c.386-.026.78-.056,1.169-.095.142-.006.3-.01.44-.029.037-.227.088-.451.137-.676a71.259,71.259,0,0,1,73.974-57.4c-.286-.9-.616-1.791-.967-2.675A76.237,76.237,0,0,0,859.042,566.7Z" transform="translate(-450.875 -290.585)" fill="#fff"/>
  <path id="Path_489" data-name="Path 489" d="M793.846,436.263A81.142,81.142,0,0,0,778,453.734a67.324,67.324,0,0,0-5.852,11.059c-.762,1.792-1.446,3.632-2.052,5.487q-.005,4.794.208,9.564a69.546,69.546,0,0,1,1.815-7.2c.378-1.3.806-2.573,1.264-3.834,5.143-14.132,15.106-25.558,27.065-34.444,12.815-9.51,27.416-16.875,42.294-22.535A199.716,199.716,0,0,1,890.1,400.12a1.432,1.432,0,0,0,1.247-1.537,1.232,1.232,0,0,0-.355-.858,1.023,1.023,0,0,0-.89-.239c-2,.241-3.994.491-5.985.794a202.083,202.083,0,0,0-48.229,13.468C820.966,417.974,806.276,425.836,793.846,436.263Z" transform="translate(-440.994 -223.624)" fill="#fff"/>
  <circle id="Ellipse_101" data-name="Ellipse 101" cx="5.571" cy="5.571" r="5.571" transform="translate(426.041 121.046)" fill="#f2f2f2"/>
  <path id="Path_490" data-name="Path 490" d="M648.252,518.795H510.9a31.1,31.1,0,0,1-31.06-31.06V140.06A31.1,31.1,0,0,1,510.9,109H648.252a31.1,31.1,0,0,1,31.06,31.06V487.735A31.1,31.1,0,0,1,648.252,518.795Z" transform="translate(-325.655 -109)" fill="#3f3d56"/>
  <path id="Path_491" data-name="Path 491" d="M652.279,125H636.99a5.152,5.152,0,0,0-5.146,5.147,10.532,10.532,0,0,1-10.522,10.522H546.545a10.532,10.532,0,0,1-10.522-10.522A5.152,5.152,0,0,0,530.876,125H517.4a23.587,23.587,0,0,0-23.557,23.557v345.2A23.587,23.587,0,0,0,517.4,517.318H652.279a23.587,23.587,0,0,0,23.557-23.557v-345.2A23.587,23.587,0,0,0,652.279,125Z" transform="translate(-331.218 -115.358)" fill="#fff"/>
  <path id="Path_492" data-name="Path 492" d="M645.78,134.513H603.6a1.507,1.507,0,0,1,0-3.013H645.78a1.507,1.507,0,0,1,0,3.013Z" transform="translate(-374.233 -117.941)" fill="#fff"/>
  <circle id="Ellipse_102" data-name="Ellipse 102" cx="1.205" cy="1.205" r="1.205" transform="translate(276.971 13.861)" fill="#fff"/>
  <path id="Path_493" data-name="Path 493" d="M811.051,297.956a2.715,2.715,0,0,1-2.712-2.712V242.212a2.712,2.712,0,1,1,5.424,0v53.032a2.715,2.715,0,0,1-2.712,2.712Z" transform="translate(-456.189 -160.856)" fill="#3f3d56"/>
  <path id="Path_494" data-name="Path 494" d="M478.05,259.977a2.715,2.715,0,0,1-2.712-2.712V245.212a2.712,2.712,0,1,1,5.424,0v12.053A2.715,2.715,0,0,1,478.05,259.977Z" transform="translate(-323.867 -162.048)" fill="#3f3d56"/>
  <path id="Path_495" data-name="Path 495" d="M478.05,296.977a2.715,2.715,0,0,1-2.712-2.712V282.212a2.712,2.712,0,1,1,5.424,0v12.053A2.715,2.715,0,0,1,478.05,296.977Z" transform="translate(-323.867 -176.75)" fill="#3f3d56"/>
  <path id="Path_496" data-name="Path 496" d="M626.555,790.205H224.595a.6.6,0,1,1,0-1.205h401.96a.6.6,0,0,1,0,1.205Z" transform="translate(-223.992 -379.205)" fill="#3f3d56"/>
  <path id="Path_497" data-name="Path 497" d="M62.648,651.109h7.388l3.515-28.5h-10.9Z" transform="translate(-24.893 -247.401)" fill="#ffb6b6"/>
  <path id="Path_498" data-name="Path 498" d="M283.514,774.9h14.551a9.273,9.273,0,0,1,9.272,9.272v.3H283.514Z" transform="translate(-247.644 -373.601)" fill="#2f2e41"/>
  <path id="Path_499" data-name="Path 499" d="M175.648,651.109h7.388l3.515-28.5h-10.9Z" transform="translate(-69.795 -247.401)" fill="#ffb6b6"/>
  <path id="Path_500" data-name="Path 500" d="M396.514,774.9h14.551a9.273,9.273,0,0,1,9.272,9.272v.3H396.514Z" transform="translate(-292.545 -373.601)" fill="#2f2e41"/>
  <path id="Path_501" data-name="Path 501" d="M133.825,290l4.821,30.735-45.8.6,6.026-29.529Z" transform="translate(-36.893 -115.235)" fill="#ffb6b6"/>
  <path id="Path_502" data-name="Path 502" d="M351.135,437l11.45,39.172,1.808,160.966H352.039L322.51,507.81,295.391,633.762H283.338l8.437-141.62s-4.218-34.953,10.245-45.2v-8.99Z" transform="translate(-247.574 -239.334)" fill="#2f2e41"/>
  <path id="Path_503" data-name="Path 503" d="M279.2,435.728a9.041,9.041,0,0,0,5.793-12.6l19.484-63.523-14.331-2.841-17.82,62.266a9.09,9.09,0,0,0,6.875,16.693Z" transform="translate(-241.343 -207.454)" fill="#ffb6b6"/>
  <circle id="Ellipse_103" data-name="Ellipse 103" cx="20.671" cy="20.671" r="20.671" transform="translate(48.367 96.763) rotate(-45)" fill="#ffb6b6"/>
  <path id="Path_504" data-name="Path 504" d="M321.282,382.323a3.78,3.78,0,0,1-3.034-3.432c-.454-6.224-2.7-17.041-6.682-32.151a25.048,25.048,0,0,1,20.677-31.156h0a25.036,25.036,0,0,1,28.457,21.9c1.969,17.339-1.745,34.758-3.433,41.441a3.8,3.8,0,0,1-3.6,2.86l-31.571.61A3.766,3.766,0,0,1,321.282,382.323Z" transform="translate(-258.464 -190.986)" fill="#e4e4e4"/>
  <path id="Path_505" data-name="Path 505" d="M436.779,331.158a8.862,8.862,0,0,0-.466,1.315L396.795,345.9l-7.636-6.671-11.574,10.208,12.371,13.123a6.733,6.733,0,0,0,7.962,1.378l42.287-21.6a8.834,8.834,0,1,0-3.425-11.182Z" transform="translate(-285.024 -195.217)" fill="#ffb6b6"/>
  <path id="Path_506" data-name="Path 506" d="M385.439,345.962l-14.406,12.583a3.787,3.787,0,0,1-5.678-.806l-10.3-16.046A10.518,10.518,0,0,1,370.935,327.9l14.47,12.326a3.787,3.787,0,0,1,.035,5.735Z" transform="translate(-275.046 -194.543)" fill="#e4e4e4"/>
  <path id="Path_507" data-name="Path 507" d="M311.648,365.007l-17.8-6.994a3.787,3.787,0,0,1-1.9-5.411l9.5-16.536A10.518,10.518,0,0,1,321,343.815l-4.278,18.52a3.787,3.787,0,0,1-5.075,2.671Z" transform="translate(-250.794 -196.586)" fill="#e4e4e4"/>
  <path id="Path_508" data-name="Path 508" d="M313.982,242.951c4.5,4.6,10.62,9.623,16.7,6.879a9.874,9.874,0,0,0,5.392-10.535c-1.1-7.794-7.47-12.39-13.679-16.177-8.071-4.923-17.045-9.345-26.485-8.837s-19.107,7.635-19.295,17.087c-.151,7.6,5.564,15.084,3.115,22.281-2.464,7.244-11.608,9.5-19.258,9.367s-16-1.346-22.361,2.908c-8.114,5.426-8.821,17.859-3.865,26.268s13.929,13.555,22.81,17.6c11.767,5.365,24.816,9.545,37.5,7.027s24.393-13.744,23.419-26.639c-.411-5.447-2.926-10.48-5.35-15.376s-4.851-9.993-5.064-15.451c-.177-4.549,1.591-9.439,5.116-12.126a3.734,3.734,0,0,0,1.339-4.184Z" transform="translate(-226.825 -150.819)" fill="#2f2e41"/>
  <path id="Path_509" data-name="Path 509" d="M760.885,316.916c-6.519,3.91-18.134,8.809-30,3.774l-7.672-3.255L738.584,300.2a73.431,73.431,0,1,1,22.3,16.716Z" transform="translate(-420.906 -136.194)" fill="#fff"/>
  <path id="Path_510" data-name="Path 510" d="M760.384,317.3c-6.264,3.678-18.2,8.761-30.364,3.6l-8.725-3.7,15.648-17.541a74.251,74.251,0,1,1,105.375,5.666h0A73.92,73.92,0,0,1,760.384,317.3Zm85.837-115.757a72.612,72.612,0,1,0-107.57,97.562l.5.546-15.1,16.932,6.62,2.808c11.75,4.984,23.377-.193,29.262-3.723l.38-.228.4.194a72.611,72.611,0,0,0,85.519-114.091Z" transform="translate(-420.364 -135.654)" fill="#c12a21"/>
  <path id="Path_511" data-name="Path 511" d="M903.645,253.97a67.577,67.577,0,0,0-61.6-67.309c1.964-.173,3.955-.266,5.969-.266a67.575,67.575,0,1,1,0,135.15c-2.01,0-4-.095-5.963-.267a67.578,67.578,0,0,0,61.593-67.308Z" transform="translate(-469.583 -139.754)" opacity="0.1"/>
  <rect id="Rectangle_128" data-name="Rectangle 128" width="48.286" height="4.484" transform="translate(333.321 100.741)" fill="#c12a21"/>
  <rect id="Rectangle_129" data-name="Rectangle 129" width="84.159" height="4.484" transform="translate(333.321 116.253)" fill="#c12a21"/>
  <rect id="Rectangle_130" data-name="Rectangle 130" width="84.076" height="4.484" transform="translate(333.321 131.765)" fill="#c12a21"/>
  <path id="Path_512" data-name="Path 512" d="M525.55,544.756a46.838,46.838,0,1,1,66.16-3.228l9.807,10.994-4.894,2.076c-7.571,3.211-14.98.086-19.138-2.407A46.838,46.838,0,0,1,525.55,544.756Z" transform="translate(-337.711 -249.755)" fill="#fff"/>
  <path id="Path_513" data-name="Path 513" d="M556.61,557.119a47.183,47.183,0,0,1-31.756-12.32h0a47.361,47.361,0,1,1,67.213-3.614l9.981,11.189-5.565,2.361c-7.76,3.292-15.372.05-19.367-2.3A47.424,47.424,0,0,1,556.61,557.119Zm-31.054-13.094a46.1,46.1,0,0,0,51.356,7.351l.255-.124.243.146c3.754,2.251,11.17,5.554,18.665,2.375l4.222-1.791-9.634-10.8.316-.348a46.315,46.315,0,1,0-65.422,3.192Z" transform="translate(-337.366 -249.41)" fill="#c12a21"/>
  <path id="Path_514" data-name="Path 514" d="M517.262,512.041a43.1,43.1,0,0,1,39.29-42.933c-1.253-.11-2.523-.17-3.807-.17a43.1,43.1,0,0,0,0,86.205c1.282,0,2.55-.06,3.8-.17a43.1,43.1,0,0,1-39.287-42.933Z" transform="translate(-337.499 -252.025)" opacity="0.1"/>
  <rect id="Rectangle_131" data-name="Rectangle 131" width="30.799" height="2.86" transform="translate(213.222 251.421)" fill="#c12a21"/>
  <rect id="Rectangle_132" data-name="Rectangle 132" width="53.68" height="2.86" transform="translate(190.341 261.315)" fill="#c12a21"/>
  <rect id="Rectangle_133" data-name="Rectangle 133" width="53.628" height="2.86" transform="translate(190.394 271.209)" fill="#c12a21"/>
  <circle id="Ellipse_104" data-name="Ellipse 104" cx="6.629" cy="6.629" r="6.629" transform="translate(272.606 300.195)" fill="#c12a21"/>
  <circle id="Ellipse_105" data-name="Ellipse 105" cx="7.834" cy="7.834" r="7.834" transform="translate(281.043 175.449)" fill="#c12a21"/>
</svg>
