<svg xmlns="http://www.w3.org/2000/svg" width="51.394" height="74" viewBox="0 0 51.394 74">
  <g id="skill" transform="translate(-78.204)">
    <path id="Path_76" data-name="Path 76" d="M163.316,63.339a2.677,2.677,0,0,0-2.674-2.674h-.18a.515.515,0,0,1-.493-.39,16.031,16.031,0,0,0-1.275-3.2.517.517,0,0,1,.08-.613l.091-.091a2.677,2.677,0,0,0,0-3.781l-2.137-2.137a2.672,2.672,0,0,0-3.781,0l-.02.02a.516.516,0,0,1-.623.074,16.021,16.021,0,0,0-3.293-1.382.5.5,0,0,1-.354-.488,2.677,2.677,0,0,0-2.674-2.674h-3.022a2.678,2.678,0,0,0-2.674,2.68.5.5,0,0,1-.353.482,16.029,16.029,0,0,0-3.293,1.382.517.517,0,0,1-.624-.075L136,50.458a2.673,2.673,0,0,0-3.781,0l-2.137,2.137a2.672,2.672,0,0,0,0,3.781l.092.091a.518.518,0,0,1,.079.613,16.01,16.01,0,0,0-1.275,3.195.515.515,0,0,1-.493.391h-.18a2.677,2.677,0,0,0-2.674,2.674V66.36a2.677,2.677,0,0,0,2.674,2.674h.322a.518.518,0,0,1,.489.374,16.031,16.031,0,0,0,1.322,3.064.5.5,0,0,1-.092.589l-.263.263a2.672,2.672,0,0,0,0,3.781l2.137,2.137a2.672,2.672,0,0,0,3.781,0l.335-.334a.5.5,0,0,1,.579-.1,16.029,16.029,0,0,0,3.025,1.235.506.506,0,0,1,.351.49v.484a2.677,2.677,0,0,0,2.674,2.674h3.022a2.677,2.677,0,0,0,2.674-2.674v-.484a.506.506,0,0,1,.351-.49,16.032,16.032,0,0,0,3.025-1.235.5.5,0,0,1,.579.1l.334.334a2.672,2.672,0,0,0,3.781,0l2.137-2.137a2.677,2.677,0,0,0,0-3.781l-.263-.263a.5.5,0,0,1-.093-.589,16.029,16.029,0,0,0,1.322-3.064.517.517,0,0,1,.489-.374h.322a2.677,2.677,0,0,0,2.674-2.674V63.339Zm-2.168,3.022a.506.506,0,0,1-.506.506h-.322a2.675,2.675,0,0,0-2.558,1.9,13.843,13.843,0,0,1-1.143,2.649,2.671,2.671,0,0,0,.45,3.183l.263.263a.507.507,0,0,1,0,.716L155.2,77.709a.506.506,0,0,1-.716,0l-.334-.334a2.679,2.679,0,0,0-3.132-.477,13.864,13.864,0,0,1-2.615,1.068,2.685,2.685,0,0,0-1.909,2.57v.484a.506.506,0,0,1-.506.506h-3.022a.506.506,0,0,1-.506-.506v-.484a2.685,2.685,0,0,0-1.909-2.57,13.859,13.859,0,0,1-2.615-1.068,2.615,2.615,0,0,0-1.232-.305,2.691,2.691,0,0,0-1.9.783l-.335.334a.506.506,0,0,1-.715,0l-2.137-2.137a.506.506,0,0,1,0-.716l.263-.263a2.67,2.67,0,0,0,.45-3.183,13.868,13.868,0,0,1-1.143-2.649,2.675,2.675,0,0,0-2.558-1.9H128.3a.507.507,0,0,1-.506-.506V63.339a.506.506,0,0,1,.506-.506h.18a2.7,2.7,0,0,0,2.581-1.976,13.853,13.853,0,0,1,1.1-2.762,2.674,2.674,0,0,0-.462-3.161l-.091-.091a.506.506,0,0,1,0-.716l2.137-2.137a.506.506,0,0,1,.717,0l.019.019a2.7,2.7,0,0,0,3.213.434,13.852,13.852,0,0,1,2.847-1.2,2.683,2.683,0,0,0,1.911-2.568.506.506,0,0,1,.506-.506h3.022a.508.508,0,0,1,.506.512,2.681,2.681,0,0,0,1.911,2.562,13.851,13.851,0,0,1,2.847,1.195,2.7,2.7,0,0,0,3.213-.433l.02-.02a.506.506,0,0,1,.715,0l2.137,2.137a.507.507,0,0,1,0,.716l-.091.091a2.674,2.674,0,0,0-.462,3.161,13.846,13.846,0,0,1,1.1,2.762,2.7,2.7,0,0,0,2.581,1.976h.18a.506.506,0,0,1,.506.506v3.022Z" transform="translate(-40.572 -39.358)" fill="#fff"/>
    <path id="Path_77" data-name="Path 77" d="M188.9,96.26A11.337,11.337,0,1,0,200.236,107.6,11.349,11.349,0,0,0,188.9,96.26Zm0,20.505A9.14,9.14,0,0,1,182.35,114a7.789,7.789,0,0,1,4.288-3.241,4.857,4.857,0,0,0,4.522,0A7.789,7.789,0,0,1,195.449,114a9.141,9.141,0,0,1-6.55,2.761Zm-2.7-10.316a2.7,2.7,0,1,1,2.7,2.7A2.708,2.708,0,0,1,186.195,106.449Zm10.632,5.747a9.958,9.958,0,0,0-3.861-3.065,4.873,4.873,0,1,0-8.131,0,9.957,9.957,0,0,0-3.862,3.065,9.169,9.169,0,1,1,15.854,0Z" transform="translate(-84.998 -82.347)" fill="#fff"/>
    <path id="Path_78" data-name="Path 78" d="M176.8,7.461a25.641,25.641,0,0,0-34.139-1.81,1.084,1.084,0,1,0,1.357,1.691A23.509,23.509,0,0,1,182.221,25.7a23.271,23.271,0,0,1-5.153,14.7,1.084,1.084,0,1,0,1.692,1.355A25.7,25.7,0,0,0,176.8,7.461Z" transform="translate(-54.79 0)" fill="#fff"/>
    <path id="Path_79" data-name="Path 79" d="M120.514,97.183a1.084,1.084,0,0,0-1.515.233,33.589,33.589,0,0,0-3.725,6.5H92.544a33.084,33.084,0,0,0-6-9.253,23.47,23.47,0,0,1-.776-30.846,1.084,1.084,0,0,0-1.67-1.382,25.638,25.638,0,0,0,.848,33.692,30.923,30.923,0,0,1,5.446,8.293,3.739,3.739,0,0,0-.757,5.9,3.737,3.737,0,0,0,0,5.321,3.742,3.742,0,0,0,2.632,6.4h.069v.3a4.732,4.732,0,0,0,4.727,4.727h13.669a4.732,4.732,0,0,0,4.727-4.727v-.3h.069a3.742,3.742,0,0,0,2.632-6.4,3.737,3.737,0,0,0,0-5.321,3.739,3.739,0,0,0-.747-5.894,31.433,31.433,0,0,1,3.331-5.725,1.084,1.084,0,0,0-.233-1.515Zm-7.219,25.162a2.562,2.562,0,0,1-2.559,2.559H97.067a2.562,2.562,0,0,1-2.559-2.559v-.3h18.787v.3Zm-14.138-5.624h16.374a1.576,1.576,0,0,1,0,3.153H92.271a1.576,1.576,0,0,1,0-3.153H94.09a1.084,1.084,0,0,0,0-2.168H92.271a1.576,1.576,0,0,1,0-3.153h23.261a1.576,1.576,0,0,1,0,3.153H99.157a1.084,1.084,0,0,0,0,2.168Zm16.374-7.488H92.271a1.576,1.576,0,0,1-.29-3.125c.023,0,.047-.006.07-.011a1.586,1.586,0,0,1,.221-.017h23.261a1.564,1.564,0,0,1,.231.019c.024,0,.048.008.072.011a1.576,1.576,0,0,1-.3,3.123Z" transform="translate(0 -53.071)" fill="#fff"/>
  </g>
</svg>
