<svg id="online-shop" xmlns="http://www.w3.org/2000/svg" width="95.248" height="106.478" viewBox="0 0 95.248 106.478">
  <path id="Path_19" data-name="Path 19" d="M255.385,40.159h10.48a2.08,2.08,0,1,0,0-4.159h-10.48a2.08,2.08,0,1,0,0,4.159Zm0,0" transform="translate(-200.626 -28.513)" fill="#fff"/>
  <path id="Path_20" data-name="Path 20" d="M212.381,40.159a2.08,2.08,0,1,0-1.47-.609A2.092,2.092,0,0,0,212.381,40.159Zm0,0" transform="translate(-166.566 -28.513)" fill="#fff"/>
  <path id="Path_21" data-name="Path 21" d="M347.779,40.159a2.08,2.08,0,1,0-1.47-.609A2.1,2.1,0,0,0,347.779,40.159Zm0,0" transform="translate(-273.806 -28.513)" fill="#fff"/>
  <path id="Path_22" data-name="Path 22" d="M138.129,0H84.89a8.744,8.744,0,0,0-8.735,8.735V33.482H69.69a2.08,2.08,0,1,0,0,4.159h6.473c0,.046-.007.092-.007.139V51.186H69.69a2.08,2.08,0,1,0,0,4.159h6.466V66.829H67.248a2.08,2.08,0,0,0,0,4.159h8.908V97.743a8.744,8.744,0,0,0,8.735,8.735h53.239a8.744,8.744,0,0,0,8.735-8.735V8.734A8.744,8.744,0,0,0,138.129,0ZM84.89,4.159h53.239A4.58,4.58,0,0,1,142.7,8.734v6.239H80.315V8.734A4.58,4.58,0,0,1,84.89,4.159ZM80.307,37.641h5.482l2.466,13.545h-7.94V37.78c0-.047,0-.093-.007-.139ZM124.742,73.9a2.912,2.912,0,1,1-2.912-2.912A2.915,2.915,0,0,1,124.742,73.9ZM95.329,66.83l-4.089-22.46h40.94L126.91,66.83ZM104.1,73.9a2.912,2.912,0,1,1-2.912-2.912A2.915,2.915,0,0,1,104.1,73.9ZM80.314,55.345h8.7L91.1,66.83H80.314Zm13.28,15.644h1.153a7.071,7.071,0,1,0,12.882,0h7.76a7.071,7.071,0,1,0,12.882,0h.287a2.08,2.08,0,0,0,2.025-1.6l6.246-26.619a2.08,2.08,0,0,0-2.024-2.555H90.484l-.914-5.02a2.079,2.079,0,0,0-2.046-1.708H80.314V19.133H142.7V87.345H80.314V70.989Zm44.535,31.329H84.89a4.58,4.58,0,0,1-4.575-4.575V91.5H142.7v6.239A4.58,4.58,0,0,1,138.129,102.318Zm0,0" transform="translate(-51.615 0)" fill="#fff"/>
  <path id="Path_23" data-name="Path 23" d="M267.522,453.242H258.58a2.08,2.08,0,1,0,0,4.159h8.942a2.08,2.08,0,0,0,0-4.159Zm0,0" transform="translate(-203.157 -358.984)" fill="#fff"/>
  <path id="Path_24" data-name="Path 24" d="M11.022,163.08A2.079,2.079,0,0,0,8.942,161H2.08a2.08,2.08,0,0,0,0,4.159H8.942A2.079,2.079,0,0,0,11.022,163.08Zm0,0" transform="translate(0 -127.518)" fill="#fff"/>
  <path id="Path_25" data-name="Path 25" d="M39.158,246.129a2.08,2.08,0,1,0,1.47.609A2.083,2.083,0,0,0,39.158,246.129Zm0,0" transform="translate(-29.367 -194.943)" fill="#fff"/>
</svg>
