<svg xmlns="http://www.w3.org/2000/svg" width="428.618" height="479" viewBox="0 0 428.618 479">
  <g id="undraw_unicorn_dp-2-f" transform="translate(0 0)">
    <ellipse id="Ellipse_255" data-name="Ellipse 255" cx="115.842" cy="19.874" rx="115.842" ry="19.874" transform="translate(168.352 439.253)" fill="#f2f2f2"/>
    <path id="Path_820" data-name="Path 820" d="M575.243,825.076c-80.3,0-143.194-11.025-143.194-25.1s62.9-25.1,143.194-25.1,143.194,11.025,143.194,25.1S655.539,825.076,575.243,825.076Zm0-48.911c-76.921,0-141.907,10.9-141.907,23.812s64.985,23.812,141.907,23.812,141.906-10.9,141.906-23.812S652.165,776.164,575.243,776.164Z" transform="translate(-312.609 -351.868)" fill="#f2f2f2"/>
    <path id="Path_821" data-name="Path 821" d="M649.215,283.013a195.24,195.24,0,0,1-3.771,38.318q-.579,2.915-1.255,5.805-.4,1.738-.83,3.462-.28,1.12-.579,2.24A195.426,195.426,0,0,1,540.117,458.115a191.813,191.813,0,0,1-25.46,10.342q-1.989.647-4,1.255h-.006a194.786,194.786,0,0,1-56.441,8.3q-4.112,0-8.109-.187a161.656,161.656,0,0,1-21.5-2.388c-87.325-15.78-130.1-101.773-165.39-192.426q-1.313-3.369-2.581-6.693l-.618-1.641c-93.858-248.185,7.929-310.991,198.2-186.667C544.372,146.918,649.215,175.319,649.215,283.013Z" transform="translate(-220.597 -26)" fill="#f2f2f2"/>
    <path id="Path_822" data-name="Path 822" d="M703.518,463.148l-.892-.928c.14-.134,14.066-13.775,19.369-39.263,4.9-23.54,3.235-62.3-32.507-113.263-27.412-39.088-38.505-73.238-32.97-101.5,4.862-24.83,21.4-35.738,21.565-35.845l.7,1.082c-.162.1-16.264,10.755-21.007,35.051-5.446,27.9,5.579,61.7,32.769,100.475,15.9,22.674,26.486,44.878,31.462,66,3.987,16.923,4.4,33.191,1.234,48.351C717.836,449.149,703.661,463.01,703.518,463.148Z" transform="translate(-409.682 -89.682)" fill="#f2f2f2"/>
    <path id="Path_823" data-name="Path 823" d="M300.8,314.254a238.567,238.567,0,0,0-16.887,27.731l-.618-1.641a244.1,244.1,0,0,1,16.45-26.83c27.191-38.775,38.215-72.575,32.77-100.474-4.743-24.3-20.845-34.952-21.006-35.055l.7-1.081c.167.109,16.707,11.018,21.566,35.847C339.309,241.015,328.214,275.163,300.8,314.254Z" transform="translate(-247.881 -91.665)" fill="#f2f2f2"/>
    <path id="Path_824" data-name="Path 824" d="M452.54,511.337l-.892-.928c.177-.17,17.733-17.361,24.424-49.488,6.179-29.666,4.092-78.51-40.941-142.723-18.816-26.83-31.647-52.179-38.138-75.343-5.3-18.927-6.426-36.522-3.337-52.3,6.107-31.187,26.863-44.878,27.072-45.013l.7,1.082c-.2.132-20.527,13.566-26.514,44.219-6.869,35.167,7.018,77.766,41.274,126.612,20,28.524,33.319,56.454,39.577,83.016,5.013,21.279,5.536,41.731,1.552,60.791C470.526,493.752,452.719,511.165,452.54,511.337Z" transform="translate(-295.163 -78.02)" fill="#fff"/>
    <circle id="Ellipse_256" data-name="Ellipse 256" cx="49.821" cy="49.821" r="49.821" transform="translate(64.347 39.714)" fill="#fff"/>
    <path id="Path_825" data-name="Path 825" d="M391.218,162.094A67.882,67.882,0,1,1,459.1,94.212a67.882,67.882,0,0,1-67.882,67.882Zm0-134.477a66.6,66.6,0,1,0,66.594,66.595,66.6,66.6,0,0,0-66.594-66.595Z" transform="translate(-265.303 -26.144)" fill="#fff"/>
    <circle id="Ellipse_257" data-name="Ellipse 257" cx="41.315" cy="41.315" r="41.315" transform="translate(122.674 161.23)" fill="#fff"/>
    <circle id="Ellipse_258" data-name="Ellipse 258" cx="41.315" cy="41.315" r="41.315" transform="translate(101.612 304.618)" fill="#fff"/>
    <path id="Path_826" data-name="Path 826" d="M786.109,450.046q-.647-3.34-1.332-6.59l0,0a.006.006,0,0,1,0,0c-5.779-27.422-13.566-49.909-22.789-68.25l-24.436-8.4,18.419-2.632a146.353,146.353,0,0,0-24.372-31.38l-44.883,5.129,33.877-14.519C658.328,276.56,576.7,314.176,554.463,326c-3.05,1.615-4.981,2.754-5.6,3.121-.006,0-.006,0-.013.006l-.2.122,12.627,6.558h.007L785.529,452.285Z" transform="translate(-363.347 -145.447)" fill="#c12a21"/>
    <path id="Path_827" data-name="Path 827" d="M759.424,463.749q.434-1.728.83-3.462c-.656-.959-1.377-2.008-2.162-3.128l0,0a.006.006,0,0,1,0,0C732.227,420.18,637.443,299.37,528.262,340.377h-.006q-3.031,1.139-6.075,2.446c-.006,0-.006,0-.013.006q-2.77,1.187-5.547,2.523c-.94.444-1.873.907-2.812,1.377-.817.412-1.628.83-2.446,1.261a27.386,27.386,0,0,0-9.853,5.554c-10.226,8.637-22.621,29.739-6.2,79.011,0,0,14.583,40.821,7.292,59.781s37.919,40.815,51.028,0a463.958,463.958,0,0,0,17.505-80.195s15.085,31.786,13.6,63.662a122.277,122.277,0,0,0,4.074,38.723c.36,1.319.753,2.639,1.146,3.977C594.7,534.432,602.1,554.923,613,574.739a189.737,189.737,0,0,0,17.724,26.869,191.8,191.8,0,0,0,25.459-10.342A195.427,195.427,0,0,0,758.845,465.989Z" transform="translate(-336.663 -159.151)" fill="#3f3d56"/>
    <path id="Path_828" data-name="Path 828" d="M312.518,323.063l-5.832-48.113,24.786,34.991Z" transform="translate(-133.452 -119.642)" fill="#3f3d56"/>
    <path id="Path_829" data-name="Path 829" d="M290.019,329.2l-5.832-48.113,24.786,34.991Z" transform="translate(-123.662 -122.312)" fill="#3f3d56"/>
    <path id="Path_830" data-name="Path 830" d="M224.064,383.278,161.79,302.333l63.07,56.634Z" transform="translate(-70.402 -131.558)" fill="#c12a21"/>
    <circle id="Ellipse_259" data-name="Ellipse 259" cx="9.653" cy="9.653" r="9.653" transform="translate(280.597 30.478)" fill="#f2f2f2"/>
  </g>
</svg>
