<svg xmlns="http://www.w3.org/2000/svg" width="104.789" height="106.478" viewBox="0 0 104.789 106.478">
  <g id="web-design" transform="translate(-4.061)">
    <g id="Group_34" data-name="Group 34" transform="translate(45.342 8.506)">
      <g id="Group_33" data-name="Group 33">
        <path id="Path_104" data-name="Path 104" d="M231.306,40.9H204.145a1.583,1.583,0,0,0,0,3.166h27.161a1.583,1.583,0,1,0,0-3.166Z" transform="translate(-202.562 -40.902)" fill="#fff"/>
      </g>
    </g>
    <g id="Group_36" data-name="Group 36" transform="translate(45.342 15.252)">
      <g id="Group_35" data-name="Group 35">
        <path id="Path_105" data-name="Path 105" d="M216.24,73.341h-12.1a1.583,1.583,0,0,0,0,3.166h12.1a1.583,1.583,0,0,0,0-3.166Z" transform="translate(-202.561 -73.341)" fill="#fff"/>
      </g>
    </g>
    <g id="Group_38" data-name="Group 38" transform="translate(4.061)">
      <g id="Group_37" data-name="Group 37">
        <path id="Path_106" data-name="Path 106" d="M102.86,15.529a1.583,1.583,0,0,0,0,3.166,2.827,2.827,0,0,1,2.824,2.824V66.5H94.131v-47.8h2.638a1.583,1.583,0,0,0,0-3.166H94.131V4.756A4.762,4.762,0,0,0,89.374,0H23.115a4.762,4.762,0,0,0-4.756,4.756V15.529H10.051a6,6,0,0,0-5.99,5.99v61.15a6,6,0,0,0,5.99,5.99H19.8a1.583,1.583,0,1,0,0-3.166H10.051a2.827,2.827,0,0,1-2.824-2.824v-13h98.457v13a2.827,2.827,0,0,1-2.824,2.824h-75.6a1.583,1.583,0,1,0,0,3.166H43.481v8.388a7.859,7.859,0,0,0-7.71,7.848,1.583,1.583,0,0,0,1.583,1.583h38.2a1.583,1.583,0,0,0,1.583-1.583,7.859,7.859,0,0,0-7.71-7.848V88.659H102.86a6,6,0,0,0,5.99-5.99V21.519A6,6,0,0,0,102.86,15.529ZM18.358,66.5H7.227V21.519a2.827,2.827,0,0,1,2.824-2.824h8.307ZM90.965,23.127H37.038a1.583,1.583,0,0,0,0,3.166H90.965V66.5H21.524V26.293h7.282a1.583,1.583,0,1,0,0-3.166H21.524V4.756a1.592,1.592,0,0,1,1.59-1.59h66.26a1.592,1.592,0,0,1,1.59,1.59V23.127ZM46.647,88.659H66.264v8.385H46.647V88.659ZM73.7,103.312H39.212a4.693,4.693,0,0,1,4.41-3.1H69.289A4.693,4.693,0,0,1,73.7,103.312Z" transform="translate(-4.061)" fill="#fff"/>
      </g>
    </g>
    <g id="Group_40" data-name="Group 40" transform="translate(52.52 72.794)">
      <g id="Group_39" data-name="Group 39">
        <path id="Path_107" data-name="Path 107" d="M241.862,350.032a4.784,4.784,0,1,0,4.784,4.784A4.79,4.79,0,0,0,241.862,350.032Zm0,6.4a1.618,1.618,0,1,1,1.618-1.618A1.62,1.62,0,0,1,241.862,356.434Z" transform="translate(-237.078 -350.032)" fill="#fff"/>
      </g>
    </g>
    <g id="Group_42" data-name="Group 42" transform="translate(25.48 6.557)">
      <g id="Group_41" data-name="Group 41">
        <path id="Path_108" data-name="Path 108" d="M120.428,41.346l-5.21-9.025a1.583,1.583,0,0,0-2.742,0l-5.21,9.025a1.583,1.583,0,0,0,1.371,2.375h10.421a1.583,1.583,0,0,0,1.371-2.375Zm-9.05-.791,2.469-4.276,2.469,4.276Z" transform="translate(-107.053 -31.53)" fill="#fff"/>
      </g>
    </g>
    <g id="Group_44" data-name="Group 44" transform="translate(61.791 32.13)">
      <g id="Group_43" data-name="Group 43">
        <path id="Path_109" data-name="Path 109" d="M306.164,154.5H283.238a1.583,1.583,0,1,0,0,3.166h22.926a1.583,1.583,0,0,0,0-3.166Z" transform="translate(-281.655 -154.498)" fill="#fff"/>
      </g>
    </g>
    <g id="Group_46" data-name="Group 46" transform="translate(61.791 39.092)">
      <g id="Group_45" data-name="Group 45">
        <path id="Path_110" data-name="Path 110" d="M306.164,187.975H283.238a1.583,1.583,0,1,0,0,3.166h22.926a1.583,1.583,0,0,0,0-3.166Z" transform="translate(-281.655 -187.975)" fill="#fff"/>
      </g>
    </g>
    <g id="Group_48" data-name="Group 48" transform="translate(61.791 46.054)">
      <g id="Group_47" data-name="Group 47">
        <path id="Path_111" data-name="Path 111" d="M306.164,221.452H283.238a1.583,1.583,0,1,0,0,3.166h22.926a1.583,1.583,0,0,0,0-3.166Z" transform="translate(-281.655 -221.452)" fill="#fff"/>
      </g>
    </g>
    <g id="Group_50" data-name="Group 50" transform="translate(61.791 53.016)">
      <g id="Group_49" data-name="Group 49">
        <path id="Path_112" data-name="Path 112" d="M306.164,254.929H283.238a1.583,1.583,0,1,0,0,3.166h22.926a1.583,1.583,0,0,0,0-3.166Z" transform="translate(-281.655 -254.929)" fill="#fff"/>
      </g>
    </g>
    <g id="Group_52" data-name="Group 52" transform="translate(61.791 59.978)">
      <g id="Group_51" data-name="Group 51">
        <path id="Path_113" data-name="Path 113" d="M293.95,288.406H283.238a1.583,1.583,0,1,0,0,3.166H293.95a1.583,1.583,0,1,0,0-3.166Z" transform="translate(-281.655 -288.406)" fill="#fff"/>
      </g>
    </g>
    <g id="Group_54" data-name="Group 54" transform="translate(25.48 30.796)">
      <g id="Group_53" data-name="Group 53">
        <path id="Path_114" data-name="Path 114" d="M137.817,148.085H108.635a1.583,1.583,0,0,0-1.583,1.583V178.85a1.583,1.583,0,0,0,1.583,1.583h29.182a1.583,1.583,0,0,0,1.583-1.583V149.668A1.583,1.583,0,0,0,137.817,148.085Zm-27.6,3.166h26.016V167.8c-.177-.03-.354-.057-.531-.077a7.469,7.469,0,0,0-5.621,1.682,5.966,5.966,0,0,1-3.169,1.353c-2.24.184-3.676-1.007-5.495-2.512-2.025-1.675-4.322-3.571-7.972-3.351a10.1,10.1,0,0,0-3.228.75v-14.4Zm26.016,26.016H110.218v-8.083a7.474,7.474,0,0,1,3.42-1.126c2.4-.147,3.961,1.14,5.763,2.631,1.991,1.647,4.246,3.511,7.769,3.228a8.98,8.98,0,0,0,4.72-1.909,4.393,4.393,0,0,1,3.461-1.135,6.325,6.325,0,0,1,.883.165v6.23Z" transform="translate(-107.052 -148.085)" fill="#fff"/>
      </g>
    </g>
    <g id="Group_56" data-name="Group 56" transform="translate(40.987 37.499)">
      <g id="Group_55" data-name="Group 55">
        <path id="Path_115" data-name="Path 115" d="M186.461,180.312a4.843,4.843,0,1,0,4.843,4.843A4.849,4.849,0,0,0,186.461,180.312Zm0,6.521a1.677,1.677,0,1,1,1.677-1.677A1.68,1.68,0,0,1,186.461,186.833Z" transform="translate(-181.618 -180.312)" fill="#fff"/>
      </g>
    </g>
  </g>
</svg>
