<svg xmlns="http://www.w3.org/2000/svg" width="597.302" height="430" viewBox="0 0 597.302 430">
  <g id="undraw_around_the_world_re_n353" transform="translate(0)">
    <path id="Path_515" data-name="Path 515" d="M835.546,338.786c-21.617-16.161-55.476-31.445-92.893-41.932-34.069-9.549-67.3-14.159-93.574-12.982l-.137-3.056c26.589-1.191,60.163,3.458,94.536,13.093,37.766,10.585,71.991,26.05,93.9,42.428Z" transform="translate(-314.106 -190.857)" fill="#ccc"/>
    <path id="Path_516" data-name="Path 516" d="M826.264,340.106a101.79,101.79,0,0,1-8.809,41.559q-.729,1.643-1.52,3.254a102.175,102.175,0,0,1-193.992-44.813q0-3.547.241-7.038.115-1.776.3-3.53a102.166,102.166,0,0,1,203.784,10.568Z" transform="translate(-307.068 -179.728)" fill="#c12a21"/>
    <path id="Path_517" data-name="Path 517" d="M817.541,413.956q-.729,1.643-1.52,3.255-4.478.486-9.427.707c-2.731.122-5.542.184-8.415.184-25.088,0-55.28-4.631-86.124-13.275-34.374-9.635-65.472-23.112-87.568-37.949q-1.129-.757-2.218-1.517.115-1.776.3-3.53,1.757,1.253,3.625,2.508c21.836,14.66,52.622,27.993,86.69,37.543,30.575,8.57,60.483,13.162,85.283,13.162q4.253,0,8.292-.181Q812.338,414.594,817.541,413.956Z" transform="translate(-307.153 -212.019)" opacity="0.1"/>
    <path id="Path_518" data-name="Path 518" d="M788.247,394.555c-25.087,0-55.281-4.631-86.124-13.276-34.374-9.634-65.473-23.112-87.57-37.949C592,328.183,581.419,313.258,584.769,301.3s20.145-19.207,47.289-20.424l.137,3.056c-12.676.568-23.006,2.452-30.7,5.6-7.679,3.14-12.314,7.377-13.776,12.594s.3,11.246,5.224,17.919c4.94,6.69,12.787,13.669,23.321,20.742,21.834,14.661,52.621,27.994,86.69,37.543,30.576,8.57,60.481,13.162,85.283,13.163q4.251,0,8.291-.181c12.676-.568,23.006-2.452,30.7-5.6,7.679-3.14,12.314-7.377,13.776-12.594,2.625-9.367-5.309-21.539-22.341-34.272l1.832-2.45c8.765,6.553,15.253,13.012,19.284,19.2,4.322,6.632,5.725,12.806,4.171,18.35C840.6,385.9,823.8,393.155,796.66,394.372,793.929,394.494,791.119,394.555,788.247,394.555Z" transform="translate(-297.221 -190.921)" fill="#ccc"/>
    <circle id="Ellipse_106" data-name="Ellipse 106" cx="1.171" cy="1.171" r="1.171" transform="translate(418.567 37.45)" fill="#f2f2f2"/>
    <circle id="Ellipse_107" data-name="Ellipse 107" cx="2.014" cy="2.014" r="2.014" transform="translate(262.415 86.562)" fill="#ccc"/>
    <circle id="Ellipse_108" data-name="Ellipse 108" cx="3.979" cy="3.979" r="3.979" transform="translate(256.158 163.423)" fill="#ccc"/>
    <circle id="Ellipse_109" data-name="Ellipse 109" cx="2.652" cy="2.652" r="2.652" transform="translate(496.301 42.993)" fill="#ccc"/>
    <circle id="Ellipse_110" data-name="Ellipse 110" cx="4.305" cy="4.305" r="4.305" transform="translate(588.691 151.389)" fill="#ccc"/>
    <circle id="Ellipse_111" data-name="Ellipse 111" cx="1.847" cy="1.847" r="1.847" transform="translate(557.485 85.087)" fill="#ccc"/>
    <circle id="Ellipse_112" data-name="Ellipse 112" cx="2.882" cy="2.882" r="2.882" transform="translate(332.178 60.323)" fill="#ccc"/>
    <circle id="Ellipse_113" data-name="Ellipse 113" cx="1.847" cy="1.847" r="1.847" transform="translate(551.02 145.118)" fill="#ccc"/>
    <circle id="Ellipse_114" data-name="Ellipse 114" cx="2.299" cy="2.299" r="2.299" transform="translate(267.203 221.294)" fill="#ccc"/>
    <circle id="Ellipse_115" data-name="Ellipse 115" cx="2.49" cy="2.49" r="2.49" transform="translate(313.449 253.101)" fill="#ccc"/>
    <path id="Path_519" data-name="Path 519" d="M520.806,4.913h-4.913V0h-2.636V4.913h-4.915V7.551h4.915v4.913h2.636V7.551h4.913Z" transform="translate(-132.493)" fill="#ccc"/>
    <path id="Path_520" data-name="Path 520" d="M676.583,365.114H673.5v-3.085h-1.655v3.085h-3.085v1.655h3.085v3.085H673.5v-3.085h3.086Z" transform="translate(-174.303 -94.358)" fill="#ccc"/>
    <path id="Path_521" data-name="Path 521" d="M773.584,344.031h-2.306v-2.306h-1.239v2.306h-2.306v1.238h2.306v2.306h1.239v-2.306h2.306Z" transform="translate(-200.1 -89.066)" fill="#ccc"/>
    <circle id="Ellipse_116" data-name="Ellipse 116" cx="8.585" cy="8.585" r="8.585" transform="translate(409.983 71.796)" opacity="0.1"/>
    <circle id="Ellipse_117" data-name="Ellipse 117" cx="8.585" cy="8.585" r="8.585" transform="translate(344.035 134.622)" opacity="0.1"/>
    <circle id="Ellipse_118" data-name="Ellipse 118" cx="8.585" cy="8.585" r="8.585" transform="translate(438.858 220.862)" opacity="0.1"/>
    <circle id="Ellipse_119" data-name="Ellipse 119" cx="8.585" cy="8.585" r="8.585" transform="translate(409.983 147.89)" opacity="0.1"/>
    <circle id="Ellipse_120" data-name="Ellipse 120" cx="8.585" cy="8.585" r="8.585" transform="translate(348.327 195.107)" opacity="0.1"/>
    <circle id="Ellipse_121" data-name="Ellipse 121" cx="8.585" cy="8.585" r="8.585" transform="translate(456.029 101.844)" opacity="0.1"/>
    <circle id="Ellipse_122" data-name="Ellipse 122" cx="8.585" cy="8.585" r="8.585" transform="translate(484.515 159.987)" opacity="0.1"/>
    <circle id="Ellipse_123" data-name="Ellipse 123" cx="11.316" cy="11.316" r="11.316" transform="translate(407.251 107.697)" fill="#fff"/>
    <path id="Path_522" data-name="Path 522" d="M756.549,298.01a16,16,0,0,0-16,16c0,8.836,16,37.852,16,37.852s16-29.016,16-37.852A16,16,0,0,0,756.549,298.01Zm0,23.8a7.414,7.414,0,1,1,7.414-7.414,7.414,7.414,0,0,1-7.414,7.414Z" transform="translate(-337.982 -195.386)" fill="#ccc"/>
    <circle id="Ellipse_124" data-name="Ellipse 124" cx="11.316" cy="11.316" r="11.316" transform="translate(345.596 156.085)" fill="#fff"/>
    <path id="Path_523" data-name="Path 523" d="M673.159,363.455a16,16,0,0,0-16,16c0,8.836,16,37.852,16,37.852s16-29.015,16-37.852A16,16,0,0,0,673.159,363.455Zm0,23.8a7.414,7.414,0,1,1,7.414-7.414,7.414,7.414,0,0,1-7.414,7.414Z" transform="translate(-316.247 -212.443)" fill="#ccc"/>
    <circle id="Ellipse_125" data-name="Ellipse 125" cx="11.316" cy="11.316" r="11.316" transform="translate(481.783 120.964)" fill="#fff"/>
    <path id="Path_524" data-name="Path 524" d="M857.355,315.955a16,16,0,0,0-16,16c0,8.836,16,37.852,16,37.852s16-29.015,16-37.852a16,16,0,0,0-16-16Zm0,23.8a7.414,7.414,0,1,1,7.414-7.414,7.414,7.414,0,0,1-7.414,7.414Z" transform="translate(-364.256 -200.063)" fill="#ccc"/>
    <circle id="Ellipse_126" data-name="Ellipse 126" cx="11.316" cy="11.316" r="11.316" transform="translate(407.251 31.604)" fill="#fff"/>
    <path id="Path_525" data-name="Path 525" d="M756.549,195.093a16,16,0,0,0-16,16c0,8.836,16,37.852,16,37.852s16-29.015,16-37.852a16,16,0,0,0-16-16Zm0,23.8a7.414,7.414,0,1,1,7.414-7.414,7.414,7.414,0,0,1-7.414,7.414Z" transform="translate(-337.982 -168.562)" fill="#ccc"/>
    <circle id="Ellipse_127" data-name="Ellipse 127" cx="11.316" cy="11.316" r="11.316" transform="translate(436.127 181.839)" fill="#fff"/>
    <path id="Path_526" data-name="Path 526" d="M795.605,398.289a16,16,0,0,0-16,16c0,8.836,16,37.852,16,37.852s16-29.016,16-37.852A16,16,0,0,0,795.605,398.289Zm0,23.8a7.414,7.414,0,1,1,7.414-7.414,7.414,7.414,0,0,1-7.414,7.414Z" transform="translate(-348.161 -221.522)" fill="#3f3d56"/>
    <circle id="Ellipse_128" data-name="Ellipse 128" cx="11.316" cy="11.316" r="11.316" transform="translate(341.303 94.82)" fill="#fff"/>
    <path id="Path_527" data-name="Path 527" d="M667.354,280.593a16,16,0,0,0-16,16c0,8.836,16,37.852,16,37.852s16-29.015,16-37.852A16,16,0,0,0,667.354,280.593Zm0,23.8a7.414,7.414,0,1,1,7.414-7.414A7.414,7.414,0,0,1,667.354,304.4Z" transform="translate(-314.734 -190.846)" fill="#3f3d56"/>
    <circle id="Ellipse_129" data-name="Ellipse 129" cx="11.316" cy="11.316" r="11.316" transform="translate(453.297 63.212)" fill="#fff"/>
    <path id="Path_528" data-name="Path 528" d="M818.827,237.843a16,16,0,0,0-16,16c0,8.836,16,37.852,16,37.852s16-29.015,16-37.852a16,16,0,0,0-16-16Zm0,23.8a7.414,7.414,0,1,1,7.414-7.414,7.414,7.414,0,0,1-7.414,7.414h0Z" transform="translate(-354.214 -179.704)" fill="#3f3d56"/>
    <path id="Path_529" data-name="Path 529" d="M187.472,556.937l9.007-1.023.344-35.226L183.53,522.2Z" transform="translate(-47.835 -135.711)" fill="#ffb8b8"/>
    <path id="Path_530" data-name="Path 530" d="M0,0H28.488V11.007H11.007A11.007,11.007,0,0,1,0,0H0Z" transform="translate(166.966 426.597) rotate(173.526)" fill="#2f2e41"/>
    <path id="Path_531" data-name="Path 531" d="M63.581,556.629h9.065l4.312-34.963H63.58Z" transform="translate(-16.571 -135.965)" fill="#ffb8b8"/>
    <path id="Path_532" data-name="Path 532" d="M0,0H28.488V11.007H11.007A11.007,11.007,0,0,1,0,0H0Z" transform="translate(73.555 429.08) rotate(179.997)" fill="#2f2e41"/>
    <path id="Path_533" data-name="Path 533" d="M323.9,514.726l5.176,16.835,28.1,60.8,7.394,57.67-17.005.739L337.2,597.534l-35.489-38.447L270.662,659.641l-14.048-1.479s11.83-130.128,28.1-143.436C284.71,514.726,311.327,502.156,323.9,514.726Z" transform="translate(-211.85 -250.414)" fill="#2f2e41"/>
    <circle id="Ellipse_130" data-name="Ellipse 130" cx="18.159" cy="18.159" r="18.159" transform="translate(70.928 155.353)" fill="#ffb8b8"/>
    <path id="Path_534" data-name="Path 534" d="M332.621,496.345s2.218-75.415-28.835-70.239-18.114,78-18.114,78,6.654,13.309,22.92-1.479S332.621,496.345,332.621,496.345Z" transform="translate(-218.727 -228.706)" fill="#ccc"/>
    <path id="Path_535" data-name="Path 535" d="M96.044,309.986,103.351,338l11.133,11.133L99,344Z" transform="translate(-25.033 -80.794)" opacity="0.2"/>
    <path id="Path_536" data-name="Path 536" d="M342.96,552.884a7.435,7.435,0,0,1-3.9-10.712l-17.271-19.995L335.4,520.4l14.313,19.259a7.475,7.475,0,0,1-6.756,13.22Z" transform="translate(-228.837 -253.35)" fill="#ffb8b8"/>
    <path id="Path_537" data-name="Path 537" d="M314.321,443.527l1.945,38.243,22.92,29.574-9.612,7.394-31.053-31.053s-11.09-37.707-2.957-48.8c3.05-4.159,6.412-5.3,9.422-5.108A10.189,10.189,0,0,1,314.321,443.527Z" transform="translate(-221.225 -230.767)" fill="#ccc"/>
    <path id="Path_538" data-name="Path 538" d="M287.251,403.011a.749.749,0,0,0-.106-1.2,10.561,10.561,0,0,1,1.017-18.512c5.339-2.546,12.574-.565,16.52-5.457a9.174,9.174,0,0,0,1.7-7.451c-.852-4.62-4.325-8.051-8.215-10.4A29.892,29.892,0,0,0,253,388.929c.5,4.447,1.874,9.433-.77,13.043-2.327,3.177-6.719,3.773-10.578,4.563-8.276,1.693-16.26,5.6-21.876,11.91s-8.612,15.163-6.919,23.439,8.486,15.549,16.836,16.832c6.8,1.044,13.813-1.842,18.8-6.572s8.145-11.117,10.135-17.7c2.362-7.812,3.293-16.229,7.557-23.188,4.172-6.809,13.164-11.69,20.21-8.144a.756.756,0,0,0,.848-.1Z" transform="translate(-200.324 -210.418)" fill="#2f2e41"/>
    <path id="Path_539" data-name="Path 539" d="M423.794,740.27H196.809a.739.739,0,1,1,0-1.479H423.794a.739.739,0,1,1,0,1.479Z" transform="translate(-196.07 -310.27)" fill="#3f3d56"/>
  </g>
</svg>
