<svg id="responsive-design" xmlns="http://www.w3.org/2000/svg" width="106.478" height="106.478" viewBox="0 0 106.478 106.478">
  <path id="Path_17" data-name="Path 17" d="M389.08,64.159h6.239a2.08,2.08,0,0,0,0-4.159H389.08a2.08,2.08,0,1,0,0,4.159Z" transform="translate(-306.518 -47.522)" fill="#fff"/>
  <path id="Path_18" data-name="Path 18" d="M98.159,0H73.2a8.328,8.328,0,0,0-8.319,8.319v10.4H6.239A6.246,6.246,0,0,0,0,24.956V86.513a6.246,6.246,0,0,0,6.239,6.239h26.2v9.566h-10.4a2.08,2.08,0,0,0,0,4.159H71.956a2.08,2.08,0,0,0,0-4.159h-10.4V92.752h26.2A6.246,6.246,0,0,0,94,86.513V67.8h4.159a8.328,8.328,0,0,0,8.319-8.319V8.319A8.328,8.328,0,0,0,98.159,0ZM69.044,8.319A4.164,4.164,0,0,1,73.2,4.159H98.159a4.164,4.164,0,0,1,4.159,4.159V51.159H69.044Zm-11.646,94H36.6V92.752H57.4Zm32.443-26.2H56.358a2.08,2.08,0,0,0,0,4.159H89.841v6.239a2.082,2.082,0,0,1-2.08,2.08H6.239a2.082,2.082,0,0,1-2.08-2.08V80.274H37.642a2.08,2.08,0,0,0,0-4.159H4.159V24.956a2.082,2.082,0,0,1,2.08-2.08H64.885v36.6A8.328,8.328,0,0,0,73.2,67.8H89.841Zm8.319-12.478H73.2a4.164,4.164,0,0,1-4.159-4.159V55.319h33.274v4.159A4.164,4.164,0,0,1,98.159,63.637Z" fill="#fff"/>
  <circle id="Ellipse_38" data-name="Ellipse 38" cx="2" cy="2" r="2" transform="translate(45 76)" fill="#fff"/>
</svg>
