<svg xmlns="http://www.w3.org/2000/svg" width="43" height="169" viewBox="0 0 43 169">
  <g id="pierdolnik" transform="translate(-278 -588)">
    <g id="Ellipse_79" data-name="Ellipse 79" transform="translate(306 588)" fill="none" stroke="#c12a21" stroke-width="1" opacity="0.5">
      <circle cx="7.5" cy="7.5" r="7.5" stroke="none"/>
      <circle cx="7.5" cy="7.5" r="7" fill="none"/>
    </g>
    <circle id="Ellipse_80" data-name="Ellipse 80" cx="4" cy="4" r="4" transform="translate(278 591)" fill="#fff" opacity="0.5"/>
    <rect id="Rectangle_118" data-name="Rectangle 118" width="15" height="1" transform="translate(291 595)" fill="#c12a21" opacity="0.5"/>
    <rect id="Rectangle_146" data-name="Rectangle 146" width="2" height="5" transform="translate(281 604)" fill="#fff" opacity="0.5"/>
    <rect id="Rectangle_147" data-name="Rectangle 147" width="2" height="5" transform="translate(281 613)" fill="#fff" opacity="0.5"/>
    <rect id="Rectangle_148" data-name="Rectangle 148" width="2" height="5" transform="translate(281 621)" fill="#fff" opacity="0.5"/>
    <rect id="Rectangle_149" data-name="Rectangle 149" width="2" height="5" transform="translate(281 630)" fill="#fff" opacity="0.5"/>
    <rect id="Rectangle_150" data-name="Rectangle 150" width="2" height="5" transform="translate(281 639)" fill="#fff" opacity="0.5"/>
    <rect id="Rectangle_151" data-name="Rectangle 151" width="2" height="5" transform="translate(281 648)" fill="#fff" opacity="0.5"/>
    <rect id="Rectangle_152" data-name="Rectangle 152" width="2" height="5" transform="translate(281 656)" fill="#fff" opacity="0.5"/>
    <rect id="Rectangle_153" data-name="Rectangle 153" width="2" height="5" transform="translate(281 665)" fill="#fff" opacity="0.5"/>
    <g id="Ellipse_260" data-name="Ellipse 260" transform="translate(306 671)" fill="none" stroke="#c12a21" stroke-width="1" opacity="0.5">
      <circle cx="7.5" cy="7.5" r="7.5" stroke="none"/>
      <circle cx="7.5" cy="7.5" r="7" fill="none"/>
    </g>
    <rect id="Rectangle_257" data-name="Rectangle 257" width="15" height="1" transform="translate(291 678)" fill="#c12a21" opacity="0.5"/>
    <circle id="Ellipse_261" data-name="Ellipse 261" cx="4" cy="4" r="4" transform="translate(278 675)" fill="#fff" opacity="0.5"/>
    <g id="Ellipse_262" data-name="Ellipse 262" transform="translate(306 742)" fill="none" stroke="#c12a21" stroke-width="1" opacity="0.5">
      <circle cx="7.5" cy="7.5" r="7.5" stroke="none"/>
      <circle cx="7.5" cy="7.5" r="7" fill="none"/>
    </g>
    <rect id="Rectangle_258" data-name="Rectangle 258" width="15" height="1" transform="translate(291 749)" fill="#c12a21" opacity="0.5"/>
    <circle id="Ellipse_263" data-name="Ellipse 263" cx="4" cy="4" r="4" transform="translate(278 746)" fill="#fff" opacity="0.5"/>
    <rect id="Rectangle_259" data-name="Rectangle 259" width="2" height="5" transform="translate(281 688)" fill="#fff" opacity="0.5"/>
    <rect id="Rectangle_260" data-name="Rectangle 260" width="2" height="5" transform="translate(281 696)" fill="#fff" opacity="0.5"/>
    <rect id="Rectangle_261" data-name="Rectangle 261" width="2" height="5" transform="translate(281 704)" fill="#fff" opacity="0.5"/>
    <rect id="Rectangle_262" data-name="Rectangle 262" width="2" height="5" transform="translate(281 712)" fill="#fff" opacity="0.5"/>
    <rect id="Rectangle_263" data-name="Rectangle 263" width="2" height="5" transform="translate(281 720)" fill="#fff" opacity="0.5"/>
    <rect id="Rectangle_264" data-name="Rectangle 264" width="2" height="5" transform="translate(281 728)" fill="#fff" opacity="0.5"/>
    <rect id="Rectangle_266" data-name="Rectangle 266" width="2" height="5" transform="translate(281 736)" fill="#fff" opacity="0.5"/>
  </g>
</svg>
