<svg xmlns="http://www.w3.org/2000/svg" width="75.191" height="75" viewBox="0 0 75.191 75">
  <g id="_24-hours" data-name="24-hours" transform="translate(-1 -1.154)">
    <path id="Path_616" data-name="Path 616" d="M26.934,63.008c.8.132,1.62.243,2.438.319l.243-2.413q-1.151-.113-2.279-.3Z" transform="translate(5.516 12.647)" fill="#fff"/>
    <path id="Path_617" data-name="Path 617" d="M6.115,20.237l-2.21-1c-.337.745-.652,1.509-.94,2.275l2.271.849Q5.644,21.283,6.115,20.237Z" transform="translate(0.418 3.846)" fill="#fff"/>
    <path id="Path_618" data-name="Path 618" d="M10.148,13.9,8.272,12.365q-.776.95-1.5,1.95l1.968,1.413Q9.421,14.793,10.148,13.9Z" transform="translate(1.229 2.384)" fill="#fff"/>
    <path id="Path_619" data-name="Path 619" d="M7.927,16.939,5.865,15.661Q5.218,16.7,4.637,17.79l2.139,1.142q.544-1.016,1.151-1.994Z" transform="translate(0.774 3.086)" fill="#fff"/>
    <path id="Path_620" data-name="Path 620" d="M12.741,11.174,11.08,9.4c-.593.557-1.178,1.142-1.735,1.74L11.118,12.8q.783-.834,1.623-1.621Z" transform="translate(1.775 1.754)" fill="#fff"/>
    <path id="Path_621" data-name="Path 621" d="M25.865,4.18l-.555-2.361q-1.2.284-2.373.64l.707,2.32q1.1-.335,2.222-.6Z" transform="translate(4.666 0.141)" fill="#fff"/>
    <path id="Path_622" data-name="Path 622" d="M3.854,27.373l-2.4-.389q-.2,1.205-.315,2.438l2.414.232q.116-1.151.3-2.28Z" transform="translate(0.03 5.494)" fill="#fff"/>
    <path id="Path_623" data-name="Path 623" d="M29.557,3.567l-.243-2.413q-1.23.121-2.435.324l.4,2.393Q28.4,3.682,29.557,3.567Z" transform="translate(5.504)" fill="#fff"/>
    <path id="Path_624" data-name="Path 624" d="M18.855,6.818,17.706,4.682q-1.082.581-2.123,1.232l1.285,2.062Q17.842,7.363,18.855,6.818Z" transform="translate(3.102 0.75)" fill="#fff"/>
    <path id="Path_625" data-name="Path 625" d="M15.659,8.8,14.24,6.829q-1,.719-1.94,1.5L13.843,10.2q.883-.729,1.817-1.4Z" transform="translate(2.403 1.207)" fill="#fff"/>
    <path id="Path_626" data-name="Path 626" d="M22.274,5.271,21.415,3q-1.151.437-2.267.946l1.008,2.207Q21.2,5.68,22.274,5.271Z" transform="translate(3.86 0.393)" fill="#fff"/>
    <path id="Path_627" data-name="Path 627" d="M4.748,23.736l-2.322-.7q-.353,1.169-.626,2.382l2.362.547q.255-1.131.586-2.229Z" transform="translate(0.17 4.654)" fill="#fff"/>
    <path id="Path_628" data-name="Path 628" d="M15.618,58.684q1.042.649,2.129,1.232l1.145-2.138q-1.015-.544-1.99-1.153Z" transform="translate(3.109 11.798)" fill="#fff"/>
    <path id="Path_629" data-name="Path 629" d="M3.425,32.21q0-.563.018-1.118l-2.425-.078Q1,31.6,1,32.21c0,.423,0,.849.021,1.264l2.425-.081c-.015-.393-.021-.786-.021-1.182Z" transform="translate(0 6.351)" fill="#fff"/>
    <path id="Path_630" data-name="Path 630" d="M9.371,53.479q.84.9,1.737,1.738l1.659-1.769q-.838-.787-1.626-1.627Z" transform="translate(1.78 10.776)" fill="#fff"/>
    <path id="Path_631" data-name="Path 631" d="M19.192,60.626c.741.337,1.506.654,2.273.943L22.32,59.3q-1.078-.407-2.125-.883Z" transform="translate(3.869 12.18)" fill="#fff"/>
    <path id="Path_632" data-name="Path 632" d="M22.988,62.076q1.171.355,2.374.635l.549-2.362q-1.124-.261-2.22-.594Z" transform="translate(4.677 12.464)" fill="#fff"/>
    <path id="Path_633" data-name="Path 633" d="M12.327,56.288q.95.78,1.949,1.5l1.414-1.971q-.935-.671-1.819-1.4Z" transform="translate(2.409 11.328)" fill="#fff"/>
    <path id="Path_634" data-name="Path 634" d="M3.562,34.866l-2.413.243q.121,1.23.32,2.436l2.393-.393Q3.676,36.018,3.562,34.866Z" transform="translate(0.032 7.17)" fill="#fff"/>
    <path id="Path_635" data-name="Path 635" d="M4.169,38.6l-2.361.553q.28,1.2.635,2.373l2.321-.7Q4.431,39.731,4.169,38.6Z" transform="translate(0.172 7.964)" fill="#fff"/>
    <path id="Path_636" data-name="Path 636" d="M8.769,48.893,6.8,50.308q.719,1,1.5,1.948l1.875-1.535Q9.442,49.828,8.769,48.893Z" transform="translate(1.234 10.154)" fill="#fff"/>
    <path id="Path_637" data-name="Path 637" d="M5.254,42.231l-2.269.857q.435,1.15.941,2.267l2.208-1Q5.66,43.309,5.254,42.231Z" transform="translate(0.422 8.737)" fill="#fff"/>
    <path id="Path_638" data-name="Path 638" d="M6.8,45.679,4.659,46.823c.383.717.8,1.432,1.23,2.127L7.95,47.665Q7.34,46.694,6.8,45.679Z" transform="translate(0.778 9.47)" fill="#fff"/>
    <path id="Path_639" data-name="Path 639" d="M59.649,11.425h2.668V9H56.254a1.213,1.213,0,0,0-1.213,1.213v6.063h2.425V12.653A35.157,35.157,0,0,1,32,72.06v2.425a37.587,37.587,0,0,0,27.649-63.06Z" transform="translate(6.593 1.669)" fill="#fff"/>
    <path id="Path_640" data-name="Path 640" d="M7,37.317A30.317,30.317,0,1,0,37.317,7,30.317,30.317,0,0,0,7,37.317ZM37.317,9.425A27.892,27.892,0,1,1,9.425,37.317,27.892,27.892,0,0,1,37.317,9.425Z" transform="translate(1.276 1.243)" fill="#fff"/>
    <path id="Path_641" data-name="Path 641" d="M36.466,61.933A25.466,25.466,0,1,0,11,36.467,25.467,25.467,0,0,0,36.466,61.933Zm0-48.508A23.041,23.041,0,1,1,13.425,36.466,23.041,23.041,0,0,1,36.466,13.425Z" transform="translate(2.127 2.094)" fill="#fff"/>
    <path id="Path_642" data-name="Path 642" d="M18.425,30.851v-.606a1.819,1.819,0,1,1,3.638,0,3.818,3.818,0,0,1-.884,2.44l-4.9,5.879a1.213,1.213,0,0,0,.931,1.989h7.276V38.127H19.8l3.242-3.89a6.243,6.243,0,0,0,1.446-3.992,4.244,4.244,0,1,0-8.489,0v.606Z" transform="translate(3.19 5.285)" fill="#fff"/>
    <path id="Path_643" data-name="Path 643" d="M25.213,38.127h4.851v2.425h2.425V38.127h2.425V35.7H32.489V27.213a1.213,1.213,0,0,0-2.241-.643l-6.063,9.7a1.213,1.213,0,0,0,1.028,1.855Zm4.851-6.686V35.7H27.4Z" transform="translate(4.892 5.284)" fill="#fff"/>
    <path id="Path_644" data-name="Path 644" d="M0,0H15V2.425H0Z" transform="translate(41.063 45.56) rotate(-75.936)" fill="#fff"/>
    <path id="Path_645" data-name="Path 645" d="M42.425,28.425h4.018a26.741,26.741,0,0,0-2.8,11.922v.2h2.425v-.2a24.322,24.322,0,0,1,3.464-12.509A1.213,1.213,0,0,0,48.489,26H41.213A1.213,1.213,0,0,0,40,27.213v2.425h2.425Z" transform="translate(8.295 5.285)" fill="#fff"/>
  </g>
</svg>
