<svg xmlns="http://www.w3.org/2000/svg" width="515.27" height="430" viewBox="0 0 515.27 430">
  <g id="undraw_shopping_app_flsj" transform="translate(0 0)">
    <path id="Path_542" data-name="Path 542" d="M368.314,180.661h-2.34V116.57A37.094,37.094,0,0,0,328.88,79.476H193.094A37.094,37.094,0,0,0,156,116.57V468.18a37.094,37.094,0,0,0,37.094,37.094H328.881a37.094,37.094,0,0,0,37.094-37.094v-241.9h2.34Z" transform="translate(-156 -79.476)" fill="#e6e6e6"/>
    <path id="Path_543" data-name="Path 543" d="M337.781,96.107H320.057a13.161,13.161,0,0,1-12.185,18.132h-77.79A13.161,13.161,0,0,1,217.9,96.108H201.342a27.7,27.7,0,0,0-27.7,27.7V474.9a27.7,27.7,0,0,0,27.7,27.7h136.44a27.7,27.7,0,0,0,27.7-27.7V123.809a27.7,27.7,0,0,0-27.7-27.7Z" transform="translate(-163.404 -86.457)" fill="#fff"/>
    <path id="Path_544" data-name="Path 544" d="M263,219.111h-8.146a1.08,1.08,0,0,0-1.08,1.08v3.576a1.08,1.08,0,0,0,1.08,1.08h1.35V230.2h5.446v-5.358H263a1.08,1.08,0,0,0,1.08-1.08v-3.576A1.08,1.08,0,0,0,263,219.111Z" transform="translate(-197.039 -138.086)" fill="#e6e6e6"/>
    <path id="Path_545" data-name="Path 545" d="M265.733,255.789a41.882,41.882,0,0,1-7.286-24.831.883.883,0,0,0-.689-.881v-1.545h-8.6v1.524h-.119a.883.883,0,0,0-.882.884q0,.032,0,.064a38.222,38.222,0,0,1-6.866,25.42,2.433,2.433,0,0,0-.44,1.474l.941,29.1a2.519,2.519,0,0,0,2.5,2.431h19.46a2.52,2.52,0,0,0,2.5-2.474l.363-28.254A5.1,5.1,0,0,0,265.733,255.789Z" transform="translate(-191.614 -142.041)" fill="#e6e6e6"/>
    <path id="Path_546" data-name="Path 546" d="M264.914,292.166H247.976a1.739,1.739,0,0,0-1.719,2l2.56,16.638h14.7l3.109-16.582a1.739,1.739,0,0,0-1.709-2.06Z" transform="translate(-193.876 -168.751)" fill="#fff"/>
    <path id="Path_547" data-name="Path 547" d="M419.283,369.345h-8.147a1.08,1.08,0,0,0-1.08,1.08V374a1.08,1.08,0,0,0,1.08,1.08h1.35v5.358h5.446v-5.358h1.35a1.08,1.08,0,0,0,1.08-1.08v-3.576a1.08,1.08,0,0,0-1.08-1.08Z" transform="translate(-262.638 -201.146)" fill="#e6e6e6"/>
    <path id="Path_548" data-name="Path 548" d="M422.018,406.025a41.882,41.882,0,0,1-7.286-24.831.883.883,0,0,0-.689-.881v-1.545h-8.6v1.524h-.119a.883.883,0,0,0-.882.884q0,.032,0,.064a38.222,38.222,0,0,1-6.866,25.42,2.433,2.433,0,0,0-.44,1.474l.941,29.1a2.519,2.519,0,0,0,2.5,2.431h19.46a2.52,2.52,0,0,0,2.5-2.474l.363-28.254a5.1,5.1,0,0,0-.876-2.912Z" transform="translate(-257.213 -205.101)" fill="#e6e6e6"/>
    <path id="Path_549" data-name="Path 549" d="M421.2,442.4H404.26a1.739,1.739,0,0,0-1.719,2l2.56,16.638h14.7l3.109-16.582a1.739,1.739,0,0,0-1.709-2.06Z" transform="translate(-259.475 -231.81)" fill="#fff"/>
    <path id="Path_550" data-name="Path 550" d="M246.769,581.733H242.9a.512.512,0,0,0-.512.512v1.7a.512.512,0,0,0,.512.512h.64V587h2.584v-2.541h.64a.512.512,0,0,0,.512-.512v-1.7a.512.512,0,0,0-.512-.512Z" transform="translate(-192.263 -290.294)" fill="#e6e6e6"/>
    <path id="Path_551" data-name="Path 551" d="M248.066,599.131a19.867,19.867,0,0,1-3.456-11.779.419.419,0,0,0-.327-.418V586.2H240.2v.723h-.056a.419.419,0,0,0-.418.419c0,.01,0,.02,0,.031a18.131,18.131,0,0,1-3.257,12.058,1.154,1.154,0,0,0-.209.7l.446,13.8a1.2,1.2,0,0,0,1.185,1.153h9.231a1.2,1.2,0,0,0,1.185-1.174l.172-13.4A2.419,2.419,0,0,0,248.066,599.131Z" transform="translate(-189.689 -292.169)" fill="#e6e6e6"/>
    <rect id="Rectangle_134" data-name="Rectangle 134" width="8.808" height="4.404" transform="translate(48.241 312.036)" fill="#fff"/>
    <path id="Path_552" data-name="Path 552" d="M277.769,581.733H273.9a.512.512,0,0,0-.512.512v1.7a.512.512,0,0,0,.512.512h.64V587h2.583v-2.541h.64a.512.512,0,0,0,.512-.512v-1.7a.512.512,0,0,0-.512-.512Z" transform="translate(-205.274 -290.294)" fill="#e6e6e6"/>
    <path id="Path_553" data-name="Path 553" d="M279.066,599.131a19.867,19.867,0,0,1-3.456-11.779.419.419,0,0,0-.327-.418V586.2H271.2v.723h-.056a.419.419,0,0,0-.418.419c0,.01,0,.02,0,.031a18.131,18.131,0,0,1-3.257,12.058,1.154,1.154,0,0,0-.209.7l.446,13.8a1.2,1.2,0,0,0,1.185,1.153h9.231a1.2,1.2,0,0,0,1.185-1.174l.172-13.4A2.419,2.419,0,0,0,279.066,599.131Z" transform="translate(-202.701 -292.169)" fill="#e6e6e6"/>
    <rect id="Rectangle_135" data-name="Rectangle 135" width="8.808" height="4.404" transform="translate(66.229 312.036)" fill="#fff"/>
    <path id="Path_554" data-name="Path 554" d="M308.769,581.733H304.9a.512.512,0,0,0-.512.512v1.7a.512.512,0,0,0,.512.512h.64V587h2.583v-2.541h.64a.512.512,0,0,0,.512-.512v-1.7a.512.512,0,0,0-.512-.512Z" transform="translate(-218.286 -290.294)" fill="#e6e6e6"/>
    <path id="Path_555" data-name="Path 555" d="M310.066,599.131a19.866,19.866,0,0,1-3.456-11.779.419.419,0,0,0-.327-.418V586.2H302.2v.723h-.056a.419.419,0,0,0-.418.419c0,.01,0,.02,0,.031a18.131,18.131,0,0,1-3.257,12.058,1.154,1.154,0,0,0-.209.7l.446,13.8a1.2,1.2,0,0,0,1.185,1.153h9.231a1.2,1.2,0,0,0,1.185-1.174l.172-13.4A2.419,2.419,0,0,0,310.066,599.131Z" transform="translate(-215.713 -292.169)" fill="#e6e6e6"/>
    <rect id="Rectangle_136" data-name="Rectangle 136" width="8.808" height="4.404" transform="translate(84.217 312.036)" fill="#fff"/>
    <path id="Path_556" data-name="Path 556" d="M394.893,523.613h-8.146a1.08,1.08,0,0,0-1.08,1.08v3.576a1.08,1.08,0,0,0,1.08,1.08h1.35v5.358h5.446v-5.358h1.35a1.08,1.08,0,0,0,1.08-1.08v-3.576A1.08,1.08,0,0,0,394.893,523.613Z" transform="translate(-252.401 -265.898)" fill="#e6e6e6"/>
    <path id="Path_557" data-name="Path 557" d="M397.628,560.292a41.882,41.882,0,0,1-7.286-24.831.883.883,0,0,0-.689-.881v-1.545h-8.6v1.524h-.119a.883.883,0,0,0-.882.884q0,.032,0,.064a38.222,38.222,0,0,1-6.866,25.42,2.433,2.433,0,0,0-.44,1.474l.941,29.1a2.519,2.519,0,0,0,2.5,2.431h19.46a2.52,2.52,0,0,0,2.5-2.474L398.5,563.2a5.1,5.1,0,0,0-.877-2.911Z" transform="translate(-246.976 -269.853)" fill="#e6e6e6"/>
    <path id="Path_558" data-name="Path 558" d="M396.809,596.668H379.871a1.739,1.739,0,0,0-1.719,2l2.56,16.638h14.7l3.109-16.582a1.739,1.739,0,0,0-1.709-2.06Z" transform="translate(-249.238 -296.563)" fill="#fff"/>
    <path id="Path_559" data-name="Path 559" d="M374.1,293.384H325.544c3.4-18.356,2.614-40.52,0-64.357H374.1C371.56,252.864,370.8,275.029,374.1,293.384Z" transform="translate(-227.165 -142.249)" fill="#e6e6e6"/>
    <circle id="Ellipse_131" data-name="Ellipse 131" cx="11.701" cy="11.701" r="11.701" transform="translate(111.251 105.5)" fill="#fff"/>
    <path id="Path_560" data-name="Path 560" d="M297.475,440.594H248.914c3.4-18.356,2.614-40.52,0-64.357h48.561C294.93,400.073,294.17,422.239,297.475,440.594Z" transform="translate(-195 -204.039)" fill="#e6e6e6"/>
    <circle id="Ellipse_132" data-name="Ellipse 132" cx="11.701" cy="11.701" r="11.701" transform="translate(66.786 190.92)" fill="#fff"/>
    <path id="Path_561" data-name="Path 561" d="M421.494,300.442H372.933c3.4-18.356,2.614-40.52,0-64.357h48.561C418.949,259.922,418.189,282.087,421.494,300.442Z" transform="translate(-247.056 -145.211)" fill="#e6e6e6"/>
    <circle id="Ellipse_133" data-name="Ellipse 133" cx="11.701" cy="11.701" r="11.701" transform="translate(138.749 109.596)" fill="#fff"/>
    <path id="Path_562" data-name="Path 562" d="M421.494,295.4H372.933c3.4-18.356,2.614-40.52,0-64.357h48.561C418.949,254.88,418.189,277.046,421.494,295.4Z" transform="translate(-247.056 -143.095)" fill="#e6e6e6"/>
    <circle id="Ellipse_134" data-name="Ellipse 134" cx="11.701" cy="11.701" r="11.701" transform="translate(138.749 106.67)" fill="#fff"/>
    <path id="Path_563" data-name="Path 563" d="M421.494,300.442H372.933c3.4-18.356,2.614-40.52,0-64.357h48.561C418.949,259.922,418.189,282.087,421.494,300.442Z" transform="translate(-247.056 -145.211)" fill="#e6e6e6"/>
    <circle id="Ellipse_135" data-name="Ellipse 135" cx="11.701" cy="11.701" r="11.701" transform="translate(138.749 109.596)" fill="#fff"/>
    <rect id="Rectangle_137" data-name="Rectangle 137" width="159.138" height="17.552" transform="translate(26.416 147.625)" fill="#e6e6e6"/>
    <rect id="Rectangle_138" data-name="Rectangle 138" width="159.138" height="17.552" transform="translate(26.416 234.8)" fill="#e6e6e6"/>
    <rect id="Rectangle_139" data-name="Rectangle 139" width="159.138" height="17.552" transform="translate(26.416 321.975)" fill="#e6e6e6"/>
    <path id="Path_564" data-name="Path 564" d="M924.176,698.783,884.53,670.742c13.371-13.025,25.533-31.573,37.163-52.543l39.646,28.041C945.5,664.231,932.077,681.889,924.176,698.783Z" transform="translate(-461.794 -305.6)" fill="#c12a21"/>
    <circle id="Ellipse_136" data-name="Ellipse 136" cx="11.701" cy="11.701" r="11.701" transform="translate(450.691 339.925)" fill="#fff"/>
    <path id="Path_565" data-name="Path 565" d="M619.7,536.554h-4.352a.577.577,0,0,0-.577.577v1.91a.577.577,0,0,0,.577.577h.721v2.862h2.91v-2.862h.721a.577.577,0,0,0,.577-.577v-1.91A.577.577,0,0,0,619.7,536.554Z" transform="translate(-348.564 -271.33)" fill="#e6e6e6"/>
    <path id="Path_566" data-name="Path 566" d="M621.158,556.149a22.374,22.374,0,0,1-3.892-13.265.472.472,0,0,0-.368-.471v-.825h-4.6v.814h-.063a.472.472,0,0,0-.471.472c0,.011,0,.023,0,.034a20.419,20.419,0,0,1-3.668,13.58,1.3,1.3,0,0,0-.235.788l.5,15.546a1.346,1.346,0,0,0,1.334,1.3h10.4a1.346,1.346,0,0,0,1.335-1.322l.194-15.094A2.724,2.724,0,0,0,621.158,556.149Z" transform="translate(-345.666 -273.443)" fill="#c12a21"/>
    <path id="Path_567" data-name="Path 567" d="M619.9,537.627a1.245,1.245,0,0,1-2.49,0" transform="translate(-349.672 -271.781)" opacity="0.2"/>
    <rect id="Rectangle_140" data-name="Rectangle 140" width="8.776" height="5.851" transform="translate(264.692 285.701)" fill="#fff"/>
    <path id="Path_568" data-name="Path 568" d="M853.928,641.218h-8.146a1.08,1.08,0,0,0-1.08,1.08v3.576a1.08,1.08,0,0,0,1.08,1.08h1.35v5.358h5.446v-5.358h1.35a1.08,1.08,0,0,0,1.08-1.08V642.3a1.08,1.08,0,0,0-1.08-1.08Z" transform="translate(-445.076 -315.262)" fill="#e6e6e6"/>
    <path id="Path_569" data-name="Path 569" d="M856.663,677.9a41.882,41.882,0,0,1-7.286-24.831.883.883,0,0,0-.689-.881V650.64h-8.6v1.524h-.119a.883.883,0,0,0-.882.884q0,.032,0,.064a38.222,38.222,0,0,1-6.866,25.42,2.433,2.433,0,0,0-.44,1.474l.941,29.1a2.519,2.519,0,0,0,2.5,2.431h19.46a2.52,2.52,0,0,0,2.5-2.474l.363-28.254A5.1,5.1,0,0,0,856.663,677.9Z" transform="translate(-439.652 -319.217)" fill="#c12a21"/>
    <path id="Path_570" data-name="Path 570" d="M854.3,643.226a2.33,2.33,0,0,1-4.66,0" transform="translate(-447.151 -316.105)" opacity="0.2"/>
    <path id="Path_571" data-name="Path 571" d="M855.844,714.273H838.906a1.739,1.739,0,0,0-1.719,2l2.56,16.638h14.7l3.109-16.582a1.739,1.739,0,0,0-1.709-2.06Z" transform="translate(-441.914 -345.926)" fill="#fff"/>
    <path id="Path_572" data-name="Path 572" d="M785.419,710.442H736.858c3.4-18.356,2.614-40.521,0-64.357h48.561C782.874,669.922,782.114,692.086,785.419,710.442Z" transform="translate(-399.81 -317.305)" fill="#c12a21"/>
    <circle id="Ellipse_137" data-name="Ellipse 137" cx="11.701" cy="11.701" r="11.701" transform="translate(349.92 347.502)" fill="#fff"/>
    <path id="Path_573" data-name="Path 573" d="M322.243,310.544l10.9-.991,6.938-16.847-12.388-6.938Z" transform="translate(-135.259 -119.949)" fill="#ffb8b8"/>
    <path id="Path_574" data-name="Path 574" d="M632.751,480.827h0a6.147,6.147,0,0,0-5.339-8.423l-16.926-1.009-2.492,8.287,17.424,4.785A6.147,6.147,0,0,0,632.751,480.827Z" transform="translate(-345.72 -243.98)" fill="#ffb8b8"/>
    <path id="Path_575" data-name="Path 575" d="M559.03,452.194l-.186-15.551-37.6-6-28.964-33.219a9.48,9.48,0,0,0-12.356-1.69h0a9.48,9.48,0,0,0-1.652,14.461L502.17,439.6Z" transform="translate(-290.173 -211.568)" fill="#575a89"/>
    <path id="Path_576" data-name="Path 576" d="M463.726,674.489h9.91l24.581-111.139,25.466,34.333,14.866,74.328h9.415l-1.982-79.779L512.782,507h-32.7c-8.937,16.174-15.948,32.847-7.928,50.048Z" transform="translate(-285.165 -258.926)" fill="#2f2e41"/>
    <path id="Path_577" data-name="Path 577" d="M582.119,798.99a2.586,2.586,0,0,0,2.017,3.318l24.251,4.3a3.99,3.99,0,0,0,4.527-2.735h0a3.966,3.966,0,0,0-1.939-4.715A37.08,37.08,0,0,1,597.6,787.534c-2.665,2.482-5.644,2.249-8.808.419l-3.355.419Z" transform="translate(-334.81 -376.677)" fill="#2f2e41"/>
    <path id="Path_578" data-name="Path 578" d="M455.733,798.99a2.586,2.586,0,0,0,2.017,3.318l24.251,4.3a3.99,3.99,0,0,0,4.526-2.735h0a3.966,3.966,0,0,0-1.939-4.715,37.079,37.079,0,0,1-13.374-11.627c-2.665,2.482-5.644,2.249-8.808.419l-3.355.419Z" transform="translate(-281.761 -376.677)" fill="#2f2e41"/>
    <circle id="Ellipse_138" data-name="Ellipse 138" cx="13.875" cy="13.875" r="13.875" transform="translate(191.197 151.202)" fill="#ffb8b8"/>
    <path id="Path_579" data-name="Path 579" d="M480.045,461.253l36.173-.991-10.623-33.434c6.6-10.583-.042-21.156-9.445-31.727l-7.433-4.955-11.893-.991h0a29.2,29.2,0,0,0-7.862,20.338A131.017,131.017,0,0,0,480.045,461.253Z" transform="translate(-287.362 -209.461)" fill="#575a89"/>
    <path id="Path_580" data-name="Path 580" d="M615.152,539.583h0a6.147,6.147,0,0,0-1.6-9.845l-15.164-7.587-5.551,6.639,14.137,11.254a6.147,6.147,0,0,0,8.173-.461Z" transform="translate(-339.361 -265.285)" fill="#ffb8b8"/>
    <path id="Path_581" data-name="Path 581" d="M557.746,485.692l5.946-14.37-32.205-20.305-13.561-41.934a9.48,9.48,0,0,0-10.7-6.414h0a9.48,9.48,0,0,0-7.207,12.645l10.4,36.435Z" transform="translate(-300.15 -215.07)" fill="#575a89"/>
    <path id="Path_582" data-name="Path 582" d="M470.13,342.611c0,5.4,3.506,13.759,7.928,17.343,2.975,2.411,6.908,2.31,8.424-.991,1.555-3.386,6.916-11.345,16.352-16.352,12.579-6.674-4.461-18.093-16.352-16.352C477.546,327.568,470.13,333.58,470.13,342.611Z" transform="translate(-287.853 -182.986)" fill="#2f2e41"/>
    <circle id="Ellipse_139" data-name="Ellipse 139" cx="9.91" cy="9.91" r="9.91" transform="translate(180.791 132.372)" fill="#2f2e41"/>
    <path id="Path_583" data-name="Path 583" d="M497.658,311.534a9.9,9.9,0,0,0-9.167-9.873c.246-.018.492-.038.743-.038a9.91,9.91,0,0,1,0,19.821c-.251,0-.5-.019-.743-.038a9.9,9.9,0,0,0,9.167-9.873Z" transform="translate(-295.56 -172.72)" fill="#2f2e41"/>
    <ellipse id="Ellipse_140" data-name="Ellipse 140" cx="2.23" cy="2.973" rx="2.23" ry="2.973" transform="translate(203.089 164.085)" fill="#ffb8b8"/>
    <path id="Path_584" data-name="Path 584" d="M682.354,568.118H528.079L495.41,413.681H467.529v-6.929h33.5L533.7,561.188H682.354Z" transform="translate(-196.241 -170.731)" fill="#3f3d56"/>
    <circle id="Ellipse_141" data-name="Ellipse 141" cx="14.85" cy="14.85" r="14.85" transform="translate(339.596 395.902)" fill="#3f3d56"/>
    <circle id="Ellipse_142" data-name="Ellipse 142" cx="14.85" cy="14.85" r="14.85" transform="translate(450.473 395.902)" fill="#3f3d56"/>
    <path id="Path_585" data-name="Path 585" d="M861.168,664.024h-150.1L684.584,533.145H886.021a7.117,7.117,0,0,1,7.03,8.22L868.2,658.012a7.081,7.081,0,0,1-7.029,6.012Zm-148.47-1.98h148.47a5.11,5.11,0,0,0,5.073-4.339L891.1,541.058a5.135,5.135,0,0,0-5.074-5.933H686.987Z" transform="translate(-377.868 -269.899)" fill="#3f3d56"/>
    <path id="Path_586" data-name="Path 586" d="M611.967,584.728,594.623,455.42l1.953-.323L613.92,584.405Z" transform="translate(-249.588 -191.023)" fill="#3f3d56"/>
    <path id="Path_587" data-name="Path 587" d="M789.3,583.737l-1.955-.317L804.18,455.1l1.955.317Z" transform="translate(-330.48 -191.025)" fill="#3f3d56"/>
    <rect id="Rectangle_141" data-name="Rectangle 141" width="1.98" height="129.308" transform="translate(410.89 264.235)" fill="#3f3d56"/>
    <rect id="Rectangle_142" data-name="Rectangle 142" width="1.98" height="191.657" transform="translate(316.824 300.863) rotate(-89.861)" fill="#3f3d56"/>
    <rect id="Rectangle_143" data-name="Rectangle 143" width="168.378" height="1.98" transform="translate(326.59 361.198) rotate(-0.392)" fill="#3f3d56"/>
    <ellipse id="Ellipse_143" data-name="Ellipse 143" cx="10.89" cy="5.94" rx="10.89" ry="5.94" transform="translate(263.369 232.556)" fill="#3f3d56"/>
  </g>
</svg>
