<svg xmlns="http://www.w3.org/2000/svg" width="106.478" height="106.478" viewBox="0 0 106.478 106.478">
  <g id="ui" transform="translate(-0.5 0)">
    <path id="Path_254" data-name="Path 254" d="M173.447,368H169.9v7.1H137.954v3.549H169.9v5.324a5.324,5.324,0,0,1-5.324,5.324H125.531a5.343,5.343,0,0,1-4.614-2.662l-3.074,1.775a8.91,8.91,0,0,0,7.688,4.437h39.042a8.884,8.884,0,0,0,8.873-8.873Zm0,0" transform="translate(-91.313 -286.367)" fill="#fff"/>
    <path id="Path_255" data-name="Path 255" d="M232.5,432h3.549v3.549H232.5Zm0,0" transform="translate(-180.536 -336.17)" fill="#fff"/>
    <path id="Path_256" data-name="Path 256" d="M81.288,47.915V44.366H75.874A23.073,23.073,0,0,0,54.669,23.16V17.746H51.119V23.16a23.065,23.065,0,0,0-3.549.554V14.2H75.964V10.648H47.57V8.873a5.324,5.324,0,0,1,5.324-5.324H91.936A5.321,5.321,0,0,1,95.457,4.88L97.8,2.218A8.862,8.862,0,0,0,91.936,0H52.894a8.884,8.884,0,0,0-8.873,8.873V24.845A23.1,23.1,0,0,0,29.914,44.366H24.5v3.549h5.418a22.967,22.967,0,0,0,21.2,21.214v5.405h3.549V69.129a22.967,22.967,0,0,0,21.2-21.214Zm-30.169,14.2V65.58a19.447,19.447,0,0,1-7.1-2.048V60.338a8.873,8.873,0,0,1,17.746,0v3.194a19.466,19.466,0,0,1-7.1,2.054V62.112ZM47.57,42.591a5.324,5.324,0,1,1,5.324,5.324A5.324,5.324,0,0,1,47.57,42.591Zm18.337,18.1c-.192.177-.4.319-.591.483v-.838A12.422,12.422,0,0,0,58.61,49.321a8.873,8.873,0,1,0-11.433,0,12.422,12.422,0,0,0-6.706,11.017v.847c-.2-.161-.4-.313-.591-.483a19.531,19.531,0,0,1-6.413-12.786h3.455V44.366H33.463A19.54,19.54,0,0,1,51.119,26.71v3.459h3.549V26.71A19.54,19.54,0,0,1,72.325,44.366H68.866v3.549H72.32A19.531,19.531,0,0,1,65.907,60.7Zm0,0" transform="translate(-18.676)" fill="#fff"/>
    <path id="Path_257" data-name="Path 257" d="M313.317,56.845a1.775,1.775,0,0,0,1.775-1.775v-21.3A1.775,1.775,0,0,0,313.317,32H274.275a1.775,1.775,0,0,0-1.775,1.775v21.3a1.775,1.775,0,0,0,1.775,1.775Zm-37.267-21.3h35.493V53.3H276.049Zm0,0" transform="translate(-211.662 -24.901)" fill="#fff"/>
    <path id="Path_258" data-name="Path 258" d="M304.5,64h7.1v3.549h-7.1Zm0,0" transform="translate(-236.564 -49.803)" fill="#fff"/>
    <path id="Path_259" data-name="Path 259" d="M352.5,64h17.746v3.549H352.5Zm0,0" transform="translate(-273.916 -49.803)" fill="#fff"/>
    <path id="Path_260" data-name="Path 260" d="M304.5,96h28.394v3.549H304.5Zm0,0" transform="translate(-236.564 -74.704)" fill="#fff"/>
    <path id="Path_261" data-name="Path 261" d="M288.1,160a5.626,5.626,0,0,0-3.727,1.419l-15.48,13.648V160h-3.549v17.746h.513l-10.1,8.909a12.422,12.422,0,0,0-11.713,12.387v3.131a4.614,4.614,0,0,1-2.568,4.154,1.775,1.775,0,0,0,.793,3.363h12.422a12.422,12.422,0,0,0,12.387-11.713l25.246-28.611A5.638,5.638,0,0,0,288.1,160Zm-33.4,46.14h-8.116a8.187,8.187,0,0,0,1.017-3.968v-3.131a8.885,8.885,0,0,1,8.163-8.845l7.78,7.78a8.884,8.884,0,0,1-8.845,8.163Zm34.971-39.122-24.4,27.658-6.2-6.2,27.658-24.4a2.089,2.089,0,0,1,2.948,2.948Zm0,0" transform="translate(-186.756 -124.507)" fill="#fff"/>
    <path id="Path_262" data-name="Path 262" d="M2.275,346.62H41.317a1.775,1.775,0,0,0,1.775-1.775v-14.2a1.775,1.775,0,0,0-1.775-1.775H28.894V320H25.345v8.873H2.275A1.775,1.775,0,0,0,.5,330.648v14.2A1.775,1.775,0,0,0,2.275,346.62Zm1.775-14.2H39.542V343.07H4.049Zm0,0" transform="translate(0 -249.015)" fill="#fff"/>
    <path id="Path_263" data-name="Path 263" d="M32.5,392h8.873v3.549H32.5Zm0,0" transform="translate(-24.901 -305.043)" fill="#fff"/>
    <path id="Path_264" data-name="Path 264" d="M88.5,392h15.972v3.549H88.5Zm0,0" transform="translate(-68.479 -305.043)" fill="#fff"/>
    <path id="Path_265" data-name="Path 265" d="M2.275,49.746H20.021A1.775,1.775,0,0,0,21.8,47.972v-14.2A1.775,1.775,0,0,0,20.021,32H2.275A1.775,1.775,0,0,0,.5,33.775v14.2A1.775,1.775,0,0,0,2.275,49.746Zm1.775-14.2h14.2V46.2H4.049Zm0,0" transform="translate(0 -24.901)" fill="#fff"/>
    <path id="Path_266" data-name="Path 266" d="M32.5,64h7.1v3.549H32.5Zm0,0" transform="translate(-24.901 -49.803)" fill="#fff"/>
  </g>
</svg>
