<svg xmlns="http://www.w3.org/2000/svg" width="73.604" height="73.603" viewBox="0 0 73.604 73.603">
  <path id="Path_753" data-name="Path 753" d="M68.672,18.4l-8.54-4.931L55.2,4.933h-9.86L36.8,0l-8.54,4.931H18.4l-4.931,8.54L4.931,18.4v9.86L0,36.8l4.931,8.54V55.2l8.54,4.931,4.931,8.54h9.86l8.539,4.93,8.54-4.931H55.2l4.931-8.54,8.54-4.931v-9.86L73.6,36.8l-4.931-8.54V18.4ZM33.48,51.866a3.582,3.582,0,0,1-4.98,0L17.736,41.1a3.454,3.454,0,0,1,0-4.884l2.849-2.849a3.454,3.454,0,0,1,4.884,0l5.52,5.52L48.133,21.746a3.454,3.454,0,0,1,4.884,0L55.866,24.6a3.454,3.454,0,0,1,0,4.884Z" transform="translate(0 -0.002)" fill="#fff"/>
</svg>
