<svg id="customer" xmlns="http://www.w3.org/2000/svg" width="83.794" height="73.603" viewBox="0 0 83.794 73.603">
  <path id="Path_754" data-name="Path 754" d="M290.628,40.967a9.814,9.814,0,1,0-9.814,9.814A9.825,9.825,0,0,0,290.628,40.967Zm-9.814,4.907a4.907,4.907,0,1,1,4.907-4.907A4.912,4.912,0,0,1,280.814,45.874Z" transform="translate(-226.675 -31.153)" fill="#fff"/>
  <path id="Path_755" data-name="Path 755" d="M241,165.874v4.907h29.441v-4.907a14.721,14.721,0,0,0-29.441,0Zm14.721-9.814a9.825,9.825,0,0,1,9.814,9.814H245.907A9.825,9.825,0,0,1,255.721,156.06Z" transform="translate(-201.582 -131.525)" fill="#fff"/>
  <path id="Path_756" data-name="Path 756" d="M82.309,277.48a11.61,11.61,0,0,0-16.715.3L59.6,284.568a12.287,12.287,0,0,0-11.676-8.508h-5.38c-.482-.288-.944-.569-1.4-.843-3.737-2.27-6.688-4.064-11.542-4.064-4.57,0-7.686,1.841-10.984,3.791-.622.367-1.26.745-1.92,1.116H0V305.5H14.723v-4.907H17.34c1.271,0,1.9.465,3.206,1.518a13.072,13.072,0,0,0,9.236,3.389h34.6L83.8,278.966ZM9.815,300.594H4.909V280.967H9.815Zm52.077,0H29.78a8.282,8.282,0,0,1-6.154-2.3,9.326,9.326,0,0,0-6.287-2.606H14.722V280.967h3.244c.733-.413.729-.365,3.155-1.8,2.938-1.736,5.258-3.108,8.487-3.108,3.48,0,5.556,1.261,8.994,3.35.642.39,2.6,1.557,2.6,1.557h6.719a7.372,7.372,0,0,1,6.938,4.907H36.7v4.907H60.663l8.543-9.683a6.715,6.715,0,0,1,7.957-1.376Z" transform="translate(-0.002 -231.898)" fill="#fff"/>
</svg>
