<svg id="star" xmlns="http://www.w3.org/2000/svg" width="77.647" height="74" viewBox="0 0 77.647 74">
  <g id="Group_124" data-name="Group 124" transform="translate(9.68 4.031)">
    <g id="Group_123" data-name="Group 123">
      <path id="Path_757" data-name="Path 757" d="M116.942,55.448l-12.819-1.863L98.39,41.969a6.04,6.04,0,0,0-10.831,0L81.826,53.585,69.007,55.448a6.04,6.04,0,0,0-3.347,10.3l9.276,9.042-2.19,12.767a6.041,6.041,0,0,0,8.762,6.366L92.975,87.9l11.466,6.028a6.043,6.043,0,0,0,8.762-6.366l-2.19-12.767,9.276-9.042A6.041,6.041,0,0,0,116.942,55.448Zm-.266,6.594-10.25,9.992a2.589,2.589,0,0,0-.744,2.291l2.42,14.109a.861.861,0,0,1-1.252.909l-12.67-6.661a2.589,2.589,0,0,0-2.409,0L79.1,89.342a.861.861,0,0,1-1.252-.909l2.42-14.109a2.589,2.589,0,0,0-.744-2.291l-10.25-9.992a.861.861,0,0,1,.478-1.472l14.166-2.058A2.588,2.588,0,0,0,85.866,57.1L92.2,44.259a.861.861,0,0,1,1.547,0L100.084,57.1a2.588,2.588,0,0,0,1.949,1.416L116.2,60.57A.861.861,0,0,1,116.676,62.042Z" transform="translate(-63.831 -38.604)" fill="#fff"/>
    </g>
  </g>
  <g id="Group_126" data-name="Group 126" transform="translate(12.655)">
    <g id="Group_125" data-name="Group 125" transform="translate(0 0)">
      <path id="Path_758" data-name="Path 758" d="M91.224,17.351l-3.1-4.26a2.588,2.588,0,0,0-4.188,3.043l3.1,4.26a2.588,2.588,0,0,0,4.188-3.043Z" transform="translate(-83.446 -12.023)" fill="#fff"/>
    </g>
  </g>
  <g id="Group_128" data-name="Group 128" transform="translate(0 41.718)">
    <g id="Group_127" data-name="Group 127" transform="translate(0)">
      <path id="Path_759" data-name="Path 759" d="M10.16,288.9A2.588,2.588,0,0,0,6.9,287.237l-5.11,1.66a2.588,2.588,0,0,0,1.6,4.923l5.11-1.66A2.588,2.588,0,0,0,10.16,288.9Z" transform="translate(0.001 -287.109)" fill="#fff"/>
    </g>
  </g>
  <g id="Group_130" data-name="Group 130" transform="translate(56.72 0)">
    <g id="Group_129" data-name="Group 129" transform="translate(0 0)">
      <path id="Path_760" data-name="Path 760" d="M381.214,12.52a2.588,2.588,0,0,0-3.615.572l-3.1,4.26a2.588,2.588,0,0,0,4.188,3.043l3.1-4.26A2.588,2.588,0,0,0,381.214,12.52Z" transform="translate(-374.009 -12.025)" fill="#fff"/>
    </g>
  </g>
  <g id="Group_132" data-name="Group 132" transform="translate(67.359 41.718)">
    <g id="Group_131" data-name="Group 131">
      <path id="Path_761" data-name="Path 761" d="M452.661,288.9l-5.11-1.66a2.588,2.588,0,1,0-1.6,4.923l5.11,1.66a2.588,2.588,0,1,0,1.6-4.923Z" transform="translate(-444.162 -287.108)" fill="#fff"/>
    </g>
  </g>
  <g id="Group_134" data-name="Group 134" transform="translate(36.236 63.571)">
    <g id="Group_133" data-name="Group 133">
      <path id="Path_762" data-name="Path 762" d="M241.522,431.205a2.588,2.588,0,0,0-2.588,2.588v5.253a2.588,2.588,0,1,0,5.176,0v-5.253A2.588,2.588,0,0,0,241.522,431.205Z" transform="translate(-238.934 -431.205)" fill="#fff"/>
    </g>
  </g>
</svg>
