<svg xmlns="http://www.w3.org/2000/svg" width="60.78" height="75" viewBox="0 0 60.78 75">
  <g id="wireframe" transform="translate(-48.539)">
    <path id="Path_763" data-name="Path 763" d="M77.216,26.753a1.1,1.1,0,1,0,0,2.2h.733a1.1,1.1,0,0,0,0-2.2Z" transform="translate(-23.538 -22.834)" fill="#fff"/>
    <path id="Path_764" data-name="Path 764" d="M108.177,27.852a1.1,1.1,0,0,0,1.1,1.1h.732a1.1,1.1,0,0,0,0-2.2h-.732A1.1,1.1,0,0,0,108.177,27.852Z" transform="translate(-50.902 -22.834)" fill="#fff"/>
    <path id="Path_765" data-name="Path 765" d="M142.068,28.95a1.1,1.1,0,0,0,0-2.2h-.732a1.1,1.1,0,0,0,0,2.2Z" transform="translate(-78.266 -22.834)" fill="#fff"/>
    <path id="Path_766" data-name="Path 766" d="M102.257,439.676a1.1,1.1,0,0,0,0,2.2h4.727a1.1,1.1,0,0,0,0-2.2Z" transform="translate(-44.911 -375.27)" fill="#fff"/>
    <path id="Path_767" data-name="Path 767" d="M167.86,439.676a1.1,1.1,0,0,0,0,2.2h4.727a1.1,1.1,0,0,0,0-2.2Z" transform="translate(-100.904 -375.27)" fill="#fff"/>
    <path id="Path_768" data-name="Path 768" d="M233.464,441.873h4.727a1.1,1.1,0,0,0,0-2.2h-4.727a1.1,1.1,0,1,0,0,2.2Z" transform="translate(-156.898 -375.27)" fill="#fff"/>
    <path id="Path_769" data-name="Path 769" d="M299.067,441.873h4.727a1.1,1.1,0,0,0,0-2.2h-4.727a1.1,1.1,0,1,0,0,2.2Z" transform="translate(-212.891 -375.27)" fill="#fff"/>
    <path id="Path_770" data-name="Path 770" d="M364.671,439.676a1.1,1.1,0,0,0,0,2.2H369.4a1.1,1.1,0,0,0,0-2.2Z" transform="translate(-268.886 -375.27)" fill="#fff"/>
    <path id="Path_771" data-name="Path 771" d="M106.79,0H61.321a1.1,1.1,0,0,0,0,2.2H106.79a.332.332,0,0,1,.331.331V7.838H50.736V2.528a.332.332,0,0,1,.331-.331h5.861a1.1,1.1,0,0,0,0-2.2H51.067a2.531,2.531,0,0,0-2.528,2.528V72.747A2.256,2.256,0,0,0,50.792,75H82.054a1.1,1.1,0,0,0,0-2.2H50.792a.056.056,0,0,1-.056-.056V10.035h56.385V72.747a.056.056,0,0,1-.056.056H86.446a1.1,1.1,0,0,0,0,2.2h20.619a2.256,2.256,0,0,0,2.254-2.253V2.528A2.531,2.531,0,0,0,106.79,0Z" fill="#fff"/>
    <path id="Path_772" data-name="Path 772" d="M146.521,90.585a2.649,2.649,0,0,0-2.639-2.639H103.8a2.649,2.649,0,0,0-2.639,2.639v10.541a2.648,2.648,0,0,0,2.639,2.639h40.086a2.644,2.644,0,0,0,2.639-2.639Zm-43.167.384,16.4,4.886-16.4,4.886Zm4.921-.826h30.642L123.6,94.709ZM123.6,97l15.321,4.566H108.276Zm3.847-1.146,16.88-5.031v10.061Z" transform="translate(-44.91 -75.063)" fill="#fff"/>
    <path id="Path_773" data-name="Path 773" d="M122.575,246.055V223.413a1.858,1.858,0,0,0-1.854-1.854H103.012a1.859,1.859,0,0,0-1.854,1.854v22.642a1.859,1.859,0,0,0,1.854,1.854h17.709A1.859,1.859,0,0,0,122.575,246.055Zm-19.22-20.283,7.134,8.994-7.134,8.943Zm1.206-2.015h14.711L111.9,233Zm7.329,12.776,7.28,9.179h-14.6Zm1.406-1.763,7.081-8.876v17.8Z" transform="translate(-44.911 -189.104)" fill="#fff"/>
    <path id="Path_774" data-name="Path 774" d="M282.914,246.055V223.413a1.858,1.858,0,0,0-1.854-1.854h-6.63a1.1,1.1,0,0,0,0,2.2h5.181L272.235,233l-7.334-9.247h5.136a1.1,1.1,0,0,0,0-2.2h-6.686a1.858,1.858,0,0,0-1.854,1.854v22.642a1.858,1.858,0,0,0,1.854,1.854H281.06A1.859,1.859,0,0,0,282.914,246.055Zm-2.2-20.161v17.8l-7.081-8.927Zm-1.206,19.818h-14.6l7.322-9.179Zm-15.816-2V225.771l7.134,8.995Z" transform="translate(-181.763 -189.104)" fill="#fff"/>
  </g>
</svg>
