<svg xmlns="http://www.w3.org/2000/svg" width="63.242" height="75" viewBox="0 0 63.242 75">
  <g id="easy-to-use" transform="translate(-40.128 0)">
    <path id="Path_775" data-name="Path 775" d="M101.347,89.121a6.861,6.861,0,0,0-3.168-1.808A6.9,6.9,0,0,0,93.188,79a6.9,6.9,0,0,0-3.938-7.959l7.1-7.1a6.905,6.905,0,0,0-9.767-9.765L64.425,76.331l-1.3-5.617A9.112,9.112,0,0,0,47.805,66.32h0a2.2,2.2,0,0,0-.643,1.556l.027,27.335-6.417,6.417a2.2,2.2,0,0,0,0,3.108L54.894,118.86a2.2,2.2,0,0,0,1.554.644H76.9a9.2,9.2,0,0,0,6.546-2.713l17.905-17.905A6.9,6.9,0,0,0,101.347,89.121ZM89.7,83.906a2.51,2.51,0,0,1,3.55,3.55L88.252,92.45A2.51,2.51,0,0,1,84.7,88.9Zm-8.1,1.886a2.51,2.51,0,0,1-3.55-3.55L84.7,75.584a2.51,2.51,0,0,1,3.55,3.55h0l-6.657,6.658Zm-1.261,27.891a4.9,4.9,0,0,1-3.439,1.425H57.359L45.433,103.183l5.508-5.508a2.2,2.2,0,0,0,.644-1.556l-.027-27.23A4.718,4.718,0,0,1,58.846,71.7l2.188,9.481a2.194,2.194,0,0,0,.586,1.057l1.665,1.667a9.583,9.583,0,0,1,0,13.536,2.2,2.2,0,1,0,3.108,3.108,13.983,13.983,0,0,0,0-19.752l-.11-.11L89.7,57.276a2.51,2.51,0,0,1,3.55,3.55L74.937,79.134a6.9,6.9,0,0,0,4.645,11.779,6.887,6.887,0,0,0,6.655,6.658,6.909,6.909,0,0,0,4.124,6.086ZM98.24,95.778h0l-3.329,3.329a2.51,2.51,0,0,1-3.548-3.551l3.329-3.329a2.51,2.51,0,0,1,3.55,3.549Z" transform="translate(0 -44.504)" fill="#fff"/>
    <path id="Path_776" data-name="Path 776" d="M186.925,13.8a2.2,2.2,0,0,0,2.2-2.2V2.186a2.2,2.2,0,0,0-4.4,0V11.6A2.2,2.2,0,0,0,186.925,13.8Z" transform="translate(-123.415 0)" fill="#fff"/>
    <path id="Path_777" data-name="Path 777" d="M107.392,54.227a2.2,2.2,0,0,0,3.108-3.108l-2.354-2.354a2.2,2.2,0,1,0-3.108,3.108Z" transform="translate(-54.851 -41.071)" fill="#fff"/>
    <path id="Path_778" data-name="Path 778" d="M252.746,54.227l2.354-2.354a2.2,2.2,0,0,0-3.108-3.108l-2.354,2.354a2.2,2.2,0,1,0,3.108,3.108Z" transform="translate(-178.267 -41.071)" fill="#fff"/>
  </g>
</svg>
