<svg xmlns="http://www.w3.org/2000/svg" width="514.861" height="470" viewBox="0 0 514.861 470">
  <g id="undraw_mobile_ux_re_59hr" transform="translate(0 0)">
    <path id="Path_2389" data-name="Path 2389" d="M791.633,223.475l-2.307-.775L810.5,159.5a38.578,38.578,0,0,0-24.325-48.835h0L652.264,65.8a38.578,38.578,0,0,0-48.835,24.325v0h0L487.274,436.877A38.578,38.578,0,0,0,511.6,485.712h0L645.508,530.57a38.578,38.578,0,0,0,48.833-24.326h0l79.912-238.551,2.307.773Z" transform="translate(-297.649 -63.795)" fill="#3f3d56"/>
    <path id="Path_2390" data-name="Path 2390" d="M791.334,127.3l-17.479-5.855A13.688,13.688,0,0,1,755.848,135.3l-76.713-25.7A13.688,13.688,0,0,1,673.111,87.7l-16.326-5.469a28.811,28.811,0,0,0-36.47,18.167L504.327,446.635a28.811,28.811,0,0,0,18.167,36.47h0l134.553,45.074a28.811,28.811,0,0,0,36.47-18.167h0L809.5,163.774a28.81,28.81,0,0,0-18.168-36.47Z" transform="translate(-304.525 -70.426)" fill="#fff"/>
    <path id="Path_2391" data-name="Path 2391" d="M828.044,290.784l-143.593-48.1a2.808,2.808,0,0,1-1.768-3.55l11.932-35.621a2.808,2.808,0,0,1,3.55-1.768l143.594,48.1a2.808,2.808,0,0,1,1.768,3.55l-11.932,35.62a2.807,2.807,0,0,1-3.55,1.768ZM697.808,202.807a1.684,1.684,0,0,0-2.13,1.061l-11.932,35.62a1.684,1.684,0,0,0,1.061,2.13l143.594,48.1a1.684,1.684,0,0,0,2.13-1.061l11.934-35.618a1.684,1.684,0,0,0-1.061-2.13Z" transform="translate(-374.884 -117.747)" fill="#3f3d56"/>
    <path id="Path_2392" data-name="Path 2392" d="M750.456,502.9l-143.594-48.1a2.808,2.808,0,0,1-1.768-3.55l22.087-65.932a2.808,2.808,0,0,1,3.55-1.768l143.594,48.1a2.808,2.808,0,0,1,1.768,3.55l-22.088,65.934A2.808,2.808,0,0,1,750.456,502.9ZM630.375,384.606a1.684,1.684,0,0,0-2.13,1.061L606.158,451.6a1.684,1.684,0,0,0,1.061,2.13l143.594,48.1a1.684,1.684,0,0,0,2.13-1.061l22.088-65.934a1.684,1.684,0,0,0-1.061-2.13Z" transform="translate(-344.507 -188.924)" fill="#3f3d56"/>
    <path id="Path_2393" data-name="Path 2393" d="M847.173,398.29l-63.817-21.382a2.808,2.808,0,0,1-1.768-3.55l11.932-35.62a2.808,2.808,0,0,1,3.55-1.768l63.819,21.381a2.808,2.808,0,0,1,1.768,3.55l-11.932,35.62a2.808,2.808,0,0,1-3.552,1.769Zm-50.46-61.253a1.684,1.684,0,0,0-2.13,1.061l-11.932,35.62a1.684,1.684,0,0,0,1.061,2.13l63.819,21.379a1.684,1.684,0,0,0,2.13-1.061l11.932-35.62a1.684,1.684,0,0,0-1.061-2.13Z" transform="translate(-413.606 -170.299)" fill="#e6e6e6"/>
    <path id="Path_2394" data-name="Path 2394" d="M623.252,617.42l-63.817-21.379a2.808,2.808,0,0,1-1.768-3.55l22.265-66.466a2.807,2.807,0,0,1,3.55-1.768L647.3,545.636a2.808,2.808,0,0,1,1.768,3.55L626.8,615.652a2.808,2.808,0,0,1-3.55,1.768Zm-40.129-92.1a1.684,1.684,0,0,0-2.13,1.061l-22.266,66.466a1.684,1.684,0,0,0,1.061,2.13l63.82,21.379a1.684,1.684,0,0,0,2.13-1.061L648,548.83a1.684,1.684,0,0,0-1.061-2.13Z" transform="translate(-325.938 -244.016)" fill="#e6e6e6"/>
    <path id="Path_2395" data-name="Path 2395" d="M752.606,660.753l-63.82-21.379a2.808,2.808,0,0,1-1.768-3.55l22.265-66.466a2.808,2.808,0,0,1,3.55-1.768l63.82,21.379a2.808,2.808,0,0,1,1.768,3.55l-22.265,66.465A2.808,2.808,0,0,1,752.606,660.753Zm-40.129-92.1a1.684,1.684,0,0,0-2.13,1.061L688.081,636.18a1.684,1.684,0,0,0,1.061,2.13l63.82,21.38a1.684,1.684,0,0,0,2.13-1.061l22.265-66.466a1.684,1.684,0,0,0-1.061-2.13Z" transform="translate(-376.581 -260.981)" fill="#e6e6e6"/>
    <circle id="Ellipse_477" data-name="Ellipse 477" cx="11.424" cy="11.424" r="11.424" transform="translate(288.225 213.668)" fill="#c12a21"/>
    <path id="Path_2396" data-name="Path 2396" d="M712.851,435.557a1.9,1.9,0,0,0-1.21,3.611l85.108,28.51a1.9,1.9,0,0,0,1.21-3.611h0Z" transform="translate(-385.77 -209.306)" fill="#e6e6e6"/>
    <path id="Path_2397" data-name="Path 2397" d="M706.891,453.358a1.9,1.9,0,0,0-1.21,3.611L742.3,469.237a1.9,1.9,0,1,0,1.21-3.611h0Z" transform="translate(-383.436 -216.276)" fill="#e6e6e6"/>
    <path id="Path_2398" data-name="Path 2398" d="M642.167,463.417c-1.373-.46-2.762-.024-3.1.974s.513,2.18,1.886,2.64l117.423,39.336c1.373.46,2.762.024,3.1-.974s-.513-2.18-1.886-2.64Z" transform="translate(-357.838 -220.181)" fill="#e6e6e6"/>
    <path id="Path_2399" data-name="Path 2399" d="M636.2,481.219c-1.373-.46-2.762-.024-3.1.974s.513,2.18,1.886,2.64l117.423,39.336c1.373.46,2.762.024,3.1-.974s-.513-2.18-1.886-2.64Z" transform="translate(-355.503 -227.151)" fill="#e6e6e6"/>
    <circle id="Ellipse_478" data-name="Ellipse 478" cx="11.424" cy="11.424" r="11.424" transform="translate(327.771 99.149)" fill="#c12a21"/>
    <path id="Path_2400" data-name="Path 2400" d="M777.844,247.354a1.9,1.9,0,0,0-1.21,3.611h0l85.108,28.51a1.9,1.9,0,0,0,1.21-3.611h0Z" transform="translate(-411.215 -135.622)" fill="#e6e6e6"/>
    <path id="Path_2401" data-name="Path 2401" d="M771.881,265.156a1.9,1.9,0,0,0-1.209,3.611l36.622,12.268a1.9,1.9,0,1,0,1.21-3.611Z" transform="translate(-408.881 -142.592)" fill="#e6e6e6"/>
    <path id="Path_2402" data-name="Path 2402" d="M721.5,368.824,661.63,348.769l22.264-19.684a3.034,3.034,0,0,1,4.984,1.669L691.4,343.2l16.172-14.3a3.8,3.8,0,0,1,6.239,2.09Zm-57.67-20.5,56.184,18.821-7.3-35.932a2.677,2.677,0,0,0-4.4-1.473l-17.627,15.584-2.913-14.345a1.912,1.912,0,0,0-3.14-1.052Z" transform="translate(-366.698 -167.213)" fill="#e6e6e6"/>
    <path id="Path_2404" data-name="Path 2404" d="M717.821,354.959,654,333.58a2.808,2.808,0,0,1-1.768-3.55l11.932-35.62a2.807,2.807,0,0,1,3.55-1.768l63.82,21.379a2.807,2.807,0,0,1,1.768,3.55l-11.932,35.619A2.808,2.808,0,0,1,717.821,354.959Zm-50.462-61.253a1.684,1.684,0,0,0-2.13,1.061L653.3,330.386a1.684,1.684,0,0,0,1.061,2.13l63.82,21.379a1.684,1.684,0,0,0,2.13-1.061l11.932-35.62a1.684,1.684,0,0,0-1.061-2.13Z" transform="translate(-362.963 -153.335)" fill="#e6e6e6"/>
    <path id="Path_2405" data-name="Path 2405" d="M613.369,554.3a1.9,1.9,0,1,0-1.21,3.611l36.622,12.268a1.9,1.9,0,1,0,1.21-3.611Z" transform="translate(-346.821 -255.795)" fill="#e6e6e6"/>
    <path id="Path_2406" data-name="Path 2406" d="M607.513,571.778a1.9,1.9,0,1,0-1.21,3.611h0l36.623,12.271a1.9,1.9,0,0,0,1.21-3.611Z" transform="translate(-344.528 -262.639)" fill="#e6e6e6"/>
    <path id="Path_2408" data-name="Path 2408" d="M755.7,680.5a1.9,1.9,0,0,0,1.21-3.611l-36.622-12.268a1.9,1.9,0,1,0-1.21,3.611Z" transform="translate(-388.68 -298.986)" fill="#e6e6e6"/>
    <path id="Path_2409" data-name="Path 2409" d="M761.553,663.015a1.9,1.9,0,0,0,1.21-3.611L726.14,647.136a1.9,1.9,0,1,0-1.21,3.611Z" transform="translate(-390.972 -292.142)" fill="#e6e6e6"/>
    <path id="Path_2409-2" data-name="Path 2409" d="M855.553,383.015a1.9,1.9,0,1,0,1.21-3.611L820.14,367.136a1.9,1.9,0,0,0-1.21,3.611Z" transform="translate(-427.775 -182.519)" fill="#e6e6e6"/>
    <path id="Path_2409-3" data-name="Path 2409" d="M850.553,397.015a1.9,1.9,0,1,0,1.21-3.611L815.14,381.136a1.9,1.9,0,1,0-1.21,3.611Z" transform="translate(-425.817 -188)" fill="#e6e6e6"/>
    <g id="Group_161" data-name="Group 161" transform="translate(61.7 138.049)">
      <circle id="Ellipse_476" data-name="Ellipse 476" cx="19.368" cy="19.368" r="19.368" transform="translate(36.972 11.254)" fill="#9f616a"/>
      <path id="Path_2387" data-name="Path 2387" d="M344.893,323.687a24.037,24.037,0,0,1,4.559.63,11.54,11.54,0,0,0,12.334-8.6,6.6,6.6,0,0,1,.631-2.055c.84-1.371,2.752-1.632,4.328-1.317s3.07,1.053,4.676,1.137a7.159,7.159,0,0,0,6.179-3.5,11.858,11.858,0,0,0,1.516-7.162l-1.188,1.247a6.035,6.035,0,0,1-.538-3.28,3.806,3.806,0,0,0-3.605.922c-1.048.111-.257-1.943-1.034-2.653a1.8,1.8,0,0,0-1.267-.237c-2.229.021-4.032-1.683-5.788-3.055a24.6,24.6,0,0,0-10.387-4.738,13.687,13.687,0,0,0-7.579.365,16.191,16.191,0,0,0-5.119,3.631c-3.737,3.59-7.046,7.815-8.6,12.76a21.479,21.479,0,0,0-.1,12.456c.626,2.114,2.514,9.354,5.278,9.523C342.655,329.974,340.571,323.945,344.893,323.687Z" transform="translate(-299.748 -290.668)" fill="#2f2e41"/>
      <path id="Path_111" data-name="Path 111" d="M299.393,537.461a8.908,8.908,0,0,0,1.311-13.6l3.456-77.136L286.566,448.7l1.022,75.452a8.957,8.957,0,0,0,11.8,13.308Z" transform="translate(-281.068 -351.768)" fill="#a0616a"/>
      <path id="Path_112" data-name="Path 112" d="M361.191,785.576l10.013,1.76,9.9-37.787-13.12-2.6Z" transform="translate(-310.772 -469.309)" fill="#a0616a"/>
      <path id="Path_113" data-name="Path 113" d="M386.332,822.8l-31.473-5.56,2.148-12.16L376.32,808.5A12.348,12.348,0,0,1,386.332,822.8Z" transform="translate(-308.293 -492.069)" fill="#2f2e41"/>
      <path id="Path_114" data-name="Path 114" d="M316.023,793.435h10.166l4.836-39.214h-15Z" transform="translate(-293.087 -472.156)" fill="#a0616a"/>
      <path id="Path_115" data-name="Path 115" d="M344.38,826.237H312.428V813.892h19.607A12.345,12.345,0,0,1,344.38,826.237Z" transform="translate(-291.68 -495.518)" fill="#2f2e41"/>
      <path id="Path_116" data-name="Path 116" d="M357.062,710.45a3.928,3.928,0,0,1-.475-.028l-11.967-.985a4.047,4.047,0,0,1-3.547-4.492q.012-.1.029-.2l11.883-58.613-7.466-39.369a1.349,1.349,0,0,0-2.669.133L331.854,706.928a4.083,4.083,0,0,1-4.32,3.68l-11.273-.42a4.053,4.053,0,0,1-3.762-3.84l.9-120.88,58.448-7.305,4.083,63.057-.016.067-14.92,66.071A4.051,4.051,0,0,1,357.062,710.45Z" transform="translate(-291.708 -403.226)" fill="#2f2e41"/>
      <path id="Path_117" data-name="Path 117" d="M343.739,515.989a16.677,16.677,0,0,1-9.006-2.576c-9.866-6.166-21.072-3.715-26.874-1.7a4.047,4.047,0,0,1-3.5-.4,3.989,3.989,0,0,1-1.844-2.945l-10.548-94.228a33.015,33.015,0,0,1,22.612-35.292h0q.838-.263,1.7-.5a32.813,32.813,0,0,1,27.342,4.746,33.34,33.34,0,0,1,14.239,24.339l8.884,94.857a3.987,3.987,0,0,1-1.27,3.323C362.364,508.493,353.328,515.988,343.739,515.989Z" transform="translate(-283.587 -324.548)" fill="#c12a21"/>
      <path id="Path_118" data-name="Path 118" d="M306.357,443.19l-23.8-2.617a4.741,4.741,0,0,1-4.068-5.916l6.059-23.092a13.168,13.168,0,1,1,26.185,2.806q-.008.075-.017.149l.9,23.779a4.741,4.741,0,0,1-5.256,4.89Z" transform="translate(-278.331 -333.395)" fill="#c12a21"/>
      <path id="Path_119" data-name="Path 119" d="M399.754,532.088a8.908,8.908,0,0,0-.337-13.656l-5.865-76.99-17.239,3.881,10.12,74.976a8.957,8.957,0,0,0,13.322,11.789Z" transform="translate(-316.692 -349.698)" fill="#a0616a"/>
      <path id="Path_120" data-name="Path 120" d="M364.478,436.081a4.736,4.736,0,0,1-1.508-3.651l.9-23.779a13.168,13.168,0,1,1,26.169-2.955l6.059,23.092a4.741,4.741,0,0,1-4.068,5.916l-23.8,2.616a4.736,4.736,0,0,1-3.748-1.242Z" transform="translate(-311.467 -331.126)" fill="#c12a21"/>
    </g>
    <rect id="Rectangle_256" data-name="Rectangle 256" width="449.197" height="1.217" transform="translate(0 468.783)" fill="#cacaca"/>
  </g>
</svg>
