<svg xmlns="http://www.w3.org/2000/svg" width="618.656" height="309" viewBox="0 0 618.656 309">
  <g id="undraw_design_components_9vy6" transform="translate(0 0)">
    <path id="Path_657" data-name="Path 657" d="M240.713,205.26a130.031,130.031,0,0,0-49.041,9.512c-.627.257-1.257.515-1.886.779A130.537,130.537,0,0,0,110,335.973V478.6a5.688,5.688,0,0,0,5.682,5.681l.113.01C225.3,504.183,331.76,514.26,432.3,514.26q2.261,0,4.518-.007c98.83-.3,195.062-10.378,286.023-29.953l.133-.014a5.688,5.688,0,0,0,5.681-5.682V210.941a5.688,5.688,0,0,0-5.681-5.682Z" transform="translate(-110 -205.26)" fill="#c12a21"/>
    <path id="Path_40" data-name="Path 40" d="M853.606,385.452a3.754,3.754,0,1,0,0,7.508h94.118a3.754,3.754,0,0,0,.123-7.507H853.606Z" transform="translate(-382.797 -271.7)" fill="#3f3d56"/>
    <path id="Path_658" data-name="Path 658" d="M1035.545,383.669a.738.738,0,0,0,0,1.045l3.171,3.171H1030.9a.739.739,0,1,0,0,1.477h7.822l-3.171,3.171a.739.739,0,1,0,1.045,1.045l4.432-4.432a.739.739,0,0,0,0-1.045l-4.432-4.432a.738.738,0,0,0-1.049,0Z" transform="translate(-449.28 -270.962)" fill="#fff"/>
    <path id="Path_659" data-name="Path 659" d="M818.6,383.671a.738.738,0,0,1,0,1.045l-3.171,3.171h7.819a.739.739,0,0,1,0,1.477h-7.819l3.171,3.171a.739.739,0,1,1-1.044,1.045l-4.432-4.432a.738.738,0,0,1,0-1.045l4.432-4.432a.738.738,0,0,1,1.044,0Z" transform="translate(-369.176 -270.964)" fill="#fff"/>
    <g id="Group_121" data-name="Group 121" transform="translate(470.576 27.776)" opacity="0.4">
      <circle id="Ellipse_169" data-name="Ellipse 169" cx="4.034" cy="4.034" r="4.034" fill="#fff"/>
      <circle id="Ellipse_170" data-name="Ellipse 170" cx="4.034" cy="4.034" r="4.034" transform="translate(16.808)" fill="#fff"/>
      <circle id="Ellipse_171" data-name="Ellipse 171" cx="4.034" cy="4.034" r="4.034" transform="translate(33.615)" fill="#fff"/>
      <circle id="Ellipse_172" data-name="Ellipse 172" cx="4.034" cy="4.034" r="4.034" transform="translate(50.423)" fill="#fff"/>
      <circle id="Ellipse_173" data-name="Ellipse 173" cx="4.034" cy="4.034" r="4.034" transform="translate(67.23)" fill="#fff"/>
      <circle id="Ellipse_174" data-name="Ellipse 174" cx="4.034" cy="4.034" r="4.034" transform="translate(84.038)" fill="#fff"/>
      <circle id="Ellipse_175" data-name="Ellipse 175" cx="4.034" cy="4.034" r="4.034" transform="translate(100.845)" fill="#fff"/>
      <circle id="Ellipse_176" data-name="Ellipse 176" cx="4.034" cy="4.034" r="4.034" transform="translate(0 12.774)" fill="#fff"/>
      <circle id="Ellipse_177" data-name="Ellipse 177" cx="4.034" cy="4.034" r="4.034" transform="translate(16.808 12.774)" fill="#fff"/>
      <circle id="Ellipse_178" data-name="Ellipse 178" cx="4.034" cy="4.034" r="4.034" transform="translate(33.615 12.774)" fill="#fff"/>
      <circle id="Ellipse_179" data-name="Ellipse 179" cx="4.034" cy="4.034" r="4.034" transform="translate(50.423 12.774)" fill="#fff"/>
      <circle id="Ellipse_180" data-name="Ellipse 180" cx="4.034" cy="4.034" r="4.034" transform="translate(67.23 12.774)" fill="#fff"/>
      <circle id="Ellipse_181" data-name="Ellipse 181" cx="4.034" cy="4.034" r="4.034" transform="translate(84.038 12.774)" fill="#fff"/>
      <circle id="Ellipse_182" data-name="Ellipse 182" cx="4.034" cy="4.034" r="4.034" transform="translate(100.845 12.774)" fill="#fff"/>
      <circle id="Ellipse_183" data-name="Ellipse 183" cx="4.034" cy="4.034" r="4.034" transform="translate(0 25.548)" fill="#fff"/>
      <circle id="Ellipse_184" data-name="Ellipse 184" cx="4.034" cy="4.034" r="4.034" transform="translate(16.808 25.548)" fill="#fff"/>
      <circle id="Ellipse_185" data-name="Ellipse 185" cx="4.034" cy="4.034" r="4.034" transform="translate(33.615 25.548)" fill="#fff"/>
      <circle id="Ellipse_186" data-name="Ellipse 186" cx="4.034" cy="4.034" r="4.034" transform="translate(50.423 25.548)" fill="#fff"/>
      <circle id="Ellipse_187" data-name="Ellipse 187" cx="4.034" cy="4.034" r="4.034" transform="translate(67.23 25.548)" fill="#fff"/>
      <circle id="Ellipse_188" data-name="Ellipse 188" cx="4.034" cy="4.034" r="4.034" transform="translate(84.038 25.548)" fill="#fff"/>
      <circle id="Ellipse_189" data-name="Ellipse 189" cx="4.034" cy="4.034" r="4.034" transform="translate(100.845 25.548)" fill="#fff"/>
      <circle id="Ellipse_190" data-name="Ellipse 190" cx="4.034" cy="4.034" r="4.034" transform="translate(0 38.321)" fill="#fff"/>
      <circle id="Ellipse_191" data-name="Ellipse 191" cx="4.034" cy="4.034" r="4.034" transform="translate(16.808 38.321)" fill="#fff"/>
      <circle id="Ellipse_192" data-name="Ellipse 192" cx="4.034" cy="4.034" r="4.034" transform="translate(0 51.095)" fill="#fff"/>
      <circle id="Ellipse_193" data-name="Ellipse 193" cx="4.034" cy="4.034" r="4.034" transform="translate(16.808 51.095)" fill="#fff"/>
      <circle id="Ellipse_194" data-name="Ellipse 194" cx="4.034" cy="4.034" r="4.034" transform="translate(33.615 51.095)" fill="#fff"/>
      <circle id="Ellipse_195" data-name="Ellipse 195" cx="4.034" cy="4.034" r="4.034" transform="translate(33.615 38.321)" fill="#fff"/>
      <circle id="Ellipse_196" data-name="Ellipse 196" cx="4.034" cy="4.034" r="4.034" transform="translate(50.423 38.321)" fill="#fff"/>
      <circle id="Ellipse_197" data-name="Ellipse 197" cx="4.034" cy="4.034" r="4.034" transform="translate(67.23 38.321)" fill="#fff"/>
      <circle id="Ellipse_198" data-name="Ellipse 198" cx="4.034" cy="4.034" r="4.034" transform="translate(84.038 38.321)" fill="#fff"/>
      <circle id="Ellipse_199" data-name="Ellipse 199" cx="4.034" cy="4.034" r="4.034" transform="translate(100.845 38.321)" fill="#fff"/>
    </g>
    <path id="Path_660" data-name="Path 660" d="M757.151,554.708a22.267,22.267,0,1,1,22.267-22.267A22.267,22.267,0,0,1,757.151,554.708Zm0-43.271a21,21,0,1,0,21,21,21,21,0,0,0-21-21Z" transform="translate(-340.407 -317.687)" fill="#3f3d56"/>
    <path id="Path_661" data-name="Path 661" d="M772.462,537.079h-6.4v-6.4a2.134,2.134,0,1,0-4.268,0v6.4h-6.4a2.134,2.134,0,0,0,0,4.268h6.4v6.4a2.134,2.134,0,0,0,4.268,0v-6.4h6.4a2.134,2.134,0,1,0,0-4.268Z" transform="translate(-347.179 -324.46)" fill="#fff"/>
    <g id="Group_122" data-name="Group 122" transform="translate(30.933 154.124)" opacity="0.4">
      <circle id="Ellipse_200" data-name="Ellipse 200" cx="3.172" cy="3.172" r="3.172" transform="translate(0 79.288)" fill="#fff"/>
      <circle id="Ellipse_201" data-name="Ellipse 201" cx="3.172" cy="3.172" r="3.172" transform="translate(0 66.073)" fill="#fff"/>
      <circle id="Ellipse_202" data-name="Ellipse 202" cx="3.172" cy="3.172" r="3.172" transform="translate(0 52.858)" fill="#fff"/>
      <circle id="Ellipse_203" data-name="Ellipse 203" cx="3.172" cy="3.172" r="3.172" transform="translate(0 39.644)" fill="#fff"/>
      <circle id="Ellipse_204" data-name="Ellipse 204" cx="3.172" cy="3.172" r="3.172" transform="translate(0 26.429)" fill="#fff"/>
      <circle id="Ellipse_205" data-name="Ellipse 205" cx="3.172" cy="3.172" r="3.172" transform="translate(0 13.215)" fill="#fff"/>
      <circle id="Ellipse_206" data-name="Ellipse 206" cx="3.172" cy="3.172" r="3.172" fill="#fff"/>
      <circle id="Ellipse_207" data-name="Ellipse 207" cx="3.172" cy="3.172" r="3.172" transform="translate(10.043 79.288)" fill="#fff"/>
      <circle id="Ellipse_208" data-name="Ellipse 208" cx="3.172" cy="3.172" r="3.172" transform="translate(10.043 66.073)" fill="#fff"/>
      <circle id="Ellipse_209" data-name="Ellipse 209" cx="3.172" cy="3.172" r="3.172" transform="translate(10.043 52.858)" fill="#fff"/>
      <circle id="Ellipse_210" data-name="Ellipse 210" cx="3.172" cy="3.172" r="3.172" transform="translate(10.043 39.644)" fill="#fff"/>
      <circle id="Ellipse_211" data-name="Ellipse 211" cx="3.172" cy="3.172" r="3.172" transform="translate(10.043 26.429)" fill="#fff"/>
      <circle id="Ellipse_212" data-name="Ellipse 212" cx="3.172" cy="3.172" r="3.172" transform="translate(10.043 13.215)" fill="#fff"/>
      <circle id="Ellipse_213" data-name="Ellipse 213" cx="3.172" cy="3.172" r="3.172" transform="translate(10.043)" fill="#fff"/>
      <circle id="Ellipse_214" data-name="Ellipse 214" cx="3.172" cy="3.172" r="3.172" transform="translate(20.086 79.288)" fill="#fff"/>
      <circle id="Ellipse_215" data-name="Ellipse 215" cx="3.172" cy="3.172" r="3.172" transform="translate(20.086 66.073)" fill="#fff"/>
      <circle id="Ellipse_216" data-name="Ellipse 216" cx="3.172" cy="3.172" r="3.172" transform="translate(20.086 52.858)" fill="#fff"/>
      <circle id="Ellipse_217" data-name="Ellipse 217" cx="3.172" cy="3.172" r="3.172" transform="translate(20.086 39.644)" fill="#fff"/>
      <circle id="Ellipse_218" data-name="Ellipse 218" cx="3.172" cy="3.172" r="3.172" transform="translate(20.086 26.429)" fill="#fff"/>
      <circle id="Ellipse_219" data-name="Ellipse 219" cx="3.172" cy="3.172" r="3.172" transform="translate(20.086 13.215)" fill="#fff"/>
      <circle id="Ellipse_220" data-name="Ellipse 220" cx="3.172" cy="3.172" r="3.172" transform="translate(20.086)" fill="#fff"/>
      <circle id="Ellipse_221" data-name="Ellipse 221" cx="3.172" cy="3.172" r="3.172" transform="translate(30.129 79.288)" fill="#fff"/>
      <circle id="Ellipse_222" data-name="Ellipse 222" cx="3.172" cy="3.172" r="3.172" transform="translate(30.129 66.073)" fill="#fff"/>
      <circle id="Ellipse_223" data-name="Ellipse 223" cx="3.172" cy="3.172" r="3.172" transform="translate(40.172 79.288)" fill="#fff"/>
      <circle id="Ellipse_224" data-name="Ellipse 224" cx="3.172" cy="3.172" r="3.172" transform="translate(40.172 66.073)" fill="#fff"/>
      <circle id="Ellipse_225" data-name="Ellipse 225" cx="3.172" cy="3.172" r="3.172" transform="translate(40.172 52.858)" fill="#fff"/>
      <circle id="Ellipse_226" data-name="Ellipse 226" cx="3.172" cy="3.172" r="3.172" transform="translate(30.129 52.858)" fill="#fff"/>
      <circle id="Ellipse_227" data-name="Ellipse 227" cx="3.172" cy="3.172" r="3.172" transform="translate(30.129 39.644)" fill="#fff"/>
      <circle id="Ellipse_228" data-name="Ellipse 228" cx="3.172" cy="3.172" r="3.172" transform="translate(30.129 26.429)" fill="#fff"/>
      <circle id="Ellipse_229" data-name="Ellipse 229" cx="3.172" cy="3.172" r="3.172" transform="translate(30.129 13.215)" fill="#fff"/>
      <circle id="Ellipse_230" data-name="Ellipse 230" cx="3.172" cy="3.172" r="3.172" transform="translate(30.129)" fill="#fff"/>
    </g>
    <path id="Path_662" data-name="Path 662" d="M482.072,238.262H271.386a3.907,3.907,0,0,0-3.9,3.9V422.322a3.907,3.907,0,0,0,3.9,3.9H482.072a3.907,3.907,0,0,0,3.9-3.9V242.165A3.907,3.907,0,0,0,482.072,238.262Zm2.339,184.06a2.347,2.347,0,0,1-2.339,2.346H271.386a2.343,2.343,0,0,1-2.339-2.346V242.165a2.342,2.342,0,0,1,2.339-2.346H482.072a2.347,2.347,0,0,1,2.339,2.346Z" transform="translate(-168.067 -217.428)" fill="#3f3d56"/>
    <path id="Path_663" data-name="Path 663" d="M332.137,475.983c0,.278-.007.555-.022.826a15.892,15.892,0,0,1-31.741,0c-.015-.27-.022-.548-.022-.826a15.893,15.893,0,0,1,31.785,0Z" transform="translate(-180.186 -299.221)" fill="#fff"/>
    <path id="Path_664" data-name="Path 664" d="M506.991,468.479H382.116a2.649,2.649,0,0,0,0,5.3H506.991a2.649,2.649,0,0,0,0-5.3Z" transform="translate(-209.357 -302.314)" fill="#3f3d56"/>
    <path id="Path_665" data-name="Path 665" d="M435.85,493.66H382.118a2.646,2.646,0,0,0,0,5.292h53.733a2.646,2.646,0,0,0,0-5.292Z" transform="translate(-209.359 -311.598)" fill="#fff"/>
    <path id="Path_666" data-name="Path 666" d="M560.49,378.533H349.806a5.4,5.4,0,0,1-5.4-5.4V280.677a5.4,5.4,0,0,1,5.4-5.4H560.49a5.4,5.4,0,0,1,5.4,5.4v92.459A5.4,5.4,0,0,1,560.49,378.533ZM349.806,277.174a3.507,3.507,0,0,0-3.5,3.5v92.459a3.507,3.507,0,0,0,3.5,3.5H560.49a3.507,3.507,0,0,0,3.5-3.5V280.677a3.507,3.507,0,0,0-3.5-3.5Z" transform="translate(-196.431 -231.077)" fill="#fff"/>
    <path id="Path_667" data-name="Path 667" d="M419.377,328.7a2.649,2.649,0,0,0,0,5.3H544.249a2.649,2.649,0,0,0,0-5.3Z" transform="translate(-223.096 -250.774)" fill="#fff"/>
    <path id="Path_668" data-name="Path 668" d="M419.377,353.012a2.649,2.649,0,0,0,0,5.3H544.249a2.649,2.649,0,1,0,0-5.3Z" transform="translate(-223.096 -259.739)" fill="#fff"/>
    <path id="Path_669" data-name="Path 669" d="M419.377,377.03a2.649,2.649,0,0,0,0,5.3H473.11a2.649,2.649,0,1,0,0-5.3Z" transform="translate(-223.096 -268.595)" fill="#fff"/>
    <path id="Path_670" data-name="Path 670" d="M726.819,481.959l-21.16-29.864,6.85,1.427a.948.948,0,1,0,.387-1.856l-10.208-2.125-1.378,10.334a.948.948,0,0,0,1.879.25l.924-6.94,21.162,29.867a.947.947,0,0,0,1.545-1.095Z" transform="translate(-328.024 -295.331)" fill="#fff"/>
    <path id="Path_671" data-name="Path 671" d="M470.189,613.535H319.782A2.789,2.789,0,0,1,317,610.75V573.44a2.789,2.789,0,0,1,2.785-2.785H470.189a2.789,2.789,0,0,1,2.785,2.785v37.31A2.788,2.788,0,0,1,470.189,613.535ZM319.782,571.769a1.673,1.673,0,0,0-1.671,1.671v37.31a1.673,1.673,0,0,0,1.671,1.671H470.189a1.673,1.673,0,0,0,1.671-1.671V573.44a1.673,1.673,0,0,0-1.671-1.671Z" transform="translate(-186.324 -339.988)" fill="#3f3d56"/>
    <circle id="Ellipse_231" data-name="Ellipse 231" cx="11.346" cy="11.346" r="11.346" transform="translate(145.483 239.33)" fill="#fff"/>
    <path id="Path_672" data-name="Path 672" d="M398.834,590.368a1.891,1.891,0,1,0,0,3.782H487.98a1.891,1.891,0,1,0,0-3.782Z" transform="translate(-215.801 -347.256)" fill="#fff"/>
    <path id="Path_673" data-name="Path 673" d="M398.834,608.341a1.891,1.891,0,0,0,0,3.782h38.36a1.891,1.891,0,1,0,0-3.782Z" transform="translate(-215.801 -353.883)" fill="#fff"/>
    <path id="Path_674" data-name="Path 674" d="M872.4,428.016h66.848a2.789,2.789,0,0,1,2.786,2.785V500.42a2.789,2.789,0,0,1-2.786,2.785H872.4a2.789,2.789,0,0,1-2.785-2.785V430.8A2.788,2.788,0,0,1,872.4,428.016Zm66.848,74.076a1.673,1.673,0,0,0,1.671-1.671V430.8a1.673,1.673,0,0,0-1.671-1.671H872.4a1.673,1.673,0,0,0-1.671,1.671V500.42a1.673,1.673,0,0,0,1.671,1.671Z" transform="translate(-390.083 -287.394)" fill="#3f3d56"/>
    <path id="Path_675" data-name="Path 675" d="M933.843,522.171a1.891,1.891,0,1,0,0-3.782h-38.36a1.891,1.891,0,1,0,0,3.782Z" transform="translate(-398.925 -320.716)" fill="#fff"/>
    <path id="Path_676" data-name="Path 676" d="M933.843,504.522a1.891,1.891,0,1,0,0-3.782h-38.36a1.891,1.891,0,1,0,0,3.782Z" transform="translate(-398.925 -314.209)" fill="#fff"/>
    <path id="Path_677" data-name="Path 677" d="M920.018,450.758a11.9,11.9,0,1,1-11.9,11.9A11.9,11.9,0,0,1,920.018,450.758Z" transform="translate(-404.28 -295.78)" fill="#fff"/>
  </g>
</svg>
