<svg id="web-design2" xmlns="http://www.w3.org/2000/svg" width="66.939" height="74" viewBox="0 0 66.939 74">
  <path id="Path_593" data-name="Path 593" d="M85.53,9.624h-.878A6.326,6.326,0,0,0,73.995,2.81L69.435,9.624H30.269a5.845,5.845,0,0,0-5.839,5.839V52.79a5.845,5.845,0,0,0,5.839,5.839H52.947l-1.714,7.2h-3.7A4.376,4.376,0,0,0,43.164,70.2v.913H38.6A1.445,1.445,0,0,0,38.6,74H77.194a1.445,1.445,0,0,0,0-2.891H72.635V70.2a4.376,4.376,0,0,0-4.371-4.371h-3.7l-1.714-7.2H85.53a5.845,5.845,0,0,0,5.839-5.839V15.462A5.845,5.845,0,0,0,85.53,9.624ZM64.822,35.032c-2.26,1.582-6.493-.568-10.536,1.589-.986-5.124-.365-9.944,4.77-11.007a9.2,9.2,0,0,1,1.986-.189L66.27,29.3c.759,2.207.474,4.382-1.449,5.728ZM66.278,19.54l4.091,3.035-3.146,3.836-3.7-2.748ZM76.4,4.418a3.435,3.435,0,1,1,5.511,4.089L72.2,20.338l-4.317-3.2ZM69.744,70.2v.913H46.055V70.2a1.482,1.482,0,0,1,1.481-1.481H68.263A1.482,1.482,0,0,1,69.744,70.2Zm-8.15-4.371H54.2l1.714-7.2H59.88ZM88.478,52.79a2.951,2.951,0,0,1-2.948,2.948H30.269a2.951,2.951,0,0,1-2.948-2.948V46.022h4.13a1.445,1.445,0,0,0,0-2.891H27.32V15.462a2.951,2.951,0,0,1,2.948-2.948H67.5L60.8,22.532a9.875,9.875,0,0,0-7.511,3.173c-2.519,2.94-2.962,7.561-1.315,13.732a1.446,1.446,0,0,0,2.395.672c3.737-3.571,8.391.324,12.56-3.049a7.569,7.569,0,0,0,2.187-8.4L82.36,12.514h3.17a2.951,2.951,0,0,1,2.948,2.948V43.131H43.013a1.445,1.445,0,1,0,0,2.891H88.478Z" transform="translate(-24.43 0)" fill="#fff"/>
  <path id="Path_594" data-name="Path 594" d="M104.2,298.452a1.445,1.445,0,1,0,1.7,1.135A1.444,1.444,0,0,0,104.2,298.452Z" transform="translate(-91.674 -255.293)" fill="#fff"/>
</svg>
