<svg xmlns="http://www.w3.org/2000/svg" xmlns:xlink="http://www.w3.org/1999/xlink" width="510.743" height="268" viewBox="0 0 510.743 268">
  <defs>
    <linearGradient id="linear-gradient" x1="0.5" y1="1" x2="0.5" gradientUnits="objectBoundingBox">
      <stop offset="0" stop-color="gray" stop-opacity="0.251"/>
      <stop offset="0.54" stop-color="gray" stop-opacity="0.122"/>
      <stop offset="1" stop-color="gray" stop-opacity="0.102"/>
    </linearGradient>
    <linearGradient id="linear-gradient-2" x1="0.5" y1="1" x2="0.5" y2="-0.001" xlink:href="#linear-gradient"/>
  </defs>
  <g id="undraw_contact_us_15o2" transform="translate(0 0.359)">
    <g id="Group_65" data-name="Group 65" transform="translate(198.122 18.281)" opacity="0.1">
      <ellipse id="Ellipse_46" data-name="Ellipse 46" cx="5.303" cy="6.943" rx="5.303" ry="6.943" transform="translate(19.987 143.334)" fill="#3f3d56"/>
      <path id="Path_125" data-name="Path 125" d="M529.52,448.179a8.388,8.388,0,0,0,1.109-4.245c0-3.835-2.377-6.943-5.308-6.943S520,440.108,520,443.943a8.387,8.387,0,0,0,1.109,4.245,8.672,8.672,0,0,0,0,8.486,8.673,8.673,0,0,0,0,8.486A8.361,8.361,0,0,0,520,469.405c0,3.831,2.377,6.944,5.3,6.944s5.308-3.113,5.308-6.944a8.36,8.36,0,0,0-1.109-4.245,8.672,8.672,0,0,0,0-8.486,8.672,8.672,0,0,0,0-8.486Z" transform="translate(-500.031 -327.609)" fill="#3f3d56"/>
      <ellipse id="Ellipse_47" data-name="Ellipse 47" cx="5.303" cy="6.943" rx="5.303" ry="6.943" transform="translate(19.987 100.904)" fill="#3f3d56"/>
      <ellipse id="Ellipse_48" data-name="Ellipse 48" cx="5.303" cy="6.943" rx="5.303" ry="6.943" transform="translate(19.987 92.418)" fill="#3f3d56"/>
      <path id="Path_126" data-name="Path 126" d="M482.588,243.554a24.732,24.732,0,0,1-1.976-2.908l13.934-2.288-15.071.112a25.453,25.453,0,0,1-.466-20.131l20.22,10.49-18.64-13.71a25.411,25.411,0,1,1,41.941,28.426,25.416,25.416,0,0,1,2.9,4.632l-18.1,9.423,19.288-6.473a25.411,25.411,0,0,1-4.1,23.86,25.407,25.407,0,1,1-39.937,0,25.407,25.407,0,0,1,0-31.418Z" transform="translate(-477.149 -202.271)" fill="#c12a21"/>
      <path id="Path_127" data-name="Path 127" d="M527.963,324.141a25.289,25.289,0,0,1-5.438,15.709,25.407,25.407,0,1,1-39.937,0C479.181,335.525,527.963,321.289,527.963,324.141Z" transform="translate(-477.149 -267.149)" opacity="0.1"/>
    </g>
    <g id="Group_66" data-name="Group 66" transform="translate(266.425 41.503)" opacity="0.1">
      <ellipse id="Ellipse_49" data-name="Ellipse 49" cx="3.966" cy="5.187" rx="3.966" ry="5.187" transform="translate(14.935 107.022)" fill="#3f3d56"/>
      <path id="Path_128" data-name="Path 128" d="M662.861,435.68a6.259,6.259,0,0,0,.825-3.169c0-2.866-1.776-5.191-3.961-5.191s-3.966,2.33-3.966,5.191a6.213,6.213,0,0,0,.83,3.169,6.478,6.478,0,0,0,0,6.342,6.477,6.477,0,0,0,0,6.342,6.214,6.214,0,0,0-.83,3.169c0,2.866,1.776,5.191,3.966,5.191s3.961-2.33,3.961-5.191a6.259,6.259,0,0,0-.825-3.169,6.523,6.523,0,0,0,0-6.342A6.524,6.524,0,0,0,662.861,435.68Z" transform="translate(-640.829 -345.668)" fill="#3f3d56"/>
      <ellipse id="Ellipse_50" data-name="Ellipse 50" cx="3.966" cy="5.187" rx="3.966" ry="5.187" transform="translate(14.935 75.315)" fill="#3f3d56"/>
      <ellipse id="Ellipse_51" data-name="Ellipse 51" cx="3.966" cy="5.187" rx="3.966" ry="5.187" transform="translate(14.935 68.972)" fill="#3f3d56"/>
      <path id="Path_129" data-name="Path 129" d="M627.784,282.863a18.158,18.158,0,0,1-1.477-2.172l10.415-1.71-11.263.084a19.032,19.032,0,0,1-.364-15.047l15.113,7.843-13.938-10.252a18.99,18.99,0,1,1,31.358,21.25,19.2,19.2,0,0,1,2.167,3.462l-13.514,7.023,14.414-4.837a19,19,0,0,1-3.062,17.829,18.985,18.985,0,1,1-29.824,0,18.985,18.985,0,0,1,0-23.478Z" transform="translate(-623.72 -252.103)" fill="#c12a21"/>
      <path id="Path_130" data-name="Path 130" d="M661.7,342.98a18.905,18.905,0,0,1-4.064,11.739,18.985,18.985,0,1,1-29.824,0C625.259,351.489,661.7,340.85,661.7,342.98Z" transform="translate(-623.73 -300.481)" opacity="0.1"/>
    </g>
    <g id="Group_67" data-name="Group 67" transform="translate(458.337 -0.359)" opacity="0.1">
      <ellipse id="Ellipse_52" data-name="Ellipse 52" cx="5.303" cy="6.943" rx="5.303" ry="6.943" transform="translate(20.345 143.334)" fill="#3f3d56"/>
      <path id="Path_131" data-name="Path 131" d="M1080.3,408.179a8.39,8.39,0,0,1-1.109-4.245c0-3.835,2.377-6.943,5.308-6.943s5.3,3.108,5.3,6.943a8.388,8.388,0,0,1-1.109,4.245,8.671,8.671,0,0,1,0,8.486,8.671,8.671,0,0,1,0,8.486,8.362,8.362,0,0,1,1.109,4.245c0,3.831-2.377,6.943-5.3,6.943s-5.308-3.113-5.308-6.943a8.357,8.357,0,0,1,1.109-4.245,8.671,8.671,0,0,1,0-8.486A8.671,8.671,0,0,1,1080.3,408.179Z" transform="translate(-1058.849 -287.609)" fill="#3f3d56"/>
      <ellipse id="Ellipse_53" data-name="Ellipse 53" cx="5.303" cy="6.943" rx="5.303" ry="6.943" transform="translate(20.345 100.904)" fill="#3f3d56"/>
      <ellipse id="Ellipse_54" data-name="Ellipse 54" cx="5.303" cy="6.943" rx="5.303" ry="6.943" transform="translate(20.345 92.418)" fill="#3f3d56"/>
      <path id="Path_132" data-name="Path 132" d="M1081.041,203.554a24.709,24.709,0,0,0,1.976-2.908l-13.934-2.288,15.07.112a25.454,25.454,0,0,0,.466-20.132l-20.22,10.49,18.64-13.71a25.411,25.411,0,1,0-41.941,28.426,25.4,25.4,0,0,0-2.9,4.632L1056.3,217.6l-19.288-6.473a25.411,25.411,0,0,0,4.1,23.86,25.407,25.407,0,1,0,39.937,0,25.406,25.406,0,0,0,0-31.418Z" transform="translate(-1035.541 -162.271)" fill="#c12a21"/>
      <path id="Path_133" data-name="Path 133" d="M1035.81,284.141a25.292,25.292,0,0,0,5.438,15.709,25.407,25.407,0,1,0,39.937,0C1084.591,295.525,1035.81,281.289,1035.81,284.141Z" transform="translate(-1035.685 -227.149)" opacity="0.1"/>
    </g>
    <g id="Group_68" data-name="Group 68" transform="translate(413.7 38.707)" opacity="0.1">
      <ellipse id="Ellipse_55" data-name="Ellipse 55" cx="3.966" cy="5.187" rx="3.966" ry="5.187" transform="translate(15.124 107.022)" fill="#3f3d56"/>
      <path id="Path_134" data-name="Path 134" d="M973.054,429.68a6.258,6.258,0,0,1-.825-3.169c0-2.866,1.776-5.191,3.961-5.191s3.966,2.33,3.966,5.191a6.209,6.209,0,0,1-.829,3.169,6.477,6.477,0,0,1,0,6.342,6.477,6.477,0,0,1,0,6.342,6.21,6.21,0,0,1,.829,3.169c0,2.866-1.776,5.191-3.966,5.191s-3.961-2.33-3.961-5.191a6.257,6.257,0,0,1,.825-3.169,6.524,6.524,0,0,1,0-6.342,6.524,6.524,0,0,1,0-6.342Z" transform="translate(-957.097 -339.668)" fill="#3f3d56"/>
      <ellipse id="Ellipse_56" data-name="Ellipse 56" cx="3.966" cy="5.187" rx="3.966" ry="5.187" transform="translate(15.124 75.315)" fill="#3f3d56"/>
      <ellipse id="Ellipse_57" data-name="Ellipse 57" cx="3.966" cy="5.187" rx="3.966" ry="5.187" transform="translate(15.124 68.972)" fill="#3f3d56"/>
      <path id="Path_135" data-name="Path 135" d="M973.683,276.863a18.162,18.162,0,0,0,1.477-2.172l-10.415-1.71,11.263.084a19.032,19.032,0,0,0,.364-15.047L961.26,265.86,975.2,255.608a18.99,18.99,0,1,0-31.358,21.25,19.2,19.2,0,0,0-2.167,3.462l13.514,7.023L940.8,282.511a19,19,0,0,0,3.062,17.829,18.985,18.985,0,1,0,29.824,0,18.985,18.985,0,0,0,0-23.478Z" transform="translate(-939.756 -246.103)" fill="#c12a21"/>
      <path id="Path_136" data-name="Path 136" d="M939.789,336.98a18.906,18.906,0,0,0,4.064,11.739,18.985,18.985,0,1,0,29.824,0C976.23,345.489,939.789,334.85,939.789,336.98Z" transform="translate(-939.769 -294.481)" opacity="0.1"/>
    </g>
    <g id="Group_69" data-name="Group 69" transform="translate(3.406 -0.281)" opacity="0.1">
      <ellipse id="Ellipse_58" data-name="Ellipse 58" cx="5.303" cy="6.943" rx="5.303" ry="6.943" transform="translate(19.992 143.256)" fill="#3f3d56"/>
      <path id="Path_137" data-name="Path 137" d="M111.707,408.179a8.388,8.388,0,0,0,1.109-4.245c0-3.835-2.377-6.943-5.3-6.943s-5.3,3.108-5.3,6.943a8.388,8.388,0,0,0,1.1,4.245,8.7,8.7,0,0,0,0,8.486,8.7,8.7,0,0,0,0,8.486,8.355,8.355,0,0,0-1.1,4.245c0,3.831,2.372,6.943,5.3,6.943s5.317-3.1,5.317-6.934a8.36,8.36,0,0,0-1.109-4.245,8.672,8.672,0,0,0,0-8.486,8.672,8.672,0,0,0,0-8.486Z" transform="translate(-82.217 -287.687)" fill="#3f3d56"/>
      <ellipse id="Ellipse_59" data-name="Ellipse 59" cx="5.303" cy="6.943" rx="5.303" ry="6.943" transform="translate(19.992 100.826)" fill="#3f3d56"/>
      <ellipse id="Ellipse_60" data-name="Ellipse 60" cx="5.303" cy="6.943" rx="5.303" ry="6.943" transform="translate(19.992 92.34)" fill="#3f3d56"/>
      <path id="Path_138" data-name="Path 138" d="M64.757,203.644a25.317,25.317,0,0,1-1.976-2.908l13.938-2.288-15.085.135a25.453,25.453,0,0,1-.466-20.131l20.225,10.49-18.64-13.71a25.407,25.407,0,1,1,41.941,28.426,25.415,25.415,0,0,1,2.9,4.632l-18.1,9.4,19.293-6.473a25.439,25.439,0,0,1-4.1,23.86,25.407,25.407,0,1,1-39.937,0,25.407,25.407,0,0,1,0-31.418Z" transform="translate(-59.309 -162.439)" fill="#c12a21"/>
      <path id="Path_139" data-name="Path 139" d="M110.123,284.141a25.29,25.29,0,0,1-5.438,15.709,25.407,25.407,0,1,1-39.937,0C61.341,295.525,110.123,281.289,110.123,284.141Z" transform="translate(-59.309 -227.227)" opacity="0.1"/>
    </g>
    <g id="Group_70" data-name="Group 70" transform="translate(60.991 38.707)" opacity="0.1">
      <ellipse id="Ellipse_61" data-name="Ellipse 61" cx="3.966" cy="5.187" rx="3.966" ry="5.187" transform="translate(14.935 107.022)" fill="#3f3d56"/>
      <path id="Path_140" data-name="Path 140" d="M222.032,429.68a6.258,6.258,0,0,0,.825-3.169c0-2.866-1.771-5.191-3.961-5.191s-3.966,2.33-3.966,5.191a6.258,6.258,0,0,0,.829,3.169,6.477,6.477,0,0,0,0,6.342,6.477,6.477,0,0,0,0,6.342,6.259,6.259,0,0,0-.829,3.169c0,2.866,1.775,5.191,3.966,5.191s3.961-2.33,3.961-5.191a6.258,6.258,0,0,0-.825-3.169,6.524,6.524,0,0,0,0-6.342A6.524,6.524,0,0,0,222.032,429.68Z" transform="translate(-199.994 -339.668)" fill="#3f3d56"/>
      <ellipse id="Ellipse_62" data-name="Ellipse 62" cx="3.966" cy="5.187" rx="3.966" ry="5.187" transform="translate(14.935 75.315)" fill="#3f3d56"/>
      <ellipse id="Ellipse_63" data-name="Ellipse 63" cx="3.966" cy="5.187" rx="3.966" ry="5.187" transform="translate(14.935 68.972)" fill="#3f3d56"/>
      <path id="Path_141" data-name="Path 141" d="M186.944,276.863a18.743,18.743,0,0,1-1.477-2.172l10.415-1.71-11.263.084a19.032,19.032,0,0,1-.363-15.047l15.113,7.843-13.938-10.252a18.99,18.99,0,1,1,31.358,21.25,18.7,18.7,0,0,1,2.167,3.462l-13.514,7.023,14.414-4.837a19,19,0,0,1-3.062,17.829,18.985,18.985,0,1,1-29.824,0,18.985,18.985,0,0,1,0-23.477Z" transform="translate(-182.88 -246.103)" fill="#c12a21"/>
      <path id="Path_142" data-name="Path 142" d="M220.861,336.98a18.906,18.906,0,0,1-4.064,11.739,18.985,18.985,0,1,1-29.824,0C184.41,345.489,220.861,334.85,220.861,336.98Z" transform="translate(-182.89 -294.481)" opacity="0.1"/>
    </g>
    <ellipse id="Ellipse_64" data-name="Ellipse 64" cx="255.372" cy="4.129" rx="255.372" ry="4.129" transform="translate(0 225.481)" fill="#c12a21" opacity="0.1"/>
    <ellipse id="Ellipse_65" data-name="Ellipse 65" cx="255.372" cy="4.129" rx="255.372" ry="4.129" transform="translate(0 259.383)" fill="#c12a21" opacity="0.1"/>
    <ellipse id="Ellipse_66" data-name="Ellipse 66" cx="255.372" cy="4.129" rx="255.372" ry="4.129" transform="translate(0 154.728)" fill="#c12a21" opacity="0.1"/>
    <ellipse id="Ellipse_67" data-name="Ellipse 67" cx="255.372" cy="4.129" rx="255.372" ry="4.129" transform="translate(0 190.102)" fill="#c12a21" opacity="0.1"/>
    <path id="Path_143" data-name="Path 143" d="M831.511,259.992a8.526,8.526,0,0,0-4.939.541,7.293,7.293,0,0,1-5.937,0,8.333,8.333,0,0,0-6.99.135,4.3,4.3,0,0,1-2.008.5c-2.833,0-5.187-2.852-5.676-6.613a5.535,5.535,0,0,0,1.4-1.524,7.953,7.953,0,0,1,14.2-.051,5.443,5.443,0,0,0,4.7,2.582h.075C828.613,255.542,830.565,257.35,831.511,259.992Z" transform="translate(-454.61 -208.75)" fill="#c12a21" opacity="0.1"/>
    <path id="Path_144" data-name="Path 144" d="M840.126,236.121l-4.576,2.9,2.8-5.052a4.521,4.521,0,0,0-2.768-.983H835.5a5.288,5.288,0,0,1-.932-.07L833,233.9l.667-1.212a5.494,5.494,0,0,1-2.717-2.06l-2.8,1.762L829.9,229.2a8.121,8.121,0,0,0-6.217-3.141,8.528,8.528,0,0,0-7.12,4.39,5.317,5.317,0,0,1-4.7,2.535h-.154c-3.188,0-5.769,3.612-5.769,8.067s2.582,8.071,5.769,8.071a4.376,4.376,0,0,0,2.008-.5,8.323,8.323,0,0,1,6.99-.14,7.246,7.246,0,0,0,5.937,0,8.351,8.351,0,0,1,6.925.135,4.333,4.333,0,0,0,1.985.494c3.187,0,5.769-3.616,5.769-8.071A10.221,10.221,0,0,0,840.126,236.121Z" transform="translate(-454.599 -196.693)" fill="#c12a21" opacity="0.1"/>
    <path id="Path_145" data-name="Path 145" d="M422.776,258.485a5.984,5.984,0,0,0-3.462.378,5.089,5.089,0,0,1-4.152,0,5.816,5.816,0,0,0-4.888.1,3.085,3.085,0,0,1-1.4.35c-1.981,0-3.63-1.995-3.975-4.628a3.878,3.878,0,0,0,.993-1.067,5.569,5.569,0,0,1,9.94-.037,3.817,3.817,0,0,0,3.295,1.808h.051C420.744,255.377,422.11,256.645,422.776,258.485Z" transform="translate(-240.446 -209.765)" fill="#c12a21" opacity="0.1"/>
    <path id="Path_146" data-name="Path 146" d="M428.8,241.786l-3.2,2.032,1.943-3.537a3.145,3.145,0,0,0-1.934-.69h-.056a3.49,3.49,0,0,1-.662-.051l-1.086.69.466-.848a3.868,3.868,0,0,1-1.9-1.44l-1.943,1.23,1.23-2.227a5.69,5.69,0,0,0-4.353-2.2,5.96,5.96,0,0,0-4.982,3.076,3.728,3.728,0,0,1-3.295,1.775h-.107c-2.232,0-4.04,2.526-4.04,5.648s1.808,5.648,4.04,5.648a3.03,3.03,0,0,0,1.4-.354,5.825,5.825,0,0,1,4.884-.093,5.005,5.005,0,0,0,4.157.028,5.844,5.844,0,0,1,4.846.093,3.021,3.021,0,0,0,1.4.345c2.228,0,4.036-2.53,4.036-5.648A7.144,7.144,0,0,0,428.8,241.786Z" transform="translate(-240.436 -201.328)" fill="#c12a21" opacity="0.1"/>
    <path id="Path_147" data-name="Path 147" d="M321.59,336.9a5.974,5.974,0,0,1,3.458.378,5.1,5.1,0,0,0,4.157,0,5.834,5.834,0,0,1,4.888.093,3.015,3.015,0,0,0,1.4.354c1.981,0,3.63-2,3.97-4.632a3.8,3.8,0,0,1-.988-1.067,5.574,5.574,0,0,0-9.945-.033,3.817,3.817,0,0,1-3.29,1.808h-.051C323.617,333.806,322.247,335.069,321.59,336.9Z" transform="translate(-195.959 -251.635)" fill="#c12a21" opacity="0.1"/>
    <path id="Path_148" data-name="Path 148" d="M307.683,320.231l3.206,2.032-1.948-3.532a3.164,3.164,0,0,1,1.939-.694h.051a3.974,3.974,0,0,0,.666-.047l1.086.685-.466-.843a3.864,3.864,0,0,0,1.9-1.44l1.943,1.23-1.212-2.232a5.685,5.685,0,0,1,4.353-2.2,5.967,5.967,0,0,1,4.982,3.076,3.728,3.728,0,0,0,3.29,1.776h.112c2.227,0,4.036,2.53,4.036,5.648s-1.808,5.648-4.036,5.648a3.025,3.025,0,0,1-1.4-.349,5.816,5.816,0,0,0-4.888-.1,5.061,5.061,0,0,1-2.088.466,5.126,5.126,0,0,1-2.069-.438,5.835,5.835,0,0,0-4.842.093,3.02,3.02,0,0,1-1.4.345c-2.232,0-4.04-2.526-4.04-5.648a7.2,7.2,0,0,1,.825-3.476Z" transform="translate(-188.092 -243.22)" fill="#c12a21" opacity="0.1"/>
    <path id="Path_149" data-name="Path 149" d="M710.318,596.03c1.216-2.255-.163-5.014-1.748-7.023s-3.523-4.1-3.481-6.659c.061-3.677,3.966-5.853,7.083-7.8a34.628,34.628,0,0,0,6.361-5.126,9.379,9.379,0,0,0,1.952-2.619,10.591,10.591,0,0,0,.587-4.66q-.2-7.871-.778-15.732" transform="translate(-400.745 -367.758)" fill="none" stroke="#3f3d56" stroke-width="4"/>
    <path id="Path_150" data-name="Path 150" d="M737.31,539.58a5.736,5.736,0,0,0-2.866-4.7l-1.286,2.54.042-3.076a5.737,5.737,0,1,0,4.11,5.238Z" transform="translate(-411.828 -361.188)" fill="#c12a21"/>
    <path id="Path_151" data-name="Path 151" d="M716.071,619.646a5.737,5.737,0,0,1-10.83-2.33,5.59,5.59,0,0,1,.373-2.33,5.741,5.741,0,0,1,10.718.06l-3.584,2.917,3.943-.932A5.706,5.706,0,0,1,716.071,619.646Z" transform="translate(-400.822 -402.426)" fill="#c12a21"/>
    <path id="Path_152" data-name="Path 152" d="M715.527,592.126a5.737,5.737,0,0,1-1.818-11.254l-.033,2.363,1.3-2.572h0a5.738,5.738,0,0,1,.536,11.464Z" transform="translate(-403.111 -386.045)" fill="#c12a21"/>
    <path id="Path_153" data-name="Path 153" d="M745.387,572.242a5.736,5.736,0,1,1,2.535-10.718l-1.011,2.8,2.064-2.041a5.737,5.737,0,0,1-3.607,9.959Z" transform="translate(-419.043 -375.429)" fill="#c12a21"/>
    <path id="Path_154" data-name="Path 154" d="M736.526,544.714c-1.323.144-2.61.555-3.942.638a4.266,4.266,0,0,1-3.626-1.268,18.413,18.413,0,0,1-1.062-1.864,4.083,4.083,0,0,0-1.444-1.361,5.737,5.737,0,1,0,10.718,3.812C736.96,544.677,736.741,544.691,736.526,544.714Z" transform="translate(-411.817 -364.794)" opacity="0.1"/>
    <path id="Path_155" data-name="Path 155" d="M745.416,576a5.737,5.737,0,0,1-5.457-8.183,4.245,4.245,0,0,1,1.151,1.156,19.426,19.426,0,0,0,1.137,1.9,4.679,4.679,0,0,0,3.807,1.328c1.384-.07,2.722-.466,4.1-.583.191,0,.382-.028.578-.033A5.737,5.737,0,0,1,745.416,576Z" transform="translate(-419.071 -379.19)" opacity="0.1"/>
    <path id="Path_156" data-name="Path 156" d="M715.529,596.016a5.736,5.736,0,0,1-5.5-8.076,4.665,4.665,0,0,1,1.216,1.165,19.207,19.207,0,0,0,1.244,1.934,5.2,5.2,0,0,0,4.059,1.4c1.463-.06,2.8-.377,4.194-.466A5.746,5.746,0,0,1,715.529,596.016Z" transform="translate(-403.113 -389.934)" opacity="0.1"/>
    <path id="Path_157" data-name="Path 157" d="M716.071,623.83a5.737,5.737,0,0,1-10.83-2.33,5.59,5.59,0,0,1,.373-2.33,5.728,5.728,0,0,1,1.258,1.123c.545.662.9,1.4,1.538,2.036A7.168,7.168,0,0,0,713.158,624a24.067,24.067,0,0,0,2.913-.168Z" transform="translate(-400.822 -406.611)" opacity="0.1"/>
    <path id="Path_158" data-name="Path 158" d="M100.318,524.031c1.216-2.256-.163-5.014-1.748-7.023s-3.523-4.11-3.481-6.659c.061-3.677,3.966-5.853,7.083-7.8a34.627,34.627,0,0,0,6.361-5.126,9.381,9.381,0,0,0,1.953-2.619,10.592,10.592,0,0,0,.587-4.66q-.205-7.871-.778-15.732" transform="translate(-75.009 -329.31)" fill="none" stroke="#3f3d56" stroke-width="4"/>
    <path id="Path_159" data-name="Path 159" d="M127.31,467.58a5.737,5.737,0,0,0-2.866-4.7l-1.286,2.54.042-3.076a5.737,5.737,0,1,0,4.11,5.238Z" transform="translate(-86.092 -322.741)" fill="#c12a21"/>
    <path id="Path_160" data-name="Path 160" d="M106.071,547.646a5.737,5.737,0,0,1-10.83-2.33,5.592,5.592,0,0,1,.373-2.33,5.741,5.741,0,0,1,10.718.061l-3.584,2.917,3.942-.932A5.7,5.7,0,0,1,106.071,547.646Z" transform="translate(-75.086 -363.979)" fill="#c12a21"/>
    <path id="Path_161" data-name="Path 161" d="M105.527,520.126a5.737,5.737,0,0,1-1.817-11.254l-.033,2.363,1.3-2.573h0a5.738,5.738,0,0,1,.536,11.464Z" transform="translate(-77.375 -347.597)" fill="#c12a21"/>
    <path id="Path_162" data-name="Path 162" d="M135.387,500.242a5.737,5.737,0,1,1,2.535-10.718l-1.011,2.8,2.064-2.041a5.737,5.737,0,0,1-3.607,9.959Z" transform="translate(-93.307 -336.981)" fill="#c12a21"/>
    <path id="Path_163" data-name="Path 163" d="M126.526,472.714c-1.323.144-2.61.555-3.942.638a4.266,4.266,0,0,1-3.626-1.267,18.4,18.4,0,0,1-1.062-1.864,4.081,4.081,0,0,0-1.445-1.361,5.737,5.737,0,1,0,10.718,3.812C126.96,472.677,126.741,472.691,126.526,472.714Z" transform="translate(-86.082 -326.346)" opacity="0.1"/>
    <path id="Path_164" data-name="Path 164" d="M135.416,504a5.736,5.736,0,0,1-5.457-8.183,4.246,4.246,0,0,1,1.151,1.156,19.43,19.43,0,0,0,1.137,1.9,4.68,4.68,0,0,0,3.807,1.328c1.384-.07,2.721-.466,4.1-.582.191,0,.382-.028.578-.033A5.736,5.736,0,0,1,135.416,504Z" transform="translate(-93.335 -340.743)" opacity="0.1"/>
    <path id="Path_165" data-name="Path 165" d="M105.529,524.016a5.736,5.736,0,0,1-5.5-8.076,4.662,4.662,0,0,1,1.216,1.165,19.22,19.22,0,0,0,1.244,1.934,5.2,5.2,0,0,0,4.059,1.4c1.463-.06,2.8-.378,4.194-.466A5.746,5.746,0,0,1,105.529,524.016Z" transform="translate(-77.377 -351.487)" opacity="0.1"/>
    <path id="Path_166" data-name="Path 166" d="M106.071,551.83a5.737,5.737,0,0,1-10.83-2.33,5.59,5.59,0,0,1,.373-2.33,5.726,5.726,0,0,1,1.258,1.123c.545.662.9,1.4,1.538,2.036A7.169,7.169,0,0,0,103.158,552,24.116,24.116,0,0,0,106.071,551.83Z" transform="translate(-75.086 -368.163)" opacity="0.1"/>
    <path id="Path_167" data-name="Path 167" d="M500.178,441.671c-1.216-2.251.163-5.01,1.752-7.018s3.518-4.1,3.477-6.659c-.056-3.681-3.961-5.853-7.083-7.8a34.48,34.48,0,0,1-6.356-5.126,9.216,9.216,0,0,1-1.957-2.614,10.74,10.74,0,0,1-.587-4.66q.21-7.871.778-15.732" transform="translate(-285.573 -285.336)" fill="none" stroke="#3f3d56" stroke-width="4"/>
    <path id="Path_168" data-name="Path 168" d="M478.383,385.22a5.732,5.732,0,0,1,2.861-4.7l1.286,2.54-.037-3.076a5.881,5.881,0,0,1,1.887-.228,5.737,5.737,0,1,1-6,5.466Z" transform="translate(-279.682 -278.762)" fill="#c12a21"/>
    <path id="Path_169" data-name="Path 169" d="M499.614,465.233a5.737,5.737,0,1,0-.275-4.618l3.583,2.917-3.942-.932A5.705,5.705,0,0,0,499.614,465.233Z" transform="translate(-290.684 -319.946)" fill="#c12a21"/>
    <path id="Path_170" data-name="Path 170" d="M500.154,437.766a5.737,5.737,0,0,0,1.822-11.254l.028,2.363-1.3-2.572h0a5.737,5.737,0,0,0-6.011,5.448,5.67,5.67,0,0,0,.247,1.957,5.732,5.732,0,0,0,5.215,4.059Z" transform="translate(-288.391 -303.617)" fill="#c12a21"/>
    <path id="Path_171" data-name="Path 171" d="M470.257,417.861a5.737,5.737,0,1,0-2.54-10.718l1.016,2.8-2.088-2a5.689,5.689,0,0,0-1.864,3.961,5.543,5.543,0,0,0,.144,1.58A5.732,5.732,0,0,0,470.257,417.861Z" transform="translate(-272.418 -292.991)" fill="#c12a21"/>
    <path id="Path_172" data-name="Path 172" d="M479.313,390.354c1.323.144,2.61.555,3.938.638a4.284,4.284,0,0,0,3.63-1.268,18.352,18.352,0,0,0,1.058-1.864,4.1,4.1,0,0,1,1.449-1.361,5.737,5.737,0,1,1-10.718,3.807C478.88,390.312,479.094,390.331,479.313,390.354Z" transform="translate(-279.839 -282.367)" opacity="0.1"/>
    <path id="Path_173" data-name="Path 173" d="M470.447,421.623a5.741,5.741,0,0,0,5.457-8.183,4.265,4.265,0,0,0-1.156,1.156,19.461,19.461,0,0,1-1.137,1.9,4.665,4.665,0,0,1-3.8,1.328c-1.384-.07-2.722-.466-4.1-.583-.191,0-.387-.028-.578-.033A5.732,5.732,0,0,0,470.447,421.623Z" transform="translate(-272.609 -296.752)" opacity="0.1"/>
    <path id="Path_174" data-name="Path 174" d="M500.45,441.656a5.732,5.732,0,0,0,5.5-8.076,4.58,4.58,0,0,0-1.212,1.165,19.2,19.2,0,0,1-1.244,1.934,5.2,5.2,0,0,1-4.064,1.4c-1.468-.06-2.8-.377-4.194-.466A5.732,5.732,0,0,0,500.45,441.656Z" transform="translate(-288.687 -307.507)" opacity="0.1"/>
    <path id="Path_175" data-name="Path 175" d="M500.34,469.47a5.737,5.737,0,0,0,10.462-4.66,5.508,5.508,0,0,0-1.258,1.123c-.545.662-.932,1.4-1.538,2.036a7.18,7.18,0,0,1-4.753,1.668A25.139,25.139,0,0,1,500.34,469.47Z" transform="translate(-291.411 -324.184)" opacity="0.1"/>
    <circle id="Ellipse_68" data-name="Ellipse 68" cx="46.582" cy="46.582" r="46.582" transform="translate(316.777 64.22)" fill="#3f3d56"/>
    <path id="Path_176" data-name="Path 176" d="M827.4,388.494a35.288,35.288,0,0,0-7.456-4.982c-2.232-1.072-3.052-1.053-4.632.089-1.314.932-2.167,1.831-3.677,1.5s-4.5-2.586-7.4-5.471-5.14-5.858-5.461-7.391.564-2.367,1.505-3.681c1.137-1.58,1.17-2.4.089-4.632a35.746,35.746,0,0,0-4.986-7.456c-1.636-1.631-1.99-1.272-2.885-.932a16.682,16.682,0,0,0-2.642,1.4,7.973,7.973,0,0,0-3.169,3.35c-.638,1.361-1.361,3.887,2.353,10.5a58.573,58.573,0,0,0,10.3,13.733h0a58.66,58.66,0,0,0,13.78,10.317c6.608,3.728,9.138,2.987,10.5,2.353a7.823,7.823,0,0,0,3.346-3.169,16.465,16.465,0,0,0,1.4-2.642C828.67,390.484,829.034,390.12,827.4,388.494Z" transform="translate(-444.042 -265.678)" fill="#c12a21"/>
    <path id="Path_177" data-name="Path 177" d="M778.3,300.86a46.6,46.6,0,1,0,46.578,46.585A46.6,46.6,0,0,0,778.3,300.86Zm0,86.966a40.389,40.389,0,1,1,40.389-40.389A40.389,40.389,0,0,1,778.3,387.826Z" transform="translate(-414.944 -236.635)" opacity="0.1"/>
    <circle id="Ellipse_69" data-name="Ellipse 69" cx="46.582" cy="46.582" r="46.582" transform="translate(209.759 134.974)" fill="#3f3d56"/>
    <path id="Path_178" data-name="Path 178" d="M597.686,522.327l-13.948,14.19a.252.252,0,0,0,0,.364l9.786,10.406a1.684,1.684,0,1,1-2.381,2.381L581.409,539.3a.265.265,0,0,0-.373,0l-2.372,2.4a10.425,10.425,0,0,1-7.456,3.136,10.653,10.653,0,0,1-7.587-3.225l-2.279-2.33a.266.266,0,0,0-.373,0l-9.712,10.345a1.684,1.684,0,1,1-2.381-2.381l9.749-10.383a.28.28,0,0,0,0-.364L544.678,522.3a.256.256,0,0,0-.438.182v28.394a4.157,4.157,0,0,0,4.143,4.143h45.608a4.157,4.157,0,0,0,4.143-4.143v-28.37a.256.256,0,0,0-.447-.182Z" transform="translate(-314.853 -354.844)" fill="#c12a21"/>
    <path id="Path_179" data-name="Path 179" d="M573.015,536.336a7.055,7.055,0,0,0,5.089-2.1l20.313-20.677a4.053,4.053,0,0,0-2.563-.932H550.213a4.025,4.025,0,0,0-2.563.932l20.318,20.677A7.027,7.027,0,0,0,573.015,536.336Z" transform="translate(-316.674 -349.719)" fill="#c12a21"/>
    <path id="Path_180" data-name="Path 180" d="M547.394,452.69a46.6,46.6,0,1,0,46.577,46.585A46.6,46.6,0,0,0,547.394,452.69Zm0,86.966a40.389,40.389,0,1,1,40.389-40.389A40.389,40.389,0,0,1,547.394,539.656Z" transform="translate(-291.64 -317.712)" opacity="0.1"/>
    <circle id="Ellipse_70" data-name="Ellipse 70" cx="46.582" cy="46.582" r="46.582" transform="translate(99.208 100.186)" fill="#3f3d56"/>
    <path id="Path_181" data-name="Path 181" d="M343.57,430.16,325,473l1.734,1.734,16.841-7.428,16.842,7.428L362.15,473Z" transform="translate(-197.78 -305.681)" fill="#c12a21"/>
    <path id="Path_182" data-name="Path 182" d="M311.424,378a46.573,46.573,0,1,0,.008,0Zm0,86.966a33.357,33.357,0,1,1,0,.019Z" transform="translate(-165.634 -277.828)" opacity="0.1"/>
    <path id="Path_183" data-name="Path 183" d="M815.44,580.694q-.634-1.547-1.3-3.085a9.153,9.153,0,0,0-1.589-2.745,2.908,2.908,0,0,0-.932-.7,3.975,3.975,0,0,0-1.216-.242,9.713,9.713,0,0,0-1.911-.051c-.247-.075-.527-.173-.8-.284a6.655,6.655,0,0,0,4.958-6.175v-.284a6.641,6.641,0,0,0-6.613-6.669,6.525,6.525,0,0,0-3.472.993,6.23,6.23,0,0,0-6.99,3.369,7.7,7.7,0,0,0-2.377,5.732v.294c.121,3.621,2.461,6.524,5.415,6.818a3.105,3.105,0,0,0-.857.573,5.3,5.3,0,0,0-1.151,3.514l-.07.932-1.566.559a.289.289,0,0,0-.07.508l1.5,1.067v.266a1.163,1.163,0,0,0,.028.3,2.138,2.138,0,0,0-.578.825,3.81,3.81,0,0,0-.135,1.51l.056,1.3a10.208,10.208,0,0,0,.4,2.894c.2.578,1.044,1.971,1.654,1.981a60.288,60.288,0,0,0-.713,7.969c-.07.07.126.135.466.191.335,2.572,1.431,9.786,3.374,12.96a27.342,27.342,0,0,1,.732,3.15s.555,6.855,1.286,8.891a45.26,45.26,0,0,1,1.254,7.251.713.713,0,0,0-.517.531c-.368,1.109-2.754,2.8-2.754,2.8a11.545,11.545,0,0,0-2.06,1.319c-.75.676-.722,1.286,2.61.9,6.431-.741,7.531-2.8,7.531-2.8s-.1-.345-.256-.792a8.6,8.6,0,0,0-.844-1.99c-.093-.088-.186.061-.3.294a39.908,39.908,0,0,1-.438-9,14.6,14.6,0,0,0-.736-5.373,10.17,10.17,0,0,1,0-3.518c.368-1.482-1.468-8.71-1.468-8.71l-1.053-5.322a1.527,1.527,0,0,1,.294.62l.028.107.028.154a.289.289,0,0,0,.075.145c.718,2.982,2.684,11.245,2.684,12.456,0,1.482,1.836,5.187,1.836,5.187s.732,6.114,2.018,8.519a12.348,12.348,0,0,1,.955,5.7h0a5.275,5.275,0,0,1-.587,1.892,4.5,4.5,0,0,0-.694,1.207l-.042.089s-.55,1.114-.182,1.3a9.025,9.025,0,0,0,4.408.555s.736-.932.736-1.3a5.828,5.828,0,0,0-.084-.662c-.135-.876-.387-2.255-.392-2.269a6.359,6.359,0,0,0-.466-2.255l-.186-5.187a23.945,23.945,0,0,0-1.286-10.378s-.932-3.332-.732-4.259-.368-10.746-.368-10.746l-.056-.14a10.608,10.608,0,0,1,.056-2.083,27.66,27.66,0,0,0-.736-7.037,6.117,6.117,0,0,1-.261-1.533c.042-.387.168-1.519.34-2.927a52.541,52.541,0,0,0,5.415-.466.676.676,0,0,0,.466-.186.652.652,0,0,0,.107-.377C817.519,585.988,816.5,583.276,815.44,580.694Zm-3.7,5.876c.191-1.328.4-2.614.6-3.57l.028.084a25.949,25.949,0,0,1,.885,2.936A9.975,9.975,0,0,1,811.745,586.57Z" transform="translate(-447.794 -375.26)" fill="url(#linear-gradient)"/>
    <path id="Path_184" data-name="Path 184" d="M802.37,648.263s1.1,9.893,3.481,13.738a26.689,26.689,0,0,1,.732,3.113s.55,6.776,1.281,8.789a48.489,48.489,0,0,1,1.282,7.512s2.563,2.926,3.481.55a38.587,38.587,0,0,1-.55-9.525,14.348,14.348,0,0,0-.732-5.313,9.933,9.933,0,0,1,0-3.476c.363-1.468-1.468-8.607-1.468-8.607l-1.463-7.144Z" transform="translate(-452.692 -421.952)" fill="#be6f72"/>
    <path id="Path_185" data-name="Path 185" d="M815.09,721.748s-1.1,2.013-7.507,2.745c-3.327.377-3.351-.224-2.6-.895a11.575,11.575,0,0,1,2.05-1.3s2.381-1.645,2.745-2.745,1.65-.182,1.65-.182c1.831,2.745,2.2-.736,2.563-.368a8.261,8.261,0,0,1,.843,1.962C814.987,721.4,815.09,721.748,815.09,721.748Z" transform="translate(-453.874 -459.904)" fill="#ff6f61"/>
    <path id="Path_186" data-name="Path 186" d="M815.09,724.028s-1.1,2.013-7.507,2.745c-3.327.378-3.351-.224-2.6-.895.522.331,1.575.466,3.7-.387,3.052-1.249,5.266-1.971,6.156-2.251C814.987,723.683,815.09,724.028,815.09,724.028Z" transform="translate(-453.874 -462.183)" opacity="0.1"/>
    <path id="Path_187" data-name="Path 187" d="M817.55,672.44a14.343,14.343,0,0,0-.732-5.312,9.933,9.933,0,0,1,0-3.476c.363-1.468-1.468-8.607-1.468-8.607l-1.463-7.144-1.268.074,1.449,7.069s1.831,7.139,1.468,8.607a9.934,9.934,0,0,0,0,3.476,13.924,13.924,0,0,1,.732,5.313,38.591,38.591,0,0,0,.55,9.525,1.6,1.6,0,0,1-.531.755,1.2,1.2,0,0,0,1.813-.755A38.6,38.6,0,0,1,817.55,672.44Z" transform="translate(-458.166 -421.953)" opacity="0.1"/>
    <path id="Path_188" data-name="Path 188" d="M805.948,562.42a6.525,6.525,0,0,0-3.458.983,6.221,6.221,0,0,0-6.99,3.332,7.586,7.586,0,0,0-2.372,5.667c0,3.9,2.624,7.051,5.858,7.051a5.916,5.916,0,0,0,5.308-4.059,6.432,6.432,0,0,0,1.65.214,6.594,6.594,0,1,0,0-13.188Z" transform="translate(-447.757 -376.307)" fill="#3f3d56"/>
    <path id="Path_189" data-name="Path 189" d="M823.813,650.65l.55,1.463s.55,9.707.363,10.625.736,4.194.736,4.194a23.446,23.446,0,0,1,1.282,10.252l.182,5.126s.732,2.013.368,2.381-3.127-.326-3.127-.326.368-3.845-.932-6.226-2.013-8.425-2.013-8.425-1.831-3.663-1.831-5.126-2.931-13.37-2.931-13.37Z" transform="translate(-460.217 -423.421)" fill="#be6f72"/>
    <path id="Path_190" data-name="Path 190" d="M801.564,637.049s.187-6.594.932-8.607a13.667,13.667,0,0,0,.815-2.922s11.086,2,12,1.272a15.9,15.9,0,0,0,.368,2.745,26.338,26.338,0,0,1,.732,6.962c-.2,2.2,0,2.195,0,2.195s-7.512,1.1-7.694,0-.732-1.1-.732-1.1S801.2,637.394,801.564,637.049Z" transform="translate(-452.254 -410.002)" fill="#3f3d56"/>
    <g id="Group_71" data-name="Group 71" transform="translate(349.309 216.79)" opacity="0.1">
      <path id="Path_191" data-name="Path 191" d="M807.624,649.827s-4.632-.126-6.03-.377v.377c-.364.364,6.412.55,6.412.55a.465.465,0,0,1,.252.1C808.011,649.827,807.624,649.827,807.624,649.827Z" transform="translate(-801.58 -639.571)"/>
      <path id="Path_192" data-name="Path 192" d="M823.808,630.995a15.892,15.892,0,0,1-.368-2.745.787.787,0,0,1-.312.112,9.253,9.253,0,0,0,.312,2.083,29.093,29.093,0,0,1,.732,6.962c-.2,2.2,0,2.195,0,2.195s-5.942.871-7.382.289a2.2,2.2,0,0,0,.056.261c.182,1.1,7.694,0,7.694,0s-.186,0,0-2.195A27.22,27.22,0,0,0,823.808,630.995Z" transform="translate(-809.702 -628.25)"/>
      <path id="Path_193" data-name="Path 193" d="M807.624,649.827s-4.632-.126-6.03-.377v.377c-.364.364,6.412.55,6.412.55a.465.465,0,0,1,.252.1C808.011,649.827,807.624,649.827,807.624,649.827Z" transform="translate(-801.58 -639.571)"/>
      <path id="Path_194" data-name="Path 194" d="M823.808,630.995a15.892,15.892,0,0,1-.368-2.745.787.787,0,0,1-.312.112,9.253,9.253,0,0,0,.312,2.083,29.093,29.093,0,0,1,.732,6.962c-.2,2.2,0,2.195,0,2.195s-5.942.871-7.382.289a2.2,2.2,0,0,0,.056.261c.182,1.1,7.694,0,7.694,0s-.186,0,0-2.195A27.22,27.22,0,0,0,823.808,630.995Z" transform="translate(-809.702 -628.25)"/>
    </g>
    <path id="Path_195" data-name="Path 195" d="M814.382,585.022a2.429,2.429,0,0,0,.7.9,1.566,1.566,0,0,0,.657.284c-.41.238-.857.415-1.268.652a22.555,22.555,0,0,0-1.864,1.4,3.792,3.792,0,0,1-2.139.83,2.619,2.619,0,0,0,.3-2.605,2.432,2.432,0,0,1-.326-.9,1.625,1.625,0,0,1,.9-1.212c.35-.238.708-.466,1.072-.694.284-.177.713-.55,1.072-.536s.4.331.466.657A5.179,5.179,0,0,0,814.382,585.022Z" transform="translate(-457.002 -387.371)" fill="#be6f72"/>
    <path id="Path_196" data-name="Path 196" d="M814.382,585.022a2.429,2.429,0,0,0,.7.9,1.566,1.566,0,0,0,.657.284c-.41.238-.857.415-1.268.652a22.555,22.555,0,0,0-1.864,1.4,3.792,3.792,0,0,1-2.139.83,2.619,2.619,0,0,0,.3-2.605,2.432,2.432,0,0,1-.326-.9,1.625,1.625,0,0,1,.9-1.212c.35-.238.708-.466,1.072-.694.284-.177.713-.55,1.072-.536s.4.331.466.657A5.179,5.179,0,0,0,814.382,585.022Z" transform="translate(-457.002 -387.371)" opacity="0.1"/>
    <circle id="Ellipse_71" data-name="Ellipse 71" cx="4.213" cy="4.213" r="4.213" transform="translate(357.46 200.033)" fill="#be6f72"/>
    <path id="Path_197" data-name="Path 197" d="M834.861,724.648c0,.368-.732,1.281-.732,1.281a9.069,9.069,0,0,1-4.394-.55c-.368-.182.182-1.282.182-1.282l.042-.088a4.443,4.443,0,0,1,.694-1.193,5.217,5.217,0,0,0,.583-1.864c1.137-1.864,3.155.806,3.155.806s.256,1.4.391,2.246A6.4,6.4,0,0,1,834.861,724.648Z" transform="translate(-467.237 -460.609)" fill="#ff6f61"/>
    <path id="Path_198" data-name="Path 198" d="M834.861,728.892c0,.368-.732,1.281-.732,1.281a9.069,9.069,0,0,1-4.394-.55c-.368-.182.182-1.282.182-1.282l.042-.089a8.856,8.856,0,0,0,3.989.82l.834-.834C834.828,728.552,834.861,728.8,834.861,728.892Z" transform="translate(-467.237 -464.854)" opacity="0.1"/>
    <circle id="Ellipse_72" data-name="Ellipse 72" cx="4.119" cy="4.119" r="4.119" transform="translate(349.128 191.333)" fill="#be6f72"/>
    <path id="Path_199" data-name="Path 199" d="M801.371,598.877a5.172,5.172,0,0,0-1.146,3.472l-.14,1.822a9.186,9.186,0,0,0-.033,1.477c0,.3.075.611.1.932s.037.727.042,1.1v2.693a3.177,3.177,0,0,0,.3,1.617,1.1,1.1,0,0,0,1.4.5,1.593,1.593,0,0,0,.578-.895,13.9,13.9,0,0,0,.932-3.411c.037-.405.042-.811.079-1.216s.107-.83.168-1.239c.261-1.715.377-3.449.494-5.177.033-.513.494-2.531-.177-2.754-.326-.107-1,.228-1.314.34A3.7,3.7,0,0,0,801.371,598.877Z" transform="translate(-451.446 -395.186)" fill="#be6f72"/>
    <path id="Path_200" data-name="Path 200" d="M801.371,598.877a5.172,5.172,0,0,0-1.146,3.472l-.14,1.822a9.186,9.186,0,0,0-.033,1.477c0,.3.075.611.1.932s.037.727.042,1.1v2.693a3.177,3.177,0,0,0,.3,1.617,1.1,1.1,0,0,0,1.4.5,1.593,1.593,0,0,0,.578-.895,13.9,13.9,0,0,0,.932-3.411c.037-.405.042-.811.079-1.216s.107-.83.168-1.239c.261-1.715.377-3.449.494-5.177.033-.513.494-2.531-.177-2.754-.326-.107-1,.228-1.314.34A3.7,3.7,0,0,0,801.371,598.877Z" transform="translate(-451.446 -395.186)" opacity="0.1"/>
    <path id="Path_201" data-name="Path 201" d="M812.28,588.16a22.59,22.59,0,0,1-4.944,2.931s-1.086,1.24-1.272,1.538-.559,3.588-.932,4.325a3.5,3.5,0,0,0,0,4.026,6.982,6.982,0,0,1,.182,2.2c-.182.55-.848,2.563-.242,2.656s2.442,1.37,4.087,1.007,7.787,1.4,7.787,1.4,1.016-9.437,1.752-11.1l-1.65-.55s-4.576-2.745-1.831-6.958C815.211,589.628,812.639,589.078,812.28,588.16Z" transform="translate(-453.814 -390.052)" fill="#ff6f61"/>
    <path id="Path_202" data-name="Path 202" d="M796.706,610.47l3.784,2.679a.28.28,0,0,0,.331,0l1.025-.769a.288.288,0,0,0,0-.438l-2.913-2.586a.279.279,0,0,0-.284-.056l-1.869.671a.284.284,0,0,0-.075.5Z" transform="translate(-449.605 -401.332)" fill="#3f3d56"/>
    <path id="Path_203" data-name="Path 203" d="M799.025,620.887a10.135,10.135,0,0,1-.4-2.857l-.056-1.291a3.732,3.732,0,0,1,.135-1.491,2.439,2.439,0,0,1,1.571-1.375,5.421,5.421,0,0,1,2.139-.154.549.549,0,0,1,.275.075.513.513,0,0,1,.149.252,1.687,1.687,0,0,1,.084,1.347,1.394,1.394,0,0,1-.429.443c-.508.363-1.1.606-1.58,1a.573.573,0,0,0-.214.27.63.63,0,0,0,0,.294,4.683,4.683,0,0,0,.242.75.739.739,0,0,0,.21.317c.089.075.205.1.3.173.2.163.62.377.6.634a20.9,20.9,0,0,1-.848,2.9C800.782,623.977,799.3,621.674,799.025,620.887Z" transform="translate(-450.653 -403.677)" fill="#be6f72"/>
    <g id="Group_72" data-name="Group 72" transform="translate(354.156 206.809)" opacity="0.1">
      <path id="Path_204" data-name="Path 204" d="M812.083,628.2h-.1a3.143,3.143,0,0,0,1.2,0h.116A4.192,4.192,0,0,0,812.083,628.2Z" transform="translate(-811.98 -618.218)"/>
      <path id="Path_205" data-name="Path 205" d="M830.769,606.83c-.657,1.477-1.626,9.479-1.8,11.068.643.168,1.067.289,1.067.289s1.006-9.413,1.743-11.082Z" transform="translate(-821.053 -606.83)"/>
    </g>
    <path id="Path_206" data-name="Path 206" d="M819.6,595.853a1.4,1.4,0,0,0,.6.909,8.084,8.084,0,0,1,1.067,1.081,7.662,7.662,0,0,1,1.058,2.12,26.04,26.04,0,0,1,.881,2.9c-2.33,1.081-4.977,1.03-7.456,1.743a5.952,5.952,0,0,0-2.8,1.655,3.853,3.853,0,0,0-1.03,3.034.4.4,0,0,0,.056.182.391.391,0,0,0,.326.13,2.793,2.793,0,0,0,1.71-.587,8.148,8.148,0,0,0,1.31-1.286,2.1,2.1,0,0,1,.932-.69,15.254,15.254,0,0,1,4.194-.41,52.846,52.846,0,0,0,6.249-.494.5.5,0,0,0,.559-.559c.205-2.749-.815-5.433-1.864-7.983q-.629-1.533-1.3-3.052a9.039,9.039,0,0,0-1.584-2.712,2.8,2.8,0,0,0-.932-.69,3.941,3.941,0,0,0-1.249-.233,8.856,8.856,0,0,0-2.046-.037,4.349,4.349,0,0,0-.2,1.058,9.16,9.16,0,0,0,1.128,3.574C819.295,595.676,819.495,595.686,819.6,595.853Z" transform="translate(-457.785 -391.477)" fill="#be6f72"/>
    <path id="Path_207" data-name="Path 207" d="M811.875,606.67a3.417,3.417,0,0,0-.466,1.78,2.4,2.4,0,0,0,.117.727,2.358,2.358,0,0,0,1.487,1.4" transform="translate(-457.519 -399.936)" fill="none" stroke="#000" stroke-width="1" opacity="0.1"/>
    <path id="Path_208" data-name="Path 208" d="M807.835,572.138a2.138,2.138,0,0,0-.676.107,4.468,4.468,0,0,0-3.728-1.575c-2.228,0-4.031,1.151-4.031,2.568s1.8,2.563,4.031,2.563a5.674,5.674,0,0,0,2.419-.513,2.195,2.195,0,1,0,1.976-3.15Z" transform="translate(-451.106 -380.712)" fill="#3f3d56"/>
    <path id="Path_209" data-name="Path 209" d="M808.006,578a2.19,2.19,0,0,1-1.976-1.245,5.672,5.672,0,0,1-2.418.513c-2.223,0-4.026-1.146-4.026-2.563a1.536,1.536,0,0,1,0-.256,1.738,1.738,0,0,0-.205.806c0,1.4,1.8,2.563,4.031,2.563a5.672,5.672,0,0,0,2.419-.513,2.195,2.195,0,0,0,4.133-.545A2.186,2.186,0,0,1,808.006,578Z" transform="translate(-451.096 -382.731)" opacity="0.1"/>
    <path id="Path_210" data-name="Path 210" d="M795.483,567.817a6.221,6.221,0,0,1,6.99-3.332,6.589,6.589,0,0,1,10.029,5.061V569A6.589,6.589,0,0,0,802.45,563.4a6.221,6.221,0,0,0-6.99,3.332,7.586,7.586,0,0,0-2.372,5.667v.55A7.456,7.456,0,0,1,795.483,567.817Z" transform="translate(-447.735 -376.307)" opacity="0.1"/>
    <path id="Path_211" data-name="Path 211" d="M882.4,520.146c1.216-2.251-.163-5.014-1.752-7.023s-3.518-4.1-3.476-6.659c.056-3.677,3.961-5.848,7.083-7.8a34.44,34.44,0,0,0,6.356-5.126,9.286,9.286,0,0,0,1.957-2.614,10.74,10.74,0,0,0,.587-4.66q-.205-7.875-.778-15.732" transform="translate(-492.634 -327.238)" fill="none" stroke="#3f3d56" stroke-width="4"/>
    <path id="Path_212" data-name="Path 212" d="M909.38,463.664a5.727,5.727,0,0,0-2.861-4.7l-1.286,2.54.037-3.076a5.625,5.625,0,0,0-1.887-.228,5.737,5.737,0,1,0,6,5.462Z" transform="translate(-503.712 -320.652)" fill="#c12a21"/>
    <path id="Path_213" data-name="Path 213" d="M888.15,543.68a5.736,5.736,0,1,1,.275-4.623l-3.584,2.917,3.943-.932A5.7,5.7,0,0,1,888.15,543.68Z" transform="translate(-492.711 -361.836)" fill="#c12a21"/>
    <path id="Path_214" data-name="Path 214" d="M887.6,516.212a5.737,5.737,0,0,1-1.822-11.254l-.028,2.363,1.3-2.568h0a5.738,5.738,0,1,1,.536,11.464Z" transform="translate(-494.994 -345.51)" fill="#c12a21"/>
    <path id="Path_215" data-name="Path 215" d="M917.462,496.331A5.737,5.737,0,1,1,920,485.613l-1.016,2.8,2.088-2a5.7,5.7,0,0,1,1.864,3.961,5.542,5.542,0,0,1-.144,1.58A5.737,5.737,0,0,1,917.462,496.331Z" transform="translate(-510.932 -334.893)" fill="#c12a21"/>
    <path id="Path_216" data-name="Path 216" d="M908.6,468.794c-1.324.149-2.614.559-3.943.643a4.273,4.273,0,0,1-3.63-1.272,17.794,17.794,0,0,1-1.058-1.864,4.123,4.123,0,0,0-1.445-1.361,5.736,5.736,0,1,0,10.718,3.807C909.033,468.757,908.819,468.771,908.6,468.794Z" transform="translate(-503.705 -324.253)" opacity="0.1"/>
    <path id="Path_217" data-name="Path 217" d="M917.489,500.093a5.741,5.741,0,0,1-5.457-8.183,4.247,4.247,0,0,1,1.156,1.151,18.429,18.429,0,0,0,1.137,1.9,4.668,4.668,0,0,0,3.8,1.333c1.384-.065,2.721-.466,4.1-.583.191,0,.387-.033.578-.037A5.737,5.737,0,0,1,917.489,500.093Z" transform="translate(-510.959 -338.655)" opacity="0.1"/>
    <path id="Path_218" data-name="Path 218" d="M887.6,520.085A5.732,5.732,0,0,1,882.1,512a4.731,4.731,0,0,1,1.212,1.165c.466.629.722,1.356,1.244,1.934a5.31,5.31,0,0,0,4.063,1.426c1.468-.033,2.8-.382,4.194-.489a5.737,5.737,0,0,1-5.21,4.05Z" transform="translate(-494.995 -349.383)" opacity="0.1"/>
    <path id="Path_219" data-name="Path 219" d="M888.188,547.92a5.741,5.741,0,0,1-10.462-4.66,5.617,5.617,0,0,1,1.258,1.123c.55.666.909,1.4,1.538,2.041a7.2,7.2,0,0,0,4.753,1.668,25.118,25.118,0,0,0,2.912-.172Z" transform="translate(-492.748 -366.075)" opacity="0.1"/>
    <path id="Path_220" data-name="Path 220" d="M1041.4,672.146c1.216-2.251-.163-5.014-1.752-7.023s-3.518-4.1-3.476-6.659c.056-3.677,3.961-5.849,7.083-7.8a34.438,34.438,0,0,0,6.356-5.126,9.288,9.288,0,0,0,1.957-2.614,10.741,10.741,0,0,0,.587-4.66q-.2-7.876-.778-15.732" transform="translate(-577.539 -408.405)" fill="none" stroke="#3f3d56" stroke-width="4"/>
    <path id="Path_221" data-name="Path 221" d="M1068.407,615.665a5.727,5.727,0,0,0-2.861-4.7l-1.286,2.54.037-3.076a5.631,5.631,0,0,0-1.864-.228,5.736,5.736,0,1,0,6,5.462Z" transform="translate(-588.643 -401.82)" fill="#c12a21"/>
    <path id="Path_222" data-name="Path 222" d="M1047.15,695.68a5.736,5.736,0,1,1,.275-4.623l-3.584,2.917,3.943-.932A5.7,5.7,0,0,1,1047.15,695.68Z" transform="translate(-577.616 -443.003)" fill="#c12a21"/>
    <path id="Path_223" data-name="Path 223" d="M1046.6,668.212a5.737,5.737,0,0,1-1.822-11.254l-.028,2.363,1.3-2.568h0a5.738,5.738,0,1,1,.536,11.464Z" transform="translate(-579.899 -426.677)" fill="#c12a21"/>
    <path id="Path_224" data-name="Path 224" d="M1076.462,648.332a5.737,5.737,0,1,1,2.54-10.718l-1.016,2.8,2.088-2a5.7,5.7,0,0,1,1.864,3.961,5.543,5.543,0,0,1-.145,1.58A5.737,5.737,0,0,1,1076.462,648.332Z" transform="translate(-595.837 -416.06)" fill="#c12a21"/>
    <path id="Path_225" data-name="Path 225" d="M1067.6,620.794c-1.323.149-2.614.559-3.943.643a4.274,4.274,0,0,1-3.63-1.272,17.774,17.774,0,0,1-1.057-1.864,4.129,4.129,0,0,0-1.445-1.361,5.736,5.736,0,1,0,10.718,3.807C1068.033,620.757,1067.818,620.77,1067.6,620.794Z" transform="translate(-588.61 -405.42)" opacity="0.1"/>
    <path id="Path_226" data-name="Path 226" d="M1076.489,652.093a5.741,5.741,0,0,1-5.457-8.183,4.246,4.246,0,0,1,1.156,1.151,18.428,18.428,0,0,0,1.137,1.9,4.667,4.667,0,0,0,3.8,1.333c1.384-.065,2.722-.466,4.1-.582.191,0,.387-.033.578-.037A5.736,5.736,0,0,1,1076.489,652.093Z" transform="translate(-595.863 -419.822)" opacity="0.1"/>
    <path id="Path_227" data-name="Path 227" d="M1046.6,672.085a5.732,5.732,0,0,1-5.5-8.085,4.725,4.725,0,0,1,1.212,1.165c.466.629.722,1.356,1.244,1.934a5.31,5.31,0,0,0,4.064,1.426c1.468-.033,2.8-.382,4.194-.489A5.737,5.737,0,0,1,1046.6,672.085Z" transform="translate(-579.9 -430.55)" opacity="0.1"/>
    <path id="Path_228" data-name="Path 228" d="M1047.188,699.92a5.741,5.741,0,0,1-10.462-4.66,5.61,5.61,0,0,1,1.258,1.123c.55.666.932,1.4,1.538,2.041a7.2,7.2,0,0,0,4.753,1.668A25.1,25.1,0,0,0,1047.188,699.92Z" transform="translate(-577.653 -447.242)" opacity="0.1"/>
    <path id="Path_229" data-name="Path 229" d="M458.4,572.915a4.571,4.571,0,0,0-1.822-3.691,252.244,252.244,0,0,0-8.043-9.241h0a4.545,4.545,0,0,0-.662-.154h-.788a5.247,5.247,0,0,0-5.07,4.483c-1.636-.378-3.132.112-3.407,1.146a1.4,1.4,0,0,0,.047.83,3.606,3.606,0,0,0,2.4,1.948l.159.047.238.061h.051a4.12,4.12,0,0,0-.391,1.766,4.073,4.073,0,0,0,2.195,3.635l-.107.065a1.452,1.452,0,0,0-.354.494,7.394,7.394,0,0,0-.685,1.65c-.116.494-.135,1.006-.28,1.5-.27.9-.96,1.659-1.039,2.6-.037.419.033.932-.266,1.2a1.453,1.453,0,0,1-.238.168,1.924,1.924,0,0,0-.517.545,1.808,1.808,0,0,1-.364.522c-.27.2-.713.182-.843.494s.21.68.13,1.02-.368.406-.578.6a2.073,2.073,0,0,0-.5.932,3.056,3.056,0,0,1-2.517-.643,4.71,4.71,0,0,1,.261.932,4.082,4.082,0,0,0-1.356-.68,4.284,4.284,0,0,1-1.445-1.072l.774-.107-3.416-5.215-1.011-.21.9,1.738a.554.554,0,0,0-.308.368,1.58,1.58,0,0,0-.033.592,10.6,10.6,0,0,0,.233,1.4l.261,1.221c.023.112.051.228.084.34a3.217,3.217,0,0,0-1.011.112,8.792,8.792,0,0,0-2.1-.5,1.163,1.163,0,0,0-.466,0,1.206,1.206,0,0,0-.443.359,14.325,14.325,0,0,0-1.561,2.2,76.784,76.784,0,0,1-6.589,8.877c-1.584.643-3.183,1.254-4.781,1.864l-3.439,1.314a5.219,5.219,0,0,1-2.134.466c-.326,0-.732-.07-.932.21a1.966,1.966,0,0,0-.21.466l-.354.037h0a4.072,4.072,0,0,0-.825-1.519.522.522,0,0,0-.387.3c-.084.154-.135.321-.233.466-.182.27-.5.4-.732.629s-.373.583-.624.815a2.47,2.47,0,0,1-1.17.466,7.382,7.382,0,0,0-1.831.694,2.945,2.945,0,0,1-.676.312,2.538,2.538,0,0,1-.8.028l-1.817-.135a1.433,1.433,0,0,0-.489.023.932.932,0,0,0-.578.932,1.468,1.468,0,0,0,.578,1,3.7,3.7,0,0,0,1.035.536,30.336,30.336,0,0,0,4.846,1.435v.368a8.27,8.27,0,0,0,3.728.885.579.579,0,0,0,.28-.051.615.615,0,0,0,.233-.364,14.99,14.99,0,0,0,.727-3.57h0a1.864,1.864,0,0,0,.657-.168c.625-.172,1.249.256,1.9.326a5.184,5.184,0,0,0,2.288-.662l.326-.107a3.574,3.574,0,0,1-.755.722c-.312.224-.662.392-.965.624a6.665,6.665,0,0,1-.82.634,5.15,5.15,0,0,1-.629.242,4.162,4.162,0,0,0-.9.466,1.825,1.825,0,0,0-.611.6.9.9,0,0,0-.051.839.884.884,0,0,0,.6.419,2.464,2.464,0,0,0,.741,0c.988-.074,1.971-.163,2.954-.252a7.875,7.875,0,0,0,1.235-.177c.214-.051.429-.121.643-.182a5.734,5.734,0,0,1,1.123-.168.933.933,0,0,1,.326.033c.228.074.391.308.624.354a.929.929,0,0,0,.466-.06,10.387,10.387,0,0,1,2.186-.233.9.9,0,0,0,.848-.377c.149-.3-.121-.778-.242-1.174a3.6,3.6,0,0,1-.1-.774,4.84,4.84,0,0,0-.541-1.836,4.794,4.794,0,0,1-.405-.839,21.206,21.206,0,0,0,4.022-2.041,7.187,7.187,0,0,1,2.293-1.1,6.234,6.234,0,0,1,2.88.335,65.514,65.514,0,0,1,6.6,2.3c1.03.424,2.055.872,3.117,1.193a4.863,4.863,0,0,0,1.109,1.076,5.125,5.125,0,0,0,2.4.657,31.434,31.434,0,0,0,3.379.126,5.7,5.7,0,0,0,2.517-.466,2.588,2.588,0,0,0,.527-.35,2.087,2.087,0,0,0,1.659-.61,4.022,4.022,0,0,0,1.263-1.995c.275-1.063.065-2.33.718-3.178.172-.233.4-.419.573-.652a1.837,1.837,0,0,0,.3-1.077.219.219,0,0,1,.028-.042,3.951,3.951,0,0,0,.28-1.072,6.126,6.126,0,0,1,.3-.848,26.183,26.183,0,0,0,.867-2.512,14.7,14.7,0,0,0,.4-1.724c.07-.466.112-.932.149-1.4a8.685,8.685,0,0,1,.424-2.158,17.559,17.559,0,0,0,.979-5.163v-.1a3.462,3.462,0,0,0,3.066-3.523,3.679,3.679,0,0,0-.322-1.505A4.658,4.658,0,0,0,458.4,572.915Zm-16.674,20.257c.051.182.112.359.172.536-.275-.265-.54-.54-.816-.811.107.037.219.07.322.112a1.737,1.737,0,0,1,.308.163Zm-1.319-.895c-1.612-1.4-3.476-2.484-5.126-3.84.9.443,1.775.96,2.642,1.454q1.543.881,3.127,1.692a2.559,2.559,0,0,1-.657.694Zm.685-3.523.079-.079v.554l-.433-.149a3.858,3.858,0,0,0,.34-.326Zm-14.18,3.775a13.348,13.348,0,0,0,1.715-2.446,16.47,16.47,0,0,0,2.558,2.857C429.768,592.758,428.342,592.6,426.917,592.53Z" transform="translate(-235.653 -374.924)" fill="url(#linear-gradient-2)"/>
    <path id="Path_230" data-name="Path 230" d="M415.35,438.25l1.016.2,3.462,5.121-1.524.2Z" transform="translate(-221.794 -234.214)" fill="#2f2e41"/>
    <path id="Path_231" data-name="Path 231" d="M414.49,645.4a19.934,19.934,0,0,0,1.016,2.642,25.184,25.184,0,0,0,3.379-.965,10.663,10.663,0,0,0-.7-.932,3.475,3.475,0,0,0-.955-.732,2.629,2.629,0,0,0-1.16,0C415.543,645.4,415.017,645.411,414.49,645.4Z" transform="translate(-245.567 -420.591)" fill="#fbbebe"/>
    <path id="Path_232" data-name="Path 232" d="M407.255,645.085a2.106,2.106,0,0,1-1.156-1.314,4.232,4.232,0,0,0-.881-1.57.5.5,0,0,0-.391.294c-.084.149-.135.317-.228.466-.186.266-.513.4-.746.62s-.373.573-.624.8a2.48,2.48,0,0,1-1.179.466,7.644,7.644,0,0,0-1.864.685,3.212,3.212,0,0,1-.685.308,2.714,2.714,0,0,1-.8,0l-1.836-.13a1.432,1.432,0,0,0-.466,0,.89.89,0,0,0-.582.932,1.4,1.4,0,0,0,.582.988,3.867,3.867,0,0,0,1.044.531,30.7,30.7,0,0,0,4.921,1.4v.364a8.518,8.518,0,0,0,3.751.871.633.633,0,0,0,.28-.046.615.615,0,0,0,.233-.364,14.541,14.541,0,0,0,.769-3.989,3.18,3.18,0,0,0-.079-1.03c-.1-.331.242-.191-.075-.322" transform="translate(-235.592 -418.909)" fill="#2f2e41"/>
    <path id="Path_233" data-name="Path 233" d="M454.515,631.876c-5.443.326-10.821-1.268-16.273-1.435a7.952,7.952,0,0,0-2.022.126,10.2,10.2,0,0,0-2,.778c-2.922,1.361-5.946,2.488-8.966,3.612l-3.472,1.291a5.257,5.257,0,0,1-2.148.466c-.331,0-.736-.07-.932.205a3.4,3.4,0,0,0,.075,3.006c.121.3.326.634.652.666a1.9,1.9,0,0,0,.662-.168c.629-.168,1.258.256,1.911.326a5.37,5.37,0,0,0,2.307-.652,20.026,20.026,0,0,1,3.952-.671,17.7,17.7,0,0,0,6.189-2.568,7.226,7.226,0,0,1,2.307-1.091,6.385,6.385,0,0,1,2.9.331,66.612,66.612,0,0,1,6.659,2.265,31.048,31.048,0,0,0,3.476,1.272,12.581,12.581,0,0,0,7.8-.466c.871-.345,1.817-.932,1.864-1.892.033-.536-.387-1.007-.662-1.468-.177-.294-.359-.587-.55-.871C457.306,633.586,456.169,631.778,454.515,631.876Z" transform="translate(-247.64 -412.62)" fill="#2f2e41"/>
    <path id="Path_234" data-name="Path 234" d="M454.515,631.876c-5.443.326-10.821-1.268-16.273-1.435a7.952,7.952,0,0,0-2.022.126,10.2,10.2,0,0,0-2,.778c-2.922,1.361-5.946,2.488-8.966,3.612l-3.472,1.291a5.257,5.257,0,0,1-2.148.466c-.331,0-.736-.07-.932.205a3.4,3.4,0,0,0,.075,3.006c.121.3.326.634.652.666a1.9,1.9,0,0,0,.662-.168c.629-.168,1.258.256,1.911.326a5.37,5.37,0,0,0,2.307-.652,20.026,20.026,0,0,1,3.952-.671,17.7,17.7,0,0,0,6.189-2.568,7.226,7.226,0,0,1,2.307-1.091,6.385,6.385,0,0,1,2.9.331,66.612,66.612,0,0,1,6.659,2.265,31.048,31.048,0,0,0,3.476,1.272,12.581,12.581,0,0,0,7.8-.466c.871-.345,1.817-.932,1.864-1.892.033-.536-.387-1.007-.662-1.468-.177-.294-.359-.587-.55-.871C457.306,633.586,456.169,631.778,454.515,631.876Z" transform="translate(-247.64 -412.62)" opacity="0.1"/>
    <path id="Path_235" data-name="Path 235" d="M436.92,643.4q1.277.433,2.577.8c.466-.8,1.4-1.351,1.6-2.265a.213.213,0,0,0,0-.121.222.222,0,0,0-.1-.089,4.883,4.883,0,0,0-2.022-.592c-.559-.033-.815.55-1.067.96C437.81,642.28,437.148,643.492,436.92,643.4Z" transform="translate(-257.545 -418.341)" fill="#fbbebe"/>
    <path id="Path_236" data-name="Path 236" d="M429.835,643.3a1.865,1.865,0,0,1-1.254-.825c-.116-.21-.247-.494-.489-.466s-.322.28-.373.5a13.983,13.983,0,0,1-.7,2.419,4.539,4.539,0,0,1-1.505,1.981c-.317.219-.666.382-.979.615a6.747,6.747,0,0,1-.825.624,4.928,4.928,0,0,1-.634.233,4.384,4.384,0,0,0-.9.466,1.791,1.791,0,0,0-.62.592.853.853,0,0,0-.047.825.881.881,0,0,0,.6.41,2.542,2.542,0,0,0,.75,0c.993-.07,1.985-.159,2.978-.247a8.6,8.6,0,0,0,1.244-.172l.648-.177a5.157,5.157,0,0,1,1.132-.168.881.881,0,0,1,.331.033c.228.075.391.3.629.349a1.053,1.053,0,0,0,.466-.061,10.3,10.3,0,0,1,2.2-.228.93.93,0,0,0,.857-.373c.186-.364-.121-.769-.247-1.16a3.737,3.737,0,0,1-.1-.76,4.633,4.633,0,0,0-.545-1.808c-.252-.466-.6-.978-.419-1.473a1.4,1.4,0,0,0,.168-.508C432.128,643.117,430.292,643.4,429.835,643.3Z" transform="translate(-249.267 -418.805)" fill="#2f2e41"/>
    <path id="Path_237" data-name="Path 237" d="M473.165,609.316a4.25,4.25,0,0,1-2.172-2.153c-.089-.2-.163-.424-.252-.629a4.784,4.784,0,0,0-1.3-1.8.638.638,0,0,0-.466-.2.508.508,0,0,0-.349.377,1.44,1.44,0,0,0-.037.583,10.37,10.37,0,0,0,.233,1.361l.266,1.2a2.634,2.634,0,0,0,.163.536,1.862,1.862,0,0,0,.443.527c.242.224.489.438.736.652a2.525,2.525,0,0,0,.466.321,2.706,2.706,0,0,0,.825.242,7.019,7.019,0,0,1,3.094,1.193s0-.806,0-.895a1.184,1.184,0,0,0-.233-.648A4.131,4.131,0,0,0,473.165,609.316Z" transform="translate(-274.451 -398.793)" fill="#fbbebe"/>
    <path id="Path_238" data-name="Path 238" d="M473.165,609.316a4.25,4.25,0,0,1-2.172-2.153c-.089-.2-.163-.424-.252-.629a4.784,4.784,0,0,0-1.3-1.8.638.638,0,0,0-.466-.2.508.508,0,0,0-.349.377,1.44,1.44,0,0,0-.037.583,10.37,10.37,0,0,0,.233,1.361l.266,1.2a2.634,2.634,0,0,0,.163.536,1.862,1.862,0,0,0,.443.527c.242.224.489.438.736.652a2.525,2.525,0,0,0,.466.321,2.706,2.706,0,0,0,.825.242,7.019,7.019,0,0,1,3.094,1.193s0-.806,0-.895a1.184,1.184,0,0,0-.233-.648A4.131,4.131,0,0,0,473.165,609.316Z" transform="translate(-274.451 -398.793)" opacity="0.1"/>
    <ellipse id="Ellipse_73" data-name="Ellipse 73" cx="1.323" cy="1.333" rx="1.323" ry="1.333" transform="translate(208.473 198.658)" fill="#2f2e41"/>
    <path id="Path_239" data-name="Path 239" d="M489.947,590.435a1.431,1.431,0,0,0-1.044.149,1.449,1.449,0,0,0-.359.489,7.1,7.1,0,0,0-.69,1.622c-.117.466-.135.993-.284,1.473-.27.885-.965,1.636-1.044,2.558-.037.415.033.9-.27,1.179a1.7,1.7,0,0,1-.238.172,1.788,1.788,0,0,0-.522.536,1.759,1.759,0,0,1-.368.508c-.27.2-.718.182-.848.466s.21.671.13,1.006-.373.4-.582.587a2.035,2.035,0,0,0-.5.932,3.108,3.108,0,0,1-2.535-.629,8.071,8.071,0,0,1,.4,2.9,1.184,1.184,0,0,1-.233.895,16.133,16.133,0,0,1,3.108.541,2.144,2.144,0,0,0,1.356,0,2.265,2.265,0,0,0,.624-.494,3.981,3.981,0,0,0,1.282-1.976,11.613,11.613,0,0,0,.023-1.337,7.534,7.534,0,0,1,.34-1.626,19.355,19.355,0,0,0,.592-3.346c.061-.7.666-1.258.983-1.864a9.124,9.124,0,0,0,1.254-3.728C490.534,591.017,490.385,590.481,489.947,590.435Z" transform="translate(-280.971 -391.245)" fill="#2f2e41"/>
    <path id="Path_240" data-name="Path 240" d="M489.947,590.435a1.431,1.431,0,0,0-1.044.149,1.449,1.449,0,0,0-.359.489,7.1,7.1,0,0,0-.69,1.622c-.117.466-.135.993-.284,1.473-.27.885-.965,1.636-1.044,2.558-.037.415.033.9-.27,1.179a1.7,1.7,0,0,1-.238.172,1.788,1.788,0,0,0-.522.536,1.759,1.759,0,0,1-.368.508c-.27.2-.718.182-.848.466s.21.671.13,1.006-.373.4-.582.587a2.035,2.035,0,0,0-.5.932,3.108,3.108,0,0,1-2.535-.629,8.071,8.071,0,0,1,.4,2.9,1.184,1.184,0,0,1-.233.895,16.133,16.133,0,0,1,3.108.541,2.144,2.144,0,0,0,1.356,0,2.265,2.265,0,0,0,.624-.494,3.981,3.981,0,0,0,1.282-1.976,11.613,11.613,0,0,0,.023-1.337,7.534,7.534,0,0,1,.34-1.626,19.355,19.355,0,0,0,.592-3.346c.061-.7.666-1.258.983-1.864a9.124,9.124,0,0,0,1.254-3.728C490.534,591.017,490.385,590.481,489.947,590.435Z" transform="translate(-280.971 -391.245)" opacity="0.1"/>
    <path id="Path_241" data-name="Path 241" d="M466.635,623.154a12.275,12.275,0,0,1-2.88-2.4c-1.748-1.645-3.886-2.8-5.727-4.348a40.31,40.31,0,0,0-3.649-3.066,9.118,9.118,0,0,0-3.91-1.366,1.037,1.037,0,0,0-.466,0,1.072,1.072,0,0,0-.443.35,14.07,14.07,0,0,0-1.58,2.167c-2.33,3.961-5.643,7.288-8.388,10.97a.7.7,0,0,0-.135.261.649.649,0,0,0,.1.406l.559,1.09c.312.615.815,1.328,1.487,1.207a1.628,1.628,0,0,0,.778-.5l2.507-2.4,2.628-2.512a20.156,20.156,0,0,0,4.11-4.856c.783,1.361,2.176,2.251,3.127,3.495.363.466.662.993.988,1.5.517.8,1.109,1.557,1.7,2.33l3.015,3.845a5.772,5.772,0,0,0,1.4,1.4,5.336,5.336,0,0,0,2.419.648,31.937,31.937,0,0,0,3.407.121,5.871,5.871,0,0,0,2.54-.466,2.3,2.3,0,0,0,1.375-2.046,3,3,0,0,0-.433-1.272A10.386,10.386,0,0,0,466.635,623.154Z" transform="translate(-258.899 -402.752)" fill="#2f2e41"/>
    <ellipse id="Ellipse_74" data-name="Ellipse 74" cx="1.021" cy="1.025" rx="1.021" ry="1.025" transform="translate(209.591 199.888)" fill="#e8e8f0"/>
    <path id="Path_242" data-name="Path 242" d="M501.868,588.861a1.962,1.962,0,0,1,.112,1.473,5.974,5.974,0,0,1-.657,1.356,6.459,6.459,0,0,1-.853,1.212,8.78,8.78,0,0,0,4.483-1.286,6.509,6.509,0,0,0,2.829-2.465,1.3,1.3,0,0,1-1.044-.2,3.726,3.726,0,0,1-.8-.741l-.788-.885a3.547,3.547,0,0,1-.466-.638,1.762,1.762,0,0,1-.21-1.03,5.99,5.99,0,0,1-1.044.867c-.564.368-1.184.634-1.752,1-.2.13-.643.336-.527.6S501.71,588.582,501.868,588.861Z" transform="translate(-291.48 -388.717)" fill="#fbbebe"/>
    <path id="Path_243" data-name="Path 243" d="M501.868,588.861a1.962,1.962,0,0,1,.112,1.473,5.974,5.974,0,0,1-.657,1.356,6.459,6.459,0,0,1-.853,1.212,8.78,8.78,0,0,0,4.483-1.286,6.509,6.509,0,0,0,2.829-2.465,1.3,1.3,0,0,1-1.044-.2,3.726,3.726,0,0,1-.8-.741l-.788-.885a3.547,3.547,0,0,1-.466-.638,1.762,1.762,0,0,1-.21-1.03,5.99,5.99,0,0,1-1.044.867c-.564.368-1.184.634-1.752,1-.2.13-.643.336-.527.6S501.71,588.582,501.868,588.861Z" transform="translate(-291.48 -388.717)" opacity="0.1"/>
    <path id="Path_244" data-name="Path 244" d="M496.4,592.671a1.328,1.328,0,0,0,0,1.538c.047.056.214.405.284.41a.258.258,0,0,0,.177-.093,11.692,11.692,0,0,0,1-1.188,2.218,2.218,0,0,1,1.268-.829,2.74,2.74,0,0,1,1.747.545,1.658,1.658,0,0,1,.6.466,1.628,1.628,0,0,1,.2.666,32.112,32.112,0,0,1,.177,4.236,16.677,16.677,0,0,1-.2,3.052c-.1.517-.252,1.025-.322,1.552a9.9,9.9,0,0,0-.065,1.4v1.948a5.124,5.124,0,0,0,.074,1.067c.093.424.294.82.429,1.235a8.091,8.091,0,0,1,.284,1.459l.266,2.013a2.545,2.545,0,0,1-.238,1.864c-.172.228-.4.415-.578.643-.657.858-.466,2.083-.722,3.132a3.9,3.9,0,0,1-1.277,1.957,2.111,2.111,0,0,1-1.682.6,2.305,2.305,0,0,1-1.533-1.813,7.249,7.249,0,0,0-.788-2.363,6.265,6.265,0,0,0-1.557-1.3,2.689,2.689,0,0,1-1.216-1.58c-.051-.293,0-.6-.051-.895a2.111,2.111,0,0,0-1.3-1.71c-.419-.163-.932-.224-1.174-.606a2.829,2.829,0,0,0,1.226-1.645,8.448,8.448,0,0,0,.3-2.079l.14-2.33a7.784,7.784,0,0,1,.555-3.024c.205-.419.466-.816.676-1.23a13.35,13.35,0,0,0,.722-1.8c.336-.96.671-1.92.969-2.889a5.445,5.445,0,0,1,.531-1.347C495.568,593.291,495.932,592.764,496.4,592.671Z" transform="translate(-285.996 -392.372)" fill="#e8e8f0"/>
    <path id="Path_245" data-name="Path 245" d="M492.284,607.4h.62l.131-.932a1.936,1.936,0,0,1,.13-.545,3.258,3.258,0,0,1,.359-.522,6.814,6.814,0,0,0,.713-3.052,15.533,15.533,0,0,1,1.361-3.989l1.2-2.679a3.691,3.691,0,0,0,.261-.685,4.115,4.115,0,0,0,.075-.792c0-.415.13-1.925.144-2.33,0-.154-.34-.07-.41-.205-.149-.3-.354.508-.638.685a1.565,1.565,0,0,0-.554.811c-.261.671-.419,1.4-.662,2.064a4.217,4.217,0,0,1-1.123,1.827c-.247.214-.531.387-.764.62a4.182,4.182,0,0,0-.844,2.959C492.265,601.274,492.144,607.4,492.284,607.4Z" transform="translate(-287.073 -391.888)" fill="#2f2e41"/>
    <path id="Path_246" data-name="Path 246" d="M505.022,590.4a2.116,2.116,0,0,0-1.1,1.514,7.654,7.654,0,0,1-.559,1.864c-.755,1.314-2.68,1.7-3.215,3.118a5.73,5.73,0,0,0-.214,1.468c-.093,1.021-.429,2-.531,3.02a13.465,13.465,0,0,0,.056,2.372l.676,8.025a10.72,10.72,0,0,1-.2,3.532,3.4,3.4,0,0,0,2.022-.336c.629-.289,1.207-.685,1.817-1.021a18.71,18.71,0,0,0,3.118-1.752,1.908,1.908,0,0,0,.419-.466,4.026,4.026,0,0,0,.28-1.053,5.694,5.694,0,0,1,.3-.83,24.371,24.371,0,0,0,.876-2.479,14.181,14.181,0,0,0,.4-1.7c.075-.466.117-.932.154-1.4a8.2,8.2,0,0,1,.429-2.12,17.077,17.077,0,0,0,.983-5.089,2.664,2.664,0,0,0-.051-.746,3.986,3.986,0,0,0-.41-.853c-.28-.527-.466-1.1-.708-1.64a8.066,8.066,0,0,0-2.754-2.894A2.1,2.1,0,0,0,505.022,590.4Z" transform="translate(-290.892 -391.213)" fill="#2f2e41"/>
    <path id="Path_247" data-name="Path 247" d="M472.929,615.47a4.86,4.86,0,0,1-1.282-.974c-.168-.2-.308-.415-.466-.61a3.173,3.173,0,0,0-1.612-.932,7.874,7.874,0,0,0-1.864-.182,3.378,3.378,0,0,0-1.244.149,1.268,1.268,0,0,0-.825.885,1.468,1.468,0,0,0,.629,1.3,2.963,2.963,0,0,0,1.254.606,10.021,10.021,0,0,0,1.132.135c2.227.233,4.217,1.445,6.17,2.549q2.572,1.463,5.247,2.722a10.907,10.907,0,0,0,.089-1.608c0-.4-.033-1.016-.41-1.253a8.232,8.232,0,0,0-1.668-.5,26.252,26.252,0,0,1-3.36-1.361A16.73,16.73,0,0,1,472.929,615.47Z" transform="translate(-272.877 -403.19)" fill="#fbbebe"/>
    <ellipse id="Ellipse_75" data-name="Ellipse 75" cx="3.97" cy="3.994" rx="3.97" ry="3.994" transform="translate(205.826 191.701)" fill="#fbbebe"/>
    <path id="Path_248" data-name="Path 248" d="M502.712,599.6a6.368,6.368,0,0,0-.769,1.44c-.466,1.007-1.258,1.864-1.645,2.931s-.391,2.437-1.188,3.309a1.162,1.162,0,0,0-.349.5,2.411,2.411,0,0,1-.037.364c-.117.317-.634.331-.732.657-.028.093,0,.2-.047.289-.079.21-.359.242-.541.368-.387.261-.308.867-.583,1.244a1.048,1.048,0,0,1-.993.349,3.5,3.5,0,0,1-1.03-.387.994.994,0,0,0-.373-.116.768.768,0,0,0-.429.149,2.642,2.642,0,0,0-1.072,2.26,7.38,7.38,0,0,0,.615,2.53,1.014,1.014,0,0,0,.2.377.89.89,0,0,0,.988.075,4.666,4.666,0,0,1,.965-.433c.615-.112,1.216.312,1.841.275a2.558,2.558,0,0,0,1.24-.545,6.847,6.847,0,0,0,1.668-1.4c.27-.359.466-.764.708-1.146a14.7,14.7,0,0,1,1-1.338l2.293-2.8a6.446,6.446,0,0,0,.615-.848,5.976,5.976,0,0,0,.466-1.281,9.818,9.818,0,0,0,.466-2.279,8.758,8.758,0,0,0-.168-1.911,6.756,6.756,0,0,0-.466-1.822C504.861,599.367,503.649,598.509,502.712,599.6Z" transform="translate(-287.45 -395.89)" fill="#2f2e41"/>
    <path id="Path_249" data-name="Path 249" d="M508.144,574.152a4.474,4.474,0,0,0-1.836-3.635,5.317,5.317,0,0,0-4.516-5.177,5.159,5.159,0,0,0-10.164.275c-1.65-.373-3.159.112-3.434,1.128s.89,2.33,2.628,2.8a4.9,4.9,0,0,0,1.687.168,5.163,5.163,0,0,0,3.551,2.214,5.3,5.3,0,0,0,3.877,4,4.451,4.451,0,0,0,1.2,1.655v.387a3.36,3.36,0,0,0,6.72,0,3.586,3.586,0,0,0-.322-1.487A4.492,4.492,0,0,0,508.144,574.152Z" transform="translate(-284.903 -375.653)" fill="#f86d70"/>
    <path id="Path_250" data-name="Path 250" d="M489.307,566.954c.275-1.016,1.785-1.5,3.434-1.128a5.248,5.248,0,0,1,5.126-4.418h.34a5.049,5.049,0,0,0-1.463-.219,5.247,5.247,0,0,0-5.126,4.418c-1.65-.373-3.159.112-3.434,1.128s.89,2.33,2.628,2.8a5.125,5.125,0,0,0,1,.173C490.146,569.205,489.032,567.994,489.307,566.954Z" transform="translate(-284.898 -375.65)" opacity="0.1"/>
    <path id="Path_251" data-name="Path 251" d="M507.343,588.106a3.5,3.5,0,0,1,0-.382,4.353,4.353,0,0,1-1.2-1.654,5.285,5.285,0,0,1-3.877-4,5.15,5.15,0,0,1-3.556-2.209,4.477,4.477,0,0,1-.993-.028,5.177,5.177,0,0,0,3.425,2.036,5.3,5.3,0,0,0,3.877,4,4.452,4.452,0,0,0,1.2,1.654v.387a3.42,3.42,0,0,0,3.341,3.476A3.476,3.476,0,0,1,507.343,588.106Z" transform="translate(-290.011 -385.604)" opacity="0.1"/>
    <ellipse id="Ellipse_76" data-name="Ellipse 76" cx="0.61" cy="0.816" rx="0.61" ry="0.816" transform="translate(210.145 196.23) rotate(-37.22)" fill="#fbbebe"/>
  </g>
</svg>
