<svg id="undraw_work_in_progress_uhmv" xmlns="http://www.w3.org/2000/svg" width="532" height="378.044" viewBox="0 0 532 378.044">
  <ellipse id="Ellipse_95" data-name="Ellipse 95" cx="45.189" cy="5.413" rx="45.189" ry="5.413" transform="translate(0.023 367.218)" fill="#e6e6e6"/>
  <rect id="Rectangle_124" data-name="Rectangle 124" width="413.994" height="265.14" transform="translate(118.006 0.235)" fill="#e6e6e6"/>
  <rect id="Rectangle_125" data-name="Rectangle 125" width="390.318" height="216.199" transform="translate(129.844 33.49)" fill="#fff"/>
  <rect id="Rectangle_126" data-name="Rectangle 126" width="413.994" height="17.588" transform="translate(117.829)" fill="#c12a21"/>
  <circle id="Ellipse_96" data-name="Ellipse 96" cx="3.26" cy="3.26" r="3.26" transform="translate(127.639 5.732)" fill="#fff"/>
  <circle id="Ellipse_97" data-name="Ellipse 97" cx="3.26" cy="3.26" r="3.26" transform="translate(140.012 5.732)" fill="#fff"/>
  <circle id="Ellipse_98" data-name="Ellipse 98" cx="3.26" cy="3.26" r="3.26" transform="translate(152.386 5.732)" fill="#fff"/>
  <path id="Path_404" data-name="Path 404" d="M742.371,281.894a3.15,3.15,0,0,0-.116.742Z" transform="translate(-390.703 -193.972)" fill="#7f77ff"/>
  <path id="Path_405" data-name="Path 405" d="M659.308,319.347c-.023-.543-.12-.77-.208-.8C659.163,319.054,659.223,319.468,659.308,319.347Z" transform="translate(-357.557 -208.583)" fill="#7f77ff"/>
  <path id="Path_406" data-name="Path 406" d="M657.706,338.945c-.018.235-.035.453-.065.718a1.131,1.131,0,0,1,.065-.718Z" transform="translate(-356.963 -216.712)" fill="#7f77ff"/>
  <path id="Path_407" data-name="Path 407" d="M742.052,283.128l-.306,1.907C742.064,285.168,741.982,284.057,742.052,283.128Z" transform="translate(-390.499 -194.464)" fill="#7f77ff"/>
  <path id="Path_408" data-name="Path 408" d="M770.88,253.326h.58a2.993,2.993,0,0,0,.481-.4Z" transform="translate(-402.112 -182.426)" fill="#7f77ff"/>
  <path id="Path_409" data-name="Path 409" d="M808.572,254.492a.686.686,0,0,1,.523-.567,3.741,3.741,0,0,0-.52-.585C808.294,253.3,808.59,254.131,808.572,254.492Z" transform="translate(-417.089 -182.59)" fill="#7f77ff"/>
  <path id="Path_410" data-name="Path 410" d="M848.169,228.3c.076-.012.148-.023.206-.034Z" transform="translate(-432.919 -172.595)" fill="#7f77ff"/>
  <path id="Path_411" data-name="Path 411" d="M847.381,228.4l.474-.079C847.7,228.344,847.519,228.369,847.381,228.4Z" transform="translate(-432.605 -172.618)" fill="#7f77ff"/>
  <path id="Path_412" data-name="Path 412" d="M740.45,256.833a.275.275,0,0,0-.3.135C740.259,257.035,740.357,256.967,740.45,256.833Z" transform="translate(-389.865 -183.981)" fill="#7f77ff"/>
  <path id="Path_413" data-name="Path 413" d="M896.326,229.863l.044.388a1.843,1.843,0,0,0,.463.084Z" transform="translate(-452.114 -173.233)" fill="#7f77ff"/>
  <path id="Path_414" data-name="Path 414" d="M654.548,362.1c.006,0,.006.006-.006.018s-.006.012-.012.018-.088.024-.153.035a.506.506,0,0,0-.1-.018c.088-.012.177-.029.247-.035C654.536,362.109,654.542,362.1,654.548,362.1Z" transform="translate(-355.635 -225.943)" fill="#7f77ff"/>
  <path id="Path_415" data-name="Path 415" d="M543.809,512.441c-2.319-.739,3.774-.949.283-1.771C544.417,510.994,540.918,511.96,543.809,512.441Z" transform="translate(-311.143 -285.161)" fill="#7f77ff"/>
  <path id="Path_416" data-name="Path 416" d="M575.156,379.852a1.45,1.45,0,0,1-.365.524C574.968,379.987,575.068,379.869,575.156,379.852Z" transform="translate(-323.952 -233.018)" fill="#7f77ff"/>
  <path id="Path_417" data-name="Path 417" d="M631.86,364.9a5.794,5.794,0,0,1-.947-.106Z" transform="translate(-346.322 -227.015)" fill="#7f77ff"/>
  <path id="Path_418" data-name="Path 418" d="M554.318,384.678a2.566,2.566,0,0,0-.978,0,.98.98,0,0,0,.214.1A1.484,1.484,0,0,1,554.318,384.678Z" transform="translate(-315.402 -234.922)" fill="#7f77ff"/>
  <path id="Path_419" data-name="Path 419" d="M554.966,384.709c.123.021.251.046.415.066A3.2,3.2,0,0,0,554.966,384.709Z" transform="translate(-316.05 -234.954)" fill="#7f77ff"/>
  <path id="Path_420" data-name="Path 420" d="M521.259,384.828c.109.063.254.111.382.167l.656-.044Z" transform="translate(-302.614 -235.001)" fill="#7f77ff"/>
  <path id="Path_421" data-name="Path 421" d="M549.782,385.752a.082.082,0,0,1-.047.065C549.758,385.782,549.782,385.752,549.782,385.752Z" transform="translate(-313.965 -235.369)" fill="#7f77ff"/>
  <path id="Path_422" data-name="Path 422" d="M890.439,511.593c-.134-.012-.266-.023-.412-.038C890.181,511.575,890.315,511.585,890.439,511.593Z" transform="translate(-449.604 -285.514)" fill="#7f77ff"/>
  <path id="Path_423" data-name="Path 423" d="M899.975,480.048c-.005,0-.009,0-.014,0C899.966,480.074,899.971,480.067,899.975,480.048Z" transform="translate(-453.563 -272.955)" fill="#7f77ff"/>
  <path id="Path_424" data-name="Path 424" d="M629.552,365.74a3.233,3.233,0,0,0,.618-.182C630.6,365.669,630.011,365.664,629.552,365.74Z" transform="translate(-345.779 -227.32)" fill="#7f77ff"/>
  <path id="Path_425" data-name="Path 425" d="M898.986,359.163c.032-.139.065-.3.1-.488C899.052,358.84,899.02,359,898.986,359.163Z" transform="translate(-453.175 -224.576)" fill="#7f77ff"/>
  <path id="Path_426" data-name="Path 426" d="M738.564,369.482a1.242,1.242,0,0,1,.265-.377l.082.294a5.323,5.323,0,0,0-.118-1.806,17.527,17.527,0,0,0,.224-2.371c.624-.335.335-3.366.371-4.825-.824.118-.694-1.759-1.359-.047.047-.1.076.4.112,1.295a3.958,3.958,0,0,0,.088.624c-.023-.029-.047-.065-.076-.1.018.959.035,2.212.059,3.636a5.948,5.948,0,0,1-.318-3.984c-.53-.747-1.077-1.577-1.33-2.042,1.153-2,1.777-5.861,2.483-6.4-.459-4.466-.306-10.521-1.859-13.333-.2-1.271.447-1.459.694-1.936a10.723,10.723,0,0,0,.353,2.007c-.4-2.542-.153-7.526-1.241-8.132.488-3.2,1,1.8.824-2.6l.329.594c1.706-8.5-2.613-13.881-.647-23.172-.076.347-.147.553-.277.647.983-10.933-.924-22.536.635-33.328.312-3.066-.376-3.4-.906-5.272l.888-.665-1.024-3.2c-.753-4.537,2.177-7.855.759-13.6l-.6.741c.118-2.065-.353-6.537.335-6.19a1.467,1.467,0,0,1-.306-1.483l.465-.065-.8-5.072c.335-3.925,1.848.618,1.936-5.119-.177-2.13-1.353-6.067-1.665-5.266-.018.859-.288,2.195-.753,2.259l-.241-1.948c-.088-.024-.171-.047-.259-.076v-.312h-.841a1.415,1.415,0,0,0-1.106,0H712.644l.23-.229-.694.229H709.2c.088-.177.371-.324.959-.394-2.165-.606-1.918.435-3.772-.241-.206-.106-.118-.165.077-.212l-2.118.365c.418-.259-.347-.865.947-.688-3.789-.706-6.114.918-7.543-.012l.318-.071c-3.937.306-2.271.653-2.836,1.253h-2.46l-.494-.412-.665-.553a4.682,4.682,0,0,0-.735-.553,6.959,6.959,0,0,0-.541.894c-.612-.029-1.871-.094-1.812-.459-1.077.312-.853.406-.594.5.282.094.624.182.188.477a11.1,11.1,0,0,0-2.1-.288c-.076,1.306.018,2.889-.012,4.1-.029,1.259-.176,2.071-.753,2.324.682.936.53-2.5,1.006.288-1.542.783.259,3.26-.447,5.584-.794-.671-.371-2.977-1.083-.577a2.1,2.1,0,0,1,.482.836,2.62,2.62,0,0,1,.024.959,8.836,8.836,0,0,1-.477,1.653,2.9,2.9,0,0,0-1.065-.065c.353.535-.435.647-1.618.671-.712,0-1.53.006-2.365.006-.877.012-1.777.035-2.624.124.212-.359-6.361-.583-9.5-.971l.088-.182c-.606,1.083-3.848.877-6.214,1.1.094-.647.518-.9,1.8-1.189l-2.224.006a5.493,5.493,0,0,1-2.654.653l.559-.812c-1.477.024-2.966.265-4.56.43-.8.082-1.618.141-2.483.153-.43.006-.871-.006-1.324-.029-.224-.012-.453-.029-.683-.053l-.777-.088c-.082.188.206.418.388.653a5.293,5.293,0,0,1,.612.741.513.513,0,0,1,.053.506h-2.06c.006-.224.141-.424.577-.53a4.442,4.442,0,0,1-1.865.124c.471-.224,1.018-.453,1.636-.683-2.236-.3-.918.571-2.489.506-.324-.577-1.506-.412-1.636-.871a10.468,10.468,0,0,0,2.277.012c-1.171-.059-2.554-.194-3.825-.383a5.007,5.007,0,0,1-.506,1.624c.33.029.783.583.853,2.095.023,1.936-.153,2.248-.371,2.371-.106.059-.224.065-.335.218a1.375,1.375,0,0,0-.159.335,2.377,2.377,0,0,0-.129.488c.4.718-.018,2.6.853,2.654-.006.865-.412,1.024-.647,1.359.383,1.53.112,7.143,1.036,5.419l.059-.394c.018.077.024.159.041.253a23.965,23.965,0,0,1,.282,4.6c-.035,1.283-.159,2.5-.277,3.572-.865-.077-1.665-.141-2.412-.177-.377-.012-.741-.024-1.106-.012l-.706.018c-.247.018-.5.029-.747.041l.012-.288c-2.972.33-6.614.194-8.732.824-.877-.006-2.071-.535-1.695-.877a15.779,15.779,0,0,1-5.8.065c2.277-.506-.788-.453,2.336-.371-2.948-.253-3.619-.718-6.784.077,1.077-.747-2.218-.936-3.619-.718l2.065.535a36.835,36.835,0,0,1-4.354-.024l.753-.977a22.643,22.643,0,0,0-8.279.318,24.015,24.015,0,0,1-3.689.383l-.447-.006-.571-.029c-.441-.023-.889-.059-1.342-.112a27.207,27.207,0,0,1-2.948-.518c-1.059.341.353.459,1.653.594,1.336.135,2.548.288,1.63.688a47.048,47.048,0,0,1-5.8-.747,22.7,22.7,0,0,0-.794,3.925c-.071.771-.094,1.471-.094,2.089,0,.306.006.6.023.871.006.124.012.306.024.365s.024.147.035.218a6.6,6.6,0,0,0,.477,1.477,6.876,6.876,0,0,1,.594,3.831c.347-.512,1.283-.988,1.606,1.983-.071,1.648-.577,2.548-1.03,2.63-.253.053-.488-.153-.624-.612a1.886,1.886,0,0,1-.088-.359c-.029-.665.082-.983.2-.959-.129-.894-.276-2.071-.653-.971l.347.359a10.914,10.914,0,0,0-.224,1.53c-.159,1.583-.253,3.425-.671,2.771.288,1.795.506,1.177.677-.018-.371,3.177.041,5.155-.277,8.6.194-.583.606-1.124.6-.541-.435,5.378.665,2.371.818,6.014-.536,2.071-1.271-.741-.83,2.924-.359,2.242-.924.477-1.206-.412a13.057,13.057,0,0,1,.012,4.613c-.018.1-.029.2-.047.294-.012.071-.023.147-.035.218l-.024.124c-.006.035-.012.029-.018.041l-.047.059a1.075,1.075,0,0,1-.177.159,1.756,1.756,0,0,0-.235.165,1.2,1.2,0,0,0-.212-.253.39.39,0,0,1,.094.3,2.177,2.177,0,0,0,.224.129,2.262,2.262,0,0,0,.477.182c-.118.171-.124.341-.353.129a.388.388,0,0,1-.071-.065,4.191,4.191,0,0,0,.73.83c.306.312.671.647.324.959a3.667,3.667,0,0,0-1.477-.059c-.124.006-.247.006-.365,0a4.693,4.693,0,0,1-.553-.065.985.985,0,0,1-.741-.424c.547.041.942.053,1.236.047.159,0,.218-.024.265-.065.082-.071.023-.206-.029-.347-.1-.241-.135-.512.041-.647a.347.347,0,0,1-.082.012.5.5,0,0,1-.153-.029c-.224-.018-.453-.041-.694-.065-.153-.106.147-.194.43-.247-.318-.065-.6-.112-.847-.147a4.134,4.134,0,0,0-1.477,0c-1.071.253-.841,1.189-3.878,1.171.541-.518-1-.989-1.7-.877,1.736.012.83.871-.759,1.271-2.76-.406-3,.3-4.443.253l1.648.194c-.559.524-1.936.453-3.854.618-.053-.129.094-.2.306-.253-1.983.306-4.36-1.059-6.967-.553a.342.342,0,0,0-.076.012c-1.377-.353-.135-.977-1.347-1.218-3.33.677-3.607-.718-7.114-.159,1.012.706,1.189.535-1.283,1.218l5.766-.494-3.7,1.018c1.742.012,3.672-.441,4.713-.318-1.765.571-1.583.394-.747.977-2.383-1.053-4.719.618-7.467-.094l.083-1.742a16.363,16.363,0,0,0-5.278.024l-.671.088-.335.041-.088.012-.135.012-.277.023c-.724.053-1.459.112-2.218.171-1.489.1-3.007.171-4.743.159-.006.777-.03,1.583-.071,2.424l.277-2.218.218.024a.239.239,0,0,1-.106.088,11.04,11.04,0,0,1,.247,3.33c0,.1-.006.206-.006.312v.006c-.012.553-.029,1.13-.035,1.706q0,.512.018,1.006c.006.165.018.324.024.482l.018.229.023.159c-.582-.165-.794.924-1.153,1.665.106-.024.159.212.194.583.035.153.053.341.094.565a3.11,3.11,0,0,0,.83,1.624,1.458,1.458,0,0,1-.3.23,10.3,10.3,0,0,1-1.059-.465,1.7,1.7,0,0,0-1.071.124c-.077.035-.153.077-.229.118a.593.593,0,0,1-.194.065c-.082.024-.165.047-.241.071-.324.1-.63.206-.93.312a10.345,10.345,0,0,1-4.5.771c1.253-.63-.641-1.041,2.154-1.495-1.395-.006-2.642-.112-2.666.288a1.2,1.2,0,0,0-.477-.071c-.7.006-1.824.277-2.854.4a4.833,4.833,0,0,1-1.489,0,1.253,1.253,0,0,1-.318-.094,1.8,1.8,0,0,0-.182.094,2.813,2.813,0,0,1-2.159.718.15.15,0,0,1-.041-.224c-.312.241-2.295.377-1.03.971a18,18,0,0,0-6.879-.83c-3.324.041-6.72.288-8.838-.594-1.518.094-3.189.194-4.831.271-.818.029-1.63.065-2.407.094l-1.136.035c-.412.006-.806.018-1.183.023.118-.088.118-.159.182-.2a.739.739,0,0,1,.453-.03c-.106-.012-.176-.029-.306-.035s-.259-.018-.382-.029c-.247-.012-.477-.018-.689-.024a9.206,9.206,0,0,0-1.083.059,3.24,3.24,0,0,0-1.253.388,3.476,3.476,0,0,1-2.13.8,10.251,10.251,0,0,1-.094,1.895c-.235.512-.383.63-.482.459a3.466,3.466,0,0,1-.171-1.083c-.053-.936-.035-1.995-.212-1.206-.953-.424-.888,1.824-.724,4.284.082,1.43.188,2.054.206,2.954a6.5,6.5,0,0,1-.335,2.418l-.112-.706c-.653,2.224.724,5.431.588,9.067,0,0-.171-.177-.288-.023.971,2.489,1.294,7.2,1.565,10.691-.747-1.089-.394-1.589-1.153-.924.106,1.571,1.218-.459,1.43,2.671-.406,1.018-.765,3.277-1.577,3.578l-.047-2.954c-1.047,1.512.041,3.819-.141,5.378l-.459-.2c.147,4.525,1.3,4.59,1.218,9.45l.347-.5c1.147,2.66-.641,2.23.212,4.878l-1.165.806c.282,1.753,1.124,6.137,1.342,9.285-.859-1.783-1.3-5.46-1.812-7.738-.006,1.736.088,5.908.659,6.814a6.141,6.141,0,0,1-.218-2.277,21.373,21.373,0,0,1,1.342,8.4c-.736-.2-1.053.694-1.206,2.083-.006.088-.018.177-.024.271-.006.129-.018.265-.024.4-.012.277-.023.559-.041.853-.012.588-.029,1.212-.047,1.848-.029,1.3-.059,2.666-.088,3.989a21.451,21.451,0,0,1,6.6.889l.482-.041.3-.035.577-.059q.574-.053,1.147-.088c.765-.053,1.53-.071,2.3-.077,1.536-.006,3.089.059,4.672.147,3.166.177,6.455.441,10.027.371-2.53-1.748,2.083-.047,1.648-1.848a6.528,6.528,0,0,1,2.436.029l-.241-.053.253.065v-.006l5.037,1.071c1.195.524-1.583.394-1.43.8,3.642.141,1.53.765,3.936,1.242-.494-.641,1.265-.924,3.342-.677l-2.924-.83c5.09-.959,4.4,1.512,9.526.559l-1.624.571c2.636-.335,9.709.012,12.292-1.436.465.206,1.083.7-.076.83,6.29.218,14-1.536,18.888-.647l-.477.441c1.171-.129,2.042-.83,3.513-.388-.076.182-.477.441.071.465a14.352,14.352,0,0,1,4.672-.512l-1.33.494a29.372,29.372,0,0,0,9.368-.759,36.92,36.92,0,0,1,5.19-.747c-.012,1.295,4.813,1.718,7.226,1.924l-.088.182a63.94,63.94,0,0,0,8.573-.418c2.183-.241,4.3-.547,6.543-.8h.006l.43-.053c.518-.059,1.047-.112,1.583-.165l.506-.053,1.112-.088a23,23,0,0,0,5.743.812c4.6.224,10.391.041,14.769.565-1.012-.235.165-1.012,1.336-1.142,1.453.247,3.948-.759,4.048.094a.57.57,0,0,1-.012.194l-.524-.024h-.029l.006.006c1.171,1.159,4.348.853,6.832.883l.406-1.553c6.5,2.26,17.035-.83,20.583,1.195,1.571-.388,3.513-.382,5.066-.771l-.082.83a111.194,111.194,0,0,0,11.886.118l-1.094.6c3.03.053,3.825-2.407,6.625-2.454l.836,1.242c5.29-.018,10.639,1.077,15.864-.053-.082.182-.241.541-1.094.594,2.407.029,9.162.789,8.785-.706.577.841,5.543-.077,8.244-.541l-.441.818c1.206-.524,1.824-.859,2.565-1.094a8.564,8.564,0,0,1,1.289-.3c.271-.041.53-.082.9-.118.447-.035.953-.071,1.524-.112,1.012.1,1.183.553-.006.488a7.612,7.612,0,0,0,2.654-.118,7.649,7.649,0,0,1,2.259-.359,15.088,15.088,0,0,1,.094-1.771c.177.683.353,1.406.524,2.171a19.953,19.953,0,0,0-.159-3.772c-.141-.753-.365-1.312-.665-2.354-.023-.141-.041-.294-.053-.453s-.024-.294-.035-.453c-.012-.259-.018-.541-.012-.824a13.294,13.294,0,0,1,.171-1.748,3.837,3.837,0,0,1,.877-2.3,4.517,4.517,0,0,1-.847-3.478c.282-.218.459.365.541.665.559-4.572-.953-6.8-.147-9.944a.691.691,0,0,0,.488-.53c-.018,3.33-.059,6.061-.112,6.278.747-.041.883-2.919,1.918-.6C739.447,376.367,738.211,372.342,738.564,369.482Zm.665-6.09c.118.977-.047,1.3-.218,1.436-.012-.459-.041-1-.1-1.706-.029-.024-.065-.082-.1-.112a1.121,1.121,0,0,1,.418.383ZM705.548,228.727a1.3,1.3,0,0,1,.282.129h-1.247c.3-.047.618-.088.965-.129Z" transform="translate(-291.688 -172.227)" fill="#c12a21"/>
  <path id="Path_427" data-name="Path 427" d="M655.256,362.622a.218.218,0,0,1-.147.071A.49.49,0,0,1,655.256,362.622Z" transform="translate(-355.966 -226.15)" fill="#7f77ff"/>
  <path id="Path_428" data-name="Path 428" d="M629.328,365.886c.046-.007.091-.018.136-.027C629.417,365.867,629.371,365.876,629.328,365.886Z" transform="translate(-345.69 -227.44)" fill="#7f77ff"/>
  <path id="Path_429" data-name="Path 429" d="M899.89,450.393a3.153,3.153,0,0,1-.06-.4c-.073.2-.135.388-.186.581l.259.344Z" transform="translate(-453.437 -260.975)" fill="#7f77ff"/>
  <path id="Path_430" data-name="Path 430" d="M742.448,281.714a.833.833,0,0,1,.118-.272c-.04.087-.066.087-.1.142Z" transform="translate(-390.779 -193.792)" fill="#7f77ff"/>
  <path id="Path_431" data-name="Path 431" d="M810.58,227.393c.266.006.566.39.509,3.205l.177-3.46,1.3.063c-1.049-.32-2.781-.749-.384-.826l-1.9-.222C810.084,227.812,810.315,227.4,810.58,227.393Z" transform="translate(-417.788 -171.754)" fill="#7f77ff"/>
  <path id="Path_432" data-name="Path 432" d="M810.475,251.737c-.074-.659-.19-.678-.31-.6s-.244.252-.334.17C810.122,252.088,810.2,252.467,810.475,251.737Z" transform="translate(-417.638 -181.7)" fill="#7f77ff"/>
  <path id="Path_433" data-name="Path 433" d="M715.313,293.252l.205-.753C713.948,292.608,715.5,292.792,715.313,293.252Z" transform="translate(-379.762 -198.199)" fill="#7f77ff"/>
  <path id="Path_434" data-name="Path 434" d="M512.105,155.648l.131-.01.242-.021.967-.082.686-.108-1.309.137-.655.068-1.069.069.806-.042Z" transform="translate(-203.72 -61.952)" fill="#7f77ff"/>
  <path id="Path_435" data-name="Path 435" d="M527.378,383.58l.474.927C528.913,384.341,529.136,383.3,527.378,383.58Z" transform="translate(-305.053 -234.485)" fill="#7f77ff"/>
  <path id="Path_436" data-name="Path 436" d="M494.817,462.512a4.418,4.418,0,0,0-.306,3.47A32.064,32.064,0,0,0,494.817,462.512Z" transform="translate(-291.865 -265.966)" fill="#7f77ff"/>
  <path id="Path_437" data-name="Path 437" d="M600.654,378.619l2.334-.259-1.1-.052Z" transform="translate(-239.418 -150.792)" fill="#7f77ff"/>
  <path id="Path_438" data-name="Path 438" d="M738.89,353.358a89.333,89.333,0,0,1-2.971,21.136c-7.132,26.361-26.644,45.543-37.159,54.316a23,23,0,0,1-5.743-.812l-1.112.088-.506.053c-.535.053-1.065.106-1.583.165l-.43.053h-.006a133.568,133.568,0,0,1-7.279-27.544l-.006-.006V400.8c-1.818-12.074-2.112-26.243,1.718-40.4a88.049,88.049,0,0,1,6.773-17.305c13.675-26.537,37.323-42.348,37.323-42.348S739.6,324.75,738.89,353.358Z" transform="translate(-366.208 -201.487)" fill="#fff"/>
  <path id="Path_439" data-name="Path 439" d="M657.706,338.945c-.018.235-.035.453-.065.718a1.131,1.131,0,0,1,.065-.718Z" transform="translate(-356.963 -216.712)" fill="#fff"/>
  <path id="Path_440" data-name="Path 440" d="M629.552,365.74a3.233,3.233,0,0,0,.618-.182C630.6,365.669,630.011,365.664,629.552,365.74Z" transform="translate(-345.779 -227.32)" fill="#fff"/>
  <path id="Path_441" data-name="Path 441" d="M630.912,364.794l.947.106A5.8,5.8,0,0,1,630.912,364.794Z" transform="translate(-346.322 -227.016)" fill="#fff"/>
  <path id="Path_442" data-name="Path 442" d="M654.377,362.174a.5.5,0,0,0-.1-.018c.088-.012.177-.029.247-.035.012-.012.018-.018.023-.018s.006.006-.006.018-.006.012-.012.018S654.441,362.163,654.377,362.174Z" transform="translate(-355.634 -225.943)" fill="#fff"/>
  <path id="Path_443" data-name="Path 443" d="M655.256,362.622a.218.218,0,0,1-.147.071A.49.49,0,0,1,655.256,362.622Z" transform="translate(-355.966 -226.15)" fill="#fff"/>
  <path id="Path_444" data-name="Path 444" d="M673.555,408.469c0,.012-.006.024-.006.035a133.385,133.385,0,0,1-7.185,27.285l-.506.053c-.536.053-1.065.106-1.583.165l-.43.053h-.006c-2.242.253-4.36.559-6.543.8-10.409-8.608-30.345-27.95-37.564-54.664a89.008,89.008,0,0,1-2.977-21.142,108.325,108.325,0,0,1,.583-13.975c2.607-.506,4.984.859,6.967.553-.212.053-.359.124-.306.253,1.918-.165,3.3-.094,3.854-.618l-1.647-.194c1.447.047,1.683-.659,4.443-.253,1.589-.4,2.495-1.259.759-1.271.7-.112,2.242.359,1.7.877,3.036.018,2.807-.918,3.878-1.171h1.477c.247.035.53.082.847.147-.282.053-.583.141-.43.247.241.024.471.047.694.065a.5.5,0,0,0,.153.029.344.344,0,0,0,.082-.012c-.177.135-.141.406-.041.647.053.141.112.276.029.347-.047.041-.106.065-.265.065-.294.006-.688-.006-1.236-.047a.985.985,0,0,0,.741.424,4.688,4.688,0,0,0,.553.065c.118.006.241.006.365,0a3.668,3.668,0,0,1,1.477.059c.347-.312-.018-.647-.324-.959a4.191,4.191,0,0,1-.73-.83.382.382,0,0,0,.071.065c.229.212.235.041.353-.129a2.256,2.256,0,0,1-.477-.182h.43v-.941c.018-.094.029-.194.047-.294a13.054,13.054,0,0,0-.012-4.613c.282.889.847,2.654,1.206.412-.441-3.666.294-.853.83-2.924-.153-3.642-1.253-.636-.818-6.014.006-.583-.406-.041-.6.541.318-3.442-.094-5.419.277-8.6-.171,1.194-.388,1.812-.677.018.418.653.512-1.189.671-2.771l.418.4c.206.2.418.406.624.612A118.149,118.149,0,0,1,665.046,350.8l0,0a.006.006,0,0,1,0,0,87.512,87.512,0,0,1,6.779,17.3C675.655,382.249,675.367,396.4,673.555,408.469Z" transform="translate(-340.667 -209.19)" fill="#fff"/>
  <path id="Path_445" data-name="Path 445" d="M575.156,379.852a1.45,1.45,0,0,1-.365.524C574.968,379.987,575.068,379.869,575.156,379.852Z" transform="translate(-323.952 -233.018)" fill="#3f3d56"/>
  <path id="Path_446" data-name="Path 446" d="M549.782,385.752a.082.082,0,0,1-.047.065C549.758,385.782,549.782,385.752,549.782,385.752Z" transform="translate(-313.965 -235.369)" fill="#3f3d56"/>
  <path id="Path_447" data-name="Path 447" d="M632.332,456.357l-.43.053H631.9c-2.242.253-4.36.559-6.543.8a63.934,63.934,0,0,1-8.573.418l.088-.182c-2.413-.206-7.237-.63-7.226-1.924a36.925,36.925,0,0,0-5.19.747c-12.727-4.142-27.549-11.156-39.677-22.96-17.094-16.634-24.808-38.859-28.191-53.181a18,18,0,0,1,6.879.83c-1.265-.594.718-.73,1.03-.971a.151.151,0,0,0,.041.224,2.813,2.813,0,0,0,2.16-.718h4.843v-.4a1.2,1.2,0,0,1,.477.071c.023-.4,1.271-.294,2.665-.288-2.795.453-.9.865-2.154,1.495a10.346,10.346,0,0,0,4.5-.771c.3-.106.606-.212.93-.312.076-.024.159-.047.241-.071a.59.59,0,0,0,.194-.065c.076-.041.153-.082.229-.118a1.7,1.7,0,0,1,1.071-.124,10.314,10.314,0,0,0,1.059.465,1.454,1.454,0,0,0,.3-.229,3.11,3.11,0,0,1-.83-1.624c-.041-.224-.059-.412-.094-.565-.035-.371-.088-.606-.194-.583.359-.741.571-1.83,1.153-1.665l-.024-.159-.018-.229c-.006-.159-.018-.318-.024-.482q-.018-.494-.018-1.006c.006-.577.024-1.153.035-1.706a115.957,115.957,0,0,1,23.778,10.28,89.406,89.406,0,0,1,17.611,13.222c10.615,10.333,17.611,22.819,22.189,34.228v.006l.006.006a133.307,133.307,0,0,1,7.714,27.491Z" transform="translate(-308.723 -229.539)" fill="#3f3d56"/>
  <path id="Path_448" data-name="Path 448" d="M743.233,513.169h.029a.044.044,0,0,1-.023.006Z" transform="translate(-391.092 -286.157)" fill="#3f3d56"/>
  <path id="Path_449" data-name="Path 449" d="M796.635,362.231s-3.342,40.918-30.68,67.532c-12.239,11.915-27.214,18.947-40.018,23.072-.1-.853-2.595.153-4.048-.094-1.171.129-2.348.906-1.336,1.142-4.378-.524-10.168-.341-14.769-.565a23,23,0,0,1-5.743-.812l-1.112.088-.506.053a133.716,133.716,0,0,1,7.7-27.373c4.589-11.4,11.586-23.872,22.183-34.187a89.3,89.3,0,0,1,17.611-13.222C770.4,363.661,796.635,362.231,796.635,362.231Z" transform="translate(-373.231 -225.994)" fill="#3f3d56"/>
  <path id="Path_450" data-name="Path 450" d="M206.756,322.964s-8.2,16.391-20.861,20.116,30.547,0,30.547,0-2.235-11.921.745-13.411S206.756,322.964,206.756,322.964Z" transform="translate(-168.013 -210.342)" fill="#a0616a"/>
  <path id="Path_451" data-name="Path 451" d="M199.368,271.022c-.446-3.884,1.678-7.317,4.744-7.669.035,0,.069,0,.1-.005a4.477,4.477,0,0,0-1.157-.019c-3.066.352-5.19,3.785-4.744,7.669.441,3.84,3.229,6.676,6.255,6.4C201.974,277.021,199.756,274.41,199.368,271.022Z" transform="translate(-173.867 -186.561)" fill="#2f2e41"/>
  <path id="Path_452" data-name="Path 452" d="M200.949,279.82c-3.7-1.254-5.9-4.64-4.912-7.563.011-.033.028-.063.039-.1a4.476,4.476,0,0,0-.511,1.038c-.99,2.923,1.209,6.309,4.912,7.563,3.661,1.24,7.415-.072,8.457-2.927C207.486,280.022,204.18,280.914,200.949,279.82Z" transform="translate(-172.7 -190.093)" fill="#2f2e41"/>
  <path id="Path_453" data-name="Path 453" d="M162.076,400.019l1.1,31.557,17.136,40.233s-4.47,20.861,4.47,20.116.745-20.861.745-20.861l-8.2-42.468-1.49-35.017Z" transform="translate(-159.446 -238.489)" fill="#a0616a"/>
  <circle id="Ellipse_99" data-name="Ellipse 99" cx="16.391" cy="16.391" r="16.391" transform="translate(34.272 91.015)" fill="#a0616a"/>
  <path id="Path_454" data-name="Path 454" d="M224.726,357.091l-16.153-6.453s-3.218.493-12.159,1.238-12.91.042-12.91.042-19.127,6.663-18.382,10.388,8.941,62.584,12.666,59.6a22.36,22.36,0,0,1,5.96-3.725l40.978-3.725Z" transform="translate(-160.651 -221.373)" fill="#cfcce0"/>
  <path id="Path_455" data-name="Path 455" d="M165.153,367.562h-2.425s-2.791,1.49-2.791,5.96S157.7,391.4,157.7,391.4h11.921Z" transform="translate(-157.702 -228.119)" fill="#cfcce0"/>
  <path id="Path_456" data-name="Path 456" d="M193.092,367.988l-9-14.537a2.034,2.034,0,0,0-1.981-.948l-2.347.293a2.034,2.034,0,0,0-1.712,2.547l4.608,17.115s7.286,30.234.29,46.409l-.29,7.234s-6.705,22.352-5.215,39.488,2.235,32.037,2.235,32.037-3.725,11.176-2.235,14.9a8.713,8.713,0,0,1,.013,4.54,150.43,150.43,0,0,0-2.346,32.819l.1,3.619s-5.215,4.47-.745,5.215,18.626,2.235,18.626,2.235,2.98-5.215,1.49-5.96l4.47-24.587s7.451-10.431,6.705-17.136c0,0,2.235-11.176,0-16.391L206.5,464.1l2.98,39.488-4.47,49.173s-5.96,4.47-2.235,5.96,26.822,8.941,26.822,5.215-1.49-5.215-1.49-5.215L237.8,458.139l-5.215-41.723s-35.017-2.98-32.037-42.468c0,0,8.567-17.793,17.024-21.151a.486.486,0,0,0-.035-.924l-3.433-.981a.471.471,0,0,0-.286.005C212.323,351.4,199.405,356.063,193.092,367.988Z" transform="translate(-163.663 -221.467)" fill="#2f2e41"/>
  <path id="Path_457" data-name="Path 457" d="M229.094,695.238l-.119,1.071a49.315,49.315,0,0,1-6.515,19.326c-1.668,2.867-2.945,6.106-2.307,8.66,1.49,5.96.745,8.2.745,8.2H232.82v-2.235l6.656,1.815a7.372,7.372,0,0,0,4.52-.139,4.062,4.062,0,0,0,2.98-3.912c0-1.863-1.423-3.6-3.083-4.984a22.129,22.129,0,0,1-7.264-11.1l-.083-.306,4.47-16.391Z" transform="translate(-182.528 -358.729)" fill="#2f2e41"/>
  <path id="Path_458" data-name="Path 458" d="M177.681,695.858l-.119,1.071a49.315,49.315,0,0,1-6.515,19.326c-1.668,2.867-2.945,6.106-2.307,8.66,1.49,5.96.745,8.2.745,8.2h11.921v-2.235l6.656,1.815a7.372,7.372,0,0,0,4.52-.139,4.062,4.062,0,0,0,2.98-3.911c0-1.863-1.423-3.6-3.083-4.984a22.129,22.129,0,0,1-7.264-11.1l-.083-.306,4.471-16.391Z" transform="translate(-162.036 -358.976)" fill="#2f2e41"/>
  <path id="Path_459" data-name="Path 459" d="M226.34,301.025s11.742-6.783,16.289-7.195a7.482,7.482,0,0,0-.1-5.849s-.693-9.2-12.178-8.844c0,0-13.565-7.348-18.119-4.348s-14.694,17.4-10.411,26c0,0-4.951,2.491-5.187,1.15s-3.914,2.261.942,5.364c0,0-6.8,6.881-.19,11.188,0,0-.3-6.1,3.531-7.948s.478.093.478.093-6.562,8.222,3.239,11.423c0,0-3.657-4.165.021-7.767,0,0-1.139,8.413,5.637,9.3,0,0-3.5-5-1.656-6.8,0,0,.781,6.2,4.607,6.94l2.869.558.971-4.992s-2.729,6.377,3.65,6.754c0,0-3.084-9.666,1-15.348S226.34,301.025,226.34,301.025Z" transform="translate(-172.368 -190.854)" fill="#2f2e41"/>
  <ellipse id="Ellipse_100" data-name="Ellipse 100" cx="7.078" cy="5.588" rx="7.078" ry="5.588" transform="matrix(0.604, -0.797, 0.797, 0.604, 22.565, 88.068)" fill="#2f2e41"/>
  <path id="Path_460" data-name="Path 460" d="M216.307,277.771a8.273,8.273,0,0,0-3.716,2.811,8.427,8.427,0,0,0-1.629,3.731,8.273,8.273,0,0,0,3.716-2.811A8.428,8.428,0,0,0,216.307,277.771Z" transform="translate(-178.932 -192.329)" fill="#c12a21"/>
  <path id="Path_461" data-name="Path 461" d="M313.809,476.171l-.946-1.263,6.87-5.148a5.8,5.8,0,0,0,2.275-5.346l-3.4-27.481a11.439,11.439,0,0,1,4.482-10.536l7.488-5.611a6.7,6.7,0,0,1,9.365,1.342l1.734,2.314-1.263.946-1.734-2.314a5.117,5.117,0,0,0-7.156-1.025l-7.488,5.611a9.857,9.857,0,0,0-3.863,9.079l3.4,27.481a7.385,7.385,0,0,1-2.894,6.8Z" transform="translate(-219.549 -248.802)" fill="#cfcce0"/>
  <path id="Path_462" data-name="Path 462" d="M133.4,375.373,139,368l-1.893-2.525-8.4,3.643L92.055,394.445l6.489,8.66Z" transform="translate(-36.693 -145.675)" fill="#cfcce0"/>
  <rect id="Rectangle_127" data-name="Rectangle 127" width="17.585" height="63.463" rx="7.272" transform="translate(112.541 179.583) rotate(-36.846)" fill="#e6e6e6"/>
  <path id="Path_463" data-name="Path 463" d="M417.019,494.32l-1.014-1.353-.2-.271a4.373,4.373,0,0,1-.877,6.121l-7.074,5.3a4.373,4.373,0,0,1-6.121-.877l.2.271,1.014,1.353a4.373,4.373,0,0,0,6.121.877l7.074-5.3A4.373,4.373,0,0,0,417.019,494.32Z" transform="translate(-254.971 -277.997)" opacity="0.2"/>
  <path id="Path_464" data-name="Path 464" d="M392.187,447.271c-.062-.06-.113-.109-.115-.082C392.13,447.259,392.169,447.278,392.187,447.271Z" transform="translate(-251.121 -259.855)" fill="#7f77ff"/>
  <path id="Path_465" data-name="Path 465" d="M390.372,444.34a.163.163,0,0,0-.062-.105Z" transform="translate(-250.419 -258.68)" fill="#7f77ff"/>
  <path id="Path_466" data-name="Path 466" d="M403.7,462.861c-.065.021.06.161.143.3Z" transform="translate(-255.75 -266.105)" fill="#7f77ff"/>
  <path id="Path_467" data-name="Path 467" d="M409.47,470.267l.059.078a.545.545,0,0,0,.114.017Z" transform="translate(-258.056 -269.057)" fill="#7f77ff"/>
  <path id="Path_468" data-name="Path 468" d="M413.107,475.657a.3.3,0,0,1,.214.092.212.212,0,0,0,.071-.1C413.342,475.565,413.188,475.641,413.107,475.657Z" transform="translate(-259.505 -271.186)" fill="#7f77ff"/>
  <path id="Path_469" data-name="Path 469" d="M424.366,491.361l-.033.057a.445.445,0,0,0,.067.068Z" transform="translate(-263.98 -277.465)" fill="#7f77ff"/>
  <path id="Path_470" data-name="Path 470" d="M386.84,439l.007.015C386.922,439.087,386.886,439.044,386.84,439Z" transform="translate(-249.036 -256.595)" fill="#7f77ff"/>
  <path id="Path_471" data-name="Path 471" d="M353.773,449.627c-.114-.4.538.394.318-.179C354.072,449.532,353.559,449.178,353.773,449.627Z" transform="translate(-235.835 -260.737)" fill="#7f77ff"/>
  <path id="Path_472" data-name="Path 472" d="M378.039,427.549a.249.249,0,0,0-.006.115C378.045,427.652,378.05,427.623,378.039,427.549Z" transform="translate(-245.524 -252.029)" fill="#7f77ff"/>
  <path id="Path_473" data-name="Path 473" d="M373.268,424.236a.961.961,0,0,0-.249.224.17.17,0,0,0,.045-.016A.551.551,0,0,1,373.268,424.236Z" transform="translate(-243.527 -250.709)" fill="#7f77ff"/>
  <path id="Path_474" data-name="Path 474" d="M368.854,428.483a.655.655,0,0,0,.071-.017l.076-.08Z" transform="translate(-241.866 -252.363)" fill="#7f77ff"/>
  <path id="Path_475" data-name="Path 475" d="M394.424,464.325c-.093.113-.276.26-.358.211l.162-.291c-.012-.014-.022-.029-.033-.043l.031-.04-2.336-3.117.061,0-.107-.066-.3-.4c.038-.008.086,0,.156.073-.12-.367-.265-.206-.343-.54,0-.041.015-.035.043-.016l-.274-.241c.084.025.106-.154.208.044-.269-.6-.77-.715-.763-1.022l.044.034c-.449-.494-.338-.227-.493-.229l-.249-.333.064-.433-.2.04c-.05-.077-.148-.231-.069-.248-.305-.2-.029.094-.243.007-.131-.454-.793-.928-.619-1.183-.207-.043.167.4-.193.083.171-.3-.37-.4-.5-.814.2,0,.365.359.238-.051-.366-.03-.423-.665-.669-.906-.184.118-.517-.538-.918-.951a12.656,12.656,0,0,0-.8-1.405l.039-.009c-.239.05-.534-.414-.81-.706.115-.067.2-.041.377.1l-.226-.3a.812.812,0,0,1-.376-.279l.189-.023a7.181,7.181,0,0,1-1.056-1.269c-.1.043-.084.328-.215.36l-.2-.272a.154.154,0,0,1,.177.042c-.044-.04-.18-.125-.222-.24l.275.133c-.126-.271-.185-.052-.315-.247.1-.068-.036-.189.06-.219.045.041.083.193.174.237a1.569,1.569,0,0,1-.267-.66c-.04.059-.128.1-.256-.049-.306-.394.012-.222-.114-.492-.139-.047-.261-.354-.408-.254-.087-.118-.037-.189-.032-.263-.218-.16-.742-.953-.718-.606l.03.06-.031-.029a22.448,22.448,0,0,1-1.54-2.1l.048-.035a9.668,9.668,0,0,0-1.019-1.08c-.089-.119-.123-.345-.029-.337a2.2,2.2,0,0,1-.6-.777c.314.247-.006-.161.3.271-.258-.43-.249-.577-.7-.908.231.055-.072-.415-.25-.578l.122.345a5.116,5.116,0,0,1-.438-.592l.237-.018c-.417-.962-1.435-1.224-1.574-2.089-.274-.132.253.5-.022.407a6.7,6.7,0,0,1-.411-1.073c-.3-.581-.594-.3-.936-.888-.005.112-.109.291-.464-.071-.26-.392-.107-.641.117-.438.072.086.087.144.065.154.112.106.255.247.206.052l-.094-.006c-.081-.23-.475-.742-.29-.691-.267-.243-.185-.051-.057.181-.278-.544-.562-.755-.878-1.292.028.1.015.225-.043.146-.474-.781-.348-.239-.743-.713-.123-.345.283-.055-.162-.5-.168-.347.1-.178.24-.092a3.476,3.476,0,0,1-.734-1.172l.225.2a2.3,2.3,0,0,1-.309-.358l-.012.222c-.085-.155-.173-.273-.124-.306-.183-.088-.107.253-.424.043-.082-.23-.488-.521-.384-.7.388.625.1-.179.5.3a1.368,1.368,0,0,1-.262-.355c0-.034.046,0,.084.028-.285-.663-.365-.129-.8-.714.141.01.061-.256-.028-.337.174.236-.059.219-.285.053-.213-.423-.353-.368-.492-.569l.136.246c-.142-.011-.271-.206-.492-.446.05-.072.223.2.182.087-.366-.176-.333-.769-.736-1.1-.082-.23.147-.138.064-.331-.449-.368-.249-.576-.7-.981-.012.223.034.225-.328-.024l.665.719-.542-.375c.175.236.444.442.53.6-.272-.168-.225-.165-.236.019-.069-.451-.578-.563-.741-1.022l.293-.2c-.292-.654-.89-.884-1.363-1.664l.126.27c-.186-.013-.352-.437-.574-.637.111-.049.036-.222.02-.367-.061.065-.392-.536-.631-.46l-.118-.418c-.361-.588-.846-.565-1.317-1.261.1.025.1-.068.115-.125s.062-.072.309.181c-.224-.3-.425-.606-.443-.493a.527.527,0,0,0-.06-.105l-.042-.054c-.015-.016-.035.029-.053.044l-.254.313a1.663,1.663,0,0,1-.476.478c-.083.155-.056.3-.3.527-.042.008-.036-.046-.036-.046.011.074-.263.362-.007.3-.776.231-1.451,1.406-2.136,1.586-.353.371-.789.806-1.137,1.113,0-.046-.037-.046.037-.094-.556.333-.075.519-.715.891-.409.09.231-.327.006-.234-.327-.236-.639.6-1.167.729l.078-.092c-.371.131-.619.684-1.122,1.032,0,0,0-.046-.033-.049a5.77,5.77,0,0,1-1.255,1.325c.061-.23.171-.22-.011-.282-.2.17.209.158-.2.5-.188.031-.54.191-.677.08l.4-.291c-.328-.027-.521.371-.759.487l-.025-.1c-.607.451-.491.648-1.186,1.078l.109.014c-.252.439-.388.086-.675.469l-.238-.132a11.525,11.525,0,0,1-1.207,1.023,7.445,7.445,0,0,1,.937-.971,3.33,3.33,0,0,0-.916.69c.091-.078.189-.2.307-.23a2.836,2.836,0,0,1-1.106.931c-.043-.236-.548-.008-1.161.292l-.231.113-.118.058c-.038.02-.1.034-.049.074.094.135.185.268.265.4a1.847,1.847,0,0,1,.3.663l.385.438c.085.1.167.2.245.3.157.207.3.425.45.65.292.45.583.927.955,1.4.03-.557.219.276.469,0,.185.208.245.3.242.332l-.023-.055.023.059h0l.335.812c.035.226-.225-.165-.276-.1.346.509.03.3.2.684.055-.146.279.058.449.369l-.161-.5c.672.571.2.78.874,1.357l-.257-.15c.321.315.982,1.315,1.48,1.486.013.088,0,.232-.144.091a26.564,26.564,0,0,1,2.02,2.475l-.12-.011c.14.143.342.175.419.428-.037.012-.12-.01-.069.067a2.024,2.024,0,0,1,.558.569l-.216-.119c.528.9,1.151,1.126,1.722,1.785-.213.157.207.861.417,1.213l-.038.011a23.339,23.339,0,0,0,2.159,2.342c.186.728,1.314,1.954,1.853,2.943-.064-.165.182-.1.322.041.114.242.581.469.362.581l-.052-.077c-.072.3.3.693.548,1.033l.3-.135c.289,1.156,1.862,2.2,1.891,2.93.223.164.419.428.64.591l-.145.091a15.575,15.575,0,0,0,1.186,1.623l-.208-.075c.3.416.781.223,1.072.6l-.118.266a10.617,10.617,0,0,0,1.617,2.139c-.038.011-.113.034-.208-.076.247.341.838,1.405,1.026,1.074-.176.145.535.751.9,1.077l-.179.04a1.859,1.859,0,0,1,.859.592c.063.121-.037.175-.11.006.2.412.337.185.592.674l-.207-.1a.9.9,0,0,0,.543.443c.228.192.492.727.412.872a.671.671,0,0,1,.49.367c-.024.064-.112.006-.155-.024.372.687.845.8,1.032,1.327a.128.128,0,0,0-.026.132c-.365-.494-.654-.895-.616-.865-.124.093.152.506-.255.318a4.213,4.213,0,0,1,1.174,1.072.223.223,0,0,1,0,.083l-.044-.03a.743.743,0,0,0,.2.23,2.44,2.44,0,0,0,.2.348c-.068.122.286.5.429.7.123-.118.3.158.225-.169.014.039-.044-.025-.148-.153a.552.552,0,0,0-.077-.074l.022,0-.378-.485a.849.849,0,0,1,.455.5c.163.036.336.081.425.113.014.412.3,1.01.241,1.17.264.274.543.62.824.922a5.415,5.415,0,0,0,.429.417,1.574,1.574,0,0,0,.493.357.545.545,0,0,1,.155.268c.024.088.062.079.106.1a.582.582,0,0,1-.136.06l-.089-.1a.6.6,0,0,0-.154-.136c.119.079.2.371.432.187l.6-.243a2,2,0,0,0,.4-.2c.086-.06.141-.12.146-.181.544-.109-.215.305.474-.008l-.07.1c1.537-.231,1.985-1.449,3.619-1.845-.114.031-.17.047-.208.025,1.752-.738,3.139-2.217,4.739-3.165.447-.288.387-.443.553-.735l.206.058.261-.522c.444-.644,1.277-.623,1.739-1.544l-.177.009c.261-.238.686-.878.756-.74a.22.22,0,0,1,.12-.231l.079.054c.149-.252.286-.513.428-.768.475-.476.234.328.856-.434C394.339,464.932,394.558,464.255,394.424,464.325Zm-3.231-4.256a.155.155,0,0,1,.005.051l-.12-.16c.037.035.074.068.114.108ZM376.6,472.2l.028,0a.208.208,0,0,1-.107,0c-.118-.117-.124-.181-.11-.22.049.061.108.13.189.218Z" transform="translate(-233.875 -250.291)" fill="#c12a21"/>
  <path id="Path_476" data-name="Path 476" d="M395.452,504.811a.448.448,0,0,1,.051.047.96.96,0,0,0-.028-.1l-.077-.015Z" transform="translate(-252.446 -282.798)" fill="#7f77ff"/>
  <path id="Path_477" data-name="Path 477" d="M404.047,463.543a.128.128,0,0,1,.008.051.154.154,0,0,1,0-.031Z" transform="translate(-255.894 -266.376)" fill="#7f77ff"/>
  <path id="Path_478" data-name="Path 478" d="M416.441,479.784c-.328-.763-.017.221-.5-.466l.345.542C416.272,479.73,416.254,479.56,416.441,479.784Z" transform="translate(-260.636 -272.664)" fill="#7f77ff"/>
  <path id="Path_479" data-name="Path 479" d="M414.162,476.4c-.179-.139-.222-.172-.114.068C414.279,476.72,414.121,476.4,414.162,476.4Z" transform="translate(-259.857 -271.456)" fill="#7f77ff"/>
  <path id="Path_480" data-name="Path 480" d="M399.775,457.383l.144-.065C399.742,457.119,399.869,457.352,399.775,457.383Z" transform="translate(-254.191 -263.863)" fill="#7f77ff"/>
  <path id="Path_481" data-name="Path 481" d="M238.059,315.59l-.31-.321.223.241Z" transform="translate(-94.766 -125.665)" fill="#7f77ff"/>
  <path id="Path_482" data-name="Path 482" d="M369.449,427.6l.186.086C369.744,427.537,369.627,427.355,369.449,427.6Z" transform="translate(-242.104 -252.002)" fill="#7f77ff"/>
  <path id="Path_483" data-name="Path 483" d="M355.226,438.673a3.616,3.616,0,0,0,.526-.255A.638.638,0,0,0,355.226,438.673Z" transform="translate(-236.434 -256.362)" fill="#7f77ff"/>
  <path id="Path_484" data-name="Path 484" d="M217.624,343.108l.278.284-.1-.154Z" transform="translate(-86.744 -136.761)" fill="#7f77ff"/>
  <path id="Path_485" data-name="Path 485" d="M247.556,396.3l1.1,31.557,17.136,40.233s-4.47,20.861,4.47,20.116.745-20.861.745-20.861l-8.2-42.468-1.49-35.017Z" transform="translate(-193.518 -237.008)" fill="#a0616a"/>
  <path id="Path_486" data-name="Path 486" d="M95.409,226.281l.41-2.815,3.316,1.325,10.431,16.391L87.958,252.358Z" transform="translate(-35.06 -89.072)" fill="#cfcce0"/>
</svg>
