<svg xmlns="http://www.w3.org/2000/svg" width="52.004" height="52.004" viewBox="0 0 52.004 52.004">
  <path id="phone" d="M52.746,56C25.016,56.043,3.97,34.746,4,7.258A3.257,3.257,0,0,1,7.25,4h8.579a3.254,3.254,0,0,1,3.216,2.777,40.357,40.357,0,0,0,3.3,11.039l.334.721a2.3,2.3,0,0,1-.749,2.835,6.287,6.287,0,0,0-1.6,8.7,38.411,38.411,0,0,0,9.61,9.608,6.287,6.287,0,0,0,8.7-1.6,2.3,2.3,0,0,1,2.837-.75l.718.333a40.36,40.36,0,0,0,11.04,3.3A3.253,3.253,0,0,1,56,44.174v8.58A3.253,3.253,0,0,1,52.75,56Z" transform="translate(-4 -4)" fill="#c12a21"/>
</svg>
