<svg xmlns="http://www.w3.org/2000/svg" width="29.752" height="29.752" viewBox="0 0 29.752 29.752">
  <path id="phone" d="M31.888,33.752A27.376,27.376,0,0,1,4,5.864,1.863,1.863,0,0,1,5.86,4h4.908a1.862,1.862,0,0,1,1.84,1.589A23.088,23.088,0,0,0,14.5,11.9l.191.412a1.314,1.314,0,0,1-.429,1.622,3.6,3.6,0,0,0-.917,4.975,21.975,21.975,0,0,0,5.5,5.5,3.6,3.6,0,0,0,4.974-.917,1.316,1.316,0,0,1,1.623-.429l.411.19a23.09,23.09,0,0,0,6.316,1.889,1.861,1.861,0,0,1,1.588,1.84v4.908a1.861,1.861,0,0,1-1.862,1.859Z" transform="translate(-4 -4)" fill="#9e9e9e"/>
</svg>
