<svg xmlns="http://www.w3.org/2000/svg" width="74" height="74" viewBox="0 0 74 74">
  <g id="PLN" transform="translate(-1.5 -1.5)">
    <path id="Path_80" data-name="Path 80" d="M38.5,1.5a37,37,0,1,0,37,37,37,37,0,0,0-37-37Zm0,71.448A34.448,34.448,0,1,1,72.948,38.5,34.448,34.448,0,0,1,38.5,72.948Z" fill="#fff"/>
    <path id="Path_81" data-name="Path 81" d="M35.4,3.5a31.9,31.9,0,1,0,31.9,31.9A31.9,31.9,0,0,0,35.4,3.5Zm0,61.241A29.345,29.345,0,1,1,64.741,35.4,29.345,29.345,0,0,1,35.4,64.741Z" transform="translate(3.103 3.103)" fill="#fff"/>
    <path id="Path_82" data-name="Path 82" d="M26.2,34.466H14.037L27.278,13.457A1.276,1.276,0,0,0,26.2,11.5H11.725a1.276,1.276,0,1,0,0,2.552H23.886L10.643,35.06a1.276,1.276,0,0,0,1.079,1.957H26.2a1.276,1.276,0,1,0,0-2.552Z" transform="translate(13.881 15.517)" fill="#fff"/>
    <path id="Path_83" data-name="Path 83" d="M26.821,22.534,24.1,24.1V9.776a1.276,1.276,0,1,0-2.552,0v15.8l-3.993,2.3a1.276,1.276,0,1,0,1.276,2.21l2.718-1.569V40.4a1.276,1.276,0,0,0,2.552,0V27.051l3.993-2.3a1.28,1.28,0,0,0-1.276-2.22Z" transform="translate(23.927 10.862)" fill="#fff"/>
  </g>
</svg>
