<svg xmlns="http://www.w3.org/2000/svg" width="476.973" height="415.164" viewBox="0 0 476.973 415.164">
  <g id="quote" transform="matrix(0.966, 0.259, -0.259, 0.966, 79.677, -7.09)">
    <path id="Path_252" data-name="Path 252" d="M81.556,162.72C35.851,162.72,5,130.9,5,83.77,5,41.35,40.422,6,88.412,6c52.561,0,91.41,42.42,91.41,107.229C179.822,260.521,72.415,319.439,5,326.508V261.7c45.705-8.249,97.123-54.2,99.409-104.87A50.983,50.983,0,0,1,81.556,162.72Z" fill="#0f0f0f"/>
    <path id="Path_253" data-name="Path 253" d="M89.555,162.72C43.85,162.72,13,130.9,13,83.77,13,41.35,48.422,6,96.411,6c52.563,0,91.412,42.42,91.412,107.229,0,147.292-107.408,206.21-174.822,213.279V261.7c45.7-8.249,97.123-54.2,99.41-104.87A51,51,0,0,1,89.555,162.72Z" transform="translate(225.096)" fill="#0f0f0f"/>
  </g>
</svg>
