<svg xmlns="http://www.w3.org/2000/svg" width="85.84" height="74" viewBox="0 0 85.84 74">
  <path id="speedometer" d="M42.92,35.311a42.912,42.912,0,0,0-30.343,73.264,2.515,2.515,0,0,0,3.556,0l7.617-7.618a2.515,2.515,0,0,0,0-3.557A27.114,27.114,0,1,1,64.2,95.032C60.322,89.021,51.67,75.805,48.508,72.644A7.9,7.9,0,0,0,37.332,83.818c3.779,3.779,21.918,15.4,24.956,17.337l7.418,7.419a2.515,2.515,0,0,0,3.556,0A42.912,42.912,0,0,0,42.92,35.311ZM18.484,99.11l-4.071,4.072a37.556,37.556,0,0,1-9.3-22.436h5.76A31.877,31.877,0,0,0,18.484,99.11ZM10.871,75.716H5.111a37.554,37.554,0,0,1,9.3-22.436l4.071,4.072A31.849,31.849,0,0,0,10.871,75.716ZM40.405,46.182A31.851,31.851,0,0,0,22.04,53.795l-4.071-4.071a37.558,37.558,0,0,1,22.436-9.3Zm.484,34.08A2.872,2.872,0,1,1,44.951,76.2h0c1.8,1.8,6.274,8.287,10.324,14.386-6.1-4.05-12.583-8.521-14.387-10.325Zm4.546-34.08v-5.76a37.558,37.558,0,0,1,22.436,9.3L63.8,53.795a31.851,31.851,0,0,0-18.365-7.613ZM67.356,57.351l4.071-4.072a37.556,37.556,0,0,1,9.3,22.436h-5.76a31.85,31.85,0,0,0-7.613-18.365Zm4.071,45.831L67.356,99.11a31.878,31.878,0,0,0,7.612-18.365h5.76a37.556,37.556,0,0,1-9.3,22.436Z" transform="translate(0 -35.311)" fill="#fff"/>
</svg>
